<svg class="main-svg" xmlns="http://www.w3.org/2000/svg" xmlns:xlink="http://www.w3.org/1999/xlink" width="440" height="200" style="" viewBox="0 0 440 200"><rect x="0" y="0" width="440" height="200" style="fill: rgb(255, 255, 255); fill-opacity: 1;"/><defs id="defs-5f92e3"><g class="clips"><clipPath id="clip5f92e3xyplot" class="plotclip"><rect width="277" height="55.50000000000001"/></clipPath><clipPath id="clip5f92e3x2y2plot" class="plotclip"><rect width="277" height="92.49999999999999"/></clipPath><clipPath id="clip5f92e3xyz2plot" class="plotclip"><rect width="277" height="55.50000000000001"/></clipPath><clipPath id="clip5f92e3x2y2z2plot" class="plotclip"><rect width="277" height="92.49999999999999"/></clipPath><clipPath id="clip5f92e3xyz3plot" class="plotclip"><rect width="277" height="55.50000000000001"/></clipPath><clipPath id="clip5f92e3x2y2z3plot" class="plotclip"><rect width="277" height="92.49999999999999"/></clipPath><clipPath class="axesclip" id="clip5f92e3x"><rect x="49" y="0" width="277" height="200"/></clipPath><clipPath class="axesclip" id="clip5f92e3y"><rect x="0" y="8" width="440" height="55.50000000000001"/></clipPath><clipPath class="axesclip" id="clip5f92e3xy"><rect x="49" y="8" width="277" height="55.50000000000001"/></clipPath><clipPath class="axesclip" id="clip5f92e3y2"><rect x="0" y="63.50000000000001" width="440" height="92.49999999999999"/></clipPath><clipPath class="axesclip" id="clip5f92e3xy2"><rect x="49" y="63.50000000000001" width="277" height="92.49999999999999"/></clipPath><clipPath class="axesclip" id="clip5f92e3x2"><rect x="49" y="0" width="277" height="200"/></clipPath><clipPath class="axesclip" id="clip5f92e3x2y"><rect x="49" y="8" width="277" height="55.50000000000001"/></clipPath><clipPath class="axesclip" id="clip5f92e3x2y2"><rect x="49" y="63.50000000000001" width="277" height="92.49999999999999"/></clipPath></g><g class="gradients"/><g class="patterns"/></defs><g class="bglayer"/><g class="layer-below"><g class="imagelayer"/><g class="shapelayer"/></g><g class="cartesianlayer"><g class="subplot xy"><g class="layer-subplot"><g class="shapelayer"/><g class="imagelayer"/></g><g class="minor-gridlayer"><g class="x"/><g class="y"/></g><g class="gridlayer"><g class="x"><path class="xgrid crisp" transform="translate(104.97999999999999,0)" d="M0,8v55.50000000000001" style="stroke: rgb(255, 255, 255); stroke-opacity: 1; stroke-width: 1px;"/><path class="xgrid crisp" transform="translate(227.09,0)" d="M0,8v55.50000000000001" style="stroke: rgb(255, 255, 255); stroke-opacity: 1; stroke-width: 1px;"/><path class="xgrid crisp" transform="translate(288.15,0)" d="M0,8v55.50000000000001" style="stroke: rgb(255, 255, 255); stroke-opacity: 1; stroke-width: 1px;"/></g><g class="y"><path class="ygrid crisp" transform="translate(0,49.63)" d="M49,0h277" style="stroke: rgb(255, 255, 255); stroke-opacity: 1; stroke-width: 1px;"/><path class="ygrid crisp" transform="translate(0,35.75)" d="M49,0h277" style="stroke: rgb(255, 255, 255); stroke-opacity: 1; stroke-width: 1px;"/><path class="ygrid crisp" transform="translate(0,21.880000000000003)" d="M49,0h277" style="stroke: rgb(255, 255, 255); stroke-opacity: 1; stroke-width: 1px;"/></g></g><g class="zerolinelayer"><path class="xzl zl crisp" transform="translate(166.03,0)" d="M0,8v55.50000000000001" style="stroke: rgb(255, 255, 255); stroke-opacity: 1; stroke-width: 2px;"/><path class="yzl zl crisp" transform="translate(0,8)" d="M49,0h277" style="stroke: rgb(255, 255, 255); stroke-opacity: 1; stroke-width: 2px;"/></g><g class="layer-between"><g class="shapelayer"/><g class="imagelayer"/></g><path class="xlines-below"/><path class="ylines-below"/><g class="overlines-below"/><g class="xaxislayer-below"/><g class="yaxislayer-below"/><g class="overaxes-below"/><g class="overplot"><g class="xy" transform="translate(49,8)" clip-path="url(#clip5f92e3xyplot)"><g class="scatterlayer mlayer"><g class="trace scatter trace9897e1" style="stroke-miterlimit: 2; opacity: 1;"><g class="fills"/><g class="errorbars"/><g class="lines"><path class="js-line" d="M123.14,4.72L147.56,4.72" style="vector-effect: none; fill: none; stroke: rgb(233, 136, 0); stroke-opacity: 1; stroke-width: 10px; opacity: 1;"/><path class="js-line" d="M123.14,23.03L147.56,23.03" style="vector-effect: none; fill: none; stroke: rgb(233, 136, 0); stroke-opacity: 1; stroke-width: 10px; opacity: 1;"/></g><g class="points"><path class="point" transform="translate(123.14,4.72)" d="M5,0A5,5 0 1,1 0,-5A5,5 0 0,1 5,0Z" style="opacity: 1; stroke-width: 0px; fill: rgb(233, 136, 0); fill-opacity: 1;"/><path class="point" transform="translate(147.56,4.72)" d="M5,0A5,5 0 1,1 0,-5A5,5 0 0,1 5,0Z" style="opacity: 1; stroke-width: 0px; fill: rgb(233, 136, 0); fill-opacity: 1;"/><path class="point" transform="translate(123.14,23.03)" d="M5,0A5,5 0 1,1 0,-5A5,5 0 0,1 5,0Z" style="opacity: 1; stroke-width: 0px; fill: rgb(233, 136, 0); fill-opacity: 1;"/><path class="point" transform="translate(147.56,23.03)" d="M5,0A5,5 0 1,1 0,-5A5,5 0 0,1 5,0Z" style="opacity: 1; stroke-width: 0px; fill: rgb(233, 136, 0); fill-opacity: 1;"/></g><g class="text"/></g><g class="trace scatter trace14182b" style="stroke-miterlimit: 2; opacity: 1;"><g class="fills"/><g class="errorbars"/><g class="lines"><path class="js-line" d="M184.2,3.33L208.62,3.33" style="vector-effect: none; fill: none; stroke: rgb(120, 120, 120); stroke-opacity: 1; stroke-width: 7px; opacity: 1;"/><path class="js-line" d="M184.2,24.42L208.62,24.42" style="vector-effect: none; fill: none; stroke: rgb(120, 120, 120); stroke-opacity: 1; stroke-width: 7px; opacity: 1;"/></g><g class="points"/><g class="text"/></g><g class="trace scatter tracefa610c" style="stroke-miterlimit: 2; opacity: 1;"><g class="fills"/><g class="errorbars"/><g class="lines"><path class="js-line" d="M234.26,3.33L257.46,3.33" style="vector-effect: none; fill: none; stroke: rgb(190, 190, 190); stroke-opacity: 1; stroke-width: 7px; opacity: 1;"/><path class="js-line" d="M234.26,24.42L257.46,24.42" style="vector-effect: none; fill: none; stroke: rgb(190, 190, 190); stroke-opacity: 1; stroke-width: 7px; opacity: 1;"/></g><g class="points"/><g class="text"/></g><g class="trace scatter trace0a4e71" style="stroke-miterlimit: 2; opacity: 1;"><g class="fills"/><g class="errorbars"/><g class="lines"/><g class="points"/><g class="text"><g class="textpoint" transform="translate(0,3)"><text x="191.52" y="11.66" text-anchor="middle" style="font-family: 'Open Sans', verdana, arial, sans-serif; font-size: 12px; fill: rgb(42, 63, 95); fill-opacity: 1; white-space: pre;">Stay</text></g></g></g><g class="trace scatter trace14928b" style="stroke-miterlimit: 2; opacity: 1;"><g class="fills"/><g class="errorbars"/><g class="lines"/><g class="points"/><g class="text"><g class="textpoint" transform="translate(0,5)"><text x="191.52" y="18.04" text-anchor="middle" style="font-family: 'Open Sans', verdana, arial, sans-serif; font-size: 20px; fill: rgb(42, 63, 95); fill-opacity: 1; white-space: pre;">→</text></g></g></g><g class="trace scatter trace691eef" style="stroke-miterlimit: 2; opacity: 1;"><g class="fills"/><g class="errorbars"/><g class="lines"/><g class="points"/><g class="text"><g class="textpoint" transform="translate(0,4)"><text x="191.52" y="14.99" text-anchor="middle" style="font-family: 'Open Sans', verdana, arial, sans-serif; font-size: 16px; fill: rgb(64, 202, 114); fill-opacity: 1; font-weight: bold; white-space: pre;">        R</text></g></g></g><g class="trace scatter trace0e0707" style="stroke-miterlimit: 2; opacity: 1;"><g class="fills"/><g class="errorbars"/><g class="lines"><path class="js-line" d="M123.14,32.47L147.56,32.47" style="vector-effect: none; fill: none; stroke: rgb(188, 0, 233); stroke-opacity: 1; stroke-width: 10px; opacity: 1;"/><path class="js-line" d="M123.14,50.78L147.56,50.78" style="vector-effect: none; fill: none; stroke: rgb(188, 0, 233); stroke-opacity: 1; stroke-width: 10px; opacity: 1;"/></g><g class="points"><path class="point" transform="translate(123.14,32.47)" d="M5,0A5,5 0 1,1 0,-5A5,5 0 0,1 5,0Z" style="opacity: 1; stroke-width: 0px; fill: rgb(188, 0, 233); fill-opacity: 1;"/><path class="point" transform="translate(147.56,32.47)" d="M5,0A5,5 0 1,1 0,-5A5,5 0 0,1 5,0Z" style="opacity: 1; stroke-width: 0px; fill: rgb(188, 0, 233); fill-opacity: 1;"/><path class="point" transform="translate(123.14,50.78)" d="M5,0A5,5 0 1,1 0,-5A5,5 0 0,1 5,0Z" style="opacity: 1; stroke-width: 0px; fill: rgb(188, 0, 233); fill-opacity: 1;"/><path class="point" transform="translate(147.56,50.78)" d="M5,0A5,5 0 1,1 0,-5A5,5 0 0,1 5,0Z" style="opacity: 1; stroke-width: 0px; fill: rgb(188, 0, 233); fill-opacity: 1;"/></g><g class="text"/></g><g class="trace scatter trace2f46c8" style="stroke-miterlimit: 2; opacity: 1;"><g class="fills"/><g class="errorbars"/><g class="lines"><path class="js-line" d="M184.2,31.08L208.62,31.08" style="vector-effect: none; fill: none; stroke: rgb(120, 120, 120); stroke-opacity: 1; stroke-width: 7px; opacity: 1;"/><path class="js-line" d="M184.2,52.17L208.62,52.17" style="vector-effect: none; fill: none; stroke: rgb(120, 120, 120); stroke-opacity: 1; stroke-width: 7px; opacity: 1;"/></g><g class="points"/><g class="text"/></g><g class="trace scatter traceef70b2" style="stroke-miterlimit: 2; opacity: 1;"><g class="fills"/><g class="errorbars"/><g class="lines"><path class="js-line" d="M234.26,31.08L257.46,31.08" style="vector-effect: none; fill: none; stroke: rgb(190, 190, 190); stroke-opacity: 1; stroke-width: 7px; opacity: 1;"/><path class="js-line" d="M234.26,52.17L257.46,52.17" style="vector-effect: none; fill: none; stroke: rgb(190, 190, 190); stroke-opacity: 1; stroke-width: 7px; opacity: 1;"/></g><g class="points"/><g class="text"/></g><g class="trace scatter trace2dcaef" style="stroke-miterlimit: 2; opacity: 1;"><g class="fills"/><g class="errorbars"/><g class="lines"/><g class="points"/><g class="text"><g class="textpoint" transform="translate(0,3)"><text x="240.98" y="39.41" text-anchor="middle" style="font-family: 'Open Sans', verdana, arial, sans-serif; font-size: 12px; fill: rgb(42, 63, 95); fill-opacity: 1; white-space: pre;">Stay</text></g></g></g><g class="trace scatter traceab1fe3" style="stroke-miterlimit: 2; opacity: 1;"><g class="fills"/><g class="errorbars"/><g class="lines"/><g class="points"/><g class="text"><g class="textpoint" transform="translate(0,5)"><text x="240.98" y="45.79" text-anchor="middle" style="font-family: 'Open Sans', verdana, arial, sans-serif; font-size: 20px; fill: rgb(42, 63, 95); fill-opacity: 1; white-space: pre;">→</text></g></g></g><g class="trace scatter tracea10994" style="stroke-miterlimit: 2; opacity: 1;"><g class="fills"/><g class="errorbars"/><g class="lines"/><g class="points"/><g class="text"><g class="textpoint" transform="translate(0,4)"><text x="240.98" y="42.74" text-anchor="middle" style="font-family: 'Open Sans', verdana, arial, sans-serif; font-size: 16px; fill: rgb(64, 202, 114); fill-opacity: 1; font-weight: bold; white-space: pre;">        R</text></g></g></g><g class="trace scatter trace54c390" style="stroke-miterlimit: 2; opacity: 1;"><g class="fills"/><g class="errorbars"/><g class="lines"/><g class="points"/><g class="text"><g class="textpoint" transform="translate(0,-4.799999999999999)"><text x="13.85" y="27.2" text-anchor="start" style="font-family: 'Open Sans', verdana, arial, sans-serif; font-size: 12px; fill: rgb(42, 63, 95); fill-opacity: 1; white-space: pre;"><tspan class="line" dy="0em" x="13.85" y="27.2">50% of</tspan><tspan class="line" dy="1.3em" x="13.85" y="27.2">trials</tspan></text></g></g></g></g></g></g><path class="xlines-above crisp" d="M0,0" style="fill: none; stroke-width: 1px; stroke: rgb(0, 0, 0); stroke-opacity: 0;"/><path class="ylines-above crisp" d="M0,0" style="fill: none;"/><g class="overlines-above"/><g class="xaxislayer-above"><path class="xtick ticks crisp" d="M0,64.5v5" transform="translate(104.97999999999999,0)" style="stroke: rgb(68, 68, 68); stroke-opacity: 1; stroke-width: 1px;"/><path class="xtick ticks crisp" d="M0,64.5v5" transform="translate(166.03,0)" style="stroke: rgb(68, 68, 68); stroke-opacity: 1; stroke-width: 1px;"/><path class="xtick ticks crisp" d="M0,64.5v5" transform="translate(227.09,0)" style="stroke: rgb(68, 68, 68); stroke-opacity: 1; stroke-width: 1px;"/><path class="xtick ticks crisp" d="M0,64.5v5" transform="translate(288.15,0)" style="stroke: rgb(68, 68, 68); stroke-opacity: 1; stroke-width: 1px;"/></g><g class="yaxislayer-above"/><g class="overaxes-above"/></g><g class="subplot x2y2"><g class="layer-subplot"><g class="shapelayer"/><g class="imagelayer"/></g><g class="minor-gridlayer"><g class="x2"/><g class="y2"/></g><g class="gridlayer"><g class="x2"/><g class="y2"><path class="y2grid crisp" transform="translate(0,109.75)" d="M49,0h277" style="stroke: rgb(211, 211, 211); stroke-opacity: 1; stroke-width: 1px;"/></g></g><g class="zerolinelayer"><path class="y2zl zl crisp" transform="translate(0,156)" d="M49,0h277" style="stroke: rgb(211, 211, 211); stroke-opacity: 1; stroke-width: 2px;"/></g><g class="layer-between"><g class="shapelayer"/><g class="imagelayer"/></g><path class="xlines-below"/><path class="ylines-below"/><g class="overlines-below"/><g class="xaxislayer-below"/><g class="yaxislayer-below"/><g class="overaxes-below"/><g class="overplot"><g class="x2y2" transform="translate(49,63.50000000000001)" clip-path="url(#clip5f92e3x2y2plot)"><g class="scatterlayer mlayer"><g class="trace scatter trace9abe9b" style="stroke-miterlimit: 2; opacity: 1;"><g class="fills"/><g class="errorbars"/><g class="lines"><path class="js-line" d="M13.85,63.2L16.9,74.04L17.51,71.2L19.35,69.44L19.96,70.36L23.01,72.64L23.62,70.54L24.23,70.38L24.84,68.72L26.67,67.5L27.28,67.68L27.89,69.56L28.5,68.59L30.34,61.09L30.95,58.89L31.56,58.54L32.17,56.68L32.78,55.7L33.39,56.18L35.83,56.33L36.44,57.08L38.27,58.54L38.88,55.16L40.1,51.76L40.71,52.95L43.77,58.79L44.38,56.79L44.99,56.16L45.6,56.82L48.65,51.96L49.26,54.96L49.87,56.79L50.48,56.11L51.09,54.18L51.7,56L52.93,55.15L53.54,57.34L54.15,58.85L54.76,58.47L55.37,57.33L57.81,51.13L58.42,51.31L59.03,50.44L59.64,48.12L60.86,48.39L61.47,46.06L62.08,44.41L62.69,45.01L64.53,43.83L65.14,45.19L66.36,45.1L66.97,45.93L68.19,44.91L68.8,44.16L70.02,41.77L70.63,43.26L71.85,41.34L72.46,42.16L73.07,43.69L73.68,42.31L75.52,38.34L76.13,38.05L77.35,38.02L77.96,39.59L79.18,38.83L79.79,38.32L80.4,38.09L81.01,36.11L82.84,34.86L83.45,35.59L85.29,32.3L85.9,32.7L87.12,33.33L87.73,33.25L88.95,31.75L89.56,32.95L90.78,32.19L91.39,33.18L92.61,32.23L93.22,33.83L93.83,35.02L94.44,34.41L95.05,34.42L95.66,32.84L96.28,32.72L96.89,34.82L97.5,35.01L98.11,33.56L98.72,34.19L99.33,32.95L100.55,35.09L101.16,31.55L104.21,26.47L104.82,26.62L105.43,27.31L106.04,30.26L106.65,30.82L107.27,35.19L107.88,36.1L108.49,35.07L109.71,34.81L110.32,35.71L112.15,37.92L112.76,36.56L115.2,33.72L115.81,33.36L117.03,32.54L117.64,32.51L118.26,31.88L118.87,32.62L120.7,35.16L121.31,36.93L123.14,40.75L123.75,40.56L124.36,40.96L124.97,43.37L126.19,48.71L126.8,52.53L128.63,60.48L129.25,60.33L129.86,60.4L130.47,58.73L132.91,62.86L133.52,61.87L134.74,59.91L135.35,60.69L137.18,64.51L137.79,66.12L139.01,68.04L139.62,67.21L141.46,70.44L142.07,71.18L143.9,73.38L144.51,74.16L146.95,77.37L147.56,76.58L148.17,76.51L148.78,78.01L149.39,78.42L150,77.86L150.61,77.36L151.23,78.35L153.67,77.8L154.28,76.51L154.89,76.46L155.5,75.48L156.72,76.46L157.33,77.41L157.94,78.19L158.55,77.46L159.77,76.52L160.38,76.28L162.22,77.47L162.83,76.67L165.27,74.95L165.88,74.31L167.71,74.8L168.32,74.14L169.54,74.37L170.15,74.4L173.21,65.64L173.82,64.79L175.65,63.35L176.26,63.75L177.48,62.87L178.09,62.48L179.31,58.86L179.92,59.43L184.2,54.06L184.81,55.2L185.42,54.89L186.03,52.88L187.25,52.11L187.86,52.43L189.08,49.39L189.69,48.75L192.13,46.51L192.74,46.5L193.96,50.74L194.57,50.28L197.02,52.27L197.63,54.18L198.85,57.25L199.46,55.16L200.07,53.37L200.68,53.92L203.73,53.96L204.34,54.01L205.56,56.25L206.18,55.57L206.79,56.34L207.4,54.6L208.01,53.6L208.62,54.02L209.23,54.19L211.06,55.26L211.67,56.32L212.89,56.07L213.5,54.92L215.33,54.62L215.94,55.19L217.17,57.57L217.78,57.06L218.39,56.94L219,56.04L222.05,52.23L222.66,51.66L223.88,51L224.49,50.93L225.71,51.03L226.32,50.42L227.54,50.63L228.16,51.96L231.82,46.91L232.43,47.72L235.48,51.57L236.09,51.55L237.31,51.83L237.92,52.65L239.15,52.02L239.76,50.81L241.59,47.37L242.2,47.04L244.03,45.01L244.64,45.5L247.69,47.16L248.3,46.03L248.91,44.93L249.52,45.59L250.75,47.85L251.36,49.68L252.58,51.58L253.19,51.93L255.63,53.1L256.24,52.01L257.46,50L258.07,49.96L259.29,49.29L259.9,49.86L260.51,50.14L261.13,49.4L261.74,49.57L262.35,50.65L264.18,49.73L264.79,51.05L266.01,50.35L266.62,50.66L267.84,51.43L268.45,51.47L269.67,49.89L270.28,50.52L272.73,51.58L273.34,51.85L275.78,61.87L276.39,59.94L277,44.13" style="vector-effect: none; fill: none; stroke: rgb(233, 136, 0); stroke-opacity: 1; stroke-width: 2px; opacity: 1;"/></g><g class="points"/><g class="text"/></g><g class="trace scatter trace19d91c" style="stroke-miterlimit: 2; opacity: 1;"><g class="fills"><g><path class="js-fill" d="M13.85,53.18L15.07,58.11L15.68,58.22L16.9,58.26L17.51,54.14L19.96,49.66L20.57,47.6L21.79,47.16L22.4,46.46L23.62,44.02L24.23,45.06L25.45,45.9L26.06,46.66L27.89,49.06L28.5,49L29.72,48.54L30.34,47.71L32.78,43.33L33.39,43.03L39.49,33.72L40.1,33.78L41.33,32.46L41.94,31.38L43.16,32.49L43.77,34.85L44.38,36.06L44.99,35.6L48.65,30.07L49.26,29.15L50.48,27.02L51.09,26.64L51.7,25.17L52.32,25.52L52.93,25.76L54.15,25.22L54.76,26.29L57.81,24.25L58.42,24.92L60.25,26.74L60.86,27.66L62.08,28.23L62.69,27.41L63.92,28.16L64.53,28.56L65.75,28.74L66.36,28.47L69.41,26.68L70.02,25.38L71.85,23.63L72.46,22.8L74.3,21.43L74.91,19.88L75.52,19.07L76.13,19.59L76.74,20.16L77.35,19.27L78.57,18.27L79.18,19.16L80.4,20.94L81.01,21.95L82.84,20.26L83.45,20.79L85.9,23.98L86.51,22.86L88.95,22.4L89.56,22.08L90.78,18.43L91.39,19.04L92,19.04L92.61,17.97L93.83,17.36L94.44,18.17L95.05,19.61L95.66,19.24L96.28,19.09L96.89,19.03L97.5,17.96L99.33,18.26L99.94,17.39L101.16,17.12L101.77,15.21L102.38,14.14L102.99,15L105.43,20.91L106.04,19.97L106.65,19.38L107.27,19.93L107.88,20.16L108.49,18.73L109.71,19.67L110.32,21.06L112.15,24.63L112.76,23.35L114.59,22.29L115.2,22.1L116.42,22.12L117.03,20.21L117.64,17.77L118.26,18.67L118.87,19.49L119.48,18.95L120.09,18.55L120.7,19.17L122.53,22.28L123.14,23.38L127.41,34.49L128.02,36.5L129.86,39.4L130.47,41.42L136.57,54.49L137.18,55.8L142.68,59.69L143.29,58.51L145.73,55.78L146.34,55.59L147.56,57.84L148.17,59.12L150,60.54L150.61,60.33L152.45,59.6L153.06,61.92L153.67,64.24L154.28,63.14L155.5,60.42L156.11,61.48L157.33,63.8L157.94,63.39L159.16,65.49L159.77,64.79L160.99,63.46L161.6,62.35L162.83,60.17L163.44,59.67L167.1,54.13L167.71,54.98L168.93,53.48L169.54,51.97L170.76,51.24L171.37,50.8L173.82,45.75L174.43,45.82L176.26,41.95L176.87,40.38L178.09,36.14L178.7,36.04L182.97,27.76L183.58,28.61L185.42,25.4L186.03,25.96L187.86,24.14L188.47,24.79L189.69,25.98L190.3,28.38L192.13,29.38L192.74,30.22L194.57,30.57L195.19,30.16L196.41,28.5L197.02,29.28L198.24,30.96L198.85,30.66L200.07,30.68L200.68,31.15L202.51,31.24L203.12,31.71L204.95,29.37L205.56,29.24L206.79,29.11L207.4,30.74L208.62,34.83L209.23,34.44L209.84,34.81L210.45,32.73L211.67,33.49L212.28,34.8L215.33,35.94L215.94,35.3L217.78,32.11L218.39,31.84L219,31.82L219.61,32.82L220.83,36.39L221.44,36.3L222.66,35.38L223.27,35.67L225.71,36.96L226.32,36.25L228.16,31.81L228.77,31.28L229.99,30.77L230.6,31.39L231.82,30.34L232.43,28.5L236.09,21.38L236.7,21.27L237.92,21.32L238.53,21.93L240.37,22.31L240.98,21.79L242.81,19.53L243.42,19.66L245.25,18.55L245.86,22.06L248.91,26.22L249.52,26.39L250.75,26.32L251.36,24.64L252.58,22.56L253.19,22.89L253.8,23.7L254.41,26.05L255.63,28.84L256.24,26.18L257.46,26.68L258.07,26.67L259.9,28.88L260.51,29.4L261.74,31.25L262.35,31.77L264.18,31.56L264.79,31.93L266.01,30.81L266.62,31.1L267.84,29.99L268.45,29.06L269.67,29.27L270.28,31.25L273.95,31.72L274.56,37.03L275.78,46.27L276.39,44.11L277,44.13L277,44.13L276.39,68.87L275.78,72.53L275.17,70.11L273.34,63.12L272.73,64.28L270.89,69.18L270.28,68.83L269.67,69.28L268.45,66.75L267.84,64.54L267.23,64.23L266.62,64.87L264.79,68.9L264.18,68.55L263.57,67.32L261.74,63.59L261.13,63.36L258.07,60.18L257.46,61.45L256.24,61.36L255.63,60.82L252.58,59.28L251.97,60L248.91,63.48L248.3,61.78L246.47,57.98L245.86,57.31L243.42,54.77L242.81,54.56L241.59,54.69L240.98,56.54L239.76,57.97L239.15,59.42L238.53,59.99L237.92,59.45L236.09,61.93L235.48,62.87L234.26,62.36L233.65,62.65L228.77,73.96L228.16,73.81L226.93,73.6L226.32,73.17L225.1,72.37L224.49,73.76L222.66,72.44L222.05,73.61L219.61,76.19L219,75.71L218.39,75.3L217.78,76.77L217.17,77.96L216.55,76.47L215.33,72.63L214.72,74.37L213.5,75.55L212.89,74.95L211.06,74.52L210.45,74.84L209.84,75.64L209.23,74.96L208.62,73.93L208.01,75.02L206.18,78.38L205.56,77.46L204.95,75.24L204.34,75.98L203.12,78.15L202.51,77.19L200.07,71.58L199.46,70.51L198.24,71.46L197.63,71.77L196.41,71.63L195.8,71.23L194.57,70.86L193.96,72.65L190.91,75.58L190.3,76.79L189.08,77.45L188.47,76.42L186.64,73.47L186.03,74.32L184.2,78.59L183.58,77.67L181.75,74.99L181.14,76.38L178.09,80.26L177.48,79.46L176.87,79.49L176.26,81.66L175.04,83.68L174.43,83.9L172.59,85.96L171.98,85.57L168.93,83.8L168.32,83.83L167.1,84.16L166.49,84.78L164.66,84.78L164.05,84.11L162.83,84.89L162.22,86.58L161.6,87.41L160.99,86.49L159.77,87.12L159.16,86.53L157.94,86.2L157.33,85.72L156.11,84.95L155.5,85.32L152.45,84.07L151.84,84.96L151.23,85.3L150.61,84.61L149.39,84.6L148.78,84.91L146.95,84.29L146.34,84.53L145.12,84.09L144.51,84.13L142.68,81.81L142.07,82.5L140.85,83.65L140.24,82.03L137.18,74.19L136.57,75.05L135.35,78.25L134.74,78.07L133.52,78.23L132.91,77.73L132.3,77.75L131.69,76.9L130.47,76.47L129.86,77.34L129.25,77.61L128.63,76.6L126.19,67.32L125.58,67.63L124.97,68.22L121.31,56.18L120.7,55.66L117.64,52.08L117.03,51.77L115.81,51.76L115.2,51.07L113.37,53.34L112.76,53.32L111.54,53.85L110.93,53.59L109.1,53.33L108.49,54.63L107.27,58.68L106.65,58.93L105.43,58.21L104.82,58.23L102.38,62.4L101.77,63.09L99.94,64.44L99.33,63.75L97.5,63.02L96.89,63.44L92.61,68.14L92,69.17L87.12,75.16L86.51,75.07L83.45,74.19L82.84,73.19L81.01,69.65L80.4,70.3L79.18,74.82L78.57,73.02L76.13,66.18L75.52,66.95L73.07,70.02L72.46,69.9L70.63,69.45L70.02,70.69L68.8,71.8L68.19,71.6L67.58,71.35L66.97,70.08L65.75,66.55L65.14,67.21L60.25,78.56L59.64,78.47L57.81,78.67L57.2,78.33L56.59,78.36L55.98,77.26L54.76,76.33L54.15,77.8L52.93,79.53L52.32,80.06L50.48,82.86L49.87,82.12L46.82,74.78L46.21,75.57L41.33,82.92L40.71,83.09L38.27,81.58L37.66,82.02L34.61,82.59L34,83.68L32.78,84.91L32.17,84.63L29.72,83.98L29.11,83.87L27.89,84.18L27.28,83.9L25.45,84.43L24.84,85.24L23.62,86L23.01,85.12L22.4,84.83L21.79,85.56L20.57,87.23L19.96,86.88L18.73,85.72L18.12,86.28L16.9,86.58L16.29,83.99L13.85,71.96Z" style="fill: rgb(233, 136, 0); fill-opacity: 0.3; stroke-width: 0;"/></g></g><g class="errorbars"/><g class="lines"><path class="js-line" d="M13.85,53.18L15.07,58.11L15.68,58.22L16.9,58.26L17.51,54.14L19.96,49.66L20.57,47.6L21.79,47.16L22.4,46.46L23.62,44.02L24.23,45.06L25.45,45.9L26.06,46.66L27.89,49.06L28.5,49L29.72,48.54L30.34,47.71L32.78,43.33L33.39,43.03L39.49,33.72L40.1,33.78L41.33,32.46L41.94,31.38L43.16,32.49L43.77,34.85L44.38,36.06L44.99,35.6L48.65,30.07L49.26,29.15L50.48,27.02L51.09,26.64L51.7,25.17L52.32,25.52L52.93,25.76L54.15,25.22L54.76,26.29L57.81,24.25L58.42,24.92L60.25,26.74L60.86,27.66L62.08,28.23L62.69,27.41L63.92,28.16L64.53,28.56L65.75,28.74L66.36,28.47L69.41,26.68L70.02,25.38L71.85,23.63L72.46,22.8L74.3,21.43L74.91,19.88L75.52,19.07L76.13,19.59L76.74,20.16L77.35,19.27L78.57,18.27L79.18,19.16L80.4,20.94L81.01,21.95L82.84,20.26L83.45,20.79L85.9,23.98L86.51,22.86L88.95,22.4L89.56,22.08L90.78,18.43L91.39,19.04L92,19.04L92.61,17.97L93.83,17.36L94.44,18.17L95.05,19.61L95.66,19.24L96.28,19.09L96.89,19.03L97.5,17.96L99.33,18.26L99.94,17.39L101.16,17.12L101.77,15.21L102.38,14.14L102.99,15L105.43,20.91L106.04,19.97L106.65,19.38L107.27,19.93L107.88,20.16L108.49,18.73L109.71,19.67L110.32,21.06L112.15,24.63L112.76,23.35L114.59,22.29L115.2,22.1L116.42,22.12L117.03,20.21L117.64,17.77L118.26,18.67L118.87,19.49L119.48,18.95L120.09,18.55L120.7,19.17L122.53,22.28L123.14,23.38L127.41,34.49L128.02,36.5L129.86,39.4L130.47,41.42L136.57,54.49L137.18,55.8L142.68,59.69L143.29,58.51L145.73,55.78L146.34,55.59L147.56,57.84L148.17,59.12L150,60.54L150.61,60.33L152.45,59.6L153.06,61.92L153.67,64.24L154.28,63.14L155.5,60.42L156.11,61.48L157.33,63.8L157.94,63.39L159.16,65.49L159.77,64.79L160.99,63.46L161.6,62.35L162.83,60.17L163.44,59.67L167.1,54.13L167.71,54.98L168.93,53.48L169.54,51.97L170.76,51.24L171.37,50.8L173.82,45.75L174.43,45.82L176.26,41.95L176.87,40.38L178.09,36.14L178.7,36.04L182.97,27.76L183.58,28.61L185.42,25.4L186.03,25.96L187.86,24.14L188.47,24.79L189.69,25.98L190.3,28.38L192.13,29.38L192.74,30.22L194.57,30.57L195.19,30.16L196.41,28.5L197.02,29.28L198.24,30.96L198.85,30.66L200.07,30.68L200.68,31.15L202.51,31.24L203.12,31.71L204.95,29.37L205.56,29.24L206.79,29.11L207.4,30.74L208.62,34.83L209.23,34.44L209.84,34.81L210.45,32.73L211.67,33.49L212.28,34.8L215.33,35.94L215.94,35.3L217.78,32.11L218.39,31.84L219,31.82L219.61,32.82L220.83,36.39L221.44,36.3L222.66,35.38L223.27,35.67L225.71,36.96L226.32,36.25L228.16,31.81L228.77,31.28L229.99,30.77L230.6,31.39L231.82,30.34L232.43,28.5L236.09,21.38L236.7,21.27L237.92,21.32L238.53,21.93L240.37,22.31L240.98,21.79L242.81,19.53L243.42,19.66L245.25,18.55L245.86,22.06L248.91,26.22L249.52,26.39L250.75,26.32L251.36,24.64L252.58,22.56L253.19,22.89L253.8,23.7L254.41,26.05L255.63,28.84L256.24,26.18L257.46,26.68L258.07,26.67L259.9,28.88L260.51,29.4L261.74,31.25L262.35,31.77L264.18,31.56L264.79,31.93L266.01,30.81L266.62,31.1L267.84,29.99L268.45,29.06L269.67,29.27L270.28,31.25L273.95,31.72L274.56,37.03L275.78,46.27L276.39,44.11L277,44.13L277,44.13L276.39,68.87L275.78,72.53L275.17,70.11L273.34,63.12L272.73,64.28L270.89,69.18L270.28,68.83L269.67,69.28L268.45,66.75L267.84,64.54L267.23,64.23L266.62,64.87L264.79,68.9L264.18,68.55L263.57,67.32L261.74,63.59L261.13,63.36L258.07,60.18L257.46,61.45L256.24,61.36L255.63,60.82L252.58,59.28L251.97,60L248.91,63.48L248.3,61.78L246.47,57.98L245.86,57.31L243.42,54.77L242.81,54.56L241.59,54.69L240.98,56.54L239.76,57.97L239.15,59.42L238.53,59.99L237.92,59.45L236.09,61.93L235.48,62.87L234.26,62.36L233.65,62.65L228.77,73.96L228.16,73.81L226.93,73.6L226.32,73.17L225.1,72.37L224.49,73.76L222.66,72.44L222.05,73.61L219.61,76.19L219,75.71L218.39,75.3L217.78,76.77L217.17,77.96L216.55,76.47L215.33,72.63L214.72,74.37L213.5,75.55L212.89,74.95L211.06,74.52L210.45,74.84L209.84,75.64L209.23,74.96L208.62,73.93L208.01,75.02L206.18,78.38L205.56,77.46L204.95,75.24L204.34,75.98L203.12,78.15L202.51,77.19L200.07,71.58L199.46,70.51L198.24,71.46L197.63,71.77L196.41,71.63L195.8,71.23L194.57,70.86L193.96,72.65L190.91,75.58L190.3,76.79L189.08,77.45L188.47,76.42L186.64,73.47L186.03,74.32L184.2,78.59L183.58,77.67L181.75,74.99L181.14,76.38L178.09,80.26L177.48,79.46L176.87,79.49L176.26,81.66L175.04,83.68L174.43,83.9L172.59,85.96L171.98,85.57L168.93,83.8L168.32,83.83L167.1,84.16L166.49,84.78L164.66,84.78L164.05,84.11L162.83,84.89L162.22,86.58L161.6,87.41L160.99,86.49L159.77,87.12L159.16,86.53L157.94,86.2L157.33,85.72L156.11,84.95L155.5,85.32L152.45,84.07L151.84,84.96L151.23,85.3L150.61,84.61L149.39,84.6L148.78,84.91L146.95,84.29L146.34,84.53L145.12,84.09L144.51,84.13L142.68,81.81L142.07,82.5L140.85,83.65L140.24,82.03L137.18,74.19L136.57,75.05L135.35,78.25L134.74,78.07L133.52,78.23L132.91,77.73L132.3,77.75L131.69,76.9L130.47,76.47L129.86,77.34L129.25,77.61L128.63,76.6L126.19,67.32L125.58,67.63L124.97,68.22L121.31,56.18L120.7,55.66L117.64,52.08L117.03,51.77L115.81,51.76L115.2,51.07L113.37,53.34L112.76,53.32L111.54,53.85L110.93,53.59L109.1,53.33L108.49,54.63L107.27,58.68L106.65,58.93L105.43,58.21L104.82,58.23L102.38,62.4L101.77,63.09L99.94,64.44L99.33,63.75L97.5,63.02L96.89,63.44L92.61,68.14L92,69.17L87.12,75.16L86.51,75.07L83.45,74.19L82.84,73.19L81.01,69.65L80.4,70.3L79.18,74.82L78.57,73.02L76.13,66.18L75.52,66.95L73.07,70.02L72.46,69.9L70.63,69.45L70.02,70.69L68.8,71.8L68.19,71.6L67.58,71.35L66.97,70.08L65.75,66.55L65.14,67.21L60.25,78.56L59.64,78.47L57.81,78.67L57.2,78.33L56.59,78.36L55.98,77.26L54.76,76.33L54.15,77.8L52.93,79.53L52.32,80.06L50.48,82.86L49.87,82.12L46.82,74.78L46.21,75.57L41.33,82.92L40.71,83.09L38.27,81.58L37.66,82.02L34.61,82.59L34,83.68L32.78,84.91L32.17,84.63L29.72,83.98L29.11,83.87L27.89,84.18L27.28,83.9L25.45,84.43L24.84,85.24L23.62,86L23.01,85.12L22.4,84.83L21.79,85.56L20.57,87.23L19.96,86.88L18.73,85.72L18.12,86.28L16.9,86.58L16.29,83.99L13.85,71.96" style="vector-effect: none; fill: none; stroke: rgb(0, 0, 0); stroke-opacity: 0; stroke-width: 2px; opacity: 1;"/></g><g class="points"/><g class="text"/></g><g class="trace scatter trace8ca2c9" style="stroke-miterlimit: 2; opacity: 1;"><g class="fills"/><g class="errorbars"/><g class="lines"><path class="js-line" d="M13.85,70L16.9,84.26L17.51,82.25L20.57,71.45L21.18,72.31L23.01,73.87L23.62,73.43L26.06,71.65L26.67,70.37L29.72,63.17L30.34,63.28L31.56,62.27L32.17,62.46L33.39,63.17L34,62.68L35.83,60.72L36.44,60.31L37.66,58.15L38.27,56.27L41.33,46.43L41.94,45.1L43.77,42.06L44.38,42.01L46.21,42.42L46.82,41.69L47.43,40.93L48.04,41.4L49.26,41.24L49.87,42.22L51.7,44L52.32,44.12L53.54,44.09L54.15,43.63L55.37,43.22L55.98,44.16L57.81,46.42L58.42,46.29L59.03,46.09L59.64,44.62L62.08,45.08L62.69,44.04L63.92,41.81L64.53,41.88L65.14,42.13L65.75,43.3L67.58,44.76L68.19,44.52L69.41,43.44L70.02,44.24L70.63,43.89L71.24,45.51L73.07,47.89L73.68,48.18L76.13,46.13L76.74,46.59L77.96,47.7L78.57,46.4L79.79,44.37L80.4,44.24L85.9,45.1L86.51,43.59L89.56,40.01L90.17,40.19L91.39,40.93L92,40.37L94.44,37.84L95.05,36.75L99.33,33.81L99.94,33.06L101.77,34.83L102.38,34.59L103.6,34.99L104.21,36.08L108.49,39.31L109.1,40.7L110.93,40.8L111.54,40.28L113.98,40.72L114.59,41.44L115.81,43.37L116.42,45.54L118.26,50.85L118.87,51.72L120.09,51.96L120.7,54.14L123.75,62.74L124.36,63.14L127.41,66.01L128.02,66.15L129.25,65.91L129.86,64.98L131.69,62.98L132.3,63.19L134.74,64.23L135.35,64.43L137.18,63.97L137.79,63.99L140.85,61.86L141.46,62.33L142.68,64.3L143.29,66.02L145.73,68.88L146.34,68.87L148.78,69.77L149.39,71.05L150,72.45L150.61,72.12L151.23,70.34L152.45,68.13L153.06,68.45L156.11,70.45L156.72,68.68L157.94,65.81L158.55,67.39L160.38,73.01L160.99,74.47L161.6,74.91L162.22,74.43L163.44,74.12L164.05,74.35L165.88,72.87L166.49,73.71L168.32,75.69L168.93,75.7L171.37,74.68L171.98,73.56L173.82,70.79L174.43,69.69L175.65,66.84L176.26,64.57L178.09,61.08L178.7,60.07L182.97,55.02L183.58,55.23L184.81,53.02L185.42,51.31L187.86,48.95L188.47,49.63L190.91,50.36L191.52,50.04L193.35,49.71L193.96,50.23L195.8,49.18L196.41,49.54L200.68,53.91L201.29,53.72L203.12,55.47L203.73,55.12L206.79,59.18L207.4,59.5L209.84,62.77L210.45,62.15L212.28,61.8L212.89,60.56L213.5,60.24L214.11,61.17L214.72,62.3L215.33,60.61L217.78,57.85L218.39,58.08L219.61,54.7L220.22,52.1L225.71,39.49L226.32,40.03L226.93,40.53L227.54,42.37L228.77,42.42L229.38,42.84L233.04,40.2L233.65,39.18L236.09,36.99L236.7,38.62L237.92,39.57L238.53,41.33L240.37,42.75L240.98,43.39L242.2,42.81L242.81,41.98L244.03,42.8L244.64,41.57L246.47,41.09L247.08,41.87L248.3,41.43L248.91,40.49L250.14,39.58L250.75,40.66L251.97,42.07L252.58,42.32L254.41,46.35L255.02,48.17L256.24,48.74L256.85,47.53L258.07,45.93L258.68,45.9L259.29,44.98L259.9,45.78L261.13,46.69L261.74,46.56L263.57,46.93L264.18,48.13L265.4,48.96L266.01,47.95L268.45,44.94L269.06,44.99L270.28,45.93L270.89,45.32L272.12,45.55L272.73,46.88L275.17,57.4L275.78,60.5L276.39,59.88" style="vector-effect: none; fill: none; stroke: rgb(188, 0, 233); stroke-opacity: 1; stroke-width: 2px; opacity: 1;"/></g><g class="points"/><g class="text"/></g><g class="trace scatter tracea2e420" style="stroke-miterlimit: 2; opacity: 1;"><g class="fills"><g><path class="js-fill" d="M13.85,55.83L16.9,64.18L17.51,61.14L18.73,64.41L19.35,67.48L19.96,67.66L20.57,66.64L21.79,62.94L22.4,60.26L24.23,55.64L24.84,55.07L27.89,51.92L28.5,51.91L29.72,50.04L30.34,49.02L32.78,42.45L33.39,41.87L34,42.17L34.61,41.53L37.66,34.04L38.27,32.6L40.1,29.28L40.71,28.78L42.55,28.64L43.16,29.1L44.99,33.08L45.6,32.78L47.43,29.5L48.04,30.24L49.26,34.54L49.87,33.37L51.09,31.84L51.7,32.25L54.15,36.59L54.76,36.73L56.59,32.97L57.2,34.7L57.81,35.64L58.42,34.96L60.25,33.3L60.86,31.26L61.47,29.41L62.08,30.52L63.31,33.69L63.92,33.99L64.53,33.26L65.14,31.31L67.58,25.89L68.19,26.29L70.02,27.27L70.63,27.81L71.85,26.89L72.46,27.77L73.68,29.43L74.3,28.28L76.13,24.56L76.74,24.51L80.4,23.25L81.01,24.05L82.23,24.26L82.84,23.62L84.67,23.83L85.29,25.19L85.9,25.29L86.51,24.62L87.73,25.36L88.34,24.5L90.17,26.26L90.78,26.86L92,29.07L92.61,28.69L93.83,29.83L94.44,28.91L96.89,24.54L97.5,23.59L99.94,20.42L100.55,20.11L101.77,20.37L102.38,19.94L103.6,19.47L104.21,19.96L106.04,28.81L106.65,28.62L107.27,28.67L109.1,28.14L109.71,28.6L110.32,29.47L110.93,28.52L114.59,29.58L115.2,31.24L117.03,39.74L117.64,39.19L118.87,39.59L119.48,40.94L120.7,42.76L121.31,42.07L123.14,40.79L123.75,42.31L124.97,43.87L125.58,43.71L126.8,43.53L127.41,44.06L129.25,46.15L129.86,45.65L131.08,46L131.69,45.5L134.13,45.99L134.74,45.3L136.57,43.84L137.18,43.57L138.4,43.32L139.01,42.64L140.24,42.41L140.85,43.34L143.29,45.88L143.9,45.71L145.73,45.35L146.34,46.42L149.39,45.04L150,45.54L151.84,50.07L152.45,50.13L154.28,50.14L154.89,50.59L156.72,54.22L157.33,57.96L157.94,60.85L158.55,59.74L162.22,49.86L162.83,49.16L164.05,50.88L164.66,54.82L165.88,62.13L166.49,62.39L167.1,62.22L167.71,60.64L169.54,53.58L170.15,53.63L171.98,52.26L172.59,54.3L173.21,55.42L173.82,54.61L174.43,54.45L175.04,53.42L175.65,54.77L176.26,54.45L176.87,53L178.7,51.99L179.31,52.26L181.14,49.82L181.75,47.46L187.25,33.32L187.86,32.5L189.08,31.96L189.69,31.48L192.13,31.11L192.74,30.47L194.57,28.23L195.19,28.91L195.8,29.24L196.41,31.96L197.63,34.98L198.24,35.3L200.07,36.06L200.68,35.65L201.9,37.49L202.51,39.59L203.73,43.89L204.34,43.74L205.56,43.8L206.18,43.26L207.4,41.22L208.01,39.8L211.67,35.53L212.28,34.64L217.17,26.8L217.78,26.83L219,28.54L219.61,30.29L223.27,30.13L223.88,29.9L225.1,34.79L225.71,34.39L226.32,33.92L228.16,33.77L228.77,34.57L229.99,35.2L230.6,33.71L233.04,34.52L233.65,33.35L236.09,28.16L236.7,27.89L237.92,27.34L238.53,27.55L239.76,27.37L240.37,26.17L242.2,23.74L242.81,23.11L245.25,21.6L245.86,21.86L248.3,31.22L248.91,31.02L251.97,31.41L252.58,30.08L253.19,29.48L253.8,31.01L255.63,29.13L256.24,29.57L257.46,30.09L258.07,30.65L258.68,30.27L259.29,31.05L261.74,31.03L262.35,29.71L263.57,28.61L264.18,28.69L266.01,28.72L266.62,29.57L269.06,34.08L269.67,33.99L270.89,35.6L271.5,35.75L272.73,39.4L273.34,41.38L273.95,41.57L274.56,46.84L275.78,52.78L276.39,51.75L276.39,66.28L275.78,63.2L275.17,62.81L274.56,63.07L273.95,60.02L270.89,60.88L270.28,62.7L269.06,63.7L268.45,63.08L266.62,61.5L266.01,64.49L261.74,75.95L261.13,75.97L259.29,74.28L258.68,74.3L257.46,74.19L256.85,73.4L254.41,70.31L253.8,70.26L251.36,77.66L250.75,79.27L249.52,77.97L248.91,76.33L245.86,62.02L245.25,57.55L243.42,51.21L242.81,49.62L240.98,50.3L240.37,49.09L238.53,47.3L237.92,48.58L237.31,49.15L236.7,47.82L235.48,47.1L234.87,47.46L231.82,51.97L231.21,51.14L229.99,54.72L229.38,54.93L228.77,53.76L228.16,54.39L223.88,63.28L223.27,65.78L221.44,70.44L220.83,70.98L219,70.62L218.39,69.9L217.78,68.47L217.17,69.78L212.28,71.24L211.67,73.61L210.45,77.33L209.84,77.46L208.62,76.91L208.01,75.82L206.79,72.82L206.18,70.83L203.12,65.92L202.51,63.58L201.9,60.87L201.29,61.27L200.68,62.44L198.24,63.98L197.63,63.6L195.19,63.06L194.57,62.93L191.52,64.42L190.91,65.18L189.08,67.18L188.47,66.52L187.25,66.03L186.64,66.39L184.81,68.97L184.2,69.59L182.97,69.45L182.36,69.49L179.31,77.9L178.7,77.66L176.26,73.99L175.65,76.57L173.82,82.02L173.21,82.27L171.37,81.24L170.76,80.51L169.54,83.15L168.93,81.99L168.32,80.62L167.71,81.92L165.88,86.1L165.27,85.76L162.83,85.08L162.22,83.78L161.6,81.57L160.99,82.3L157.94,85.28L157.33,85.72L156.11,85.23L155.5,85.35L154.28,85.99L153.67,84.93L153.06,83.71L152.45,84.03L151.84,83.17L148.78,78.74L148.17,80.99L146.34,83.88L145.73,83.05L144.51,82.73L143.9,83.11L142.07,81.15L141.46,80.15L139.01,77.17L138.4,78.49L137.79,79.17L137.18,77.33L136.57,76.19L135.96,77.6L134.74,78.33L134.13,77.77L132.91,78.39L132.3,77.89L130.47,75.77L129.86,77.24L126.19,73.79L125.58,72.85L123.75,69.69L123.14,67.68L122.53,64.55L121.92,64.9L121.31,64.8L119.48,59.19L118.87,56.76L115.81,46.64L115.2,47.43L113.98,50.14L113.37,48.21L112.15,46.38L111.54,47.39L109.1,51.85L108.49,53.04L104.21,58.21L103.6,59.39L100.55,67.49L99.94,69.03L96.89,76.37L96.28,75.41L95.05,74.96L94.44,75.35L93.22,76.88L92.61,76.05L90.17,70.09L89.56,69.82L88.34,70.22L87.73,69.37L86.51,67.6L85.9,69.49L84.06,74.47L83.45,75.04L82.23,75.78L81.62,76.94L79.79,79.88L79.18,80.09L77.35,81.2L76.74,82.22L75.52,79.32L74.91,76.95L70.02,60.16L69.41,60.71L66.97,64.1L66.36,64.89L62.69,67.39L62.08,68.27L60.25,70.92L59.64,72.09L57.81,76.43L57.2,76.97L55.37,79.99L54.76,81.56L53.54,84.2L52.93,84.04L49.26,84.21L48.65,83.57L46.21,79.09L45.6,78.49L44.38,78.68L43.77,78.97L42.55,79.69L41.94,80.13L38.88,85.3L38.27,84.89L36.44,83.78L35.83,84L35.22,83.83L34.61,82.37L33.39,80.78L32.78,80.45L29.11,83.7L28.5,82.88L27.28,84.06L26.67,84.48L24.84,84.7L24.23,83.65L23.62,82.62L23.01,83.02L22.4,84.32L20.57,84.91L19.96,84.43L18.73,84.99L18.12,84.05L17.51,83.91L16.9,86.96L15.07,79.69L14.46,76.65L13.85,73.88Z" style="fill: rgb(188, 0, 233); fill-opacity: 0.3; stroke-width: 0;"/></g></g><g class="errorbars"/><g class="lines"><path class="js-line" d="M13.85,55.83L16.9,64.18L17.51,61.14L18.73,64.41L19.35,67.48L19.96,67.66L20.57,66.64L21.79,62.94L22.4,60.26L24.23,55.64L24.84,55.07L27.89,51.92L28.5,51.91L29.72,50.04L30.34,49.02L32.78,42.45L33.39,41.87L34,42.17L34.61,41.53L37.66,34.04L38.27,32.6L40.1,29.28L40.71,28.78L42.55,28.64L43.16,29.1L44.99,33.08L45.6,32.78L47.43,29.5L48.04,30.24L49.26,34.54L49.87,33.37L51.09,31.84L51.7,32.25L54.15,36.59L54.76,36.73L56.59,32.97L57.2,34.7L57.81,35.64L58.42,34.96L60.25,33.3L60.86,31.26L61.47,29.41L62.08,30.52L63.31,33.69L63.92,33.99L64.53,33.26L65.14,31.31L67.58,25.89L68.19,26.29L70.02,27.27L70.63,27.81L71.85,26.89L72.46,27.77L73.68,29.43L74.3,28.28L76.13,24.56L76.74,24.51L80.4,23.25L81.01,24.05L82.23,24.26L82.84,23.62L84.67,23.83L85.29,25.19L85.9,25.29L86.51,24.62L87.73,25.36L88.34,24.5L90.17,26.26L90.78,26.86L92,29.07L92.61,28.69L93.83,29.83L94.44,28.91L96.89,24.54L97.5,23.59L99.94,20.42L100.55,20.11L101.77,20.37L102.38,19.94L103.6,19.47L104.21,19.96L106.04,28.81L106.65,28.62L107.27,28.67L109.1,28.14L109.71,28.6L110.32,29.47L110.93,28.52L114.59,29.58L115.2,31.24L117.03,39.74L117.64,39.19L118.87,39.59L119.48,40.94L120.7,42.76L121.31,42.07L123.14,40.79L123.75,42.31L124.97,43.87L125.58,43.71L126.8,43.53L127.41,44.06L129.25,46.15L129.86,45.65L131.08,46L131.69,45.5L134.13,45.99L134.74,45.3L136.57,43.84L137.18,43.57L138.4,43.32L139.01,42.64L140.24,42.41L140.85,43.34L143.29,45.88L143.9,45.71L145.73,45.35L146.34,46.42L149.39,45.04L150,45.54L151.84,50.07L152.45,50.13L154.28,50.14L154.89,50.59L156.72,54.22L157.33,57.96L157.94,60.85L158.55,59.74L162.22,49.86L162.83,49.16L164.05,50.88L164.66,54.82L165.88,62.13L166.49,62.39L167.1,62.22L167.71,60.64L169.54,53.58L170.15,53.63L171.98,52.26L172.59,54.3L173.21,55.42L173.82,54.61L174.43,54.45L175.04,53.42L175.65,54.77L176.26,54.45L176.87,53L178.7,51.99L179.31,52.26L181.14,49.82L181.75,47.46L187.25,33.32L187.86,32.5L189.08,31.96L189.69,31.48L192.13,31.11L192.74,30.47L194.57,28.23L195.19,28.91L195.8,29.24L196.41,31.96L197.63,34.98L198.24,35.3L200.07,36.06L200.68,35.65L201.9,37.49L202.51,39.59L203.73,43.89L204.34,43.74L205.56,43.8L206.18,43.26L207.4,41.22L208.01,39.8L211.67,35.53L212.28,34.64L217.17,26.8L217.78,26.83L219,28.54L219.61,30.29L223.27,30.13L223.88,29.9L225.1,34.79L225.71,34.39L226.32,33.92L228.16,33.77L228.77,34.57L229.99,35.2L230.6,33.71L233.04,34.52L233.65,33.35L236.09,28.16L236.7,27.89L237.92,27.34L238.53,27.55L239.76,27.37L240.37,26.17L242.2,23.74L242.81,23.11L245.25,21.6L245.86,21.86L248.3,31.22L248.91,31.02L251.97,31.41L252.58,30.08L253.19,29.48L253.8,31.01L255.63,29.13L256.24,29.57L257.46,30.09L258.07,30.65L258.68,30.27L259.29,31.05L261.74,31.03L262.35,29.71L263.57,28.61L264.18,28.69L266.01,28.72L266.62,29.57L269.06,34.08L269.67,33.99L270.89,35.6L271.5,35.75L272.73,39.4L273.34,41.38L273.95,41.57L274.56,46.84L275.78,52.78L276.39,51.75L276.39,66.28L275.78,63.2L275.17,62.81L274.56,63.07L273.95,60.02L270.89,60.88L270.28,62.7L269.06,63.7L268.45,63.08L266.62,61.5L266.01,64.49L261.74,75.95L261.13,75.97L259.29,74.28L258.68,74.3L257.46,74.19L256.85,73.4L254.41,70.31L253.8,70.26L251.36,77.66L250.75,79.27L249.52,77.97L248.91,76.33L245.86,62.02L245.25,57.55L243.42,51.21L242.81,49.62L240.98,50.3L240.37,49.09L238.53,47.3L237.92,48.58L237.31,49.15L236.7,47.82L235.48,47.1L234.87,47.46L231.82,51.97L231.21,51.14L229.99,54.72L229.38,54.93L228.77,53.76L228.16,54.39L223.88,63.28L223.27,65.78L221.44,70.44L220.83,70.98L219,70.62L218.39,69.9L217.78,68.47L217.17,69.78L212.28,71.24L211.67,73.61L210.45,77.33L209.84,77.46L208.62,76.91L208.01,75.82L206.79,72.82L206.18,70.83L203.12,65.92L202.51,63.58L201.9,60.87L201.29,61.27L200.68,62.44L198.24,63.98L197.63,63.6L195.19,63.06L194.57,62.93L191.52,64.42L190.91,65.18L189.08,67.18L188.47,66.52L187.25,66.03L186.64,66.39L184.81,68.97L184.2,69.59L182.97,69.45L182.36,69.49L179.31,77.9L178.7,77.66L176.26,73.99L175.65,76.57L173.82,82.02L173.21,82.27L171.37,81.24L170.76,80.51L169.54,83.15L168.93,81.99L168.32,80.62L167.71,81.92L165.88,86.1L165.27,85.76L162.83,85.08L162.22,83.78L161.6,81.57L160.99,82.3L157.94,85.28L157.33,85.72L156.11,85.23L155.5,85.35L154.28,85.99L153.67,84.93L153.06,83.71L152.45,84.03L151.84,83.17L148.78,78.74L148.17,80.99L146.34,83.88L145.73,83.05L144.51,82.73L143.9,83.11L142.07,81.15L141.46,80.15L139.01,77.17L138.4,78.49L137.79,79.17L137.18,77.33L136.57,76.19L135.96,77.6L134.74,78.33L134.13,77.77L132.91,78.39L132.3,77.89L130.47,75.77L129.86,77.24L126.19,73.79L125.58,72.85L123.75,69.69L123.14,67.68L122.53,64.55L121.92,64.9L121.31,64.8L119.48,59.19L118.87,56.76L115.81,46.64L115.2,47.43L113.98,50.14L113.37,48.21L112.15,46.38L111.54,47.39L109.1,51.85L108.49,53.04L104.21,58.21L103.6,59.39L100.55,67.49L99.94,69.03L96.89,76.37L96.28,75.41L95.05,74.96L94.44,75.35L93.22,76.88L92.61,76.05L90.17,70.09L89.56,69.82L88.34,70.22L87.73,69.37L86.51,67.6L85.9,69.49L84.06,74.47L83.45,75.04L82.23,75.78L81.62,76.94L79.79,79.88L79.18,80.09L77.35,81.2L76.74,82.22L75.52,79.32L74.91,76.95L70.02,60.16L69.41,60.71L66.97,64.1L66.36,64.89L62.69,67.39L62.08,68.27L60.25,70.92L59.64,72.09L57.81,76.43L57.2,76.97L55.37,79.99L54.76,81.56L53.54,84.2L52.93,84.04L49.26,84.21L48.65,83.57L46.21,79.09L45.6,78.49L44.38,78.68L43.77,78.97L42.55,79.69L41.94,80.13L38.88,85.3L38.27,84.89L36.44,83.78L35.83,84L35.22,83.83L34.61,82.37L33.39,80.78L32.78,80.45L29.11,83.7L28.5,82.88L27.28,84.06L26.67,84.48L24.84,84.7L24.23,83.65L23.62,82.62L23.01,83.02L22.4,84.32L20.57,84.91L19.96,84.43L18.73,84.99L18.12,84.05L17.51,83.91L16.9,86.96L15.07,79.69L14.46,76.65L13.85,73.88" style="vector-effect: none; fill: none; stroke: rgb(0, 0, 0); stroke-opacity: 0; stroke-width: 2px; opacity: 1;"/></g><g class="points"/><g class="text"/></g></g></g></g><path class="xlines-above crisp" d="M0,0" style="fill: none;"/><path class="ylines-above crisp" d="M0,0" style="fill: none;"/><g class="overlines-above"/><g class="xaxislayer-above"><g class="x2tick"><text text-anchor="middle" x="0" y="169" transform="translate(104.97999999999999,0)" style="font-family: 'Open Sans', verdana, arial, sans-serif; font-size: 12px; fill: rgb(42, 63, 95); fill-opacity: 1; white-space: pre; opacity: 1;">−100</text></g><g class="x2tick"><text text-anchor="middle" x="0" y="169" style="font-family: 'Open Sans', verdana, arial, sans-serif; font-size: 12px; fill: rgb(42, 63, 95); fill-opacity: 1; white-space: pre; opacity: 1;" transform="translate(166.03,0)">0</text></g><g class="x2tick"><text text-anchor="middle" x="0" y="169" style="font-family: 'Open Sans', verdana, arial, sans-serif; font-size: 12px; fill: rgb(42, 63, 95); fill-opacity: 1; white-space: pre; opacity: 1;" transform="translate(227.09,0)">100</text></g><g class="x2tick"><text text-anchor="middle" x="0" y="169" style="font-family: 'Open Sans', verdana, arial, sans-serif; font-size: 12px; fill: rgb(42, 63, 95); fill-opacity: 1; white-space: pre; opacity: 1;" transform="translate(288.15,0)">200</text></g></g><g class="yaxislayer-above"><g class="y2tick"><text text-anchor="end" x="48" y="4.199999999999999" transform="translate(0,156)" style="font-family: 'Open Sans', verdana, arial, sans-serif; font-size: 12px; fill: rgb(42, 63, 95); fill-opacity: 1; white-space: pre; opacity: 1;">0</text></g><g class="y2tick"><text text-anchor="end" x="48" y="4.199999999999999" style="font-family: 'Open Sans', verdana, arial, sans-serif; font-size: 12px; fill: rgb(42, 63, 95); fill-opacity: 1; white-space: pre; opacity: 1;" transform="translate(0,109.75)">50</text></g><g class="y2tick"><text text-anchor="end" x="48" y="4.199999999999999" style="font-family: 'Open Sans', verdana, arial, sans-serif; font-size: 12px; fill: rgb(42, 63, 95); fill-opacity: 1; white-space: pre; opacity: 1;" transform="translate(0,63.50000000000001)">100</text></g></g><g class="overaxes-above"/></g><g class="subplot xyz2"><g class="overplot"><g class="xyz2" transform="translate(49,8)" clip-path="url(#clip5f92e3xyz2plot)"><g class="scatterlayer2 mlayer"><g class="trace scatter trace265b8b" style="stroke-miterlimit: 2; opacity: 1;"><g class="fills"/><g class="errorbars"/><g class="lines"><path class="js-line" d="M13.85,0L277,0" style="vector-effect: none; fill: none; stroke: rgb(0, 0, 0); stroke-opacity: 1; stroke-width: 1px; opacity: 1;"/><path class="js-line" d="M13.85,27.75L277,27.75" style="vector-effect: none; fill: none; stroke: rgb(0, 0, 0); stroke-opacity: 1; stroke-width: 1px; opacity: 1;"/><path class="js-line" d="M13.85,55.5L277,55.5" style="vector-effect: none; fill: none; stroke: rgb(0, 0, 0); stroke-opacity: 1; stroke-width: 1px; opacity: 1;"/></g><g class="points"/><g class="text"/></g></g></g></g></g><g class="subplot x2y2z2"><g class="overplot"><g class="x2y2z2" transform="translate(49,63.50000000000001)" clip-path="url(#clip5f92e3x2y2z2plot)"/></g></g><g class="subplot xyz3"><g class="overplot"><g class="xyz3" transform="translate(49,8)" clip-path="url(#clip5f92e3xyz3plot)"><g class="scatterlayer3 mlayer"><g class="trace scatter trace13ce3b" style="stroke-miterlimit: 2; opacity: 1;"><g class="fills"/><g class="errorbars"/><g class="lines"/><g class="points"/><g class="text"><g class="textpoint" transform="translate(0,3)"><text x="135.35" y="27.75" text-anchor="middle" style="font-family: 'Open Sans', verdana, arial, sans-serif; font-size: 12px; fill: rgb(255, 255, 255); fill-opacity: 1; font-weight: bold; white-space: pre;">Cue</text></g></g></g></g></g></g></g><g class="subplot x2y2z3"><g class="overplot"><g class="x2y2z3" transform="translate(49,63.50000000000001)" clip-path="url(#clip5f92e3x2y2z3plot)"/></g></g></g><g class="polarlayer"/><g class="smithlayer"/><g class="ternarylayer"/><g class="geolayer"/><g class="funnelarealayer"/><g class="pielayer"/><g class="iciclelayer"/><g class="treemaplayer"/><g class="sunburstlayer"/><g class="glimages"/><defs id="topdefs-5f92e3"><g class="clips"/><clipPath id="legend5f92e3"><rect width="108" height="86" x="0" y="0"/></clipPath></defs><g class="layer-above"><g class="imagelayer"/><g class="shapelayer"/></g><g class="infolayer"><g class="legend" pointer-events="all" transform="translate(331.54,8)"><rect class="bg" shape-rendering="crispEdges" style="stroke: rgb(68, 68, 68); stroke-opacity: 1; fill: rgb(255, 255, 255); fill-opacity: 1; stroke-width: 0px;" width="108" height="86" x="0" y="0"/><g class="scrollbox" transform="" clip-path="url(#legend5f92e3)"><g class="groups"><g class="traces" transform="translate(0,14.5)" style="opacity: 1;"><text class="legendtext" text-anchor="start" x="40" y="4.680000000000001" style="font-family: 'Open Sans', verdana, arial, sans-serif; font-size: 12px; fill: rgb(42, 63, 95); fill-opacity: 1; white-space: pre;">Early R</text><g class="layers" style="opacity: 1;"><g class="legendfill"/><g class="legendlines"><path class="js-line" d="M5,0h30" style="fill: none; stroke: rgb(233, 136, 0); stroke-opacity: 1; stroke-width: 2px;"/></g><g class="legendsymbols"><g class="legendpoints"/></g></g><rect class="legendtoggle" x="0" y="-9.5" width="102.171875" height="19" style="fill: rgb(0, 0, 0); fill-opacity: 0;"/></g><g class="traces" transform="translate(0,33.5)" style="opacity: 1;"><text class="legendtext" text-anchor="start" x="40" y="4.680000000000001" style="font-family: 'Open Sans', verdana, arial, sans-serif; font-size: 12px; fill: rgb(42, 63, 95); fill-opacity: 1; white-space: pre;">80th perc.</text><g class="layers" style="opacity: 1;"><g class="legendfill"><path class="js-fill" d="M5,-2h30v6h-30z" style="stroke-width: 0; fill: rgb(233, 136, 0); fill-opacity: 0.3;"/></g><g class="legendlines"><path class="js-line" d="M5,-2h30" style="fill: none; stroke: rgb(0, 0, 0); stroke-opacity: 0; stroke-width: 2px;"/></g><g class="legendsymbols"><g class="legendpoints"/></g></g><rect class="legendtoggle" x="0" y="-9.5" width="102.171875" height="19" style="fill: rgb(0, 0, 0); fill-opacity: 0;"/></g><g class="traces" transform="translate(0,52.5)" style="opacity: 1;"><text class="legendtext" text-anchor="start" x="40" y="4.680000000000001" style="font-family: 'Open Sans', verdana, arial, sans-serif; font-size: 12px; fill: rgb(42, 63, 95); fill-opacity: 1; white-space: pre;">Late R</text><g class="layers" style="opacity: 1;"><g class="legendfill"/><g class="legendlines"><path class="js-line" d="M5,0h30" style="fill: none; stroke: rgb(188, 0, 233); stroke-opacity: 1; stroke-width: 2px;"/></g><g class="legendsymbols"><g class="legendpoints"/></g></g><rect class="legendtoggle" x="0" y="-9.5" width="102.171875" height="19" style="fill: rgb(0, 0, 0); fill-opacity: 0;"/></g><g class="traces" transform="translate(0,71.5)" style="opacity: 1;"><text class="legendtext" text-anchor="start" x="40" y="4.680000000000001" style="font-family: 'Open Sans', verdana, arial, sans-serif; font-size: 12px; fill: rgb(42, 63, 95); fill-opacity: 1; white-space: pre;">80th perc.</text><g class="layers" style="opacity: 1;"><g class="legendfill"><path class="js-fill" d="M5,-2h30v6h-30z" style="stroke-width: 0; fill: rgb(188, 0, 233); fill-opacity: 0.3;"/></g><g class="legendlines"><path class="js-line" d="M5,-2h30" style="fill: none; stroke: rgb(0, 0, 0); stroke-opacity: 0; stroke-width: 2px;"/></g><g class="legendsymbols"><g class="legendpoints"/></g></g><rect class="legendtoggle" x="0" y="-9.5" width="102.171875" height="19" style="fill: rgb(0, 0, 0); fill-opacity: 0;"/></g></g></g><rect class="scrollbar" rx="20" ry="3" width="0" height="0" style="fill: rgb(128, 139, 164); fill-opacity: 1;" x="0" y="0"/></g><g class="g-gtitle"/><g class="g-xtitle"/><g class="g-x2title"><text class="x2title" x="187.5" y="196.3" text-anchor="middle" style="opacity: 1; font-family: 'Open Sans', verdana, arial, sans-serif; font-size: 14px; fill: rgb(42, 63, 95); fill-opacity: 1; white-space: pre;">Position [cm]</text></g><g class="g-ytitle"/><g class="g-y2title" transform="translate(8.291015625,0)"><text class="y2title" transform="rotate(-90,5.709375000000001,109.75)" x="5.709375000000001" y="109.75" text-anchor="middle" style="opacity: 1; font-family: 'Open Sans', verdana, arial, sans-serif; font-size: 14px; fill: rgb(42, 63, 95); fill-opacity: 1; white-space: pre;">Velocity [cm/s]</text></g></g></svg>