<svg class="main-svg" xmlns="http://www.w3.org/2000/svg" xmlns:xlink="http://www.w3.org/1999/xlink" width="440" height="200" style="" viewBox="0 0 440 200"><rect x="0" y="0" width="440" height="200" style="fill: rgb(255, 255, 255); fill-opacity: 1;"/><defs id="defs-42a313"><g class="clips"><clipPath id="clip42a313xyplot" class="plotclip"><rect width="277" height="57.900000000000006"/></clipPath><clipPath id="clip42a313x2y2plot" class="plotclip"><rect width="277" height="96.49999999999999"/></clipPath><clipPath id="clip42a313xyz2plot" class="plotclip"><rect width="277" height="57.900000000000006"/></clipPath><clipPath id="clip42a313x2y2z2plot" class="plotclip"><rect width="277" height="96.49999999999999"/></clipPath><clipPath id="clip42a313xyz3plot" class="plotclip"><rect width="277" height="57.900000000000006"/></clipPath><clipPath id="clip42a313x2y2z3plot" class="plotclip"><rect width="277" height="96.49999999999999"/></clipPath><clipPath class="axesclip" id="clip42a313x"><rect x="49" y="0" width="277" height="200"/></clipPath><clipPath class="axesclip" id="clip42a313y"><rect x="0" y="0" width="440" height="57.900000000000006"/></clipPath><clipPath class="axesclip" id="clip42a313xy"><rect x="49" y="0" width="277" height="57.900000000000006"/></clipPath><clipPath class="axesclip" id="clip42a313y2"><rect x="0" y="57.900000000000006" width="440" height="96.49999999999999"/></clipPath><clipPath class="axesclip" id="clip42a313xy2"><rect x="49" y="57.900000000000006" width="277" height="96.49999999999999"/></clipPath><clipPath class="axesclip" id="clip42a313x2"><rect x="49" y="0" width="277" height="200"/></clipPath><clipPath class="axesclip" id="clip42a313x2y"><rect x="49" y="0" width="277" height="57.900000000000006"/></clipPath><clipPath class="axesclip" id="clip42a313x2y2"><rect x="49" y="57.900000000000006" width="277" height="96.49999999999999"/></clipPath></g><g class="gradients"/><g class="patterns"/></defs><g class="bglayer"/><g class="layer-below"><g class="imagelayer"/><g class="shapelayer"/></g><g class="cartesianlayer"><g class="subplot xy"><g class="layer-subplot"><g class="shapelayer"/><g class="imagelayer"/></g><g class="minor-gridlayer"><g class="x"/><g class="y"/></g><g class="gridlayer"><g class="x"><path class="xgrid crisp" transform="translate(105.08,0)" d="M0,0v57.900000000000006" style="stroke: rgb(255, 255, 255); stroke-opacity: 1; stroke-width: 1px;"/><path class="xgrid crisp" transform="translate(227.47,0)" d="M0,0v57.900000000000006" style="stroke: rgb(255, 255, 255); stroke-opacity: 1; stroke-width: 1px;"/><path class="xgrid crisp" transform="translate(288.66999999999996,0)" d="M0,0v57.900000000000006" style="stroke: rgb(255, 255, 255); stroke-opacity: 1; stroke-width: 1px;"/></g><g class="y"><path class="ygrid crisp" transform="translate(0,43.43)" d="M49,0h277" style="stroke: rgb(255, 255, 255); stroke-opacity: 1; stroke-width: 1px;"/><path class="ygrid crisp" transform="translate(0,28.95)" d="M49,0h277" style="stroke: rgb(255, 255, 255); stroke-opacity: 1; stroke-width: 1px;"/><path class="ygrid crisp" transform="translate(0,14.48)" d="M49,0h277" style="stroke: rgb(255, 255, 255); stroke-opacity: 1; stroke-width: 1px;"/></g></g><g class="zerolinelayer"><path class="xzl zl crisp" transform="translate(166.26999999999998,0)" d="M0,0v57.900000000000006" style="stroke: rgb(255, 255, 255); stroke-opacity: 1; stroke-width: 2px;"/><path class="yzl zl crisp" transform="" d="M49,0h277" style="stroke: rgb(255, 255, 255); stroke-opacity: 1; stroke-width: 2px;"/></g><g class="layer-between"><g class="shapelayer"/><g class="imagelayer"/></g><path class="xlines-below"/><path class="ylines-below"/><g class="overlines-below"/><g class="xaxislayer-below"/><g class="yaxislayer-below"/><g class="overaxes-below"/><g class="overplot"><g class="xy" transform="translate(49,0)" clip-path="url(#clip42a313xyplot)"><g class="scatterlayer mlayer"><g class="trace scatter trace555c8e" style="stroke-miterlimit: 2; opacity: 1;"><g class="fills"/><g class="errorbars"/><g class="lines"><path class="js-line" d="M123.39,4.92L147.87,4.92" style="vector-effect: none; fill: none; stroke: rgb(233, 136, 0); stroke-opacity: 1; stroke-width: 10px; opacity: 1;"/><path class="js-line" d="M123.39,24.03L147.87,24.03" style="vector-effect: none; fill: none; stroke: rgb(233, 136, 0); stroke-opacity: 1; stroke-width: 10px; opacity: 1;"/></g><g class="points"><path class="point" transform="translate(123.39,4.92)" d="M5,0A5,5 0 1,1 0,-5A5,5 0 0,1 5,0Z" style="opacity: 1; stroke-width: 0px; fill: rgb(233, 136, 0); fill-opacity: 1;"/><path class="point" transform="translate(147.87,4.92)" d="M5,0A5,5 0 1,1 0,-5A5,5 0 0,1 5,0Z" style="opacity: 1; stroke-width: 0px; fill: rgb(233, 136, 0); fill-opacity: 1;"/><path class="point" transform="translate(123.39,24.03)" d="M5,0A5,5 0 1,1 0,-5A5,5 0 0,1 5,0Z" style="opacity: 1; stroke-width: 0px; fill: rgb(233, 136, 0); fill-opacity: 1;"/><path class="point" transform="translate(147.87,24.03)" d="M5,0A5,5 0 1,1 0,-5A5,5 0 0,1 5,0Z" style="opacity: 1; stroke-width: 0px; fill: rgb(233, 136, 0); fill-opacity: 1;"/></g><g class="text"/></g><g class="trace scatter trace4156fa" style="stroke-miterlimit: 2; opacity: 1;"><g class="fills"/><g class="errorbars"/><g class="lines"><path class="js-line" d="M184.59,3.47L209.07,3.47" style="vector-effect: none; fill: none; stroke: rgb(120, 120, 120); stroke-opacity: 1; stroke-width: 7px; opacity: 1;"/><path class="js-line" d="M184.59,25.48L209.07,25.48" style="vector-effect: none; fill: none; stroke: rgb(120, 120, 120); stroke-opacity: 1; stroke-width: 7px; opacity: 1;"/></g><g class="points"/><g class="text"/></g><g class="trace scatter trace2ffbb8" style="stroke-miterlimit: 2; opacity: 1;"><g class="fills"/><g class="errorbars"/><g class="lines"><path class="js-line" d="M234.77,3.47L258.03,3.47" style="vector-effect: none; fill: none; stroke: rgb(190, 190, 190); stroke-opacity: 1; stroke-width: 7px; opacity: 1;"/><path class="js-line" d="M234.77,25.48L258.03,25.48" style="vector-effect: none; fill: none; stroke: rgb(190, 190, 190); stroke-opacity: 1; stroke-width: 7px; opacity: 1;"/></g><g class="points"/><g class="text"/></g><g class="trace scatter trace4bb487" style="stroke-miterlimit: 2; opacity: 1;"><g class="fills"/><g class="errorbars"/><g class="lines"/><g class="points"/><g class="text"><g class="textpoint" transform="translate(0,3)"><text x="191.94" y="12.16" text-anchor="middle" style="font-family: 'Open Sans', verdana, arial, sans-serif; font-size: 12px; fill: rgb(42, 63, 95); fill-opacity: 1; white-space: pre;">Stay</text></g></g></g><g class="trace scatter tracef1d6f0" style="stroke-miterlimit: 2; opacity: 1;"><g class="fills"/><g class="errorbars"/><g class="lines"/><g class="points"/><g class="text"><g class="textpoint" transform="translate(0,5)"><text x="191.94" y="18.82" text-anchor="middle" style="font-family: 'Open Sans', verdana, arial, sans-serif; font-size: 20px; fill: rgb(42, 63, 95); fill-opacity: 1; white-space: pre;">→</text></g></g></g><g class="trace scatter trace6b8e35" style="stroke-miterlimit: 2; opacity: 1;"><g class="fills"/><g class="errorbars"/><g class="lines"/><g class="points"/><g class="text"><g class="textpoint" transform="translate(0,4)"><text x="191.94" y="15.63" text-anchor="middle" style="font-family: 'Open Sans', verdana, arial, sans-serif; font-size: 16px; fill: rgb(64, 202, 114); fill-opacity: 1; font-weight: bold; white-space: pre;">        R</text></g></g></g><g class="trace scatter trace63487f" style="stroke-miterlimit: 2; opacity: 1;"><g class="fills"/><g class="errorbars"/><g class="lines"><path class="js-line" d="M123.39,33.87L147.87,33.87" style="vector-effect: none; fill: none; stroke: rgb(188, 0, 233); stroke-opacity: 1; stroke-width: 10px; opacity: 1;"/><path class="js-line" d="M123.39,52.98L147.87,52.98" style="vector-effect: none; fill: none; stroke: rgb(188, 0, 233); stroke-opacity: 1; stroke-width: 10px; opacity: 1;"/></g><g class="points"><path class="point" transform="translate(123.39,33.87)" d="M5,0A5,5 0 1,1 0,-5A5,5 0 0,1 5,0Z" style="opacity: 1; stroke-width: 0px; fill: rgb(188, 0, 233); fill-opacity: 1;"/><path class="point" transform="translate(147.87,33.87)" d="M5,0A5,5 0 1,1 0,-5A5,5 0 0,1 5,0Z" style="opacity: 1; stroke-width: 0px; fill: rgb(188, 0, 233); fill-opacity: 1;"/><path class="point" transform="translate(123.39,52.98)" d="M5,0A5,5 0 1,1 0,-5A5,5 0 0,1 5,0Z" style="opacity: 1; stroke-width: 0px; fill: rgb(188, 0, 233); fill-opacity: 1;"/><path class="point" transform="translate(147.87,52.98)" d="M5,0A5,5 0 1,1 0,-5A5,5 0 0,1 5,0Z" style="opacity: 1; stroke-width: 0px; fill: rgb(188, 0, 233); fill-opacity: 1;"/></g><g class="text"/></g><g class="trace scatter trace8bbc58" style="stroke-miterlimit: 2; opacity: 1;"><g class="fills"/><g class="errorbars"/><g class="lines"><path class="js-line" d="M184.59,32.42L209.07,32.42" style="vector-effect: none; fill: none; stroke: rgb(120, 120, 120); stroke-opacity: 1; stroke-width: 7px; opacity: 1;"/><path class="js-line" d="M184.59,54.43L209.07,54.43" style="vector-effect: none; fill: none; stroke: rgb(120, 120, 120); stroke-opacity: 1; stroke-width: 7px; opacity: 1;"/></g><g class="points"/><g class="text"/></g><g class="trace scatter trace242c73" style="stroke-miterlimit: 2; opacity: 1;"><g class="fills"/><g class="errorbars"/><g class="lines"><path class="js-line" d="M234.77,32.42L258.03,32.42" style="vector-effect: none; fill: none; stroke: rgb(190, 190, 190); stroke-opacity: 1; stroke-width: 7px; opacity: 1;"/><path class="js-line" d="M234.77,54.43L258.03,54.43" style="vector-effect: none; fill: none; stroke: rgb(190, 190, 190); stroke-opacity: 1; stroke-width: 7px; opacity: 1;"/></g><g class="points"/><g class="text"/></g><g class="trace scatter trace265b80" style="stroke-miterlimit: 2; opacity: 1;"><g class="fills"/><g class="errorbars"/><g class="lines"/><g class="points"/><g class="text"><g class="textpoint" transform="translate(0,3)"><text x="241.51" y="41.11" text-anchor="middle" style="font-family: 'Open Sans', verdana, arial, sans-serif; font-size: 12px; fill: rgb(42, 63, 95); fill-opacity: 1; white-space: pre;">Stay</text></g></g></g><g class="trace scatter trace1380a6" style="stroke-miterlimit: 2; opacity: 1;"><g class="fills"/><g class="errorbars"/><g class="lines"/><g class="points"/><g class="text"><g class="textpoint" transform="translate(0,5)"><text x="241.51" y="47.77" text-anchor="middle" style="font-family: 'Open Sans', verdana, arial, sans-serif; font-size: 20px; fill: rgb(42, 63, 95); fill-opacity: 1; white-space: pre;">→</text></g></g></g><g class="trace scatter trace5250cf" style="stroke-miterlimit: 2; opacity: 1;"><g class="fills"/><g class="errorbars"/><g class="lines"/><g class="points"/><g class="text"><g class="textpoint" transform="translate(0,4)"><text x="241.51" y="44.58" text-anchor="middle" style="font-family: 'Open Sans', verdana, arial, sans-serif; font-size: 16px; fill: rgb(64, 202, 114); fill-opacity: 1; font-weight: bold; white-space: pre;">        R</text></g></g></g><g class="trace scatter trace8db112" style="stroke-miterlimit: 2; opacity: 1;"><g class="fills"/><g class="errorbars"/><g class="lines"/><g class="points"/><g class="text"><g class="textpoint" transform="translate(0,-4.799999999999999)"><text x="13.85" y="28.37" text-anchor="start" style="font-family: 'Open Sans', verdana, arial, sans-serif; font-size: 12px; fill: rgb(42, 63, 95); fill-opacity: 1; white-space: pre;"><tspan class="line" dy="0em" x="13.85" y="28.37">50% of</tspan><tspan class="line" dy="1.3em" x="13.85" y="28.37">trials</tspan></text></g></g></g></g></g></g><path class="xlines-above crisp" d="M0,0" style="fill: none; stroke-width: 1px; stroke: rgb(0, 0, 0); stroke-opacity: 0;"/><path class="ylines-above crisp" d="M0,0" style="fill: none;"/><g class="overlines-above"/><g class="xaxislayer-above"><path class="xtick ticks crisp" d="M0,58.900000000000006v5" transform="translate(105.08,0)" style="stroke: rgb(68, 68, 68); stroke-opacity: 1; stroke-width: 1px;"/><path class="xtick ticks crisp" d="M0,58.900000000000006v5" transform="translate(166.26999999999998,0)" style="stroke: rgb(68, 68, 68); stroke-opacity: 1; stroke-width: 1px;"/><path class="xtick ticks crisp" d="M0,58.900000000000006v5" transform="translate(227.47,0)" style="stroke: rgb(68, 68, 68); stroke-opacity: 1; stroke-width: 1px;"/><path class="xtick ticks crisp" d="M0,58.900000000000006v5" transform="translate(288.66999999999996,0)" style="stroke: rgb(68, 68, 68); stroke-opacity: 1; stroke-width: 1px;"/></g><g class="yaxislayer-above"/><g class="overaxes-above"/></g><g class="subplot x2y2"><g class="layer-subplot"><g class="shapelayer"/><g class="imagelayer"/></g><g class="minor-gridlayer"><g class="x2"/><g class="y2"/></g><g class="gridlayer"><g class="x2"/><g class="y2"><path class="y2grid crisp" transform="translate(0,114.19)" d="M49,0h277" style="stroke: rgb(211, 211, 211); stroke-opacity: 1; stroke-width: 1px;"/><path class="y2grid crisp" transform="translate(0,73.98)" d="M49,0h277" style="stroke: rgb(211, 211, 211); stroke-opacity: 1; stroke-width: 1px;"/></g></g><g class="zerolinelayer"><path class="y2zl zl crisp" transform="translate(0,154.4)" d="M49,0h277" style="stroke: rgb(211, 211, 211); stroke-opacity: 1; stroke-width: 2px;"/></g><g class="layer-between"><g class="shapelayer"/><g class="imagelayer"/></g><path class="xlines-below"/><path class="ylines-below"/><g class="overlines-below"/><g class="xaxislayer-below"/><g class="yaxislayer-below"/><g class="overaxes-below"/><g class="overplot"><g class="x2y2" transform="translate(49,57.900000000000006)" clip-path="url(#clip42a313x2y2plot)"><g class="scatterlayer mlayer"><g class="trace scatter trace169524" style="stroke-miterlimit: 2; opacity: 1;"><g class="fills"/><g class="errorbars"/><g class="lines"><path class="js-line" d="M13.85,88.42L16.3,91.35L16.91,92.64L18.13,90.88L18.75,90.96L19.97,91.18L20.58,90.6L24.87,86.65L25.48,84.27L26.7,81.94L27.31,81.18L27.93,81.24L28.54,82.29L29.15,82.5L29.76,81.43L32.21,77.59L32.82,77.81L34.05,78.04L34.66,79.37L37.11,84.13L37.72,83.95L40.17,80.65L40.78,80.8L42.61,77.85L43.22,78.07L44.45,81.02L45.06,80.4L46.28,78.62L46.9,77.84L48.12,77.01L48.73,77.21L49.34,77.99L49.96,77.53L50.57,77.71L51.18,78.89L52.4,76.82L53.02,75.68L54.24,72.92L54.85,73.66L57.3,77.34L57.91,76.3L59.75,77.8L60.36,77.41L61.58,76.65L62.2,77.51L63.42,76.64L64.03,76.7L65.87,74.11L66.48,74.02L70.76,77.64L71.38,75.34L72.6,73.33L73.21,72.89L75.66,70.52L76.27,70.39L76.88,69.57L77.5,70L78.72,72.38L79.33,70.73L80.56,67.8L81.17,67.3L82.39,64.29L83,64.92L85.45,62.05L86.06,63.28L86.68,64.11L87.29,63.47L89.12,58.35L89.74,58.61L90.35,59.15L90.96,58.21L92.18,55.29L92.8,55.92L95.24,57.12L95.85,55.95L97.69,60.17L98.3,58.08L98.91,55.59L99.53,55.9L100.14,56.31L101.97,54.44L102.59,54.94L103.2,53.52L103.81,55.34L104.42,56.72L105.03,55.71L105.65,55.04L106.26,57.21L106.87,58.95L107.48,57.82L108.71,56.19L109.32,56.4L111.15,55.82L111.77,53.88L112.99,51.77L113.6,49.03L116.05,51.27L116.66,50.78L117.27,50.76L117.89,52.1L119.72,56.88L120.33,55.8L121.56,53.79L122.17,52.47L123.39,48.97L124.01,49.17L124.62,49.86L125.23,49.27L125.84,49.5L126.45,51.38L129.51,56.22L130.13,56.09L131.35,58.28L131.96,60.8L133.8,62.78L134.41,65.77L135.63,68.09L136.25,68.13L136.86,69.37L137.47,68.92L138.08,68.9L139.31,68.13L139.92,69.52L141.75,78.19L142.37,79.8L143.59,81.87L144.2,80.84L144.81,81.14L145.43,82.79L147.26,84.02L147.87,83.59L149.1,83.6L149.71,83.82L150.32,84.73L150.93,84.04L152.77,84.51L153.38,84.28L154.6,85.17L155.22,85.2L156.44,86.12L157.05,86.38L157.66,86.08L158.28,86.64L159.5,87.32L160.11,86.94L161.95,84.28L162.56,84.2L163.78,85.13L164.4,84.54L165.62,83.11L166.23,83.65L168.07,81.03L168.68,79.31L169.9,76.52L170.52,76.26L171.74,75.99L172.35,76.32L174.19,72.73L174.8,72.05L177.25,72.74L177.86,71.53L179.7,67.48L180.31,67.46L180.92,67.47L181.53,65.29L182.76,63.94L183.37,64.26L184.59,66.66L185.2,67.4L186.43,68.76L187.04,67.86L187.65,66.22L188.26,67.11L189.49,68.85L190.1,68.91L191.32,69.04L191.94,68.02L193.16,70.79L193.77,72.85L195,76.35L195.61,76.11L196.83,77.29L197.44,78.73L198.06,78.3L198.67,79.52L199.89,77.14L200.5,78.2L201.73,78.48L202.34,79.8L203.56,78.3L204.17,78.44L206.01,77.79L206.62,78.59L210.29,80.73L210.91,80.37L212.74,78.95L213.35,77.66L213.97,77.45L214.58,75.3L215.8,73.56L216.41,73.11L218.86,70.8L219.47,71.25L220.7,71.49L221.31,72.44L223.76,74.9L224.37,76.04L226.21,76.81L226.82,76.9L227.43,76.51L228.04,74.87L228.65,75.09L229.27,76.26L232.33,74.14L232.94,74.65L236,73.46L236.61,75.3L237.83,76.47L238.45,75.88L239.67,74.74L240.28,75.16L242.12,77.03L242.73,76.72L244.57,77.29L245.18,76.43L245.79,75.36L246.4,76.39L247.63,78.35L248.24,78.03L250.07,78.56L250.69,79.13L251.91,80.98L252.52,80.93L256.19,83.3L256.8,83.21L258.64,81.81L259.25,83.09L260.48,83.91L261.09,83.88L263.54,84.43L264.15,84.8L265.98,84.11L266.6,85.08L267.82,85.74L268.43,85.97L270.27,86.2L270.88,85.7L272.72,84.77L273.33,84.9L273.94,84.48L274.55,85.13L276.39,87.53L277,79.8" style="vector-effect: none; fill: none; stroke: rgb(233, 136, 0); stroke-opacity: 1; stroke-width: 2px; opacity: 1;"/></g><g class="points"/><g class="text"/></g><g class="trace scatter trace58cd21" style="stroke-miterlimit: 2; opacity: 1;"><g class="fills"><g><path class="js-fill" d="M13.85,76.5L16.3,88.13L16.91,89L19.97,80.09L20.58,79.45L23.03,76.88L23.64,76.64L24.87,74.97L25.48,73.9L28.54,64.77L29.15,64.3L31.6,58.6L32.21,58.11L34.05,56.46L34.66,54.41L36.49,49.63L37.11,48.93L38.33,48.63L38.94,49.16L40.78,51.93L41.39,51.4L43.84,49.89L44.45,50.41L46.28,59.01L46.9,58.43L48.73,62.05L49.34,61.03L51.18,56.07L51.79,55.3L53.63,54.82L54.24,56.23L54.85,56.98L55.46,55.88L58.52,52.02L59.14,50.69L61.58,46.41L62.2,45.72L65.26,43.1L65.87,43.04L67.09,44.72L67.7,43.78L68.93,45.6L69.54,44.74L70.76,43.75L71.38,44.84L73.82,53.2L74.44,52.35L75.05,51.95L75.66,52.73L76.88,57.39L77.5,57.33L78.11,57.61L78.72,56.84L80.56,54.14L81.17,52.8L84.23,45.47L84.84,45.31L86.68,43.16L87.29,43.37L87.9,44.18L88.51,43.13L90.35,38.13L90.96,37.64L91.57,37.11L92.18,35.5L95.85,30.04L96.47,29.78L98.3,27.74L98.91,28.01L100.75,27.76L101.36,28.45L103.81,34.91L104.42,38.2L105.65,44.48L106.26,44.58L108.09,42.25L108.71,45.01L109.93,47.01L110.54,47.16L111.15,46.74L111.77,44.49L112.99,42.71L113.6,42.4L114.83,43.24L115.44,42.09L117.27,36.95L117.89,36.15L118.5,36.39L119.11,35.28L120.95,32.1L121.56,30.54L122.78,30.21L123.39,29.57L124.62,27.87L125.23,28.5L127.68,31.26L128.29,32.8L131.35,47.19L131.96,47.33L133.8,50.43L134.41,48.92L135.63,46.68L136.25,47.38L138.69,53.76L139.31,53.35L139.92,53.66L140.53,55.35L141.14,56.34L141.75,55.31L142.98,54.15L143.59,54.38L144.81,56.34L145.43,58.34L147.87,61.69L148.48,62.86L149.1,63.05L149.71,62.39L150.93,61.72L151.54,61.93L152.77,62.74L153.38,65.23L156.44,74.03L157.05,75.36L158.28,76.18L158.89,75.01L160.11,74.62L160.72,73.84L162.56,66.34L163.17,65.23L164.4,66.99L165.01,68.18L167.46,70.47L168.07,69.79L169.9,68.88L170.52,66.71L172.35,61.03L172.96,61.29L173.58,62.91L174.19,62.03L175.41,60.55L176.02,61.49L177.25,58.81L177.86,57.12L179.7,53.08L180.31,53.44L182.14,47.61L182.76,47.92L185.82,50.75L186.43,51.6L188.26,56.18L188.88,56.47L190.1,56.15L190.71,57.01L193.77,62.25L194.38,60.63L196.22,56.58L196.83,57.75L199.28,64.79L199.89,65.44L202.95,70.53L203.56,70.5L204.79,69.32L205.4,69.78L206.62,71.84L207.23,71.42L207.85,71.57L208.46,71.92L209.07,70.83L210.29,70.92L210.91,71.25L215.19,63.51L215.8,64.33L219.47,64.35L220.09,64.17L222.53,65.86L223.15,65.74L224.37,65.93L224.98,66.59L226.21,67.55L226.82,67.28L228.65,64.39L229.27,65.31L230.49,65.38L231.1,63.35L232.33,61.26L232.94,61L234.16,59.9L234.77,58.66L239.67,43.35L240.28,44.94L245.79,69.06L246.4,68.29L247.63,62.86L248.24,63.32L248.85,66.47L250.07,68.56L250.69,67.98L251.91,68.63L252.52,69.29L254.36,69.5L254.97,67.87L255.58,67.08L256.19,67.88L257.42,68.38L258.03,68.21L259.86,64.08L260.48,66.52L262.31,73.4L262.92,73.28L264.15,72.94L264.76,73.2L265.98,74.19L266.6,72.59L268.43,70.13L269.04,72.15L270.27,71.98L270.88,70.85L272.1,69.71L272.72,70.91L277,79.8L277,79.8L276.39,90.74L273.94,89.68L273.33,90.44L272.1,91.49L271.49,91.51L270.27,91.82L269.66,92.09L268.43,91.94L267.82,91.37L265.98,89.52L265.37,90.2L264.15,89.18L263.54,88.93L261.7,90.82L261.09,90.27L258.03,90.98L257.42,91.22L256.19,90.83L255.58,89.96L254.36,90.34L253.74,89.9L251.91,87.57L251.3,87.39L248.85,88.46L248.24,88.16L247.01,88.34L246.4,88.63L242.73,87.43L242.12,87.83L240.28,88.11L239.67,87.73L236.61,84.86L236,83.15L235.39,82.64L234.77,84.11L232.94,86.26L232.33,86.79L231.1,85.49L230.49,84.36L229.27,85.14L228.65,85.8L227.43,87.85L226.82,89.35L225.59,90.59L224.98,90.25L223.15,89.51L222.53,89.33L221.92,89.16L221.31,88.07L218.86,82.67L218.25,82.16L217.64,82.38L217.03,81.54L216.41,80.44L215.8,81.16L213.35,83.04L212.74,83.81L211.52,83.94L210.91,84.93L209.68,85.69L209.07,84.96L207.23,84.26L206.62,84.35L204.17,82.66L203.56,83.85L202.34,85.73L201.73,85.03L201.11,85.01L200.5,86.08L198.67,86.66L198.06,87.47L197.44,87.62L196.83,86.29L195,83.83L194.38,83.77L192.55,82.85L191.94,81.85L190.1,80.82L189.49,80.43L188.26,77.94L187.65,76.37L187.04,76.77L186.43,78.18L184.59,82.61L183.98,83.17L181.53,84.72L180.92,84.64L178.47,80.8L177.86,81.26L172.96,89.03L172.35,90.13L170.52,91.47L169.9,91.23L168.68,91.21L168.07,91.62L166.84,92L166.23,91.65L163.17,89.81L162.56,89.69L161.34,89.71L160.72,90.21L157.66,90.49L157.05,90.74L155.83,90.4L155.22,89.77L153.99,89.78L153.38,90.56L152.77,91.14L152.16,90.47L150.93,90.21L150.32,90.26L149.1,90.2L148.48,90.05L144.81,89.5L144.2,88.83L141.14,86.67L140.53,85.64L138.69,83.31L138.08,82.13L135.63,81.63L135.02,80.19L133.8,79.76L133.19,77.98L130.74,72.16L130.13,71.61L129.51,72.24L128.9,71.72L127.68,68.93L127.07,69.69L125.84,71.81L125.23,73.9L123.39,74.33L122.78,72.34L122.17,72.57L121.56,73.71L119.11,72.44L118.5,70.4L117.89,69.69L117.27,66.95L116.66,67.2L116.05,68.92L114.83,68.59L114.21,67.68L112.99,65.91L112.38,67.26L109.93,68.71L109.32,68.24L106.87,73.88L106.26,73.18L105.65,72.92L105.03,74L103.81,77.01L103.2,76.11L101.97,76.14L101.36,77.12L100.75,77.55L100.14,76.75L99.53,75.96L98.91,76.5L96.47,75.06L95.85,75.6L92.8,82.53L92.18,83L90.96,83.04L90.35,82.47L88.51,80.27L87.9,82.23L86.06,85.18L85.45,85.37L83.62,83.36L83,84.03L82.39,83.65L81.78,82.35L80.56,81.68L79.94,81.73L75.05,85.28L74.44,85.98L72.6,87.99L71.99,87.58L70.76,87.05L70.15,87.21L68.93,88.16L68.32,88.86L66.48,90.69L65.87,90.28L64.03,89.06L63.42,88.44L62.81,88.58L62.2,89.61L59.75,90.34L59.14,90.93L54.85,92.08L54.24,91.59L52.4,90.25L51.79,90.41L49.96,90.67L49.34,90.92L48.12,90.53L47.51,90.96L45.06,92.67L44.45,92.18L42,91.47L41.39,92.37L40.17,91.77L39.55,91.34L35.27,90.59L34.66,91.42L33.43,92.03L32.82,91.63L30.99,91.94L30.37,92.69L29.15,93.5L28.54,93.33L24.87,93.15L24.25,93.43L21.19,92.64L20.58,93.36L17.52,93.68L16.91,93.99L15.69,92.93L15.07,92.74L13.85,91.31Z" style="fill: rgb(233, 136, 0); fill-opacity: 0.3; stroke-width: 0;"/></g></g><g class="errorbars"/><g class="lines"><path class="js-line" d="M13.85,76.5L16.3,88.13L16.91,89L19.97,80.09L20.58,79.45L23.03,76.88L23.64,76.64L24.87,74.97L25.48,73.9L28.54,64.77L29.15,64.3L31.6,58.6L32.21,58.11L34.05,56.46L34.66,54.41L36.49,49.63L37.11,48.93L38.33,48.63L38.94,49.16L40.78,51.93L41.39,51.4L43.84,49.89L44.45,50.41L46.28,59.01L46.9,58.43L48.73,62.05L49.34,61.03L51.18,56.07L51.79,55.3L53.63,54.82L54.24,56.23L54.85,56.98L55.46,55.88L58.52,52.02L59.14,50.69L61.58,46.41L62.2,45.72L65.26,43.1L65.87,43.04L67.09,44.72L67.7,43.78L68.93,45.6L69.54,44.74L70.76,43.75L71.38,44.84L73.82,53.2L74.44,52.35L75.05,51.95L75.66,52.73L76.88,57.39L77.5,57.33L78.11,57.61L78.72,56.84L80.56,54.14L81.17,52.8L84.23,45.47L84.84,45.31L86.68,43.16L87.29,43.37L87.9,44.18L88.51,43.13L90.35,38.13L90.96,37.64L91.57,37.11L92.18,35.5L95.85,30.04L96.47,29.78L98.3,27.74L98.91,28.01L100.75,27.76L101.36,28.45L103.81,34.91L104.42,38.2L105.65,44.48L106.26,44.58L108.09,42.25L108.71,45.01L109.93,47.01L110.54,47.16L111.15,46.74L111.77,44.49L112.99,42.71L113.6,42.4L114.83,43.24L115.44,42.09L117.27,36.95L117.89,36.15L118.5,36.39L119.11,35.28L120.95,32.1L121.56,30.54L122.78,30.21L123.39,29.57L124.62,27.87L125.23,28.5L127.68,31.26L128.29,32.8L131.35,47.19L131.96,47.33L133.8,50.43L134.41,48.92L135.63,46.68L136.25,47.38L138.69,53.76L139.31,53.35L139.92,53.66L140.53,55.35L141.14,56.34L141.75,55.31L142.98,54.15L143.59,54.38L144.81,56.34L145.43,58.34L147.87,61.69L148.48,62.86L149.1,63.05L149.71,62.39L150.93,61.72L151.54,61.93L152.77,62.74L153.38,65.23L156.44,74.03L157.05,75.36L158.28,76.18L158.89,75.01L160.11,74.62L160.72,73.84L162.56,66.34L163.17,65.23L164.4,66.99L165.01,68.18L167.46,70.47L168.07,69.79L169.9,68.88L170.52,66.71L172.35,61.03L172.96,61.29L173.58,62.91L174.19,62.03L175.41,60.55L176.02,61.49L177.25,58.81L177.86,57.12L179.7,53.08L180.31,53.44L182.14,47.61L182.76,47.92L185.82,50.75L186.43,51.6L188.26,56.18L188.88,56.47L190.1,56.15L190.71,57.01L193.77,62.25L194.38,60.63L196.22,56.58L196.83,57.75L199.28,64.79L199.89,65.44L202.95,70.53L203.56,70.5L204.79,69.32L205.4,69.78L206.62,71.84L207.23,71.42L207.85,71.57L208.46,71.92L209.07,70.83L210.29,70.92L210.91,71.25L215.19,63.51L215.8,64.33L219.47,64.35L220.09,64.17L222.53,65.86L223.15,65.74L224.37,65.93L224.98,66.59L226.21,67.55L226.82,67.28L228.65,64.39L229.27,65.31L230.49,65.38L231.1,63.35L232.33,61.26L232.94,61L234.16,59.9L234.77,58.66L239.67,43.35L240.28,44.94L245.79,69.06L246.4,68.29L247.63,62.86L248.24,63.32L248.85,66.47L250.07,68.56L250.69,67.98L251.91,68.63L252.52,69.29L254.36,69.5L254.97,67.87L255.58,67.08L256.19,67.88L257.42,68.38L258.03,68.21L259.86,64.08L260.48,66.52L262.31,73.4L262.92,73.28L264.15,72.94L264.76,73.2L265.98,74.19L266.6,72.59L268.43,70.13L269.04,72.15L270.27,71.98L270.88,70.85L272.1,69.71L272.72,70.91L277,79.8L277,79.8L276.39,90.74L273.94,89.68L273.33,90.44L272.1,91.49L271.49,91.51L270.27,91.82L269.66,92.09L268.43,91.94L267.82,91.37L265.98,89.52L265.37,90.2L264.15,89.18L263.54,88.93L261.7,90.82L261.09,90.27L258.03,90.98L257.42,91.22L256.19,90.83L255.58,89.96L254.36,90.34L253.74,89.9L251.91,87.57L251.3,87.39L248.85,88.46L248.24,88.16L247.01,88.34L246.4,88.63L242.73,87.43L242.12,87.83L240.28,88.11L239.67,87.73L236.61,84.86L236,83.15L235.39,82.64L234.77,84.11L232.94,86.26L232.33,86.79L231.1,85.49L230.49,84.36L229.27,85.14L228.65,85.8L227.43,87.85L226.82,89.35L225.59,90.59L224.98,90.25L223.15,89.51L222.53,89.33L221.92,89.16L221.31,88.07L218.86,82.67L218.25,82.16L217.64,82.38L217.03,81.54L216.41,80.44L215.8,81.16L213.35,83.04L212.74,83.81L211.52,83.94L210.91,84.93L209.68,85.69L209.07,84.96L207.23,84.26L206.62,84.35L204.17,82.66L203.56,83.85L202.34,85.73L201.73,85.03L201.11,85.01L200.5,86.08L198.67,86.66L198.06,87.47L197.44,87.62L196.83,86.29L195,83.83L194.38,83.77L192.55,82.85L191.94,81.85L190.1,80.82L189.49,80.43L188.26,77.94L187.65,76.37L187.04,76.77L186.43,78.18L184.59,82.61L183.98,83.17L181.53,84.72L180.92,84.64L178.47,80.8L177.86,81.26L172.96,89.03L172.35,90.13L170.52,91.47L169.9,91.23L168.68,91.21L168.07,91.62L166.84,92L166.23,91.65L163.17,89.81L162.56,89.69L161.34,89.71L160.72,90.21L157.66,90.49L157.05,90.74L155.83,90.4L155.22,89.77L153.99,89.78L153.38,90.56L152.77,91.14L152.16,90.47L150.93,90.21L150.32,90.26L149.1,90.2L148.48,90.05L144.81,89.5L144.2,88.83L141.14,86.67L140.53,85.64L138.69,83.31L138.08,82.13L135.63,81.63L135.02,80.19L133.8,79.76L133.19,77.98L130.74,72.16L130.13,71.61L129.51,72.24L128.9,71.72L127.68,68.93L127.07,69.69L125.84,71.81L125.23,73.9L123.39,74.33L122.78,72.34L122.17,72.57L121.56,73.71L119.11,72.44L118.5,70.4L117.89,69.69L117.27,66.95L116.66,67.2L116.05,68.92L114.83,68.59L114.21,67.68L112.99,65.91L112.38,67.26L109.93,68.71L109.32,68.24L106.87,73.88L106.26,73.18L105.65,72.92L105.03,74L103.81,77.01L103.2,76.11L101.97,76.14L101.36,77.12L100.75,77.55L100.14,76.75L99.53,75.96L98.91,76.5L96.47,75.06L95.85,75.6L92.8,82.53L92.18,83L90.96,83.04L90.35,82.47L88.51,80.27L87.9,82.23L86.06,85.18L85.45,85.37L83.62,83.36L83,84.03L82.39,83.65L81.78,82.35L80.56,81.68L79.94,81.73L75.05,85.28L74.44,85.98L72.6,87.99L71.99,87.58L70.76,87.05L70.15,87.21L68.93,88.16L68.32,88.86L66.48,90.69L65.87,90.28L64.03,89.06L63.42,88.44L62.81,88.58L62.2,89.61L59.75,90.34L59.14,90.93L54.85,92.08L54.24,91.59L52.4,90.25L51.79,90.41L49.96,90.67L49.34,90.92L48.12,90.53L47.51,90.96L45.06,92.67L44.45,92.18L42,91.47L41.39,92.37L40.17,91.77L39.55,91.34L35.27,90.59L34.66,91.42L33.43,92.03L32.82,91.63L30.99,91.94L30.37,92.69L29.15,93.5L28.54,93.33L24.87,93.15L24.25,93.43L21.19,92.64L20.58,93.36L17.52,93.68L16.91,93.99L15.69,92.93L15.07,92.74L13.85,91.31" style="vector-effect: none; fill: none; stroke: rgb(0, 0, 0); stroke-opacity: 0; stroke-width: 2px; opacity: 1;"/></g><g class="points"/><g class="text"/></g><g class="trace scatter trace7e8631" style="stroke-miterlimit: 2; opacity: 1;"><g class="fills"/><g class="errorbars"/><g class="lines"><path class="js-line" d="M13.85,81.7L16.91,90.97L17.52,89.11L18.75,87.37L19.36,88.37L19.97,87.19L20.58,87.52L21.19,87.36L23.03,88.6L23.64,88.04L24.25,89.12L24.87,87.53L25.48,85.97L26.09,87.16L26.7,87.45L27.31,86.48L27.93,85.6L28.54,86.51L29.15,87.44L29.76,86.6L33.43,81.39L34.05,80.8L35.27,81.37L35.88,82.1L37.72,80.35L38.33,78.92L38.94,77.15L39.55,77.77L40.17,78.7L40.78,77.6L41.39,77.76L42,76.6L43.22,74.48L43.84,74.54L45.67,72.33L46.28,73.26L48.73,79.59L49.34,78.69L52.4,75.72L53.02,73.61L54.85,66.84L55.46,67.42L59.14,62.1L59.75,62.12L60.36,62.26L60.97,59.98L61.58,59.85L62.2,61.11L62.81,61.02L63.42,59.18L64.03,57.55L64.64,59.73L66.48,64.64L67.09,68.06L68.93,74.11L69.54,73.03L73.21,58.96L73.82,57.81L75.66,61.84L76.27,62.09L76.88,60.81L77.5,62.31L78.11,60.52L78.72,64.35L79.94,72.17L80.56,70.27L81.17,66.9L81.78,68.57L83,73.62L83.62,70.22L84.84,66.14L85.45,66.92L86.06,68.08L86.68,67.62L89.12,62.83L89.74,62.14L90.96,60.48L91.57,62.36L92.18,64.75L92.8,62.39L93.41,60.6L94.02,61.46L94.63,61.18L95.24,59.91L95.85,60.44L96.47,59.36L97.08,60.04L97.69,56.92L99.53,54.6L100.14,54.64L101.36,57.65L101.97,57L102.59,55.24L103.2,56.45L103.81,56.2L104.42,58.8L106.87,54.41L107.48,52.39L108.09,52.17L108.71,54.75L109.32,57.48L109.93,56.82L110.54,54.72L111.77,53.01L112.38,50.78L112.99,51.66L113.6,50.65L114.21,50.09L114.83,47.51L117.89,51.7L118.5,50.96L119.72,48.47L120.33,49.29L122.17,51.39L122.78,50.69L124.01,50.33L124.62,53.15L125.23,57.94L125.84,57.54L126.45,54.37L127.68,50.54L128.29,50.66L129.51,49.23L130.13,48.22L131.96,47.14L132.57,45L133.8,48.18L134.41,50.08L135.63,47.61L136.25,46.33L136.86,46.97L137.47,50L138.08,49.15L138.69,49.87L139.31,49.42L139.92,52.45L141.75,43.57L142.37,43.77L142.98,45.81L144.81,46.88L145.43,46.18L146.04,45.66L146.65,49.4L147.26,50.71L147.87,48.23L148.48,48.41L149.1,50.64L149.71,51.52L150.32,49.11L150.93,49.86L151.54,53.63L152.77,56.2L153.38,56.44L155.22,65.46L155.83,66.29L156.44,66.63L157.05,68.25L157.66,68.02L158.28,69.58L160.72,75.57L161.34,75.05L161.95,77.51L162.56,76.89L163.17,76.52L165.01,74.76L165.62,75.51L166.23,77.4L166.84,75.13L168.07,76.83L168.68,77.22L169.29,75.27L169.9,75.64L170.52,74.25L171.74,72.88L172.35,71.04L174.19,69.94L174.8,70.57L176.02,70.25L176.64,68.22L178.47,64.24L179.08,64.94L182.76,70.96L183.37,68.25L183.98,67.37L184.59,68.15L185.2,68.24L185.82,69.98L186.43,67.55L187.04,68.59L187.65,68.73L188.26,67.43L188.88,66.72L189.49,68.34L190.71,68.39L191.32,69.8L192.55,69.42L193.16,69.35L194.38,70.25L195,71.71L199.28,78.07L199.89,78.28L200.5,79.12L201.11,78.43L201.73,78.48L202.34,77.53L203.56,78.18L204.17,78.64L204.79,78.98L205.4,77.81L206.62,77.35L207.23,77.86L208.46,80.09L209.07,79.83L210.29,79.19L210.91,80.22L213.97,86.17L214.58,86.49L215.19,87.4L215.8,86.91L217.03,86.73L217.64,85.57L218.25,85.76L218.86,84.69L219.47,84.09L220.09,82.07L221.92,76L222.53,76.92L223.76,73.05L224.37,73.18L226.21,68.42L226.82,66.87L228.04,65.88L228.65,67.16L229.27,68.91L229.88,67.99L230.49,65.28L231.1,66.7L231.71,69.33L232.33,67.12L234.16,66.31L234.77,65.42L236,65.11L236.61,66.33L238.45,62.33L239.06,63.28L239.67,64.06L240.28,63.6L242.12,66.33L242.73,66.63L243.95,68.76L244.57,70.28L247.01,75.03L247.63,75.2L248.24,76.93L248.85,76.69L249.46,77.82L250.07,78.35L250.69,77.6L251.3,76.09L251.91,76.36L252.52,77.49L254.97,73.64L255.58,73.71L256.8,73.24L257.42,72.28L259.86,67.64L260.48,68.91L261.09,69L261.7,71.02L262.92,72.16L263.54,71.48L265.37,69.81L265.98,68.27L267.82,66.96L268.43,67.48L270.27,69.29L270.88,67.01L272.1,68.94L272.72,68.66L273.33,69.7L273.94,68.97L274.55,68.38L275.16,70.51L276.39,75L277,73.21" style="vector-effect: none; fill: none; stroke: rgb(188, 0, 233); stroke-opacity: 1; stroke-width: 2px; opacity: 1;"/></g><g class="points"/><g class="text"/></g><g class="trace scatter tracee7e739" style="stroke-miterlimit: 2; opacity: 1;"><g class="fills"><g><path class="js-fill" d="M13.85,66.31L16.91,86.93L17.52,85.2L21.19,78.48L21.81,77.92L24.25,72.68L24.87,73.41L26.09,70.27L26.7,67.92L29.15,63.2L29.76,62.47L30.99,59.9L31.6,60.49L32.21,60.76L32.82,59.54L34.66,56.79L35.27,58.44L36.49,56.91L37.11,58.27L38.33,56.24L38.94,52.65L39.55,53.43L40.17,52.65L42,49.24L42.61,51.83L43.22,54.11L43.84,53.21L45.67,45.54L46.28,46.81L46.9,48.09L47.51,47.46L48.73,45.1L49.34,42.53L49.96,42.03L50.57,42.88L51.79,43.68L52.4,41.02L54.24,46.51L54.85,50.52L56.69,44.69L57.3,45.45L59.14,52.72L59.75,51.69L60.36,47.56L60.97,48.3L61.58,48.44L62.2,48.65L62.81,47.23L64.03,48.2L64.64,47.04L65.87,44.59L66.48,45.25L67.09,45.71L67.7,45.09L68.32,46.36L68.93,44.87L70.15,45.7L70.76,43.24L71.99,39.41L72.6,40.01L73.21,39.73L73.82,36.06L74.44,35.14L75.05,38.96L78.11,33.6L78.72,34.36L79.94,37.32L80.56,37.32L81.17,37.62L81.78,39.64L82.39,39.12L83,37.53L85.45,42.29L86.06,40.75L86.68,43.66L87.29,41.41L87.9,39.99L88.51,40.46L89.12,42.59L90.96,50.26L91.57,48.33L92.8,43.6L93.41,44.14L94.63,48.49L95.24,45.99L96.47,40.23L97.08,38.86L97.69,38.16L98.3,38.75L100.14,42.17L100.75,39.38L101.97,37.67L102.59,37.75L104.42,38.18L105.03,38.74L106.26,37.44L106.87,37.91L108.09,40.42L108.71,42.2L110.54,37.64L111.15,37.21L112.38,36.57L112.99,37.52L113.6,36.79L114.21,37.32L114.83,38.02L115.44,36.37L116.05,34.51L116.66,36.61L117.27,37.51L117.89,36.75L122.17,36.78L122.78,37.1L123.39,38.38L124.01,36.68L125.23,36.2L125.84,37.7L126.45,36.67L127.07,33.09L128.29,32.97L128.9,32.48L129.51,33.01L130.13,34.74L131.35,36.97L131.96,35.22L133.19,32L133.8,32.05L134.41,32.87L135.02,35.18L136.25,37.97L136.86,36.64L138.08,33.82L138.69,33.5L139.31,35.63L139.92,35.36L140.53,34.09L141.75,34.31L142.37,33.92L142.98,34.46L143.59,33.23L146.65,36.24L147.26,38.13L149.1,40.72L149.71,40.24L150.32,40.33L150.93,43.84L151.54,42.95L152.16,39.45L152.77,40.1L153.38,42.52L153.99,40.16L154.6,42.73L157.05,36.78L157.66,37.45L158.28,37.98L158.89,39.72L160.11,44.46L160.72,43.7L161.34,45.2L161.95,48.84L163.78,55.02L164.4,54.6L165.01,54.4L166.84,56.56L167.46,57.03L168.07,58.23L168.68,57.81L169.29,56.74L172.35,50.33L172.96,50.07L176.02,52.3L176.64,51.82L177.25,50.19L177.86,51.06L179.08,51.34L179.7,49.77L180.31,46.91L180.92,48.74L181.53,51.15L182.14,50.91L182.76,49.41L183.98,51.23L184.59,50.73L187.04,46.68L187.65,47.65L188.88,43.34L189.49,43.62L191.32,47.99L191.94,48.96L192.55,50.33L193.16,48.88L194.38,45.83L195,45.45L195.61,45.43L196.22,46.79L197.44,43.09L198.06,44.77L199.28,47.51L199.89,47.35L201.11,46.45L201.73,47.17L202.95,42.49L203.56,47.11L204.17,51.08L204.79,48.58L206.01,46.4L206.62,46.97L207.85,51.32L208.46,49.93L210.29,41.35L210.91,42.87L212.13,46.43L212.74,44.73L213.97,38.9L214.58,40.75L215.8,44.43L216.41,44.04L217.64,43.2L218.25,44.39L220.09,52.22L220.7,52.59L221.31,52.8L221.92,51.44L222.53,50.37L223.15,50.78L223.76,52.2L224.37,54.5L224.98,53.4L226.82,43.41L227.43,43.18L229.27,48.66L229.88,46.79L230.49,42.51L231.1,43.96L231.71,46.34L232.33,45.62L232.94,42.98L233.55,43.71L234.16,44.02L234.77,47.66L236,48.89L236.61,49.45L237.83,48.91L238.45,47.88L240.89,45.9L241.51,46.07L242.12,46.01L242.73,47.51L243.95,43.53L244.57,43.7L245.18,44.96L245.79,48.47L247.63,52.78L248.24,52.12L249.46,53.26L250.07,53.38L250.69,53.86L251.3,52.1L252.52,50.58L253.13,52.39L254.36,54.43L254.97,53.14L256.19,52.06L256.8,52.73L257.42,52.86L258.03,52.21L260.48,46.57L261.09,46.66L262.92,46.26L263.54,47.21L264.76,50.18L265.37,49.98L267.21,44.13L267.82,45.46L269.66,49.41L270.27,50.4L271.49,54.05L272.1,56.11L273.33,57.41L273.94,58.15L274.55,55.91L275.16,59.75L276.39,68.87L277,60.99L276.39,89.71L275.78,88.97L273.94,84.56L273.33,85.47L272.1,85.89L271.49,85.01L270.27,84.23L269.66,84.04L267.82,84.84L267.21,84.12L265.37,82.08L264.76,82.73L263.54,81.41L262.92,81.25L261.7,81.13L261.09,80.04L260.48,80.15L259.86,81.39L256.8,83.89L256.19,83.58L253.13,85.38L252.52,86.15L251.3,85.54L250.69,84.19L249.46,83.99L248.85,84.86L247.63,82.62L247.01,83.39L244.57,77.39L243.95,77.11L239.67,84.92L239.06,84.65L237.22,85.88L236.61,86.89L236,87.22L235.39,86.22L234.77,84.87L234.16,85.52L231.71,90.23L231.1,90.3L228.04,88.5L227.43,86.82L224.98,87.76L224.37,87.93L223.15,89.15L222.53,88.81L220.09,88.55L219.47,89.19L218.25,89.03L217.64,91.21L217.03,90.64L216.41,91.31L214.58,91.66L213.97,93.17L212.74,92.24L212.13,90.78L210.29,89.31L209.68,90.11L209.07,90.01L208.46,88.81L207.85,88.25L207.23,88.78L205.4,88.18L204.79,87.25L203.56,86.48L202.95,87.08L201.73,87.35L201.11,86.78L200.5,86.22L199.89,87.4L198.06,86.75L197.44,87.16L195,85.02L194.38,85.18L191.94,84.46L191.32,84.55L189.49,84.02L188.88,85.83L186.43,81.53L185.82,81.47L183.98,83.01L183.37,81.83L182.76,81.31L182.14,82.73L181.53,82.53L180.92,83.54L179.08,83.5L178.47,84.05L177.25,85.04L176.64,86.58L175.41,87.37L174.8,86.8L173.58,88.57L172.96,88.72L171.13,88.81L170.52,88.64L169.29,91.02L168.68,90.9L166.23,88.49L165.62,88.59L165.01,88.4L164.4,87.34L163.78,85.95L163.17,86.55L160.72,83.63L160.11,85.37L158.89,82.99L158.28,83.39L157.66,84.91L157.05,84.63L156.44,85.04L155.22,83.5L154.6,83.7L153.99,81.67L153.38,82.16L152.77,81.64L149.71,77.51L149.1,77.58L147.87,75.05L147.26,77.37L146.04,81.37L145.43,79.4L144.2,76.17L143.59,77.05L142.37,76L141.75,74.27L140.53,70.45L139.92,71.32L138.69,75.9L138.08,78.93L137.47,79.68L136.86,78.78L136.25,76.98L135.63,77.61L133.8,76.13L133.19,77.48L132.57,78.56L131.96,77.62L130.74,73.11L130.13,75.57L129.51,76.53L128.9,75.35L128.29,75.57L127.68,76.79L127.07,76.79L126.45,73.2L125.84,69.82L125.23,70.03L124.62,71.31L123.39,73.87L122.78,73.54L120.95,76.43L120.33,74.26L119.72,72.28L119.11,74.8L117.89,77.79L117.27,77.02L115.44,79.24L114.83,78.49L112.38,74.92L111.77,72.92L110.54,71.09L109.93,70.72L106.87,73.88L106.26,72.18L105.65,71.83L105.03,72.75L101.36,79.18L100.75,78.82L99.53,81.63L98.91,82.13L97.08,86.15L96.47,86.91L95.24,88.16L94.63,87.64L94.02,87.42L93.41,88.12L91.57,87.45L90.96,86.65L89.12,84.84L88.51,84.05L84.84,84.94L84.23,85.8L79.94,88.31L79.33,87.36L76.88,82.25L76.27,82.65L73.21,88.97L72.6,89.63L70.76,87.7L70.15,88.49L68.93,90.01L68.32,90.19L67.09,89.94L66.48,90.57L65.26,91.83L64.64,91.67L62.2,91.32L61.58,91.76L59.14,88.35L58.52,86.08L56.08,89.94L55.46,89.9L53.02,88L52.4,88.9L51.18,89.15L50.57,89.11L48.73,91.13L48.12,91.15L46.28,91.26L45.67,92.35L43.84,91.06L43.22,90.98L40.17,91.89L39.55,91.81L37.11,90.79L36.49,91.68L33.43,90.55L32.82,91.02L31.6,91.47L30.99,90.35L29.76,91.01L29.15,91.76L27.93,92.86L27.31,91.71L26.09,91.36L25.48,91.81L24.87,92.77L24.25,92.12L22.42,93.72L21.81,93.03L16.91,93.82L16.3,92.68L15.07,92.58L14.46,91.82L13.85,91.6Z" style="fill: rgb(188, 0, 233); fill-opacity: 0.3; stroke-width: 0;"/></g></g><g class="errorbars"/><g class="lines"><path class="js-line" d="M13.85,66.31L16.91,86.93L17.52,85.2L21.19,78.48L21.81,77.92L24.25,72.68L24.87,73.41L26.09,70.27L26.7,67.92L29.15,63.2L29.76,62.47L30.99,59.9L31.6,60.49L32.21,60.76L32.82,59.54L34.66,56.79L35.27,58.44L36.49,56.91L37.11,58.27L38.33,56.24L38.94,52.65L39.55,53.43L40.17,52.65L42,49.24L42.61,51.83L43.22,54.11L43.84,53.21L45.67,45.54L46.28,46.81L46.9,48.09L47.51,47.46L48.73,45.1L49.34,42.53L49.96,42.03L50.57,42.88L51.79,43.68L52.4,41.02L54.24,46.51L54.85,50.52L56.69,44.69L57.3,45.45L59.14,52.72L59.75,51.69L60.36,47.56L60.97,48.3L61.58,48.44L62.2,48.65L62.81,47.23L64.03,48.2L64.64,47.04L65.87,44.59L66.48,45.25L67.09,45.71L67.7,45.09L68.32,46.36L68.93,44.87L70.15,45.7L70.76,43.24L71.99,39.41L72.6,40.01L73.21,39.73L73.82,36.06L74.44,35.14L75.05,38.96L78.11,33.6L78.72,34.36L79.94,37.32L80.56,37.32L81.17,37.62L81.78,39.64L82.39,39.12L83,37.53L85.45,42.29L86.06,40.75L86.68,43.66L87.29,41.41L87.9,39.99L88.51,40.46L89.12,42.59L90.96,50.26L91.57,48.33L92.8,43.6L93.41,44.14L94.63,48.49L95.24,45.99L96.47,40.23L97.08,38.86L97.69,38.16L98.3,38.75L100.14,42.17L100.75,39.38L101.97,37.67L102.59,37.75L104.42,38.18L105.03,38.74L106.26,37.44L106.87,37.91L108.09,40.42L108.71,42.2L110.54,37.64L111.15,37.21L112.38,36.57L112.99,37.52L113.6,36.79L114.21,37.32L114.83,38.02L115.44,36.37L116.05,34.51L116.66,36.61L117.27,37.51L117.89,36.75L122.17,36.78L122.78,37.1L123.39,38.38L124.01,36.68L125.23,36.2L125.84,37.7L126.45,36.67L127.07,33.09L128.29,32.97L128.9,32.48L129.51,33.01L130.13,34.74L131.35,36.97L131.96,35.22L133.19,32L133.8,32.05L134.41,32.87L135.02,35.18L136.25,37.97L136.86,36.64L138.08,33.82L138.69,33.5L139.31,35.63L139.92,35.36L140.53,34.09L141.75,34.31L142.37,33.92L142.98,34.46L143.59,33.23L146.65,36.24L147.26,38.13L149.1,40.72L149.71,40.24L150.32,40.33L150.93,43.84L151.54,42.95L152.16,39.45L152.77,40.1L153.38,42.52L153.99,40.16L154.6,42.73L157.05,36.78L157.66,37.45L158.28,37.98L158.89,39.72L160.11,44.46L160.72,43.7L161.34,45.2L161.95,48.84L163.78,55.02L164.4,54.6L165.01,54.4L166.84,56.56L167.46,57.03L168.07,58.23L168.68,57.81L169.29,56.74L172.35,50.33L172.96,50.07L176.02,52.3L176.64,51.82L177.25,50.19L177.86,51.06L179.08,51.34L179.7,49.77L180.31,46.91L180.92,48.74L181.53,51.15L182.14,50.91L182.76,49.41L183.98,51.23L184.59,50.73L187.04,46.68L187.65,47.65L188.88,43.34L189.49,43.62L191.32,47.99L191.94,48.96L192.55,50.33L193.16,48.88L194.38,45.83L195,45.45L195.61,45.43L196.22,46.79L197.44,43.09L198.06,44.77L199.28,47.51L199.89,47.35L201.11,46.45L201.73,47.17L202.95,42.49L203.56,47.11L204.17,51.08L204.79,48.58L206.01,46.4L206.62,46.97L207.85,51.32L208.46,49.93L210.29,41.35L210.91,42.87L212.13,46.43L212.74,44.73L213.97,38.9L214.58,40.75L215.8,44.43L216.41,44.04L217.64,43.2L218.25,44.39L220.09,52.22L220.7,52.59L221.31,52.8L221.92,51.44L222.53,50.37L223.15,50.78L223.76,52.2L224.37,54.5L224.98,53.4L226.82,43.41L227.43,43.18L229.27,48.66L229.88,46.79L230.49,42.51L231.1,43.96L231.71,46.34L232.33,45.62L232.94,42.98L233.55,43.71L234.16,44.02L234.77,47.66L236,48.89L236.61,49.45L237.83,48.91L238.45,47.88L240.89,45.9L241.51,46.07L242.12,46.01L242.73,47.51L243.95,43.53L244.57,43.7L245.18,44.96L245.79,48.47L247.63,52.78L248.24,52.12L249.46,53.26L250.07,53.38L250.69,53.86L251.3,52.1L252.52,50.58L253.13,52.39L254.36,54.43L254.97,53.14L256.19,52.06L256.8,52.73L257.42,52.86L258.03,52.21L260.48,46.57L261.09,46.66L262.92,46.26L263.54,47.21L264.76,50.18L265.37,49.98L267.21,44.13L267.82,45.46L269.66,49.41L270.27,50.4L271.49,54.05L272.1,56.11L273.33,57.41L273.94,58.15L274.55,55.91L275.16,59.75L276.39,68.87L277,60.99L276.39,89.71L275.78,88.97L273.94,84.56L273.33,85.47L272.1,85.89L271.49,85.01L270.27,84.23L269.66,84.04L267.82,84.84L267.21,84.12L265.37,82.08L264.76,82.73L263.54,81.41L262.92,81.25L261.7,81.13L261.09,80.04L260.48,80.15L259.86,81.39L256.8,83.89L256.19,83.58L253.13,85.38L252.52,86.15L251.3,85.54L250.69,84.19L249.46,83.99L248.85,84.86L247.63,82.62L247.01,83.39L244.57,77.39L243.95,77.11L239.67,84.92L239.06,84.65L237.22,85.88L236.61,86.89L236,87.22L235.39,86.22L234.77,84.87L234.16,85.52L231.71,90.23L231.1,90.3L228.04,88.5L227.43,86.82L224.98,87.76L224.37,87.93L223.15,89.15L222.53,88.81L220.09,88.55L219.47,89.19L218.25,89.03L217.64,91.21L217.03,90.64L216.41,91.31L214.58,91.66L213.97,93.17L212.74,92.24L212.13,90.78L210.29,89.31L209.68,90.11L209.07,90.01L208.46,88.81L207.85,88.25L207.23,88.78L205.4,88.18L204.79,87.25L203.56,86.48L202.95,87.08L201.73,87.35L201.11,86.78L200.5,86.22L199.89,87.4L198.06,86.75L197.44,87.16L195,85.02L194.38,85.18L191.94,84.46L191.32,84.55L189.49,84.02L188.88,85.83L186.43,81.53L185.82,81.47L183.98,83.01L183.37,81.83L182.76,81.31L182.14,82.73L181.53,82.53L180.92,83.54L179.08,83.5L178.47,84.05L177.25,85.04L176.64,86.58L175.41,87.37L174.8,86.8L173.58,88.57L172.96,88.72L171.13,88.81L170.52,88.64L169.29,91.02L168.68,90.9L166.23,88.49L165.62,88.59L165.01,88.4L164.4,87.34L163.78,85.95L163.17,86.55L160.72,83.63L160.11,85.37L158.89,82.99L158.28,83.39L157.66,84.91L157.05,84.63L156.44,85.04L155.22,83.5L154.6,83.7L153.99,81.67L153.38,82.16L152.77,81.64L149.71,77.51L149.1,77.58L147.87,75.05L147.26,77.37L146.04,81.37L145.43,79.4L144.2,76.17L143.59,77.05L142.37,76L141.75,74.27L140.53,70.45L139.92,71.32L138.69,75.9L138.08,78.93L137.47,79.68L136.86,78.78L136.25,76.98L135.63,77.61L133.8,76.13L133.19,77.48L132.57,78.56L131.96,77.62L130.74,73.11L130.13,75.57L129.51,76.53L128.9,75.35L128.29,75.57L127.68,76.79L127.07,76.79L126.45,73.2L125.84,69.82L125.23,70.03L124.62,71.31L123.39,73.87L122.78,73.54L120.95,76.43L120.33,74.26L119.72,72.28L119.11,74.8L117.89,77.79L117.27,77.02L115.44,79.24L114.83,78.49L112.38,74.92L111.77,72.92L110.54,71.09L109.93,70.72L106.87,73.88L106.26,72.18L105.65,71.83L105.03,72.75L101.36,79.18L100.75,78.82L99.53,81.63L98.91,82.13L97.08,86.15L96.47,86.91L95.24,88.16L94.63,87.64L94.02,87.42L93.41,88.12L91.57,87.45L90.96,86.65L89.12,84.84L88.51,84.05L84.84,84.94L84.23,85.8L79.94,88.31L79.33,87.36L76.88,82.25L76.27,82.65L73.21,88.97L72.6,89.63L70.76,87.7L70.15,88.49L68.93,90.01L68.32,90.19L67.09,89.94L66.48,90.57L65.26,91.83L64.64,91.67L62.2,91.32L61.58,91.76L59.14,88.35L58.52,86.08L56.08,89.94L55.46,89.9L53.02,88L52.4,88.9L51.18,89.15L50.57,89.11L48.73,91.13L48.12,91.15L46.28,91.26L45.67,92.35L43.84,91.06L43.22,90.98L40.17,91.89L39.55,91.81L37.11,90.79L36.49,91.68L33.43,90.55L32.82,91.02L31.6,91.47L30.99,90.35L29.76,91.01L29.15,91.76L27.93,92.86L27.31,91.71L26.09,91.36L25.48,91.81L24.87,92.77L24.25,92.12L22.42,93.72L21.81,93.03L16.91,93.82L16.3,92.68L15.07,92.58L14.46,91.82L13.85,91.6" style="vector-effect: none; fill: none; stroke: rgb(0, 0, 0); stroke-opacity: 0; stroke-width: 2px; opacity: 1;"/></g><g class="points"/><g class="text"/></g></g></g></g><path class="xlines-above crisp" d="M0,0" style="fill: none;"/><path class="ylines-above crisp" d="M0,0" style="fill: none;"/><g class="overlines-above"/><g class="xaxislayer-above"><g class="x2tick"><text text-anchor="middle" x="0" y="167.39999999999998" transform="translate(105.08,0)" style="font-family: 'Open Sans', verdana, arial, sans-serif; font-size: 12px; fill: rgb(42, 63, 95); fill-opacity: 1; white-space: pre; opacity: 1;">−100</text></g><g class="x2tick"><text text-anchor="middle" x="0" y="167.39999999999998" style="font-family: 'Open Sans', verdana, arial, sans-serif; font-size: 12px; fill: rgb(42, 63, 95); fill-opacity: 1; white-space: pre; opacity: 1;" transform="translate(166.26999999999998,0)">0</text></g><g class="x2tick"><text text-anchor="middle" x="0" y="167.39999999999998" style="font-family: 'Open Sans', verdana, arial, sans-serif; font-size: 12px; fill: rgb(42, 63, 95); fill-opacity: 1; white-space: pre; opacity: 1;" transform="translate(227.47,0)">100</text></g><g class="x2tick"><text text-anchor="middle" x="0" y="167.39999999999998" style="font-family: 'Open Sans', verdana, arial, sans-serif; font-size: 12px; fill: rgb(42, 63, 95); fill-opacity: 1; white-space: pre; opacity: 1;" transform="translate(288.66999999999996,0)">200</text></g></g><g class="yaxislayer-above"><g class="y2tick"><text text-anchor="end" x="48" y="4.199999999999999" transform="translate(0,154.4)" style="font-family: 'Open Sans', verdana, arial, sans-serif; font-size: 12px; fill: rgb(42, 63, 95); fill-opacity: 1; white-space: pre; opacity: 1;">0</text></g><g class="y2tick"><text text-anchor="end" x="48" y="4.199999999999999" style="font-family: 'Open Sans', verdana, arial, sans-serif; font-size: 12px; fill: rgb(42, 63, 95); fill-opacity: 1; white-space: pre; opacity: 1;" transform="translate(0,114.19)">50</text></g><g class="y2tick"><text text-anchor="end" x="48" y="4.199999999999999" style="font-family: 'Open Sans', verdana, arial, sans-serif; font-size: 12px; fill: rgb(42, 63, 95); fill-opacity: 1; white-space: pre; opacity: 1;" transform="translate(0,73.98)">100</text></g></g><g class="overaxes-above"/></g><g class="subplot xyz2"><g class="overplot"><g class="xyz2" transform="translate(49,0)" clip-path="url(#clip42a313xyz2plot)"><g class="scatterlayer2 mlayer"><g class="trace scatter trace07dd3a" style="stroke-miterlimit: 2; opacity: 1;"><g class="fills"/><g class="errorbars"/><g class="lines"><path class="js-line" d="M13.85,0L277,0" style="vector-effect: none; fill: none; stroke: rgb(0, 0, 0); stroke-opacity: 1; stroke-width: 1px; opacity: 1;"/><path class="js-line" d="M13.85,28.95L277,28.95" style="vector-effect: none; fill: none; stroke: rgb(0, 0, 0); stroke-opacity: 1; stroke-width: 1px; opacity: 1;"/><path class="js-line" d="M13.85,57.9L277,57.9" style="vector-effect: none; fill: none; stroke: rgb(0, 0, 0); stroke-opacity: 1; stroke-width: 1px; opacity: 1;"/></g><g class="points"/><g class="text"/></g></g></g></g></g><g class="subplot x2y2z2"><g class="overplot"><g class="x2y2z2" transform="translate(49,57.900000000000006)" clip-path="url(#clip42a313x2y2z2plot)"/></g></g><g class="subplot xyz3"><g class="overplot"><g class="xyz3" transform="translate(49,0)" clip-path="url(#clip42a313xyz3plot)"><g class="scatterlayer3 mlayer"><g class="trace scatter tracefe999a" style="stroke-miterlimit: 2; opacity: 1;"><g class="fills"/><g class="errorbars"/><g class="lines"/><g class="points"/><g class="text"><g class="textpoint" transform="translate(0,3)"><text x="135.63" y="28.95" text-anchor="middle" style="font-family: 'Open Sans', verdana, arial, sans-serif; font-size: 12px; fill: rgb(255, 255, 255); fill-opacity: 1; font-weight: bold; white-space: pre;">Cue</text></g></g></g></g></g></g></g><g class="subplot x2y2z3"><g class="overplot"><g class="x2y2z3" transform="translate(49,57.900000000000006)" clip-path="url(#clip42a313x2y2z3plot)"/></g></g></g><g class="polarlayer"/><g class="smithlayer"/><g class="ternarylayer"/><g class="geolayer"/><g class="funnelarealayer"/><g class="pielayer"/><g class="iciclelayer"/><g class="treemaplayer"/><g class="sunburstlayer"/><g class="glimages"/><defs id="topdefs-42a313"><g class="clips"/><clipPath id="legend42a313"><rect width="108" height="86" x="0" y="0"/></clipPath></defs><g class="layer-above"><g class="imagelayer"/><g class="shapelayer"/></g><g class="infolayer"><g class="legend" pointer-events="all" transform="translate(331.54,0)"><rect class="bg" shape-rendering="crispEdges" style="stroke: rgb(68, 68, 68); stroke-opacity: 1; fill: rgb(255, 255, 255); fill-opacity: 1; stroke-width: 0px;" width="108" height="86" x="0" y="0"/><g class="scrollbox" transform="" clip-path="url(#legend42a313)"><g class="groups"><g class="traces" transform="translate(0,14.5)" style="opacity: 1;"><text class="legendtext" text-anchor="start" x="40" y="4.680000000000001" style="font-family: 'Open Sans', verdana, arial, sans-serif; font-size: 12px; fill: rgb(42, 63, 95); fill-opacity: 1; white-space: pre;">Early R</text><g class="layers" style="opacity: 1;"><g class="legendfill"/><g class="legendlines"><path class="js-line" d="M5,0h30" style="fill: none; stroke: rgb(233, 136, 0); stroke-opacity: 1; stroke-width: 2px;"/></g><g class="legendsymbols"><g class="legendpoints"/></g></g><rect class="legendtoggle" x="0" y="-9.5" width="102.171875" height="19" style="fill: rgb(0, 0, 0); fill-opacity: 0;"/></g><g class="traces" transform="translate(0,33.5)" style="opacity: 1;"><text class="legendtext" text-anchor="start" x="40" y="4.680000000000001" style="font-family: 'Open Sans', verdana, arial, sans-serif; font-size: 12px; fill: rgb(42, 63, 95); fill-opacity: 1; white-space: pre;">80th perc.</text><g class="layers" style="opacity: 1;"><g class="legendfill"><path class="js-fill" d="M5,-2h30v6h-30z" style="stroke-width: 0; fill: rgb(233, 136, 0); fill-opacity: 0.3;"/></g><g class="legendlines"><path class="js-line" d="M5,-2h30" style="fill: none; stroke: rgb(0, 0, 0); stroke-opacity: 0; stroke-width: 2px;"/></g><g class="legendsymbols"><g class="legendpoints"/></g></g><rect class="legendtoggle" x="0" y="-9.5" width="102.171875" height="19" style="fill: rgb(0, 0, 0); fill-opacity: 0;"/></g><g class="traces" transform="translate(0,52.5)" style="opacity: 1;"><text class="legendtext" text-anchor="start" x="40" y="4.680000000000001" style="font-family: 'Open Sans', verdana, arial, sans-serif; font-size: 12px; fill: rgb(42, 63, 95); fill-opacity: 1; white-space: pre;">Late R</text><g class="layers" style="opacity: 1;"><g class="legendfill"/><g class="legendlines"><path class="js-line" d="M5,0h30" style="fill: none; stroke: rgb(188, 0, 233); stroke-opacity: 1; stroke-width: 2px;"/></g><g class="legendsymbols"><g class="legendpoints"/></g></g><rect class="legendtoggle" x="0" y="-9.5" width="102.171875" height="19" style="fill: rgb(0, 0, 0); fill-opacity: 0;"/></g><g class="traces" transform="translate(0,71.5)" style="opacity: 1;"><text class="legendtext" text-anchor="start" x="40" y="4.680000000000001" style="font-family: 'Open Sans', verdana, arial, sans-serif; font-size: 12px; fill: rgb(42, 63, 95); fill-opacity: 1; white-space: pre;">80th perc.</text><g class="layers" style="opacity: 1;"><g class="legendfill"><path class="js-fill" d="M5,-2h30v6h-30z" style="stroke-width: 0; fill: rgb(188, 0, 233); fill-opacity: 0.3;"/></g><g class="legendlines"><path class="js-line" d="M5,-2h30" style="fill: none; stroke: rgb(0, 0, 0); stroke-opacity: 0; stroke-width: 2px;"/></g><g class="legendsymbols"><g class="legendpoints"/></g></g><rect class="legendtoggle" x="0" y="-9.5" width="102.171875" height="19" style="fill: rgb(0, 0, 0); fill-opacity: 0;"/></g></g></g><rect class="scrollbar" rx="20" ry="3" width="0" height="0" style="fill: rgb(128, 139, 164); fill-opacity: 1;" x="0" y="0"/></g><g class="g-gtitle"/><g class="g-xtitle"/><g class="g-x2title"><text class="x2title" x="187.5" y="194.70625" text-anchor="middle" style="opacity: 1; font-family: 'Open Sans', verdana, arial, sans-serif; font-size: 14px; fill: rgb(42, 63, 95); fill-opacity: 1; white-space: pre;">Position [cm]</text></g><g class="g-ytitle"/><g class="g-y2title" transform="translate(8.2998046875,0)"><text class="y2title" transform="rotate(-90,5.709375000000001,106.15)" x="5.709375000000001" y="106.15" text-anchor="middle" style="opacity: 1; font-family: 'Open Sans', verdana, arial, sans-serif; font-size: 14px; fill: rgb(42, 63, 95); fill-opacity: 1; white-space: pre;">Velocity [cm/s]</text></g></g></svg>