<svg class="main-svg" xmlns="http://www.w3.org/2000/svg" xmlns:xlink="http://www.w3.org/1999/xlink" width="440" height="200" style="" viewBox="0 0 440 200"><rect x="0" y="0" width="440" height="200" style="fill: rgb(255, 255, 255); fill-opacity: 1;"/><defs id="defs-3bef50"><g class="clips"><clipPath id="clip3bef50xyplot" class="plotclip"><rect width="277" height="57.900000000000006"/></clipPath><clipPath id="clip3bef50x2y2plot" class="plotclip"><rect width="277" height="96.49999999999999"/></clipPath><clipPath id="clip3bef50xyz2plot" class="plotclip"><rect width="277" height="57.900000000000006"/></clipPath><clipPath id="clip3bef50x2y2z2plot" class="plotclip"><rect width="277" height="96.49999999999999"/></clipPath><clipPath id="clip3bef50xyz3plot" class="plotclip"><rect width="277" height="57.900000000000006"/></clipPath><clipPath id="clip3bef50x2y2z3plot" class="plotclip"><rect width="277" height="96.49999999999999"/></clipPath><clipPath class="axesclip" id="clip3bef50x"><rect x="49" y="0" width="277" height="200"/></clipPath><clipPath class="axesclip" id="clip3bef50y"><rect x="0" y="0" width="440" height="57.900000000000006"/></clipPath><clipPath class="axesclip" id="clip3bef50xy"><rect x="49" y="0" width="277" height="57.900000000000006"/></clipPath><clipPath class="axesclip" id="clip3bef50y2"><rect x="0" y="57.900000000000006" width="440" height="96.49999999999999"/></clipPath><clipPath class="axesclip" id="clip3bef50xy2"><rect x="49" y="57.900000000000006" width="277" height="96.49999999999999"/></clipPath><clipPath class="axesclip" id="clip3bef50x2"><rect x="49" y="0" width="277" height="200"/></clipPath><clipPath class="axesclip" id="clip3bef50x2y"><rect x="49" y="0" width="277" height="57.900000000000006"/></clipPath><clipPath class="axesclip" id="clip3bef50x2y2"><rect x="49" y="57.900000000000006" width="277" height="96.49999999999999"/></clipPath></g><g class="gradients"/><g class="patterns"/></defs><g class="bglayer"/><g class="layer-below"><g class="imagelayer"/><g class="shapelayer"/></g><g class="cartesianlayer"><g class="subplot xy"><g class="layer-subplot"><g class="shapelayer"/><g class="imagelayer"/></g><g class="minor-gridlayer"><g class="x"/><g class="y"/></g><g class="gridlayer"><g class="x"><path class="xgrid crisp" transform="translate(104.97999999999999,0)" d="M0,0v57.900000000000006" style="stroke: rgb(255, 255, 255); stroke-opacity: 1; stroke-width: 1px;"/><path class="xgrid crisp" transform="translate(227.09,0)" d="M0,0v57.900000000000006" style="stroke: rgb(255, 255, 255); stroke-opacity: 1; stroke-width: 1px;"/><path class="xgrid crisp" transform="translate(288.15,0)" d="M0,0v57.900000000000006" style="stroke: rgb(255, 255, 255); stroke-opacity: 1; stroke-width: 1px;"/></g><g class="y"><path class="ygrid crisp" transform="translate(0,43.43)" d="M49,0h277" style="stroke: rgb(255, 255, 255); stroke-opacity: 1; stroke-width: 1px;"/><path class="ygrid crisp" transform="translate(0,28.95)" d="M49,0h277" style="stroke: rgb(255, 255, 255); stroke-opacity: 1; stroke-width: 1px;"/><path class="ygrid crisp" transform="translate(0,14.48)" d="M49,0h277" style="stroke: rgb(255, 255, 255); stroke-opacity: 1; stroke-width: 1px;"/></g></g><g class="zerolinelayer"><path class="xzl zl crisp" transform="translate(166.03,0)" d="M0,0v57.900000000000006" style="stroke: rgb(255, 255, 255); stroke-opacity: 1; stroke-width: 2px;"/><path class="yzl zl crisp" transform="" d="M49,0h277" style="stroke: rgb(255, 255, 255); stroke-opacity: 1; stroke-width: 2px;"/></g><g class="layer-between"><g class="shapelayer"/><g class="imagelayer"/></g><path class="xlines-below"/><path class="ylines-below"/><g class="overlines-below"/><g class="xaxislayer-below"/><g class="yaxislayer-below"/><g class="overaxes-below"/><g class="overplot"><g class="xy" transform="translate(49,0)" clip-path="url(#clip3bef50xyplot)"><g class="scatterlayer mlayer"><g class="trace scatter trace101383" style="stroke-miterlimit: 2; opacity: 1;"><g class="fills"/><g class="errorbars"/><g class="lines"><path class="js-line" d="M123.14,4.92L147.56,4.92" style="vector-effect: none; fill: none; stroke: rgb(233, 136, 0); stroke-opacity: 1; stroke-width: 10px; opacity: 1;"/><path class="js-line" d="M123.14,24.03L147.56,24.03" style="vector-effect: none; fill: none; stroke: rgb(233, 136, 0); stroke-opacity: 1; stroke-width: 10px; opacity: 1;"/></g><g class="points"><path class="point" transform="translate(123.14,4.92)" d="M5,0A5,5 0 1,1 0,-5A5,5 0 0,1 5,0Z" style="opacity: 1; stroke-width: 0px; fill: rgb(233, 136, 0); fill-opacity: 1;"/><path class="point" transform="translate(147.56,4.92)" d="M5,0A5,5 0 1,1 0,-5A5,5 0 0,1 5,0Z" style="opacity: 1; stroke-width: 0px; fill: rgb(233, 136, 0); fill-opacity: 1;"/><path class="point" transform="translate(123.14,24.03)" d="M5,0A5,5 0 1,1 0,-5A5,5 0 0,1 5,0Z" style="opacity: 1; stroke-width: 0px; fill: rgb(233, 136, 0); fill-opacity: 1;"/><path class="point" transform="translate(147.56,24.03)" d="M5,0A5,5 0 1,1 0,-5A5,5 0 0,1 5,0Z" style="opacity: 1; stroke-width: 0px; fill: rgb(233, 136, 0); fill-opacity: 1;"/></g><g class="text"/></g><g class="trace scatter trace286010" style="stroke-miterlimit: 2; opacity: 1;"><g class="fills"/><g class="errorbars"/><g class="lines"><path class="js-line" d="M184.2,3.47L208.62,3.47" style="vector-effect: none; fill: none; stroke: rgb(120, 120, 120); stroke-opacity: 1; stroke-width: 7px; opacity: 1;"/><path class="js-line" d="M184.2,25.48L208.62,25.48" style="vector-effect: none; fill: none; stroke: rgb(120, 120, 120); stroke-opacity: 1; stroke-width: 7px; opacity: 1;"/></g><g class="points"/><g class="text"/></g><g class="trace scatter tracee89243" style="stroke-miterlimit: 2; opacity: 1;"><g class="fills"/><g class="errorbars"/><g class="lines"><path class="js-line" d="M234.26,3.47L257.46,3.47" style="vector-effect: none; fill: none; stroke: rgb(190, 190, 190); stroke-opacity: 1; stroke-width: 7px; opacity: 1;"/><path class="js-line" d="M234.26,25.48L257.46,25.48" style="vector-effect: none; fill: none; stroke: rgb(190, 190, 190); stroke-opacity: 1; stroke-width: 7px; opacity: 1;"/></g><g class="points"/><g class="text"/></g><g class="trace scatter trace35db24" style="stroke-miterlimit: 2; opacity: 1;"><g class="fills"/><g class="errorbars"/><g class="lines"/><g class="points"/><g class="text"><g class="textpoint" transform="translate(0,3)"><text x="191.52" y="12.16" text-anchor="middle" style="font-family: 'Open Sans', verdana, arial, sans-serif; font-size: 12px; fill: rgb(42, 63, 95); fill-opacity: 1; white-space: pre;">Stay</text></g></g></g><g class="trace scatter trace2f38bf" style="stroke-miterlimit: 2; opacity: 1;"><g class="fills"/><g class="errorbars"/><g class="lines"/><g class="points"/><g class="text"><g class="textpoint" transform="translate(0,5)"><text x="191.52" y="18.82" text-anchor="middle" style="font-family: 'Open Sans', verdana, arial, sans-serif; font-size: 20px; fill: rgb(42, 63, 95); fill-opacity: 1; white-space: pre;">→</text></g></g></g><g class="trace scatter trace6f2467" style="stroke-miterlimit: 2; opacity: 1;"><g class="fills"/><g class="errorbars"/><g class="lines"/><g class="points"/><g class="text"><g class="textpoint" transform="translate(0,4)"><text x="191.52" y="15.63" text-anchor="middle" style="font-family: 'Open Sans', verdana, arial, sans-serif; font-size: 16px; fill: rgb(64, 202, 114); fill-opacity: 1; font-weight: bold; white-space: pre;">        R</text></g></g></g><g class="trace scatter tracebc5b3e" style="stroke-miterlimit: 2; opacity: 1;"><g class="fills"/><g class="errorbars"/><g class="lines"><path class="js-line" d="M123.14,33.87L147.56,33.87" style="vector-effect: none; fill: none; stroke: rgb(188, 0, 233); stroke-opacity: 1; stroke-width: 10px; opacity: 1;"/><path class="js-line" d="M123.14,52.98L147.56,52.98" style="vector-effect: none; fill: none; stroke: rgb(188, 0, 233); stroke-opacity: 1; stroke-width: 10px; opacity: 1;"/></g><g class="points"><path class="point" transform="translate(123.14,33.87)" d="M5,0A5,5 0 1,1 0,-5A5,5 0 0,1 5,0Z" style="opacity: 1; stroke-width: 0px; fill: rgb(188, 0, 233); fill-opacity: 1;"/><path class="point" transform="translate(147.56,33.87)" d="M5,0A5,5 0 1,1 0,-5A5,5 0 0,1 5,0Z" style="opacity: 1; stroke-width: 0px; fill: rgb(188, 0, 233); fill-opacity: 1;"/><path class="point" transform="translate(123.14,52.98)" d="M5,0A5,5 0 1,1 0,-5A5,5 0 0,1 5,0Z" style="opacity: 1; stroke-width: 0px; fill: rgb(188, 0, 233); fill-opacity: 1;"/><path class="point" transform="translate(147.56,52.98)" d="M5,0A5,5 0 1,1 0,-5A5,5 0 0,1 5,0Z" style="opacity: 1; stroke-width: 0px; fill: rgb(188, 0, 233); fill-opacity: 1;"/></g><g class="text"/></g><g class="trace scatter trace2c34ed" style="stroke-miterlimit: 2; opacity: 1;"><g class="fills"/><g class="errorbars"/><g class="lines"><path class="js-line" d="M184.2,32.42L208.62,32.42" style="vector-effect: none; fill: none; stroke: rgb(120, 120, 120); stroke-opacity: 1; stroke-width: 7px; opacity: 1;"/><path class="js-line" d="M184.2,54.43L208.62,54.43" style="vector-effect: none; fill: none; stroke: rgb(120, 120, 120); stroke-opacity: 1; stroke-width: 7px; opacity: 1;"/></g><g class="points"/><g class="text"/></g><g class="trace scatter tracee3ee79" style="stroke-miterlimit: 2; opacity: 1;"><g class="fills"/><g class="errorbars"/><g class="lines"><path class="js-line" d="M234.26,32.42L257.46,32.42" style="vector-effect: none; fill: none; stroke: rgb(190, 190, 190); stroke-opacity: 1; stroke-width: 7px; opacity: 1;"/><path class="js-line" d="M234.26,54.43L257.46,54.43" style="vector-effect: none; fill: none; stroke: rgb(190, 190, 190); stroke-opacity: 1; stroke-width: 7px; opacity: 1;"/></g><g class="points"/><g class="text"/></g><g class="trace scatter trace82765c" style="stroke-miterlimit: 2; opacity: 1;"><g class="fills"/><g class="errorbars"/><g class="lines"/><g class="points"/><g class="text"><g class="textpoint" transform="translate(0,3)"><text x="240.98" y="41.11" text-anchor="middle" style="font-family: 'Open Sans', verdana, arial, sans-serif; font-size: 12px; fill: rgb(42, 63, 95); fill-opacity: 1; white-space: pre;">Stay</text></g></g></g><g class="trace scatter trace9d1b6f" style="stroke-miterlimit: 2; opacity: 1;"><g class="fills"/><g class="errorbars"/><g class="lines"/><g class="points"/><g class="text"><g class="textpoint" transform="translate(0,5)"><text x="240.98" y="47.77" text-anchor="middle" style="font-family: 'Open Sans', verdana, arial, sans-serif; font-size: 20px; fill: rgb(42, 63, 95); fill-opacity: 1; white-space: pre;">→</text></g></g></g><g class="trace scatter trace22d734" style="stroke-miterlimit: 2; opacity: 1;"><g class="fills"/><g class="errorbars"/><g class="lines"/><g class="points"/><g class="text"><g class="textpoint" transform="translate(0,4)"><text x="240.98" y="44.58" text-anchor="middle" style="font-family: 'Open Sans', verdana, arial, sans-serif; font-size: 16px; fill: rgb(64, 202, 114); fill-opacity: 1; font-weight: bold; white-space: pre;">        R</text></g></g></g><g class="trace scatter tracee44569" style="stroke-miterlimit: 2; opacity: 1;"><g class="fills"/><g class="errorbars"/><g class="lines"/><g class="points"/><g class="text"><g class="textpoint" transform="translate(0,-4.799999999999999)"><text x="13.85" y="28.37" text-anchor="start" style="font-family: 'Open Sans', verdana, arial, sans-serif; font-size: 12px; fill: rgb(42, 63, 95); fill-opacity: 1; white-space: pre;"><tspan class="line" dy="0em" x="13.85" y="28.37">50% of</tspan><tspan class="line" dy="1.3em" x="13.85" y="28.37">trials</tspan></text></g></g></g></g></g></g><path class="xlines-above crisp" d="M0,0" style="fill: none; stroke-width: 1px; stroke: rgb(0, 0, 0); stroke-opacity: 0;"/><path class="ylines-above crisp" d="M0,0" style="fill: none;"/><g class="overlines-above"/><g class="xaxislayer-above"><path class="xtick ticks crisp" d="M0,58.900000000000006v5" transform="translate(104.97999999999999,0)" style="stroke: rgb(68, 68, 68); stroke-opacity: 1; stroke-width: 1px;"/><path class="xtick ticks crisp" d="M0,58.900000000000006v5" transform="translate(166.03,0)" style="stroke: rgb(68, 68, 68); stroke-opacity: 1; stroke-width: 1px;"/><path class="xtick ticks crisp" d="M0,58.900000000000006v5" transform="translate(227.09,0)" style="stroke: rgb(68, 68, 68); stroke-opacity: 1; stroke-width: 1px;"/><path class="xtick ticks crisp" d="M0,58.900000000000006v5" transform="translate(288.15,0)" style="stroke: rgb(68, 68, 68); stroke-opacity: 1; stroke-width: 1px;"/></g><g class="yaxislayer-above"/><g class="overaxes-above"/></g><g class="subplot x2y2"><g class="layer-subplot"><g class="shapelayer"/><g class="imagelayer"/></g><g class="minor-gridlayer"><g class="x2"/><g class="y2"/></g><g class="gridlayer"><g class="x2"/><g class="y2"><path class="y2grid crisp" transform="translate(0,114.19)" d="M49,0h277" style="stroke: rgb(211, 211, 211); stroke-opacity: 1; stroke-width: 1px;"/><path class="y2grid crisp" transform="translate(0,73.98)" d="M49,0h277" style="stroke: rgb(211, 211, 211); stroke-opacity: 1; stroke-width: 1px;"/></g></g><g class="zerolinelayer"><path class="y2zl zl crisp" transform="translate(0,154.4)" d="M49,0h277" style="stroke: rgb(211, 211, 211); stroke-opacity: 1; stroke-width: 2px;"/></g><g class="layer-between"><g class="shapelayer"/><g class="imagelayer"/></g><path class="xlines-below"/><path class="ylines-below"/><g class="overlines-below"/><g class="xaxislayer-below"/><g class="yaxislayer-below"/><g class="overaxes-below"/><g class="overplot"><g class="x2y2" transform="translate(49,57.900000000000006)" clip-path="url(#clip3bef50x2y2plot)"><g class="scatterlayer mlayer"><g class="trace scatter trace79a922" style="stroke-miterlimit: 2; opacity: 1;"><g class="fills"/><g class="errorbars"/><g class="lines"><path class="js-line" d="M13.85,57.55L16.9,84.94L17.51,83.14L18.73,80.13L19.35,77.46L21.18,72.71L21.79,69.86L23.01,65.72L23.62,66.74L24.23,65.96L24.84,63.19L26.67,56.86L27.28,54.95L29.11,46.33L29.72,45.57L32.17,44.38L32.78,42.33L34,35.64L34.61,34.74L38.27,31.15L38.88,30.58L42.55,24.79L43.16,23.78L48.04,17.42L48.65,18.02L52.93,15.04L53.54,14.71L54.76,13.83L55.37,12.43L59.64,8.63L60.25,8.58L62.08,8.03L62.69,8.05L63.92,8.36L64.53,7.23L65.75,7.31L66.36,6.95L68.8,7.38L69.41,5.89L70.02,4.41L70.63,5.36L71.85,6.65L72.46,6.4L74.3,5.88L74.91,6.52L76.13,8.84L76.74,8.48L78.57,6.73L79.18,5.58L80.4,4.08L81.01,5.01L82.84,8.95L83.45,8.96L84.67,8.4L85.29,9.32L86.51,8.96L87.12,6.07L87.73,5.47L88.34,6.55L88.95,8.07L89.56,4.34L90.17,4.39L90.78,2.94L91.39,3.18L92,4.52L93.22,5.73L93.83,5.4L95.66,3.17L96.28,4.91L96.89,6.23L97.5,5.88L98.11,5.51L101.16,2.3L101.77,3.88L102.38,3.84L102.99,5.26L105.43,7.97L106.04,6.98L107.27,6.9L107.88,7.31L110.93,9.94L111.54,9.83L112.15,11.1L112.76,10.18L113.98,11.12L114.59,11.28L117.03,17.12L117.64,17.55L118.26,19.93L118.87,19.09L120.09,16.32L120.7,17.05L121.92,18.91L122.53,20.09L123.75,20.1L124.36,21.53L127.41,33.05L128.02,39.61L131.69,51.74L132.3,51.42L135.96,59.48L136.57,59.06L137.79,60.04L138.4,62.7L140.85,67.39L141.46,66.24L143.9,69.36L144.51,69.59L145.73,68.47L146.34,69.58L146.95,69.86L147.56,71.63L148.78,74.65L149.39,74.05L150,74.1L150.61,75.16L151.23,75.66L151.84,77.21L153.67,80.46L154.28,79.81L155.5,79.3L156.11,79.96L157.94,82.75L158.55,82.81L159.77,81.1L160.38,81.84L161.6,81.14L162.22,80.73L162.83,81.61L163.44,80.96L164.66,81.87L165.27,79.95L166.49,76.75L167.1,75.96L168.93,71.57L169.54,71.15L170.76,71.06L171.37,67.88L173.21,61.81L173.82,60.67L176.87,52.39L177.48,52.18L181.75,44.01L182.36,43.28L182.97,42.84L183.58,41.35L186.03,35.29L186.64,34.15L189.69,37.41L190.3,36.49L190.91,37.12L191.52,39.45L192.74,37.24L193.35,37.04L195.19,45.7L195.8,48.76L198.85,51.38L199.46,51.27L201.9,63.51L202.51,64.75L203.73,65.85L204.34,65.37L206.79,63.35L207.4,63.67L209.23,64.53L209.84,63.61L211.67,59.02L212.28,58.28L217.17,48.21L217.78,50.19L219,52.4L219.61,50.92L222.66,45.4L223.27,44.52L225.1,41.14L225.71,39.42L228.77,31.54L229.38,30.83L234.87,25.52L235.48,26.53L236.09,26.74L236.7,25.54L237.92,23.32L238.53,23.98L239.15,27.98L239.76,26.87L241.59,23.62L242.2,23.94L242.81,24.8L243.42,22.01L244.03,23.45L244.64,22.73L247.08,19.85L247.69,19.55L250.75,18.54L251.36,18.55L253.19,17.23L253.8,16.57L254.41,15.66L255.02,13.29L256.24,11.46L256.85,11.56L257.46,11.54L258.07,13.93L259.29,18.16L259.9,17.6L261.13,18.19L261.74,23.6L262.35,24.56L262.96,28.23L264.18,34.92L264.79,34.04L265.4,32.84L266.01,35.22L267.23,39.5L267.84,37.61L269.06,33.41L269.67,33.78L270.28,35.93L270.89,34.72L272.12,38.68L272.73,41.07L273.95,45L274.56,50.8L275.78,57.89L276.39,45.31L277,46.46" style="vector-effect: none; fill: none; stroke: rgb(233, 136, 0); stroke-opacity: 1; stroke-width: 2px; opacity: 1;"/></g><g class="points"/><g class="text"/></g><g class="trace scatter traced0124f" style="stroke-miterlimit: 2; opacity: 1;"><g class="fills"><g><path class="js-fill" d="M13.85,33.08L15.07,48.3L15.68,42.87L16.29,40.89L16.9,35.93L18.73,21.05L19.35,19.24L21.79,22.54L22.4,22.56L24.84,22.07L25.45,20.87L27.28,19.07L27.89,19.48L30.95,11.55L31.56,10.55L38.27,-0.46L38.88,-1.14L49.87,-11.53L50.48,-11.55L53.54,-11.31L54.15,-10.41L55.98,-10.69L56.59,-11.32L61.47,-12.92L62.08,-12.36L65.14,-11.66L65.75,-12.29L69.41,-14.79L70.02,-14.53L74.91,-14.15L75.52,-13.19L86.51,-19.81L87.12,-19.14L90.78,-16.11L91.39,-16.14L96.89,-16.19L97.5,-16.5L100.55,-16.18L101.16,-14.88L102.38,-14.59L102.99,-15.17L103.6,-15.93L107.27,-15.29L107.88,-15.67L112.15,-11.28L112.76,-11.41L115.2,-9.88L115.81,-9.37L118.87,-5.38L119.48,-4.14L120.09,-3.36L120.7,-4.03L121.31,-4.62L122.53,-1.49L123.14,1.01L124.36,3.58L124.97,4.14L126.19,3.93L126.8,8.48L128.02,13.28L128.63,14.51L129.86,21.06L130.47,21.91L139.01,37.77L139.62,40.1L140.85,42.51L141.46,40.11L142.68,37.83L143.29,37.57L144.51,38.26L145.12,42.01L146.95,47.62L147.56,46.99L148.78,46.8L149.39,48.56L151.23,53.87L151.84,52.23L153.67,49.55L154.28,51.96L156.11,59.68L156.72,59.88L157.94,64.05L158.55,64.43L159.16,64.68L159.77,62.88L160.99,59.75L161.6,60.93L162.22,59.86L162.83,57.01L164.66,50.22L165.27,47.91L170.76,31.6L171.37,31.22L181.75,13.89L182.36,13.64L184.81,12.54L185.42,11.43L191.52,0.06L192.13,0.67L193.35,5.12L193.96,4.34L196.41,2.76L197.02,2.41L198.24,1.42L198.85,-0.58L201.9,-11.91L202.51,-12.04L209.84,-12.37L210.45,-12.88L219,-17.59L219.61,-15.07L222.05,-7.89L222.66,-9.55L223.88,-12.57L224.49,-9.49L225.1,-8.54L225.71,-9L226.32,-9.49L228.16,-13.4L228.77,-15.08L241.59,-16.57L242.2,-17.75L250.14,-22.49L250.75,-22.2L255.63,-18.21L256.24,-15.4L261.74,-16.34L262.35,-16.29L263.57,-15.56L264.18,-13.65L265.4,-11.41L266.01,-12.13L266.62,-12.87L267.23,-11.29L268.45,-12.37L269.06,-12.83L269.67,-12.39L270.28,-9.98L272.12,-6.2L272.73,-3.09L274.56,6.34L275.17,14.84L276.39,22.83L277,33.05L276.39,73.04L275.78,87.65L273.95,85.7L273.34,84.43L272.73,83.93L272.12,81.97L270.28,82.26L269.67,81.75L269.06,81.94L268.45,80.32L266.62,81.29L266.01,80.93L264.79,81.95L264.18,81.74L262.96,81.1L262.35,81.93L260.51,82.37L259.9,83.28L258.68,84.52L258.07,84.09L255.63,82.68L255.02,84.2L253.19,85.01L252.58,84.98L251.97,86.17L251.36,85.85L250.75,85.7L250.14,86.6L249.52,85.98L245.86,83.05L245.25,83.9L243.42,84.08L242.81,85.44L240.37,85.64L239.76,86.9L234.87,83.73L234.26,83.95L233.65,83.04L233.04,83.53L231.82,85.26L231.21,84.36L229.99,86.69L229.38,86.48L228.16,86.01L227.54,85.61L226.93,85.8L226.32,83.57L224.49,85.97L223.88,85.79L222.66,85.31L222.05,85.19L220.83,84.54L220.22,83.27L218.39,79.95L217.78,79.5L217.17,78.55L216.55,81.04L214.72,82.13L214.11,80.72L212.28,82.19L211.67,82.83L210.45,80.87L209.84,81.6L208.01,84.07L207.4,84.51L206.18,83.79L205.56,84.32L203.12,85.2L202.51,84.68L200.07,84.39L199.46,82.95L197.63,80.91L197.02,82.4L195.8,79.49L195.19,79.94L194.57,80.78L193.96,80.05L193.35,80.76L192.13,80.96L191.52,80.61L189.08,80.27L188.47,78.84L187.25,78.7L186.64,79.57L185.42,79.16L184.81,78.85L184.2,78.36L183.58,79.15L179.92,84.84L179.31,84.92L177.48,84.55L176.87,84.86L176.26,84.7L175.65,85.9L173.82,88.6L173.21,88.84L171.98,89.27L171.37,89.68L170.15,89.02L169.54,89.8L168.93,90.67L168.32,90.14L167.71,88.83L167.1,89.62L165.88,89.37L165.27,89.25L164.66,87.67L164.05,89.08L162.83,90.22L162.22,90.1L159.16,92.92L158.55,92.73L156.11,91.07L155.5,90.96L154.89,90.7L154.28,89.3L152.45,88.02L151.84,87.77L150.61,86.17L150,85.63L149.39,85.65L148.78,84.46L147.56,83.3L146.95,81.96L145.12,80.22L144.51,79.98L143.29,78.77L142.68,78.42L142.07,79.3L141.46,77.73L140.85,78.64L140.24,77.39L139.01,77.06L138.4,77.4L137.79,78.61L137.18,76.54L136.57,76.87L135.96,76.21L133.52,73.37L132.91,70.42L128.63,63.73L128.02,61.97L126.8,60.49L126.19,60.13L124.36,53.14L123.75,55.86L122.53,57.58L121.92,56.08L121.31,56.15L120.7,52.96L120.09,49.76L119.48,52.17L118.26,40.32L117.64,41.23L117.03,42.21L116.42,42.43L115.81,41.81L113.98,39.14L113.37,35.21L111.54,39.23L110.93,38.74L109.71,37.43L109.1,38.03L107.88,40.46L107.27,38.84L105.43,34.37L104.82,34.56L101.16,35.49L100.55,35.26L99.33,34.86L98.72,35.97L96.89,36.72L96.28,36.55L95.05,39.66L94.44,37.99L92.61,34.2L92,35L88.95,45.02L88.34,44.75L86.51,48.28L85.9,48.88L84.67,49.96L84.06,47.8L82.23,39.18L81.62,40.54L75.52,55.03L74.91,53.05L71.85,46.66L71.24,48.29L69.41,58.09L68.8,57.96L68.19,52.84L67.58,51.64L66.97,53.91L63.31,67.96L62.69,70.89L60.25,80.71L59.64,82.66L58.42,84.88L57.81,84.69L55.37,78.91L54.76,79.76L54.15,80.34L53.54,77.47L52.93,75.73L52.32,77.05L51.09,79.18L50.48,78.65L49.26,82.85L48.65,81.85L46.21,80.53L45.6,81.72L43.77,83.46L43.16,83.12L41.94,83.31L41.33,83.75L40.1,85.09L39.49,84.64L37.66,85.46L37.05,85.95L35.22,87.84L34.61,88.71L33.39,89.66L32.78,89.13L30.95,90.09L30.34,89.55L29.11,90.04L28.5,89.78L26.67,90.75L26.06,90.46L22.4,92.03L21.79,92.15L19.96,92.75L19.35,91.15L16.9,93.39L16.29,89.2L15.07,84.91L14.46,84.61L13.85,83.95Z" style="fill: rgb(233, 136, 0); fill-opacity: 0.3; stroke-width: 0;"/></g></g><g class="errorbars"/><g class="lines"><path class="js-line" d="M13.85,33.08L15.07,48.3L15.68,42.87L16.29,40.89L16.9,35.93L18.73,21.05L19.35,19.24L21.79,22.54L22.4,22.56L24.84,22.07L25.45,20.87L27.28,19.07L27.89,19.48L30.95,11.55L31.56,10.55L38.27,-0.46L38.88,-1.14L49.87,-11.53L50.48,-11.55L53.54,-11.31L54.15,-10.41L55.98,-10.69L56.59,-11.32L61.47,-12.92L62.08,-12.36L65.14,-11.66L65.75,-12.29L69.41,-14.79L70.02,-14.53L74.91,-14.15L75.52,-13.19L86.51,-19.81L87.12,-19.14L90.78,-16.11L91.39,-16.14L96.89,-16.19L97.5,-16.5L100.55,-16.18L101.16,-14.88L102.38,-14.59L102.99,-15.17L103.6,-15.93L107.27,-15.29L107.88,-15.67L112.15,-11.28L112.76,-11.41L115.2,-9.88L115.81,-9.37L118.87,-5.38L119.48,-4.14L120.09,-3.36L120.7,-4.03L121.31,-4.62L122.53,-1.49L123.14,1.01L124.36,3.58L124.97,4.14L126.19,3.93L126.8,8.48L128.02,13.28L128.63,14.51L129.86,21.06L130.47,21.91L139.01,37.77L139.62,40.1L140.85,42.51L141.46,40.11L142.68,37.83L143.29,37.57L144.51,38.26L145.12,42.01L146.95,47.62L147.56,46.99L148.78,46.8L149.39,48.56L151.23,53.87L151.84,52.23L153.67,49.55L154.28,51.96L156.11,59.68L156.72,59.88L157.94,64.05L158.55,64.43L159.16,64.68L159.77,62.88L160.99,59.75L161.6,60.93L162.22,59.86L162.83,57.01L164.66,50.22L165.27,47.91L170.76,31.6L171.37,31.22L181.75,13.89L182.36,13.64L184.81,12.54L185.42,11.43L191.52,0.06L192.13,0.67L193.35,5.12L193.96,4.34L196.41,2.76L197.02,2.41L198.24,1.42L198.85,-0.58L201.9,-11.91L202.51,-12.04L209.84,-12.37L210.45,-12.88L219,-17.59L219.61,-15.07L222.05,-7.89L222.66,-9.55L223.88,-12.57L224.49,-9.49L225.1,-8.54L225.71,-9L226.32,-9.49L228.16,-13.4L228.77,-15.08L241.59,-16.57L242.2,-17.75L250.14,-22.49L250.75,-22.2L255.63,-18.21L256.24,-15.4L261.74,-16.34L262.35,-16.29L263.57,-15.56L264.18,-13.65L265.4,-11.41L266.01,-12.13L266.62,-12.87L267.23,-11.29L268.45,-12.37L269.06,-12.83L269.67,-12.39L270.28,-9.98L272.12,-6.2L272.73,-3.09L274.56,6.34L275.17,14.84L276.39,22.83L277,33.05L276.39,73.04L275.78,87.65L273.95,85.7L273.34,84.43L272.73,83.93L272.12,81.97L270.28,82.26L269.67,81.75L269.06,81.94L268.45,80.32L266.62,81.29L266.01,80.93L264.79,81.95L264.18,81.74L262.96,81.1L262.35,81.93L260.51,82.37L259.9,83.28L258.68,84.52L258.07,84.09L255.63,82.68L255.02,84.2L253.19,85.01L252.58,84.98L251.97,86.17L251.36,85.85L250.75,85.7L250.14,86.6L249.52,85.98L245.86,83.05L245.25,83.9L243.42,84.08L242.81,85.44L240.37,85.64L239.76,86.9L234.87,83.73L234.26,83.95L233.65,83.04L233.04,83.53L231.82,85.26L231.21,84.36L229.99,86.69L229.38,86.48L228.16,86.01L227.54,85.61L226.93,85.8L226.32,83.57L224.49,85.97L223.88,85.79L222.66,85.31L222.05,85.19L220.83,84.54L220.22,83.27L218.39,79.95L217.78,79.5L217.17,78.55L216.55,81.04L214.72,82.13L214.11,80.72L212.28,82.19L211.67,82.83L210.45,80.87L209.84,81.6L208.01,84.07L207.4,84.51L206.18,83.79L205.56,84.32L203.12,85.2L202.51,84.68L200.07,84.39L199.46,82.95L197.63,80.91L197.02,82.4L195.8,79.49L195.19,79.94L194.57,80.78L193.96,80.05L193.35,80.76L192.13,80.96L191.52,80.61L189.08,80.27L188.47,78.84L187.25,78.7L186.64,79.57L185.42,79.16L184.81,78.85L184.2,78.36L183.58,79.15L179.92,84.84L179.31,84.92L177.48,84.55L176.87,84.86L176.26,84.7L175.65,85.9L173.82,88.6L173.21,88.84L171.98,89.27L171.37,89.68L170.15,89.02L169.54,89.8L168.93,90.67L168.32,90.14L167.71,88.83L167.1,89.62L165.88,89.37L165.27,89.25L164.66,87.67L164.05,89.08L162.83,90.22L162.22,90.1L159.16,92.92L158.55,92.73L156.11,91.07L155.5,90.96L154.89,90.7L154.28,89.3L152.45,88.02L151.84,87.77L150.61,86.17L150,85.63L149.39,85.65L148.78,84.46L147.56,83.3L146.95,81.96L145.12,80.22L144.51,79.98L143.29,78.77L142.68,78.42L142.07,79.3L141.46,77.73L140.85,78.64L140.24,77.39L139.01,77.06L138.4,77.4L137.79,78.61L137.18,76.54L136.57,76.87L135.96,76.21L133.52,73.37L132.91,70.42L128.63,63.73L128.02,61.97L126.8,60.49L126.19,60.13L124.36,53.14L123.75,55.86L122.53,57.58L121.92,56.08L121.31,56.15L120.7,52.96L120.09,49.76L119.48,52.17L118.26,40.32L117.64,41.23L117.03,42.21L116.42,42.43L115.81,41.81L113.98,39.14L113.37,35.21L111.54,39.23L110.93,38.74L109.71,37.43L109.1,38.03L107.88,40.46L107.27,38.84L105.43,34.37L104.82,34.56L101.16,35.49L100.55,35.26L99.33,34.86L98.72,35.97L96.89,36.72L96.28,36.55L95.05,39.66L94.44,37.99L92.61,34.2L92,35L88.95,45.02L88.34,44.75L86.51,48.28L85.9,48.88L84.67,49.96L84.06,47.8L82.23,39.18L81.62,40.54L75.52,55.03L74.91,53.05L71.85,46.66L71.24,48.29L69.41,58.09L68.8,57.96L68.19,52.84L67.58,51.64L66.97,53.91L63.31,67.96L62.69,70.89L60.25,80.71L59.64,82.66L58.42,84.88L57.81,84.69L55.37,78.91L54.76,79.76L54.15,80.34L53.54,77.47L52.93,75.73L52.32,77.05L51.09,79.18L50.48,78.65L49.26,82.85L48.65,81.85L46.21,80.53L45.6,81.72L43.77,83.46L43.16,83.12L41.94,83.31L41.33,83.75L40.1,85.09L39.49,84.64L37.66,85.46L37.05,85.95L35.22,87.84L34.61,88.71L33.39,89.66L32.78,89.13L30.95,90.09L30.34,89.55L29.11,90.04L28.5,89.78L26.67,90.75L26.06,90.46L22.4,92.03L21.79,92.15L19.96,92.75L19.35,91.15L16.9,93.39L16.29,89.2L15.07,84.91L14.46,84.61L13.85,83.95" style="vector-effect: none; fill: none; stroke: rgb(0, 0, 0); stroke-opacity: 0; stroke-width: 2px; opacity: 1;"/></g><g class="points"/><g class="text"/></g><g class="trace scatter tracec9e971" style="stroke-miterlimit: 2; opacity: 1;"><g class="fills"/><g class="errorbars"/><g class="lines"><path class="js-line" d="M13.85,53.42L16.9,84.35L17.51,82.36L20.57,73.17L21.18,70.4L26.06,47.31L26.67,46.18L29.11,41.02L29.72,39.49L34.61,27.6L35.22,27.03L38.88,24.21L39.49,23.41L40.1,22.13L40.71,22.72L41.33,23.29L41.94,22.62L44.99,18.61L45.6,20.56L48.65,17.54L49.26,17.28L49.87,17.13L50.48,16.05L51.09,15.66L51.7,16.48L52.93,14.02L53.54,13.63L55.98,11.05L56.59,11.04L59.03,9.57L59.64,10.24L60.86,11.58L61.47,11.66L63.31,12.44L63.92,11.69L66.36,11.41L66.97,10.9L67.58,10.01L68.19,6.84L70.02,4.96L70.63,4.95L71.85,4.99L72.46,7.73L73.68,9.93L74.3,9.82L75.52,9.19L76.13,10.22L76.74,11.2L77.35,9.37L78.57,6.54L79.18,7.45L81.01,5.44L81.62,6.24L82.84,4.67L83.45,4.6L84.67,5.25L85.29,5.24L87.12,5.72L87.73,5.1L90.78,9.01L91.39,10.12L93.22,14.02L93.83,14.23L95.66,18.49L96.28,17.77L96.89,17.23L97.5,15.03L98.11,14.46L98.72,14.92L101.16,22.66L101.77,25.77L103.6,32.89L104.21,33.87L105.43,33.13L106.04,33.6L106.65,34.93L107.27,33.94L109.1,36.79L109.71,36.3L110.32,34.03L110.93,34.88L113.37,35.24L113.98,35.48L115.81,36.24L116.42,35.04L118.87,31.74L119.48,31.41L122.53,28.3L123.14,26.42L127.41,20.51L128.02,19.4L131.08,16.94L131.69,16.48L133.52,14.51L134.13,14.24L137.18,10.56L137.79,10.38L139.01,9.73L139.62,8.98L140.85,8.86L141.46,9.14L143.9,6.27L144.51,6.77L146.34,4.81L146.95,4.69L150,4.13L150.61,3.52L151.84,4.12L152.45,4.87L153.06,5.78L153.67,5L155.5,2.14L156.11,3.32L159.77,4.56L160.38,6.48L162.22,10.93L162.83,9.19L163.44,7.72L164.05,9.69L165.27,14.23L165.88,14.38L168.93,15.69L169.54,14.57L170.76,13.27L171.37,13.92L172.59,12.13L173.21,11.96L173.82,13.83L174.43,13.07L175.65,12.66L176.26,12.65L178.7,15.04L179.31,15.51L181.75,15.68L182.36,15.3L183.58,14.62L184.2,14.88L184.81,14.86L185.42,16.13L186.64,16.47L187.25,15.9L188.47,14.89L189.08,14.96L190.3,15.4L190.91,16.17L193.96,19.76L194.57,19.41L198.24,20.92L198.85,21.65L200.68,22.97L201.29,23.04L202.51,22.47L203.12,23.68L204.95,23.62L205.56,23.19L207.4,19.72L208.01,19.46L211.06,18.43L211.67,18.37L213.5,18.17L214.11,17.33L215.94,16.69L216.55,15.43L218.39,11.57L219,11.9L220.22,13.16L220.83,13.32L222.05,12.92L222.66,12.91L223.27,12.87L223.88,14.38L225.1,13.84L225.71,11.95L227.54,10.07L228.16,9.51L229.38,9.1L229.99,7.46L232.43,5.04L233.04,4.15L234.26,2.53L234.87,3.05L236.7,3.3L237.31,4.08L238.53,5.63L239.15,5.82L240.37,4.84L240.98,4.9L242.81,1.24L243.42,-0.85L245.86,-4.06L246.47,-3.88L247.08,-4.31L247.69,-2.77L249.52,-1.19L250.14,-1.28L254.41,4.36L255.02,5.35L258.07,2.95L258.68,0.06L259.29,0.16L259.9,2.88L260.51,2.75L261.13,3.53L262.96,4.31L263.57,4.07L265.4,5.49L266.01,5.69L267.23,5.75L267.84,7.3L269.06,6.24L269.67,6.84L270.89,7.91L271.5,8.72L273.34,9.87L273.95,10.85L277,36.78" style="vector-effect: none; fill: none; stroke: rgb(188, 0, 233); stroke-opacity: 1; stroke-width: 2px; opacity: 1;"/></g><g class="points"/><g class="text"/></g><g class="trace scatter traceaf25fa" style="stroke-miterlimit: 2; opacity: 1;"><g class="fills"><g><path class="js-fill" d="M13.85,20.92L14.46,20.22L15.07,21.81L16.29,23.98L16.9,23.06L18.12,9.4L18.73,9.12L21.18,7.63L21.79,7.86L25.45,8.83L26.06,8.92L30.34,4.76L30.95,4.81L34,7.36L34.61,7.62L41.94,-2.92L42.55,-3.33L49.26,-10.55L49.87,-10.55L55.98,-11.79L56.59,-11.68L58.42,-12.77L59.03,-13.73L65.14,-15.86L65.75,-15.61L69.41,-13.5L70.02,-12.97L72.46,-12.73L73.07,-13.33L76.74,-18.43L77.96,-16.99L78.57,-15.79L82.23,-15.51L82.84,-15.5L85.9,-15.53L86.51,-14.83L90.17,-13.63L90.78,-13.79L92.61,-12.74L93.22,-10.66L96.28,-9.58L96.89,-9.18L98.72,-10.92L99.33,-11.98L99.94,-12.92L100.55,-12.13L101.16,-10.05L101.77,-9.28L102.38,-10.02L102.99,-10.63L104.82,-10.59L105.43,-9.4L107.88,-2.16L108.49,-1.96L110.93,-0.14L111.54,0.72L112.15,1L112.76,0.04L113.98,-0.64L114.59,-0.03L117.03,4.77L117.64,3.81L118.87,-0.71L119.48,1.77L121.31,5.71L121.92,5.3L123.14,2.08L123.75,-0.22L126.8,-7.53L127.41,-7.26L128.63,-5.35L129.25,-3.49L130.47,-2.1L131.08,-2.82L139.62,-11.74L140.24,-11.64L143.29,-12.65L143.9,-13.43L146.95,-14.46L147.56,-13.96L148.78,-12.41L149.39,-12.72L150,-12.86L165.88,-14.53L166.49,-13.91L171.37,-10.06L171.98,-9.8L178.09,-10.85L178.7,-11.04L186.64,-12.86L187.25,-12.66L189.69,-11.98L190.3,-13.54L191.52,-14.97L192.13,-14.02L192.74,-13.35L195.19,-13.9L195.8,-14.56L197.02,-15.24L197.63,-14.69L198.24,-13.15L201.9,-12.85L202.51,-12.49L204.34,-15.01L204.95,-16.22L208.62,-18.7L209.23,-18.31L221.44,-18.54L222.05,-19.24L225.71,-20.54L226.32,-20.63L245.25,-21.2L245.86,-20.07L250.14,-20.22L250.75,-20.09L256.85,-19.78L257.46,-17.99L259.29,-19.48L259.9,-17.51L262.96,-16.37L263.57,-15.57L266.01,-11L266.62,-12.88L267.23,-12.63L269.67,-14.53L270.28,-15.42L272.73,-14.11L273.34,-13.08L273.95,-11.98L274.56,-4.54L275.78,12.19L276.39,13.23L277,12.81L277,53.76L276.39,56.14L275.78,72.86L272.73,57.87L272.12,57.49L270.89,57.31L270.28,58.16L269.06,58.87L268.45,58.84L265.4,62.48L264.79,63.24L264.18,63.53L263.57,62.63L261.13,59.83L260.51,59.32L259.29,58.51L258.68,58.86L255.63,51.05L255.02,47.84L253.19,38.48L252.58,37.91L251.36,35.32L250.75,36.36L250.14,37.49L249.52,34.82L244.64,33.9L244.03,37.38L242.2,44.32L241.59,45.25L240.98,45.32L240.37,44.56L239.76,41.84L239.15,43.01L236.09,52.13L235.48,51.83L234.26,51.84L233.65,52.27L230.6,54L229.99,56.72L228.16,61.85L227.54,59.64L219.61,76.58L219,75.45L217.17,76.61L216.55,76.69L212.28,75.51L211.67,74.14L209.23,76.06L208.62,75.95L208.01,76.2L207.4,75.15L203.12,65.32L202.51,65.53L200.68,70.39L200.07,69.48L199.46,68.94L198.85,70.08L198.24,70.48L197.63,68.86L197.02,67.44L196.41,68.22L193.96,61.88L193.35,61.6L191.52,58.45L190.91,56.34L188.47,49.71L187.86,50.01L186.64,50.31L186.03,50.92L183.58,53.61L182.97,53.41L179.31,67.08L178.7,66.69L176.87,65.58L176.26,68.74L173.21,80.54L172.59,80.31L171.98,78.91L171.37,80.84L169.54,81.28L168.93,80.13L167.1,75.46L166.49,73.17L164.66,74.34L164.05,73.86L161.6,63.87L160.99,64.08L157.94,65.77L157.33,65.66L154.28,64.94L153.67,63.21L151.23,54.86L150.61,53.76L148.78,51.77L148.17,52.29L143.9,56.1L143.29,57.48L140.85,61.97L140.24,62.55L139.01,64.66L138.4,64.28L136.57,60.93L135.96,63.47L134.13,69.34L133.52,68.73L131.69,68.47L131.08,68.79L129.86,66.58L129.25,65.81L126.8,61.77L126.19,61.44L121.92,60.54L121.31,57.1L120.7,52.65L120.09,54.18L118.26,60.35L117.64,59.91L116.42,59.17L115.81,60.85L114.59,63.45L113.98,63.22L112.76,62.02L112.15,63.21L110.93,66.41L110.32,69.61L108.49,69.14L107.88,68.85L105.43,67.42L104.82,68.19L104.21,68.49L103.6,67.63L101.77,69.1L101.16,68.35L99.94,66.42L99.33,63.64L97.5,61.53L96.89,59.76L96.28,59.58L95.66,57.2L93.83,54.32L93.22,55.1L91.39,57.82L90.78,57.83L90.17,57.83L89.56,58.81L88.34,55.04L87.73,51.71L87.12,50.29L86.51,46.35L84.06,38.78L83.45,37.98L82.84,39.24L82.23,38.38L80.4,36.59L79.79,36.78L77.35,40.52L76.74,42.27L71.85,54.73L71.24,56.05L66.36,63.37L65.75,64.01L62.69,66.22L62.08,65.94L58.42,64.79L57.81,63.51L55.37,59.22L54.76,59.15L54.15,59.18L53.54,60.98L52.93,62.61L52.32,61.22L51.09,62.25L50.48,63.49L46.82,69.24L46.21,69.5L44.38,68.48L43.77,66.85L41.94,70.33L41.33,72L36.44,80.24L35.83,80.51L34,78.91L33.39,80.59L31.56,81.88L30.95,80.65L30.34,80.29L29.72,81.04L27.89,82.16L27.28,82.06L22.4,89.59L21.79,89.81L19.96,91.38L19.35,91.27L16.9,93.02L16.29,90.06L13.85,83.88Z" style="fill: rgb(188, 0, 233); fill-opacity: 0.3; stroke-width: 0;"/></g></g><g class="errorbars"/><g class="lines"><path class="js-line" d="M13.85,20.92L14.46,20.22L15.07,21.81L16.29,23.98L16.9,23.06L18.12,9.4L18.73,9.12L21.18,7.63L21.79,7.86L25.45,8.83L26.06,8.92L30.34,4.76L30.95,4.81L34,7.36L34.61,7.62L41.94,-2.92L42.55,-3.33L49.26,-10.55L49.87,-10.55L55.98,-11.79L56.59,-11.68L58.42,-12.77L59.03,-13.73L65.14,-15.86L65.75,-15.61L69.41,-13.5L70.02,-12.97L72.46,-12.73L73.07,-13.33L76.74,-18.43L77.96,-16.99L78.57,-15.79L82.23,-15.51L82.84,-15.5L85.9,-15.53L86.51,-14.83L90.17,-13.63L90.78,-13.79L92.61,-12.74L93.22,-10.66L96.28,-9.58L96.89,-9.18L98.72,-10.92L99.33,-11.98L99.94,-12.92L100.55,-12.13L101.16,-10.05L101.77,-9.28L102.38,-10.02L102.99,-10.63L104.82,-10.59L105.43,-9.4L107.88,-2.16L108.49,-1.96L110.93,-0.14L111.54,0.72L112.15,1L112.76,0.04L113.98,-0.64L114.59,-0.03L117.03,4.77L117.64,3.81L118.87,-0.71L119.48,1.77L121.31,5.71L121.92,5.3L123.14,2.08L123.75,-0.22L126.8,-7.53L127.41,-7.26L128.63,-5.35L129.25,-3.49L130.47,-2.1L131.08,-2.82L139.62,-11.74L140.24,-11.64L143.29,-12.65L143.9,-13.43L146.95,-14.46L147.56,-13.96L148.78,-12.41L149.39,-12.72L150,-12.86L165.88,-14.53L166.49,-13.91L171.37,-10.06L171.98,-9.8L178.09,-10.85L178.7,-11.04L186.64,-12.86L187.25,-12.66L189.69,-11.98L190.3,-13.54L191.52,-14.97L192.13,-14.02L192.74,-13.35L195.19,-13.9L195.8,-14.56L197.02,-15.24L197.63,-14.69L198.24,-13.15L201.9,-12.85L202.51,-12.49L204.34,-15.01L204.95,-16.22L208.62,-18.7L209.23,-18.31L221.44,-18.54L222.05,-19.24L225.71,-20.54L226.32,-20.63L245.25,-21.2L245.86,-20.07L250.14,-20.22L250.75,-20.09L256.85,-19.78L257.46,-17.99L259.29,-19.48L259.9,-17.51L262.96,-16.37L263.57,-15.57L266.01,-11L266.62,-12.88L267.23,-12.63L269.67,-14.53L270.28,-15.42L272.73,-14.11L273.34,-13.08L273.95,-11.98L274.56,-4.54L275.78,12.19L276.39,13.23L277,12.81L277,53.76L276.39,56.14L275.78,72.86L272.73,57.87L272.12,57.49L270.89,57.31L270.28,58.16L269.06,58.87L268.45,58.84L265.4,62.48L264.79,63.24L264.18,63.53L263.57,62.63L261.13,59.83L260.51,59.32L259.29,58.51L258.68,58.86L255.63,51.05L255.02,47.84L253.19,38.48L252.58,37.91L251.36,35.32L250.75,36.36L250.14,37.49L249.52,34.82L244.64,33.9L244.03,37.38L242.2,44.32L241.59,45.25L240.98,45.32L240.37,44.56L239.76,41.84L239.15,43.01L236.09,52.13L235.48,51.83L234.26,51.84L233.65,52.27L230.6,54L229.99,56.72L228.16,61.85L227.54,59.64L219.61,76.58L219,75.45L217.17,76.61L216.55,76.69L212.28,75.51L211.67,74.14L209.23,76.06L208.62,75.95L208.01,76.2L207.4,75.15L203.12,65.32L202.51,65.53L200.68,70.39L200.07,69.48L199.46,68.94L198.85,70.08L198.24,70.48L197.63,68.86L197.02,67.44L196.41,68.22L193.96,61.88L193.35,61.6L191.52,58.45L190.91,56.34L188.47,49.71L187.86,50.01L186.64,50.31L186.03,50.92L183.58,53.61L182.97,53.41L179.31,67.08L178.7,66.69L176.87,65.58L176.26,68.74L173.21,80.54L172.59,80.31L171.98,78.91L171.37,80.84L169.54,81.28L168.93,80.13L167.1,75.46L166.49,73.17L164.66,74.34L164.05,73.86L161.6,63.87L160.99,64.08L157.94,65.77L157.33,65.66L154.28,64.94L153.67,63.21L151.23,54.86L150.61,53.76L148.78,51.77L148.17,52.29L143.9,56.1L143.29,57.48L140.85,61.97L140.24,62.55L139.01,64.66L138.4,64.28L136.57,60.93L135.96,63.47L134.13,69.34L133.52,68.73L131.69,68.47L131.08,68.79L129.86,66.58L129.25,65.81L126.8,61.77L126.19,61.44L121.92,60.54L121.31,57.1L120.7,52.65L120.09,54.18L118.26,60.35L117.64,59.91L116.42,59.17L115.81,60.85L114.59,63.45L113.98,63.22L112.76,62.02L112.15,63.21L110.93,66.41L110.32,69.61L108.49,69.14L107.88,68.85L105.43,67.42L104.82,68.19L104.21,68.49L103.6,67.63L101.77,69.1L101.16,68.35L99.94,66.42L99.33,63.64L97.5,61.53L96.89,59.76L96.28,59.58L95.66,57.2L93.83,54.32L93.22,55.1L91.39,57.82L90.78,57.83L90.17,57.83L89.56,58.81L88.34,55.04L87.73,51.71L87.12,50.29L86.51,46.35L84.06,38.78L83.45,37.98L82.84,39.24L82.23,38.38L80.4,36.59L79.79,36.78L77.35,40.52L76.74,42.27L71.85,54.73L71.24,56.05L66.36,63.37L65.75,64.01L62.69,66.22L62.08,65.94L58.42,64.79L57.81,63.51L55.37,59.22L54.76,59.15L54.15,59.18L53.54,60.98L52.93,62.61L52.32,61.22L51.09,62.25L50.48,63.49L46.82,69.24L46.21,69.5L44.38,68.48L43.77,66.85L41.94,70.33L41.33,72L36.44,80.24L35.83,80.51L34,78.91L33.39,80.59L31.56,81.88L30.95,80.65L30.34,80.29L29.72,81.04L27.89,82.16L27.28,82.06L22.4,89.59L21.79,89.81L19.96,91.38L19.35,91.27L16.9,93.02L16.29,90.06L13.85,83.88" style="vector-effect: none; fill: none; stroke: rgb(0, 0, 0); stroke-opacity: 0; stroke-width: 2px; opacity: 1;"/></g><g class="points"/><g class="text"/></g></g></g></g><path class="xlines-above crisp" d="M0,0" style="fill: none;"/><path class="ylines-above crisp" d="M0,0" style="fill: none;"/><g class="overlines-above"/><g class="xaxislayer-above"><g class="x2tick"><text text-anchor="middle" x="0" y="167.39999999999998" transform="translate(104.97999999999999,0)" style="font-family: 'Open Sans', verdana, arial, sans-serif; font-size: 12px; fill: rgb(42, 63, 95); fill-opacity: 1; white-space: pre; opacity: 1;">−100</text></g><g class="x2tick"><text text-anchor="middle" x="0" y="167.39999999999998" style="font-family: 'Open Sans', verdana, arial, sans-serif; font-size: 12px; fill: rgb(42, 63, 95); fill-opacity: 1; white-space: pre; opacity: 1;" transform="translate(166.03,0)">0</text></g><g class="x2tick"><text text-anchor="middle" x="0" y="167.39999999999998" style="font-family: 'Open Sans', verdana, arial, sans-serif; font-size: 12px; fill: rgb(42, 63, 95); fill-opacity: 1; white-space: pre; opacity: 1;" transform="translate(227.09,0)">100</text></g><g class="x2tick"><text text-anchor="middle" x="0" y="167.39999999999998" style="font-family: 'Open Sans', verdana, arial, sans-serif; font-size: 12px; fill: rgb(42, 63, 95); fill-opacity: 1; white-space: pre; opacity: 1;" transform="translate(288.15,0)">200</text></g></g><g class="yaxislayer-above"><g class="y2tick"><text text-anchor="end" x="48" y="4.199999999999999" transform="translate(0,154.4)" style="font-family: 'Open Sans', verdana, arial, sans-serif; font-size: 12px; fill: rgb(42, 63, 95); fill-opacity: 1; white-space: pre; opacity: 1;">0</text></g><g class="y2tick"><text text-anchor="end" x="48" y="4.199999999999999" style="font-family: 'Open Sans', verdana, arial, sans-serif; font-size: 12px; fill: rgb(42, 63, 95); fill-opacity: 1; white-space: pre; opacity: 1;" transform="translate(0,114.19)">50</text></g><g class="y2tick"><text text-anchor="end" x="48" y="4.199999999999999" style="font-family: 'Open Sans', verdana, arial, sans-serif; font-size: 12px; fill: rgb(42, 63, 95); fill-opacity: 1; white-space: pre; opacity: 1;" transform="translate(0,73.98)">100</text></g></g><g class="overaxes-above"/></g><g class="subplot xyz2"><g class="overplot"><g class="xyz2" transform="translate(49,0)" clip-path="url(#clip3bef50xyz2plot)"><g class="scatterlayer2 mlayer"><g class="trace scatter tracea73cac" style="stroke-miterlimit: 2; opacity: 1;"><g class="fills"/><g class="errorbars"/><g class="lines"><path class="js-line" d="M13.85,0L277,0" style="vector-effect: none; fill: none; stroke: rgb(0, 0, 0); stroke-opacity: 1; stroke-width: 1px; opacity: 1;"/><path class="js-line" d="M13.85,28.95L277,28.95" style="vector-effect: none; fill: none; stroke: rgb(0, 0, 0); stroke-opacity: 1; stroke-width: 1px; opacity: 1;"/><path class="js-line" d="M13.85,57.9L277,57.9" style="vector-effect: none; fill: none; stroke: rgb(0, 0, 0); stroke-opacity: 1; stroke-width: 1px; opacity: 1;"/></g><g class="points"/><g class="text"/></g></g></g></g></g><g class="subplot x2y2z2"><g class="overplot"><g class="x2y2z2" transform="translate(49,57.900000000000006)" clip-path="url(#clip3bef50x2y2z2plot)"/></g></g><g class="subplot xyz3"><g class="overplot"><g class="xyz3" transform="translate(49,0)" clip-path="url(#clip3bef50xyz3plot)"><g class="scatterlayer3 mlayer"><g class="trace scatter trace4a82b8" style="stroke-miterlimit: 2; opacity: 1;"><g class="fills"/><g class="errorbars"/><g class="lines"/><g class="points"/><g class="text"><g class="textpoint" transform="translate(0,3)"><text x="135.35" y="28.95" text-anchor="middle" style="font-family: 'Open Sans', verdana, arial, sans-serif; font-size: 12px; fill: rgb(255, 255, 255); fill-opacity: 1; font-weight: bold; white-space: pre;">Cue</text></g></g></g></g></g></g></g><g class="subplot x2y2z3"><g class="overplot"><g class="x2y2z3" transform="translate(49,57.900000000000006)" clip-path="url(#clip3bef50x2y2z3plot)"/></g></g></g><g class="polarlayer"/><g class="smithlayer"/><g class="ternarylayer"/><g class="geolayer"/><g class="funnelarealayer"/><g class="pielayer"/><g class="iciclelayer"/><g class="treemaplayer"/><g class="sunburstlayer"/><g class="glimages"/><defs id="topdefs-3bef50"><g class="clips"/><clipPath id="legend3bef50"><rect width="108" height="86" x="0" y="0"/></clipPath></defs><g class="layer-above"><g class="imagelayer"/><g class="shapelayer"/></g><g class="infolayer"><g class="legend" pointer-events="all" transform="translate(331.54,0)"><rect class="bg" shape-rendering="crispEdges" style="stroke: rgb(68, 68, 68); stroke-opacity: 1; fill: rgb(255, 255, 255); fill-opacity: 1; stroke-width: 0px;" width="108" height="86" x="0" y="0"/><g class="scrollbox" transform="" clip-path="url(#legend3bef50)"><g class="groups"><g class="traces" transform="translate(0,14.5)" style="opacity: 1;"><text class="legendtext" text-anchor="start" x="40" y="4.680000000000001" style="font-family: 'Open Sans', verdana, arial, sans-serif; font-size: 12px; fill: rgb(42, 63, 95); fill-opacity: 1; white-space: pre;">Early R</text><g class="layers" style="opacity: 1;"><g class="legendfill"/><g class="legendlines"><path class="js-line" d="M5,0h30" style="fill: none; stroke: rgb(233, 136, 0); stroke-opacity: 1; stroke-width: 2px;"/></g><g class="legendsymbols"><g class="legendpoints"/></g></g><rect class="legendtoggle" x="0" y="-9.5" width="102.171875" height="19" style="fill: rgb(0, 0, 0); fill-opacity: 0;"/></g><g class="traces" transform="translate(0,33.5)" style="opacity: 1;"><text class="legendtext" text-anchor="start" x="40" y="4.680000000000001" style="font-family: 'Open Sans', verdana, arial, sans-serif; font-size: 12px; fill: rgb(42, 63, 95); fill-opacity: 1; white-space: pre;">80th perc.</text><g class="layers" style="opacity: 1;"><g class="legendfill"><path class="js-fill" d="M5,-2h30v6h-30z" style="stroke-width: 0; fill: rgb(233, 136, 0); fill-opacity: 0.3;"/></g><g class="legendlines"><path class="js-line" d="M5,-2h30" style="fill: none; stroke: rgb(0, 0, 0); stroke-opacity: 0; stroke-width: 2px;"/></g><g class="legendsymbols"><g class="legendpoints"/></g></g><rect class="legendtoggle" x="0" y="-9.5" width="102.171875" height="19" style="fill: rgb(0, 0, 0); fill-opacity: 0;"/></g><g class="traces" transform="translate(0,52.5)" style="opacity: 1;"><text class="legendtext" text-anchor="start" x="40" y="4.680000000000001" style="font-family: 'Open Sans', verdana, arial, sans-serif; font-size: 12px; fill: rgb(42, 63, 95); fill-opacity: 1; white-space: pre;">Late R</text><g class="layers" style="opacity: 1;"><g class="legendfill"/><g class="legendlines"><path class="js-line" d="M5,0h30" style="fill: none; stroke: rgb(188, 0, 233); stroke-opacity: 1; stroke-width: 2px;"/></g><g class="legendsymbols"><g class="legendpoints"/></g></g><rect class="legendtoggle" x="0" y="-9.5" width="102.171875" height="19" style="fill: rgb(0, 0, 0); fill-opacity: 0;"/></g><g class="traces" transform="translate(0,71.5)" style="opacity: 1;"><text class="legendtext" text-anchor="start" x="40" y="4.680000000000001" style="font-family: 'Open Sans', verdana, arial, sans-serif; font-size: 12px; fill: rgb(42, 63, 95); fill-opacity: 1; white-space: pre;">80th perc.</text><g class="layers" style="opacity: 1;"><g class="legendfill"><path class="js-fill" d="M5,-2h30v6h-30z" style="stroke-width: 0; fill: rgb(188, 0, 233); fill-opacity: 0.3;"/></g><g class="legendlines"><path class="js-line" d="M5,-2h30" style="fill: none; stroke: rgb(0, 0, 0); stroke-opacity: 0; stroke-width: 2px;"/></g><g class="legendsymbols"><g class="legendpoints"/></g></g><rect class="legendtoggle" x="0" y="-9.5" width="102.171875" height="19" style="fill: rgb(0, 0, 0); fill-opacity: 0;"/></g></g></g><rect class="scrollbar" rx="20" ry="3" width="0" height="0" style="fill: rgb(128, 139, 164); fill-opacity: 1;" x="0" y="0"/></g><g class="g-gtitle"/><g class="g-xtitle"/><g class="g-x2title"><text class="x2title" x="187.5" y="194.70625" text-anchor="middle" style="opacity: 1; font-family: 'Open Sans', verdana, arial, sans-serif; font-size: 14px; fill: rgb(42, 63, 95); fill-opacity: 1; white-space: pre;">Position [cm]</text></g><g class="g-ytitle"/><g class="g-y2title" transform="translate(8.2998046875,0)"><text class="y2title" transform="rotate(-90,5.709375000000001,106.15)" x="5.709375000000001" y="106.15" text-anchor="middle" style="opacity: 1; font-family: 'Open Sans', verdana, arial, sans-serif; font-size: 14px; fill: rgb(42, 63, 95); fill-opacity: 1; white-space: pre;">Velocity [cm/s]</text></g></g></svg>