<svg class="main-svg" xmlns="http://www.w3.org/2000/svg" xmlns:xlink="http://www.w3.org/1999/xlink" width="440" height="200" style="" viewBox="0 0 440 200"><rect x="0" y="0" width="440" height="200" style="fill: rgb(255, 255, 255); fill-opacity: 1;"/><defs id="defs-35974b"><g class="clips"><clipPath id="clip35974bxyplot" class="plotclip"><rect width="277" height="57.900000000000006"/></clipPath><clipPath id="clip35974bx2y2plot" class="plotclip"><rect width="277" height="96.49999999999999"/></clipPath><clipPath id="clip35974bxyz2plot" class="plotclip"><rect width="277" height="57.900000000000006"/></clipPath><clipPath id="clip35974bx2y2z2plot" class="plotclip"><rect width="277" height="96.49999999999999"/></clipPath><clipPath class="axesclip" id="clip35974bx"><rect x="49" y="0" width="277" height="200"/></clipPath><clipPath class="axesclip" id="clip35974by"><rect x="0" y="0" width="440" height="57.900000000000006"/></clipPath><clipPath class="axesclip" id="clip35974bxy"><rect x="49" y="0" width="277" height="57.900000000000006"/></clipPath><clipPath class="axesclip" id="clip35974by2"><rect x="0" y="57.900000000000006" width="440" height="96.49999999999999"/></clipPath><clipPath class="axesclip" id="clip35974bxy2"><rect x="49" y="57.900000000000006" width="277" height="96.49999999999999"/></clipPath><clipPath class="axesclip" id="clip35974bx2"><rect x="49" y="0" width="277" height="200"/></clipPath><clipPath class="axesclip" id="clip35974bx2y"><rect x="49" y="0" width="277" height="57.900000000000006"/></clipPath><clipPath class="axesclip" id="clip35974bx2y2"><rect x="49" y="57.900000000000006" width="277" height="96.49999999999999"/></clipPath></g><g class="gradients"/><g class="patterns"/></defs><g class="bglayer"/><g class="layer-below"><g class="imagelayer"/><g class="shapelayer"/></g><g class="cartesianlayer"><g class="subplot xy"><g class="layer-subplot"><g class="shapelayer"/><g class="imagelayer"/></g><g class="minor-gridlayer"><g class="x"/><g class="y"/></g><g class="gridlayer"><g class="x"><path class="xgrid crisp" transform="translate(104.97999999999999,0)" d="M0,0v57.900000000000006" style="stroke: rgb(255, 255, 255); stroke-opacity: 1; stroke-width: 1px;"/><path class="xgrid crisp" transform="translate(227.09,0)" d="M0,0v57.900000000000006" style="stroke: rgb(255, 255, 255); stroke-opacity: 1; stroke-width: 1px;"/><path class="xgrid crisp" transform="translate(288.15,0)" d="M0,0v57.900000000000006" style="stroke: rgb(255, 255, 255); stroke-opacity: 1; stroke-width: 1px;"/></g><g class="y"><path class="ygrid crisp" transform="translate(0,43.43)" d="M49,0h277" style="stroke: rgb(255, 255, 255); stroke-opacity: 1; stroke-width: 1px;"/><path class="ygrid crisp" transform="translate(0,28.95)" d="M49,0h277" style="stroke: rgb(255, 255, 255); stroke-opacity: 1; stroke-width: 1px;"/><path class="ygrid crisp" transform="translate(0,14.48)" d="M49,0h277" style="stroke: rgb(255, 255, 255); stroke-opacity: 1; stroke-width: 1px;"/></g></g><g class="zerolinelayer"><path class="xzl zl crisp" transform="translate(166.03,0)" d="M0,0v57.900000000000006" style="stroke: rgb(255, 255, 255); stroke-opacity: 1; stroke-width: 2px;"/><path class="yzl zl crisp" transform="" d="M49,0h277" style="stroke: rgb(255, 255, 255); stroke-opacity: 1; stroke-width: 2px;"/></g><g class="layer-between"><g class="shapelayer"/><g class="imagelayer"/></g><path class="xlines-below"/><path class="ylines-below"/><g class="overlines-below"/><g class="xaxislayer-below"/><g class="yaxislayer-below"/><g class="overaxes-below"/><g class="overplot"><g class="xy" transform="translate(49,0)" clip-path="url(#clip35974bxyplot)"><g class="scatterlayer mlayer"><g class="trace scatter trace3ed63a" style="stroke-miterlimit: 2; opacity: 1;"><g class="fills"/><g class="errorbars"/><g class="lines"><path class="js-line" d="M147.56,3.47L184.2,3.47" style="vector-effect: none; fill: none; stroke: rgb(120, 120, 120); stroke-opacity: 1; stroke-width: 7px; opacity: 1;"/><path class="js-line" d="M147.56,25.48L184.2,25.48" style="vector-effect: none; fill: none; stroke: rgb(120, 120, 120); stroke-opacity: 1; stroke-width: 7px; opacity: 1;"/></g><g class="points"/><g class="text"/></g><g class="trace scatter trace09478f" style="stroke-miterlimit: 2; opacity: 1;"><g class="fills"/><g class="errorbars"/><g class="lines"/><g class="points"/><g class="text"><g class="textpoint" transform="translate(0,3)"><text x="160.99" y="12.16" text-anchor="middle" style="font-family: 'Open Sans', verdana, arial, sans-serif; font-size: 12px; fill: rgb(42, 63, 95); fill-opacity: 1; white-space: pre;">Stop</text></g></g></g><g class="trace scatter tracebae4f2" style="stroke-miterlimit: 2; opacity: 1;"><g class="fills"/><g class="errorbars"/><g class="lines"/><g class="points"/><g class="text"><g class="textpoint" transform="translate(0,5)"><text x="160.99" y="18.82" text-anchor="middle" style="font-family: 'Open Sans', verdana, arial, sans-serif; font-size: 20px; fill: rgb(42, 63, 95); fill-opacity: 1; white-space: pre;">→</text></g></g></g><g class="trace scatter traceb58aa5" style="stroke-miterlimit: 2; opacity: 1;"><g class="fills"/><g class="errorbars"/><g class="lines"/><g class="points"/><g class="text"><g class="textpoint" transform="translate(0,4)"><text x="160.99" y="15.63" text-anchor="middle" style="font-family: 'Open Sans', verdana, arial, sans-serif; font-size: 16px; fill: rgb(64, 202, 114); fill-opacity: 1; font-weight: bold; white-space: pre;">        R</text></g></g></g><g class="trace scatter trace237e9f" style="stroke-miterlimit: 2; opacity: 1;"><g class="fills"/><g class="errorbars"/><g class="lines"><path class="js-line" d="M220.83,3.47L257.46,3.47" style="vector-effect: none; fill: none; stroke: rgb(190, 190, 190); stroke-opacity: 1; stroke-width: 7px; opacity: 1;"/><path class="js-line" d="M220.83,25.48L257.46,25.48" style="vector-effect: none; fill: none; stroke: rgb(190, 190, 190); stroke-opacity: 1; stroke-width: 7px; opacity: 1;"/></g><g class="points"/><g class="text"/></g><g class="trace scatter trace9f7ca6" style="stroke-miterlimit: 2; opacity: 1;"><g class="fills"/><g class="errorbars"/><g class="lines"/><g class="points"/><g class="text"><g class="textpoint" transform="translate(0,3)"><text x="234.26" y="12.16" text-anchor="middle" style="font-family: 'Open Sans', verdana, arial, sans-serif; font-size: 12px; fill: rgb(42, 63, 95); fill-opacity: 1; white-space: pre;">Stop</text></g></g></g><g class="trace scatter tracec0e447" style="stroke-miterlimit: 2; opacity: 1;"><g class="fills"/><g class="errorbars"/><g class="lines"/><g class="points"/><g class="text"><g class="textpoint" transform="translate(0,5)"><text x="234.26" y="18.82" text-anchor="middle" style="font-family: 'Open Sans', verdana, arial, sans-serif; font-size: 20px; fill: rgb(42, 63, 95); fill-opacity: 1; white-space: pre;">→</text></g></g></g><g class="trace scatter trace393251" style="stroke-miterlimit: 2; opacity: 1;"><g class="fills"/><g class="errorbars"/><g class="lines"/><g class="points"/><g class="text"><g class="textpoint" transform="translate(0,4)"><text x="234.26" y="15.63" text-anchor="middle" style="font-family: 'Open Sans', verdana, arial, sans-serif; font-size: 16px; fill: rgb(64, 202, 114); fill-opacity: 1; font-weight: bold; white-space: pre;">        R</text></g></g></g><g class="trace scatter trace19b40e" style="stroke-miterlimit: 2; opacity: 1;"><g class="fills"/><g class="errorbars"/><g class="lines"><path class="js-line" d="M147.56,32.42L184.2,32.42" style="vector-effect: none; fill: none; stroke: rgb(120, 120, 120); stroke-opacity: 1; stroke-width: 7px; opacity: 1;"/><path class="js-line" d="M147.56,54.43L184.2,54.43" style="vector-effect: none; fill: none; stroke: rgb(120, 120, 120); stroke-opacity: 1; stroke-width: 7px; opacity: 1;"/></g><g class="points"/><g class="text"/></g><g class="trace scatter trace6cb3e7" style="stroke-miterlimit: 2; opacity: 1;"><g class="fills"/><g class="errorbars"/><g class="lines"/><g class="points"/><g class="text"><g class="textpoint" transform="translate(0,3)"><text x="160.99" y="41.11" text-anchor="middle" style="font-family: 'Open Sans', verdana, arial, sans-serif; font-size: 12px; fill: rgb(42, 63, 95); fill-opacity: 1; white-space: pre;">Stop</text></g></g></g><g class="trace scatter trace330f16" style="stroke-miterlimit: 2; opacity: 1;"><g class="fills"/><g class="errorbars"/><g class="lines"/><g class="points"/><g class="text"><g class="textpoint" transform="translate(0,5)"><text x="160.99" y="47.77" text-anchor="middle" style="font-family: 'Open Sans', verdana, arial, sans-serif; font-size: 20px; fill: rgb(42, 63, 95); fill-opacity: 1; white-space: pre;">→</text></g></g></g><g class="trace scatter trace2ffdc1" style="stroke-miterlimit: 2; opacity: 1;"><g class="fills"/><g class="errorbars"/><g class="lines"/><g class="points"/><g class="text"><g class="textpoint" transform="translate(0,4)"><text x="160.99" y="44.58" text-anchor="middle" style="font-family: 'Open Sans', verdana, arial, sans-serif; font-size: 16px; fill: rgb(64, 202, 114); fill-opacity: 1; font-weight: bold; white-space: pre;">        R</text></g></g></g><g class="trace scatter trace40c4b4" style="stroke-miterlimit: 2; opacity: 1;"><g class="fills"/><g class="errorbars"/><g class="lines"><path class="js-line" d="M220.83,32.42L257.46,32.42" style="vector-effect: none; fill: none; stroke: rgb(190, 190, 190); stroke-opacity: 1; stroke-width: 7px; opacity: 1;"/><path class="js-line" d="M220.83,54.43L257.46,54.43" style="vector-effect: none; fill: none; stroke: rgb(190, 190, 190); stroke-opacity: 1; stroke-width: 7px; opacity: 1;"/></g><g class="points"/><g class="text"/></g><g class="trace scatter trace9b9520" style="stroke-miterlimit: 2; opacity: 1;"><g class="fills"/><g class="errorbars"/><g class="lines"/><g class="points"/><g class="text"><g class="textpoint" transform="translate(0,3)"><text x="234.26" y="41.11" text-anchor="middle" style="font-family: 'Open Sans', verdana, arial, sans-serif; font-size: 12px; fill: rgb(42, 63, 95); fill-opacity: 1; white-space: pre;">Stop</text></g></g></g><g class="trace scatter tracef48123" style="stroke-miterlimit: 2; opacity: 1;"><g class="fills"/><g class="errorbars"/><g class="lines"/><g class="points"/><g class="text"><g class="textpoint" transform="translate(0,5)"><text x="234.26" y="47.77" text-anchor="middle" style="font-family: 'Open Sans', verdana, arial, sans-serif; font-size: 20px; fill: rgb(42, 63, 95); fill-opacity: 1; white-space: pre;">→</text></g></g></g><g class="trace scatter trace038df0" style="stroke-miterlimit: 2; opacity: 1;"><g class="fills"/><g class="errorbars"/><g class="lines"/><g class="points"/><g class="text"><g class="textpoint" transform="translate(0,4)"><text x="234.26" y="44.58" text-anchor="middle" style="font-family: 'Open Sans', verdana, arial, sans-serif; font-size: 16px; fill: rgb(64, 202, 114); fill-opacity: 1; font-weight: bold; white-space: pre;">        R</text></g></g></g><g class="trace scatter traceb7347c" style="stroke-miterlimit: 2; opacity: 1;"><g class="fills"/><g class="errorbars"/><g class="lines"/><g class="points"/><g class="text"><g class="textpoint" transform="translate(0,-4.799999999999999)"><text x="13.85" y="28.37" text-anchor="start" style="font-family: 'Open Sans', verdana, arial, sans-serif; font-size: 12px; fill: rgb(42, 63, 95); fill-opacity: 1; white-space: pre;"><tspan class="line" dy="0em" x="13.85" y="28.37">50% of</tspan><tspan class="line" dy="1.3em" x="13.85" y="28.37">trials</tspan></text></g></g></g></g></g></g><path class="xlines-above crisp" d="M0,0" style="fill: none; stroke-width: 1px; stroke: rgb(0, 0, 0); stroke-opacity: 0;"/><path class="ylines-above crisp" d="M0,0" style="fill: none;"/><g class="overlines-above"/><g class="xaxislayer-above"><path class="xtick ticks crisp" d="M0,58.900000000000006v5" transform="translate(104.97999999999999,0)" style="stroke: rgb(68, 68, 68); stroke-opacity: 1; stroke-width: 1px;"/><path class="xtick ticks crisp" d="M0,58.900000000000006v5" transform="translate(166.03,0)" style="stroke: rgb(68, 68, 68); stroke-opacity: 1; stroke-width: 1px;"/><path class="xtick ticks crisp" d="M0,58.900000000000006v5" transform="translate(227.09,0)" style="stroke: rgb(68, 68, 68); stroke-opacity: 1; stroke-width: 1px;"/><path class="xtick ticks crisp" d="M0,58.900000000000006v5" transform="translate(288.15,0)" style="stroke: rgb(68, 68, 68); stroke-opacity: 1; stroke-width: 1px;"/></g><g class="yaxislayer-above"/><g class="overaxes-above"/></g><g class="subplot x2y2"><g class="layer-subplot"><g class="shapelayer"/><g class="imagelayer"/></g><g class="minor-gridlayer"><g class="x2"/><g class="y2"/></g><g class="gridlayer"><g class="x2"/><g class="y2"><path class="y2grid crisp" transform="translate(0,114.19)" d="M49,0h277" style="stroke: rgb(211, 211, 211); stroke-opacity: 1; stroke-width: 1px;"/><path class="y2grid crisp" transform="translate(0,73.98)" d="M49,0h277" style="stroke: rgb(211, 211, 211); stroke-opacity: 1; stroke-width: 1px;"/></g></g><g class="zerolinelayer"><path class="y2zl zl crisp" transform="translate(0,154.4)" d="M49,0h277" style="stroke: rgb(211, 211, 211); stroke-opacity: 1; stroke-width: 2px;"/></g><g class="layer-between"><g class="shapelayer"/><g class="imagelayer"/></g><path class="xlines-below"/><path class="ylines-below"/><g class="overlines-below"/><g class="xaxislayer-below"/><g class="yaxislayer-below"/><g class="overaxes-below"/><g class="overplot"><g class="x2y2" transform="translate(49,57.900000000000006)" clip-path="url(#clip35974bx2y2plot)"><g class="scatterlayer mlayer"><g class="trace scatter trace14ba60" style="stroke-miterlimit: 2; opacity: 1;"><g class="fills"/><g class="errorbars"/><g class="lines"><path class="js-line" d="M13.85,82.07L15.07,84.47L15.68,86.2L16.9,87.6L17.51,86.79L18.73,87.24L19.35,87.85L20.57,88.19L21.18,87.14L23.01,84.81L23.62,84.8L24.84,84.99L25.45,84.6L27.89,82.94L28.5,83.19L29.11,82.79L29.72,80.46L32.17,72.53L32.78,72.02L34,71.03L34.61,69.72L35.83,69.62L36.44,70.12L37.05,70.9L37.66,69.65L38.27,68.05L38.88,69.15L40.1,72.15L40.71,71.64L47.43,68.11L48.04,66.3L49.87,63.29L50.48,62.87L54.15,60.98L54.76,61.34L55.37,61.88L55.98,63.46L57.81,65.21L58.42,64.94L62.08,61.53L62.69,59.76L63.31,59.38L63.92,60.8L65.14,61.67L65.75,61.58L69.41,56.94L70.02,57.13L72.46,57.74L73.07,57.32L77.96,53.36L78.57,54.14L82.23,61.91L82.84,62.48L84.67,62.32L85.29,61.96L87.73,60.93L88.34,59.93L91.39,56.02L92,54.47L93.83,50.7L94.44,50.51L95.05,50.36L95.66,51.49L96.28,52.81L96.89,51.51L99.33,48.65L99.94,48.58L101.77,48.3L102.38,49.11L104.21,50.94L104.82,50.58L110.32,42.29L110.93,42.76L113.37,44.25L113.98,44.19L115.81,43.67L116.42,44.54L118.26,47.2L118.87,47.33L120.09,47.65L120.7,46.95L122.53,46.27L123.14,48.52L124.36,51.44L124.97,51.35L126.8,50.98L127.41,51.41L129.25,53.32L129.86,52.97L132.3,53.36L132.91,53.43L134.74,52.04L135.35,51.21L141.46,44.29L142.07,44.41L143.9,47.34L144.51,49.18L145.12,50.55L145.73,49.6L147.56,46.21L148.17,46.55L149.39,46.25L150,46.75L151.23,46.9L151.84,46.84L156.11,49.68L156.72,50.66L159.16,51.71L159.77,52.29L160.99,54.27L161.6,57.02L164.05,66.54L164.66,66.54L167.71,66.45L168.32,67.82L169.54,69.56L170.15,69.81L171.98,72.43L172.59,75.13L173.82,78.31L174.43,78.87L179.92,82.36L180.53,82.31L182.36,80.31L182.97,80.08L184.2,77.96L184.81,78.22L187.25,76.1L187.86,74.9L189.08,74.09L189.69,74.03L192.13,74.14L192.74,74.92L193.96,75L194.57,74.36L196.41,74.97L197.02,74.28L200.68,73.96L201.29,74.89L201.9,74.28L202.51,74.82L203.73,76.07L204.34,75.62L206.79,72.91L207.4,72.65L209.23,72.8L209.84,73.52L211.06,73.89L211.67,73.02L214.72,62.89L215.33,62.76L216.55,64.21L217.17,65.57L219,68.07L219.61,67.93L221.44,67.67L222.05,68.12L223.27,68.04L223.88,66.88L225.1,65.71L225.71,65.97L228.77,68.5L229.38,68.52L230.6,68.28L231.21,68.77L234.26,69.91L234.87,69.13L236.09,68.86L236.7,69.37L242.81,77.4L243.42,78.96L245.25,82.39L245.86,81.56L248.3,75.7L248.91,74.89L255.02,73.82L255.63,73.83L256.85,72.35L257.46,72.65L259.9,73.65L260.51,72.91L262.35,71.62L262.96,71.55L267.23,73.56L267.84,73.27L269.67,73.17L270.28,73.61L272.12,72.92L272.73,72.76L273.95,71.07L274.56,72.87L275.78,75.26L276.39,65.98L277,55.22" style="vector-effect: none; fill: none; stroke: rgb(65, 64, 132); stroke-opacity: 1; stroke-width: 2px; opacity: 1;"/></g><g class="points"/><g class="text"/></g><g class="trace scatter trace91c5a3" style="stroke-miterlimit: 2; opacity: 1;"><g class="fills"><g><path class="js-fill" d="M13.85,56.46L15.68,71.26L16.29,73.32L16.9,75.02L17.51,71.84L19.96,65.83L20.57,64.86L27.28,56.09L27.89,56.1L29.11,56.95L29.72,56.13L31.56,52.22L32.17,50.36L37.05,35.72L37.66,35.01L39.49,34.62L40.1,34.94L41.94,36.12L42.55,35.09L43.77,34.92L44.38,35.88L44.99,36.38L45.6,35.62L49.87,27.95L50.48,27.54L52.32,26.89L52.93,27.04L54.76,27.61L55.37,28.71L57.81,35.97L58.42,36.27L60.86,37.1L61.47,36.7L66.36,32.7L66.97,33.15L70.02,35L70.63,35.18L73.07,38.09L73.68,37.89L76.74,35.09L77.35,35.14L79.79,35.38L80.4,34.36L82.23,32.83L82.84,32.77L84.67,33.58L85.29,34.17L86.51,33.56L87.12,33L88.95,33.16L89.56,33.68L90.17,34.13L90.78,33.5L95.66,28.48L96.28,28.44L98.11,29.18L98.72,29.6L100.55,30.39L101.16,30L103.6,27.58L104.21,27.41L106.04,28.13L106.65,28.84L109.1,30.67L109.71,31.57L112.15,34.44L112.76,35.03L114.59,34.45L115.2,34.21L117.64,33.31L118.26,33.47L120.7,36.12L121.31,37.67L121.92,39.14L122.53,38.35L124.36,36.83L124.97,36.89L128.63,35.81L129.25,35.46L132.3,32.42L132.91,31.16L134.74,28.92L135.35,28.52L139.01,27.25L139.62,27.5L141.46,28.79L142.07,30.02L143.29,32.75L143.9,32.43L146.95,30.42L147.56,30.5L148.17,30.86L148.78,30.02L150,29.37L150.61,30.22L153.67,34.06L154.28,33.63L155.5,31.11L156.11,31.22L160.38,32.53L160.99,32.18L163.44,31.77L164.05,32.13L165.88,35.25L166.49,37.69L168.32,47.46L168.93,49.14L170.76,54.45L171.37,54.6L172.59,53.81L173.21,51.59L174.43,50.28L175.04,50.68L178.7,54.91L179.31,55.14L179.92,54.97L180.53,53.94L182.36,53.06L182.97,52.26L184.81,51.41L185.42,51.83L187.86,52.92L188.47,52.76L190.3,50.94L190.91,49.83L195.8,40.89L196.41,40.15L198.24,39.11L198.85,38.94L201.9,36.71L202.51,36.08L203.73,34.97L204.34,35.04L206.79,34.42L207.4,33.94L211.06,31.41L211.67,31.16L216.55,29.13L217.17,29.23L219,28.83L219.61,28.31L221.44,27.62L222.05,28.01L225.71,30.98L226.32,30.44L228.16,30.9L228.77,31.28L229.99,33.19L230.6,34.89L232.43,39.41L233.04,38.86L236.09,34.86L236.7,35.99L239.76,41.83L240.37,41.48L243.42,37.35L244.03,36.06L245.86,33.12L246.47,32.88L247.69,33.32L248.3,33.86L251.97,35.16L252.58,34.81L256.24,32.44L256.85,30.61L258.68,27.71L259.29,27.44L264.79,27.12L265.4,26.61L269.67,22.33L270.28,22.57L273.34,24.24L273.95,24.34L274.56,25.16L275.17,31.62L277,49.47L277,74.57L275.78,87.43L275.17,86.83L272.73,83.94L272.12,83.8L270.28,83.71L269.67,83.95L267.84,81.74L267.23,80.52L266.01,79.79L265.4,80.07L263.57,80.03L262.96,80.42L258.68,84.25L258.07,84L256.85,83.01L256.24,83.5L255.63,84.06L255.02,83.23L254.41,81.68L253.8,82.22L250.75,87.85L250.14,87.84L248.3,87.01L247.69,87.22L245.86,85.61L245.25,85.7L242.2,86.78L241.59,86.59L235.48,81.12L234.87,81.44L233.04,83.27L232.43,83.12L229.99,84.56L229.38,84.18L226.93,83.81L226.32,83.24L223.88,80.04L223.27,80.25L219,78.78L218.39,80.01L215.94,86.1L215.33,86.41L212.89,86.06L212.28,85.35L211.06,82.84L210.45,83.35L209.84,82.86L209.23,83.47L206.79,86.4L206.18,87.79L204.95,88.86L204.34,88.8L200.07,84.48L199.46,84.94L197.02,86.65L196.41,87.2L195.19,88.29L194.57,88.13L190.91,85.14L190.3,84.92L189.69,84.73L189.08,85.92L187.25,86.36L186.64,85.7L185.42,85.6L184.81,87.03L181.75,87.59L181.14,86.43L179.92,85.53L179.31,85.8L178.09,85.84L177.48,86.01L175.04,85.52L174.43,84.54L173.21,84.1L172.59,82.43L168.93,74.32L168.32,73.77L167.1,74.34L166.49,74.95L164.05,73.26L163.44,72.38L160.99,69.15L160.38,69.54L159.16,70.29L158.55,69.96L153.06,64.65L152.45,64.83L150.61,65.25L150,64.54L148.78,64.67L148.17,65.01L145.73,62.81L145.12,63.02L143.29,63.67L142.68,62.76L141.46,62.75L140.85,64.02L139.62,65.7L139.01,65.25L137.79,65L137.18,65.49L134.13,70.69L133.52,71.91L131.08,66L130.47,64.61L129.86,64.33L129.25,65.07L127.41,66.12L126.8,67.11L124.97,69.64L124.36,69.81L121.92,69.44L121.31,68.75L118.87,64.64L118.26,64.25L116.42,63.3L115.81,63.24L114.59,62.66L113.98,61.82L111.54,59.08L110.93,59.01L109.1,60.61L108.49,61.64L106.04,64.29L105.43,64.6L98.72,68.24L98.11,67.63L96.28,66.13L95.66,67.2L93.83,73.21L93.22,75.61L88.95,90.25L88.34,91.21L86.51,90.8L85.9,90.1L85.29,89.93L84.67,90.77L83.45,91.45L82.84,91.16L81.01,89.01L80.4,88.91L79.18,88.04L78.57,86.49L77.96,86.23L77.35,87L76.13,87.11L75.52,87.98L73.68,89.71L73.07,90.31L72.46,91L71.85,89.45L68.19,82.33L67.58,82.82L65.75,85.49L65.14,85.99L62.69,88.29L62.08,88.32L60.86,89.26L60.25,89.59L57.81,91.82L57.2,91.23L54.76,89.65L54.15,89.91L52.93,90.89L52.32,90.28L51.09,89.89L50.48,89.93L48.65,89.76L48.04,89.47L45.6,88.46L44.99,88.72L43.16,88.02L42.55,88.4L37.66,87.62L37.05,88.06L34,92.72L33.39,92.02L27.28,89.18L26.67,89.35L24.84,90.59L24.23,91.39L22.4,92.26L21.79,92.43L19.35,90.61L18.73,90.87L16.9,91.53L16.29,89.48L14.46,87.78L13.85,87.95Z" style="fill: rgb(65, 64, 132); fill-opacity: 0.3; stroke-width: 0;"/></g></g><g class="errorbars"/><g class="lines"><path class="js-line" d="M13.85,56.46L15.68,71.26L16.29,73.32L16.9,75.02L17.51,71.84L19.96,65.83L20.57,64.86L27.28,56.09L27.89,56.1L29.11,56.95L29.72,56.13L31.56,52.22L32.17,50.36L37.05,35.72L37.66,35.01L39.49,34.62L40.1,34.94L41.94,36.12L42.55,35.09L43.77,34.92L44.38,35.88L44.99,36.38L45.6,35.62L49.87,27.95L50.48,27.54L52.32,26.89L52.93,27.04L54.76,27.61L55.37,28.71L57.81,35.97L58.42,36.27L60.86,37.1L61.47,36.7L66.36,32.7L66.97,33.15L70.02,35L70.63,35.18L73.07,38.09L73.68,37.89L76.74,35.09L77.35,35.14L79.79,35.38L80.4,34.36L82.23,32.83L82.84,32.77L84.67,33.58L85.29,34.17L86.51,33.56L87.12,33L88.95,33.16L89.56,33.68L90.17,34.13L90.78,33.5L95.66,28.48L96.28,28.44L98.11,29.18L98.72,29.6L100.55,30.39L101.16,30L103.6,27.58L104.21,27.41L106.04,28.13L106.65,28.84L109.1,30.67L109.71,31.57L112.15,34.44L112.76,35.03L114.59,34.45L115.2,34.21L117.64,33.31L118.26,33.47L120.7,36.12L121.31,37.67L121.92,39.14L122.53,38.35L124.36,36.83L124.97,36.89L128.63,35.81L129.25,35.46L132.3,32.42L132.91,31.16L134.74,28.92L135.35,28.52L139.01,27.25L139.62,27.5L141.46,28.79L142.07,30.02L143.29,32.75L143.9,32.43L146.95,30.42L147.56,30.5L148.17,30.86L148.78,30.02L150,29.37L150.61,30.22L153.67,34.06L154.28,33.63L155.5,31.11L156.11,31.22L160.38,32.53L160.99,32.18L163.44,31.77L164.05,32.13L165.88,35.25L166.49,37.69L168.32,47.46L168.93,49.14L170.76,54.45L171.37,54.6L172.59,53.81L173.21,51.59L174.43,50.28L175.04,50.68L178.7,54.91L179.31,55.14L179.92,54.97L180.53,53.94L182.36,53.06L182.97,52.26L184.81,51.41L185.42,51.83L187.86,52.92L188.47,52.76L190.3,50.94L190.91,49.83L195.8,40.89L196.41,40.15L198.24,39.11L198.85,38.94L201.9,36.71L202.51,36.08L203.73,34.97L204.34,35.04L206.79,34.42L207.4,33.94L211.06,31.41L211.67,31.16L216.55,29.13L217.17,29.23L219,28.83L219.61,28.31L221.44,27.62L222.05,28.01L225.71,30.98L226.32,30.44L228.16,30.9L228.77,31.28L229.99,33.19L230.6,34.89L232.43,39.41L233.04,38.86L236.09,34.86L236.7,35.99L239.76,41.83L240.37,41.48L243.42,37.35L244.03,36.06L245.86,33.12L246.47,32.88L247.69,33.32L248.3,33.86L251.97,35.16L252.58,34.81L256.24,32.44L256.85,30.61L258.68,27.71L259.29,27.44L264.79,27.12L265.4,26.61L269.67,22.33L270.28,22.57L273.34,24.24L273.95,24.34L274.56,25.16L275.17,31.62L277,49.47L277,74.57L275.78,87.43L275.17,86.83L272.73,83.94L272.12,83.8L270.28,83.71L269.67,83.95L267.84,81.74L267.23,80.52L266.01,79.79L265.4,80.07L263.57,80.03L262.96,80.42L258.68,84.25L258.07,84L256.85,83.01L256.24,83.5L255.63,84.06L255.02,83.23L254.41,81.68L253.8,82.22L250.75,87.85L250.14,87.84L248.3,87.01L247.69,87.22L245.86,85.61L245.25,85.7L242.2,86.78L241.59,86.59L235.48,81.12L234.87,81.44L233.04,83.27L232.43,83.12L229.99,84.56L229.38,84.18L226.93,83.81L226.32,83.24L223.88,80.04L223.27,80.25L219,78.78L218.39,80.01L215.94,86.1L215.33,86.41L212.89,86.06L212.28,85.35L211.06,82.84L210.45,83.35L209.84,82.86L209.23,83.47L206.79,86.4L206.18,87.79L204.95,88.86L204.34,88.8L200.07,84.48L199.46,84.94L197.02,86.65L196.41,87.2L195.19,88.29L194.57,88.13L190.91,85.14L190.3,84.92L189.69,84.73L189.08,85.92L187.25,86.36L186.64,85.7L185.42,85.6L184.81,87.03L181.75,87.59L181.14,86.43L179.92,85.53L179.31,85.8L178.09,85.84L177.48,86.01L175.04,85.52L174.43,84.54L173.21,84.1L172.59,82.43L168.93,74.32L168.32,73.77L167.1,74.34L166.49,74.95L164.05,73.26L163.44,72.38L160.99,69.15L160.38,69.54L159.16,70.29L158.55,69.96L153.06,64.65L152.45,64.83L150.61,65.25L150,64.54L148.78,64.67L148.17,65.01L145.73,62.81L145.12,63.02L143.29,63.67L142.68,62.76L141.46,62.75L140.85,64.02L139.62,65.7L139.01,65.25L137.79,65L137.18,65.49L134.13,70.69L133.52,71.91L131.08,66L130.47,64.61L129.86,64.33L129.25,65.07L127.41,66.12L126.8,67.11L124.97,69.64L124.36,69.81L121.92,69.44L121.31,68.75L118.87,64.64L118.26,64.25L116.42,63.3L115.81,63.24L114.59,62.66L113.98,61.82L111.54,59.08L110.93,59.01L109.1,60.61L108.49,61.64L106.04,64.29L105.43,64.6L98.72,68.24L98.11,67.63L96.28,66.13L95.66,67.2L93.83,73.21L93.22,75.61L88.95,90.25L88.34,91.21L86.51,90.8L85.9,90.1L85.29,89.93L84.67,90.77L83.45,91.45L82.84,91.16L81.01,89.01L80.4,88.91L79.18,88.04L78.57,86.49L77.96,86.23L77.35,87L76.13,87.11L75.52,87.98L73.68,89.71L73.07,90.31L72.46,91L71.85,89.45L68.19,82.33L67.58,82.82L65.75,85.49L65.14,85.99L62.69,88.29L62.08,88.32L60.86,89.26L60.25,89.59L57.81,91.82L57.2,91.23L54.76,89.65L54.15,89.91L52.93,90.89L52.32,90.28L51.09,89.89L50.48,89.93L48.65,89.76L48.04,89.47L45.6,88.46L44.99,88.72L43.16,88.02L42.55,88.4L37.66,87.62L37.05,88.06L34,92.72L33.39,92.02L27.28,89.18L26.67,89.35L24.84,90.59L24.23,91.39L22.4,92.26L21.79,92.43L19.35,90.61L18.73,90.87L16.9,91.53L16.29,89.48L14.46,87.78L13.85,87.95" style="vector-effect: none; fill: none; stroke: rgb(0, 0, 0); stroke-opacity: 0; stroke-width: 2px; opacity: 1;"/></g><g class="points"/><g class="text"/></g><g class="trace scatter trace4aa47d" style="stroke-miterlimit: 2; opacity: 1;"><g class="fills"/><g class="errorbars"/><g class="lines"><path class="js-line" d="M13.85,67.37L16.9,87.45L17.51,84.91L18.73,83.6L19.35,82.85L21.79,86.14L22.4,84.76L24.84,74.53L25.45,73.56L26.06,74.12L26.67,72.74L28.5,68.87L29.11,68.17L30.34,70.07L30.95,70.12L32.17,69.93L32.78,71.3L34.61,77.34L35.22,76.64L36.44,74.35L37.05,71.66L40.1,72.26L40.71,71.69L41.33,72.6L41.94,72.09L43.16,73.86L43.77,75.03L45.6,65.05L46.21,66.27L48.65,69.42L49.26,69.06L50.48,69.11L51.09,68.01L51.7,67.6L52.32,68.32L54.15,72.41L54.76,71.22L57.2,65.47L57.81,63.49L59.64,60.49L60.25,60.23L61.47,58.61L62.08,56.75L63.31,51.25L63.92,52.12L64.53,53.48L65.14,52.69L67.58,51.87L68.19,52.92L68.8,53.08L69.41,49.87L70.63,45.88L71.24,47.32L73.07,47.79L73.68,49.86L76.13,56.45L76.74,57.18L77.35,57.8L77.96,59.49L79.18,63.18L79.79,63.16L81.62,58.68L82.23,59.05L83.45,55.76L84.06,56.06L84.67,57.79L85.29,59.85L85.9,59.07L86.51,58.99L87.12,59.84L88.95,58.5L89.56,58.87L90.17,59.46L90.78,57.27L92,54.88L92.61,55.3L94.44,55.2L95.05,56.08L99.33,48.98L99.94,49.61L101.77,50.74L102.38,50.2L105.43,49.26L106.04,49.67L106.65,49.05L107.27,47.26L109.1,44.65L109.71,46.18L112.76,53.67L113.37,54.1L115.2,50.53L115.81,50.04L118.26,46.64L118.87,46.72L120.09,48.88L120.7,47.29L121.31,45.06L121.92,45.54L122.53,47.6L124.97,49.32L125.58,48.19L128.63,44.62L129.25,45.76L130.47,46.45L131.08,46.71L134.13,44.39L134.74,43.28L135.35,42.19L135.96,43.23L137.79,46.41L138.4,46.86L139.01,43.75L139.62,44.53L140.24,44.12L141.46,45.12L142.07,45.06L143.9,41.35L144.51,43.58L146.34,47.24L146.95,46.23L147.56,43.55L148.17,43.95L148.78,42.56L150,41.46L150.61,42.07L151.84,44.93L152.45,43.73L153.67,40.74L154.28,40.63L155.5,41.36L156.11,41.05L158.55,47.69L159.16,46.31L160.99,42.58L161.6,42.6L163.44,44.54L164.05,44.28L165.27,43.96L165.88,44.56L166.49,43.48L167.1,44.34L168.93,45.53L169.54,45.59L170.76,42.67L171.37,40.38L171.98,38.68L172.59,40.81L173.82,42.75L174.43,44.31L175.65,47.65L176.26,46.61L176.87,49.96L177.48,48.96L179.31,44.86L179.92,46.19L181.75,39.91L182.36,41.51L183.58,42.43L184.2,43.11L185.42,43.09L186.03,44.66L186.64,45.55L187.25,44.2L189.08,39.6L189.69,39.17L190.3,40.21L190.91,39.03L192.74,39.17L193.35,37.57L197.02,41.17L197.63,40.47L199.46,35.76L200.07,36.09L201.9,33.43L202.51,32.75L203.73,33.92L204.34,35.47L205.56,34.75L206.18,33.72L206.79,32.53L207.4,33.88L208.62,35.49L209.23,34.95L211.67,28.18L212.28,28.5L213.5,31.36L214.11,33.39L215.94,32.85L216.55,33.04L217.17,32.86L217.78,34.51L219,32.73L219.61,33.77L221.44,28.32L222.05,29.5L222.66,31.88L223.27,30.93L223.88,30.19L224.49,31.8L226.32,35L226.93,33.31L228.77,34.99L229.38,34.41L229.99,34.6L230.6,32.5L231.82,32.31L232.43,32.59L234.87,30.56L235.48,32.35L236.09,32.13L236.7,33.21L237.92,33.72L238.53,33.28L239.15,32.84L239.76,34.07L241.59,36.39L242.2,36.69L242.81,36.49L243.42,33.91L244.64,34.98L245.25,34.23L245.86,31.79L246.47,32.05L247.08,31.15L247.69,30.7L248.3,32.91L250.75,34.6L251.36,34.12L251.97,33.96L252.58,35.78L253.19,36.23L253.8,34.51L255.63,32.29L256.24,32.71L256.85,33.49L257.46,32.08L258.07,30.01L258.68,30.99L259.29,30.57L259.9,32.64L261.74,38.21L262.35,36.82L264.18,32.83L264.79,33.94L266.01,36.74L266.62,35.98L267.84,35.44L268.45,35.99L269.06,37.14L269.67,35.93L270.28,35.59L270.89,37.22L271.5,37.27L272.12,38.85L274.56,43.38L275.17,50.24L277,63.21" style="vector-effect: none; fill: none; stroke: rgb(157, 217, 58); stroke-opacity: 1; stroke-width: 2px; opacity: 1;"/></g><g class="points"/><g class="text"/></g><g class="trace scatter trace8a6baf" style="stroke-miterlimit: 2; opacity: 1;"><g class="fills"><g><path class="js-fill" d="M13.85,60.93L16.29,75.82L16.9,77.56L19.35,65.88L19.96,64.98L23.01,60.71L23.62,60.86L27.28,62.04L27.89,61.1L30.34,52.63L30.95,50.37L32.17,47.66L32.78,48.79L34.61,52.27L35.22,51.56L36.44,51.66L37.05,52.15L38.88,52.83L39.49,51.66L41.94,45.69L42.55,46.49L45.6,53.87L46.21,53.98L46.82,53.52L47.43,51.77L50.48,43.22L51.09,43.13L52.32,45.26L52.93,47.11L54.76,51.56L55.37,50.39L57.81,43.27L58.42,43.03L61.47,35.81L62.08,35.79L63.31,36.98L63.92,38.27L65.14,40.35L65.75,40.23L66.36,40.8L66.97,39.72L67.58,39.16L68.19,39.67L70.63,37.9L71.24,36.73L72.46,35.08L73.07,35.26L73.68,34.66L74.3,35.24L74.91,35.35L75.52,34.66L79.79,33.77L80.4,35.62L82.23,39.03L82.84,39.04L85.9,35.31L86.51,35.94L87.73,36.16L88.34,37.72L90.78,42.69L91.39,40.26L92,41.17L92.61,39.94L93.83,37.83L94.44,38.42L95.66,39.68L96.28,39.13L97.5,39.26L98.11,39.48L99.33,40.22L99.94,40.15L102.38,39.59L102.99,39.25L104.21,35.93L104.82,34.64L106.04,33.75L106.65,34.54L107.88,34.86L108.49,34.05L109.1,33.87L109.71,34.52L111.54,37.99L112.15,37.68L114.59,32.53L115.2,34.25L116.42,33.75L117.03,33.34L118.26,31.1L118.87,31.04L120.09,32.33L120.7,33.77L121.92,36.14L122.53,35.57L124.36,30.51L124.97,30.42L126.19,32.18L126.8,31.83L128.63,26.9L129.25,26.67L130.47,28.97L131.08,31.31L132.3,35L132.91,33.55L134.13,29.37L134.74,29.13L135.35,29.55L135.96,28.98L137.18,28.9L137.79,29.74L138.4,30.82L139.01,30.33L140.24,30.01L140.85,30.79L142.68,33.15L143.29,33.11L143.9,33.15L144.51,31.91L147.56,29.43L148.17,29.5L148.78,28.74L149.39,29.65L150.61,30.06L151.23,29.89L152.45,30.58L153.06,31.75L154.28,35.92L154.89,35.96L156.72,37.64L157.33,36.13L159.16,33.01L159.77,31.88L161.6,30.5L162.22,30.47L163.44,29.66L164.05,30.23L166.49,34.93L167.1,34.27L169.54,32.26L170.15,31.33L171.98,28.79L172.59,30.16L173.21,31.52L173.82,30.84L175.04,28.08L175.65,28.01L176.87,30.55L177.48,32.59L178.09,32.13L178.7,33.56L179.92,35.44L180.53,34.82L181.75,34.05L182.36,34.81L183.58,32.18L184.2,30.49L186.03,28.15L186.64,29.49L189.08,36.28L189.69,34.86L191.52,30.9L192.13,30.91L193.96,29.12L194.57,28.15L195.19,27.86L195.8,26.7L197.02,25.33L197.63,25.59L199.46,26.89L200.07,27.62L202.51,28.48L203.12,29.9L204.95,28.5L205.56,28.14L206.79,26.4L207.4,25.16L209.23,22.26L209.84,22.34L211.06,23.53L211.67,23.02L213.5,24.07L214.11,24.16L215.33,26.39L215.94,27.78L217.78,26.19L218.39,26.97L220.22,24.7L220.83,25.24L222.05,24.64L222.66,23.97L223.27,23.9L223.88,24.66L225.1,25.78L225.71,25.24L226.93,25.61L227.54,26.4L229.99,26.69L230.6,28.02L231.21,28.78L231.82,27.3L233.04,25.05L233.65,25.11L234.87,25.06L235.48,25.54L238.53,24.01L239.15,25.7L239.76,28.8L240.37,28.48L240.98,27.98L241.59,27.64L242.2,28.85L242.81,30.52L243.42,30.2L244.03,28.98L245.86,25.56L246.47,25.5L247.69,24.21L248.3,24.66L249.52,23.66L250.14,25.13L251.36,26.74L251.97,27.09L253.8,27.15L254.41,27.63L255.63,29.15L256.24,27.69L258.07,24.87L258.68,24.43L261.13,24.68L261.74,25.23L262.96,27.02L263.57,28.96L264.79,30.24L265.4,30.84L266.01,30.94L266.62,29.75L267.84,27.53L268.45,27.71L269.67,29.29L270.28,28.39L270.89,28.06L271.5,28.85L273.34,32.1L273.95,33.06L274.56,34.37L275.17,40.44L277,55.09L277,68.65L275.78,62.1L275.17,57.22L273.95,51.21L273.34,50.3L272.73,49.04L272.12,49.95L270.89,50.65L270.28,49.95L269.06,48.7L268.45,47.08L267.84,47.19L267.23,48.2L266.01,50.22L265.4,52.19L264.18,53.36L263.57,52.2L261.13,46.38L260.51,45.66L259.29,43.79L258.68,42.15L256.85,36.65L256.24,38.5L255.02,42.73L254.41,42.55L251.36,44.87L250.75,44.77L248.3,45.66L247.69,45.97L246.47,45.06L245.86,44.05L244.64,43.45L244.03,44.06L238.53,55.14L237.92,55.42L236.7,53.84L236.09,52.25L233.65,45.44L233.04,45.64L231.21,49.59L230.6,49.64L229.38,48.22L228.77,46.92L227.54,46.23L226.93,46.3L225.71,46.63L225.1,47.48L224.49,49.68L223.88,47.8L221.44,41.97L220.83,43.99L219.61,46.9L219,44.89L217.78,42.07L217.17,43.48L215.94,45.6L215.33,44.49L212.89,41.72L212.28,43.06L210.45,47.38L209.84,47.11L208.01,47.55L207.4,48.42L205.56,46.49L204.95,47.23L203.73,49.56L203.12,49.84L201.9,49.44L201.29,49.03L200.07,48.36L199.46,48.26L195.19,57.57L194.57,57.39L193.35,54.54L192.74,53.06L191.52,51.94L190.91,52.64L189.08,54.43L188.47,54.57L185.42,53.66L184.81,55.02L183.58,56.54L182.97,56.39L181.75,53.9L181.14,54.42L179.92,56.83L179.31,57.05L178.09,56.93L177.48,56.19L176.26,55.35L175.65,56.74L173.21,63.38L172.59,63.53L171.98,63.64L171.37,64.52L169.54,68.39L168.93,69.05L167.71,70.97L167.1,71.01L165.88,70.92L165.27,69.89L163.44,66.98L162.83,66.88L162.22,67.03L161.6,66.2L158.55,55.19L157.94,55.41L155.5,54.57L154.89,55.34L152.45,51.41L151.84,53.71L150.61,54.11L150,55.53L148.17,55.76L147.56,55.36L146.95,54.6L146.34,55.19L143.29,58.73L142.68,60.49L140.85,60.03L140.24,59.69L137.18,56.85L136.57,58.26L135.35,60.54L134.74,59.17L133.52,58.15L132.91,58.83L129.86,60.29L129.25,59.89L126.8,57.8L126.19,57.27L124.97,58.67L124.36,59.94L118.87,67.88L118.26,67.67L116.42,66.04L115.81,66.4L114.59,66.93L113.98,66.6L113.37,66.19L112.76,67.41L110.32,77.1L109.71,76.68L109.1,75.67L107.88,72.2L107.27,72.73L105.43,73.96L104.82,72.05L103.6,70.56L102.99,70.76L101.16,71.57L100.55,72.29L99.94,71.94L99.33,72.74L97.5,73.57L96.89,72.32L95.05,68.64L94.44,69L93.22,70.28L92.61,71.43L91.39,74.86L90.78,77.26L88.95,81.77L88.34,79.77L87.12,82.54L86.51,80.88L84.06,85.74L83.45,83.66L80.4,75.04L79.79,73.95L77.35,72.34L76.74,73.09L74.91,76.27L74.3,75.97L71.85,72.25L71.24,73.17L69.41,76.28L68.8,75.3L67.58,74.65L66.97,75.35L64.53,78.94L63.92,80.68L60.86,87.16L60.25,87.58L59.03,86.05L58.42,85.33L55.37,83.88L54.76,84.44L53.54,84.48L52.93,83.41L51.7,82.97L51.09,81.89L49.87,81.08L49.26,82.07L48.04,83.67L47.43,83.63L46.21,83.25L45.6,84.6L43.77,84.29L43.16,83.79L40.71,88.54L40.1,87.67L38.88,86.15L38.27,86.13L35.83,87.26L35.22,87.12L34.61,87.16L34,88.32L30.95,91.78L30.34,91.33L26.67,87.56L26.06,87.76L24.84,88.19L24.23,87.52L23.01,89.1L22.4,88.44L21.79,88.03L21.18,89.48L20.57,90.45L19.96,90.01L19.35,89.76L18.73,90.34L16.9,92.87L16.29,89.01L13.85,72.34Z" style="fill: rgb(157, 217, 58); fill-opacity: 0.3; stroke-width: 0;"/></g></g><g class="errorbars"/><g class="lines"><path class="js-line" d="M13.85,60.93L16.29,75.82L16.9,77.56L19.35,65.88L19.96,64.98L23.01,60.71L23.62,60.86L27.28,62.04L27.89,61.1L30.34,52.63L30.95,50.37L32.17,47.66L32.78,48.79L34.61,52.27L35.22,51.56L36.44,51.66L37.05,52.15L38.88,52.83L39.49,51.66L41.94,45.69L42.55,46.49L45.6,53.87L46.21,53.98L46.82,53.52L47.43,51.77L50.48,43.22L51.09,43.13L52.32,45.26L52.93,47.11L54.76,51.56L55.37,50.39L57.81,43.27L58.42,43.03L61.47,35.81L62.08,35.79L63.31,36.98L63.92,38.27L65.14,40.35L65.75,40.23L66.36,40.8L66.97,39.72L67.58,39.16L68.19,39.67L70.63,37.9L71.24,36.73L72.46,35.08L73.07,35.26L73.68,34.66L74.3,35.24L74.91,35.35L75.52,34.66L79.79,33.77L80.4,35.62L82.23,39.03L82.84,39.04L85.9,35.31L86.51,35.94L87.73,36.16L88.34,37.72L90.78,42.69L91.39,40.26L92,41.17L92.61,39.94L93.83,37.83L94.44,38.42L95.66,39.68L96.28,39.13L97.5,39.26L98.11,39.48L99.33,40.22L99.94,40.15L102.38,39.59L102.99,39.25L104.21,35.93L104.82,34.64L106.04,33.75L106.65,34.54L107.88,34.86L108.49,34.05L109.1,33.87L109.71,34.52L111.54,37.99L112.15,37.68L114.59,32.53L115.2,34.25L116.42,33.75L117.03,33.34L118.26,31.1L118.87,31.04L120.09,32.33L120.7,33.77L121.92,36.14L122.53,35.57L124.36,30.51L124.97,30.42L126.19,32.18L126.8,31.83L128.63,26.9L129.25,26.67L130.47,28.97L131.08,31.31L132.3,35L132.91,33.55L134.13,29.37L134.74,29.13L135.35,29.55L135.96,28.98L137.18,28.9L137.79,29.74L138.4,30.82L139.01,30.33L140.24,30.01L140.85,30.79L142.68,33.15L143.29,33.11L143.9,33.15L144.51,31.91L147.56,29.43L148.17,29.5L148.78,28.74L149.39,29.65L150.61,30.06L151.23,29.89L152.45,30.58L153.06,31.75L154.28,35.92L154.89,35.96L156.72,37.64L157.33,36.13L159.16,33.01L159.77,31.88L161.6,30.5L162.22,30.47L163.44,29.66L164.05,30.23L166.49,34.93L167.1,34.27L169.54,32.26L170.15,31.33L171.98,28.79L172.59,30.16L173.21,31.52L173.82,30.84L175.04,28.08L175.65,28.01L176.87,30.55L177.48,32.59L178.09,32.13L178.7,33.56L179.92,35.44L180.53,34.82L181.75,34.05L182.36,34.81L183.58,32.18L184.2,30.49L186.03,28.15L186.64,29.49L189.08,36.28L189.69,34.86L191.52,30.9L192.13,30.91L193.96,29.12L194.57,28.15L195.19,27.86L195.8,26.7L197.02,25.33L197.63,25.59L199.46,26.89L200.07,27.62L202.51,28.48L203.12,29.9L204.95,28.5L205.56,28.14L206.79,26.4L207.4,25.16L209.23,22.26L209.84,22.34L211.06,23.53L211.67,23.02L213.5,24.07L214.11,24.16L215.33,26.39L215.94,27.78L217.78,26.19L218.39,26.97L220.22,24.7L220.83,25.24L222.05,24.64L222.66,23.97L223.27,23.9L223.88,24.66L225.1,25.78L225.71,25.24L226.93,25.61L227.54,26.4L229.99,26.69L230.6,28.02L231.21,28.78L231.82,27.3L233.04,25.05L233.65,25.11L234.87,25.06L235.48,25.54L238.53,24.01L239.15,25.7L239.76,28.8L240.37,28.48L240.98,27.98L241.59,27.64L242.2,28.85L242.81,30.52L243.42,30.2L244.03,28.98L245.86,25.56L246.47,25.5L247.69,24.21L248.3,24.66L249.52,23.66L250.14,25.13L251.36,26.74L251.97,27.09L253.8,27.15L254.41,27.63L255.63,29.15L256.24,27.69L258.07,24.87L258.68,24.43L261.13,24.68L261.74,25.23L262.96,27.02L263.57,28.96L264.79,30.24L265.4,30.84L266.01,30.94L266.62,29.75L267.84,27.53L268.45,27.71L269.67,29.29L270.28,28.39L270.89,28.06L271.5,28.85L273.34,32.1L273.95,33.06L274.56,34.37L275.17,40.44L277,55.09L277,68.65L275.78,62.1L275.17,57.22L273.95,51.21L273.34,50.3L272.73,49.04L272.12,49.95L270.89,50.65L270.28,49.95L269.06,48.7L268.45,47.08L267.84,47.19L267.23,48.2L266.01,50.22L265.4,52.19L264.18,53.36L263.57,52.2L261.13,46.38L260.51,45.66L259.29,43.79L258.68,42.15L256.85,36.65L256.24,38.5L255.02,42.73L254.41,42.55L251.36,44.87L250.75,44.77L248.3,45.66L247.69,45.97L246.47,45.06L245.86,44.05L244.64,43.45L244.03,44.06L238.53,55.14L237.92,55.42L236.7,53.84L236.09,52.25L233.65,45.44L233.04,45.64L231.21,49.59L230.6,49.64L229.38,48.22L228.77,46.92L227.54,46.23L226.93,46.3L225.71,46.63L225.1,47.48L224.49,49.68L223.88,47.8L221.44,41.97L220.83,43.99L219.61,46.9L219,44.89L217.78,42.07L217.17,43.48L215.94,45.6L215.33,44.49L212.89,41.72L212.28,43.06L210.45,47.38L209.84,47.11L208.01,47.55L207.4,48.42L205.56,46.49L204.95,47.23L203.73,49.56L203.12,49.84L201.9,49.44L201.29,49.03L200.07,48.36L199.46,48.26L195.19,57.57L194.57,57.39L193.35,54.54L192.74,53.06L191.52,51.94L190.91,52.64L189.08,54.43L188.47,54.57L185.42,53.66L184.81,55.02L183.58,56.54L182.97,56.39L181.75,53.9L181.14,54.42L179.92,56.83L179.31,57.05L178.09,56.93L177.48,56.19L176.26,55.35L175.65,56.74L173.21,63.38L172.59,63.53L171.98,63.64L171.37,64.52L169.54,68.39L168.93,69.05L167.71,70.97L167.1,71.01L165.88,70.92L165.27,69.89L163.44,66.98L162.83,66.88L162.22,67.03L161.6,66.2L158.55,55.19L157.94,55.41L155.5,54.57L154.89,55.34L152.45,51.41L151.84,53.71L150.61,54.11L150,55.53L148.17,55.76L147.56,55.36L146.95,54.6L146.34,55.19L143.29,58.73L142.68,60.49L140.85,60.03L140.24,59.69L137.18,56.85L136.57,58.26L135.35,60.54L134.74,59.17L133.52,58.15L132.91,58.83L129.86,60.29L129.25,59.89L126.8,57.8L126.19,57.27L124.97,58.67L124.36,59.94L118.87,67.88L118.26,67.67L116.42,66.04L115.81,66.4L114.59,66.93L113.98,66.6L113.37,66.19L112.76,67.41L110.32,77.1L109.71,76.68L109.1,75.67L107.88,72.2L107.27,72.73L105.43,73.96L104.82,72.05L103.6,70.56L102.99,70.76L101.16,71.57L100.55,72.29L99.94,71.94L99.33,72.74L97.5,73.57L96.89,72.32L95.05,68.64L94.44,69L93.22,70.28L92.61,71.43L91.39,74.86L90.78,77.26L88.95,81.77L88.34,79.77L87.12,82.54L86.51,80.88L84.06,85.74L83.45,83.66L80.4,75.04L79.79,73.95L77.35,72.34L76.74,73.09L74.91,76.27L74.3,75.97L71.85,72.25L71.24,73.17L69.41,76.28L68.8,75.3L67.58,74.65L66.97,75.35L64.53,78.94L63.92,80.68L60.86,87.16L60.25,87.58L59.03,86.05L58.42,85.33L55.37,83.88L54.76,84.44L53.54,84.48L52.93,83.41L51.7,82.97L51.09,81.89L49.87,81.08L49.26,82.07L48.04,83.67L47.43,83.63L46.21,83.25L45.6,84.6L43.77,84.29L43.16,83.79L40.71,88.54L40.1,87.67L38.88,86.15L38.27,86.13L35.83,87.26L35.22,87.12L34.61,87.16L34,88.32L30.95,91.78L30.34,91.33L26.67,87.56L26.06,87.76L24.84,88.19L24.23,87.52L23.01,89.1L22.4,88.44L21.79,88.03L21.18,89.48L20.57,90.45L19.96,90.01L19.35,89.76L18.73,90.34L16.9,92.87L16.29,89.01L13.85,72.34" style="vector-effect: none; fill: none; stroke: rgb(0, 0, 0); stroke-opacity: 0; stroke-width: 2px; opacity: 1;"/></g><g class="points"/><g class="text"/></g></g></g></g><path class="xlines-above crisp" d="M0,0" style="fill: none;"/><path class="ylines-above crisp" d="M0,0" style="fill: none;"/><g class="overlines-above"/><g class="xaxislayer-above"><g class="x2tick"><text text-anchor="middle" x="0" y="167.39999999999998" transform="translate(104.97999999999999,0)" style="font-family: 'Open Sans', verdana, arial, sans-serif; font-size: 12px; fill: rgb(42, 63, 95); fill-opacity: 1; white-space: pre; opacity: 1;">−100</text></g><g class="x2tick"><text text-anchor="middle" x="0" y="167.39999999999998" style="font-family: 'Open Sans', verdana, arial, sans-serif; font-size: 12px; fill: rgb(42, 63, 95); fill-opacity: 1; white-space: pre; opacity: 1;" transform="translate(166.03,0)">0</text></g><g class="x2tick"><text text-anchor="middle" x="0" y="167.39999999999998" style="font-family: 'Open Sans', verdana, arial, sans-serif; font-size: 12px; fill: rgb(42, 63, 95); fill-opacity: 1; white-space: pre; opacity: 1;" transform="translate(227.09,0)">100</text></g><g class="x2tick"><text text-anchor="middle" x="0" y="167.39999999999998" style="font-family: 'Open Sans', verdana, arial, sans-serif; font-size: 12px; fill: rgb(42, 63, 95); fill-opacity: 1; white-space: pre; opacity: 1;" transform="translate(288.15,0)">200</text></g></g><g class="yaxislayer-above"><g class="y2tick"><text text-anchor="end" x="48" y="4.199999999999999" transform="translate(0,154.4)" style="font-family: 'Open Sans', verdana, arial, sans-serif; font-size: 12px; fill: rgb(42, 63, 95); fill-opacity: 1; white-space: pre; opacity: 1;">0</text></g><g class="y2tick"><text text-anchor="end" x="48" y="4.199999999999999" style="font-family: 'Open Sans', verdana, arial, sans-serif; font-size: 12px; fill: rgb(42, 63, 95); fill-opacity: 1; white-space: pre; opacity: 1;" transform="translate(0,114.19)">50</text></g><g class="y2tick"><text text-anchor="end" x="48" y="4.199999999999999" style="font-family: 'Open Sans', verdana, arial, sans-serif; font-size: 12px; fill: rgb(42, 63, 95); fill-opacity: 1; white-space: pre; opacity: 1;" transform="translate(0,73.98)">100</text></g></g><g class="overaxes-above"/></g><g class="subplot xyz2"><g class="overplot"><g class="xyz2" transform="translate(49,0)" clip-path="url(#clip35974bxyz2plot)"><g class="scatterlayer2 mlayer"><g class="trace scatter tracecd6742" style="stroke-miterlimit: 2; opacity: 1;"><g class="fills"/><g class="errorbars"/><g class="lines"><path class="js-line" d="M13.85,0L277,0" style="vector-effect: none; fill: none; stroke: rgb(0, 0, 0); stroke-opacity: 1; stroke-width: 1px; opacity: 1;"/><path class="js-line" d="M13.85,28.95L277,28.95" style="vector-effect: none; fill: none; stroke: rgb(0, 0, 0); stroke-opacity: 1; stroke-width: 1px; opacity: 1;"/><path class="js-line" d="M13.85,57.9L277,57.9" style="vector-effect: none; fill: none; stroke: rgb(0, 0, 0); stroke-opacity: 1; stroke-width: 1px; opacity: 1;"/></g><g class="points"/><g class="text"/></g></g></g></g></g><g class="subplot x2y2z2"><g class="overplot"><g class="x2y2z2" transform="translate(49,57.900000000000006)" clip-path="url(#clip35974bx2y2z2plot)"/></g></g></g><g class="polarlayer"/><g class="smithlayer"/><g class="ternarylayer"/><g class="geolayer"/><g class="funnelarealayer"/><g class="pielayer"/><g class="iciclelayer"/><g class="treemaplayer"/><g class="sunburstlayer"/><g class="glimages"/><defs id="topdefs-35974b"><g class="clips"/><clipPath id="legend35974b"><rect width="108" height="86" x="0" y="0"/></clipPath></defs><g class="layer-above"><g class="imagelayer"/><g class="shapelayer"/></g><g class="infolayer"><g class="legend" pointer-events="all" transform="translate(331.54,0)"><rect class="bg" shape-rendering="crispEdges" style="stroke: rgb(68, 68, 68); stroke-opacity: 1; fill: rgb(255, 255, 255); fill-opacity: 1; stroke-width: 0px;" width="108" height="86" x="0" y="0"/><g class="scrollbox" transform="" clip-path="url(#legend35974b)"><g class="groups"><g class="traces" transform="translate(0,14.5)" style="opacity: 1;"><text class="legendtext" text-anchor="start" x="40" y="4.680000000000001" style="font-family: 'Open Sans', verdana, arial, sans-serif; font-size: 12px; fill: rgb(42, 63, 95); fill-opacity: 1; white-space: pre;">1/3</text><g class="layers" style="opacity: 1;"><g class="legendfill"/><g class="legendlines"><path class="js-line" d="M5,0h30" style="fill: none; stroke: rgb(65, 64, 132); stroke-opacity: 1; stroke-width: 2px;"/></g><g class="legendsymbols"><g class="legendpoints"/></g></g><rect class="legendtoggle" x="0" y="-9.5" width="102.171875" height="19" style="fill: rgb(0, 0, 0); fill-opacity: 0;"/></g><g class="traces" transform="translate(0,33.5)" style="opacity: 1;"><text class="legendtext" text-anchor="start" x="40" y="4.680000000000001" style="font-family: 'Open Sans', verdana, arial, sans-serif; font-size: 12px; fill: rgb(42, 63, 95); fill-opacity: 1; white-space: pre;">80th perc.</text><g class="layers" style="opacity: 1;"><g class="legendfill"><path class="js-fill" d="M5,-2h30v6h-30z" style="stroke-width: 0; fill: rgb(65, 64, 132); fill-opacity: 0.3;"/></g><g class="legendlines"><path class="js-line" d="M5,-2h30" style="fill: none; stroke: rgb(0, 0, 0); stroke-opacity: 0; stroke-width: 2px;"/></g><g class="legendsymbols"><g class="legendpoints"/></g></g><rect class="legendtoggle" x="0" y="-9.5" width="102.171875" height="19" style="fill: rgb(0, 0, 0); fill-opacity: 0;"/></g><g class="traces" transform="translate(0,52.5)" style="opacity: 1;"><text class="legendtext" text-anchor="start" x="40" y="4.680000000000001" style="font-family: 'Open Sans', verdana, arial, sans-serif; font-size: 12px; fill: rgb(42, 63, 95); fill-opacity: 1; white-space: pre;">3/3</text><g class="layers" style="opacity: 1;"><g class="legendfill"/><g class="legendlines"><path class="js-line" d="M5,0h30" style="fill: none; stroke: rgb(157, 217, 58); stroke-opacity: 1; stroke-width: 2px;"/></g><g class="legendsymbols"><g class="legendpoints"/></g></g><rect class="legendtoggle" x="0" y="-9.5" width="102.171875" height="19" style="fill: rgb(0, 0, 0); fill-opacity: 0;"/></g><g class="traces" transform="translate(0,71.5)" style="opacity: 1;"><text class="legendtext" text-anchor="start" x="40" y="4.680000000000001" style="font-family: 'Open Sans', verdana, arial, sans-serif; font-size: 12px; fill: rgb(42, 63, 95); fill-opacity: 1; white-space: pre;">80th perc.</text><g class="layers" style="opacity: 1;"><g class="legendfill"><path class="js-fill" d="M5,-2h30v6h-30z" style="stroke-width: 0; fill: rgb(157, 217, 58); fill-opacity: 0.3;"/></g><g class="legendlines"><path class="js-line" d="M5,-2h30" style="fill: none; stroke: rgb(0, 0, 0); stroke-opacity: 0; stroke-width: 2px;"/></g><g class="legendsymbols"><g class="legendpoints"/></g></g><rect class="legendtoggle" x="0" y="-9.5" width="102.171875" height="19" style="fill: rgb(0, 0, 0); fill-opacity: 0;"/></g></g></g><rect class="scrollbar" rx="20" ry="3" width="0" height="0" style="fill: rgb(128, 139, 164); fill-opacity: 1;" x="0" y="0"/></g><g class="g-gtitle"/><g class="g-xtitle"/><g class="g-x2title"><text class="x2title" x="187.5" y="194.70625" text-anchor="middle" style="opacity: 1; font-family: 'Open Sans', verdana, arial, sans-serif; font-size: 14px; fill: rgb(42, 63, 95); fill-opacity: 1; white-space: pre;">Position [cm]</text></g><g class="g-ytitle"/><g class="g-y2title" transform="translate(8.2998046875,0)"><text class="y2title" transform="rotate(-90,5.709375000000001,106.15)" x="5.709375000000001" y="106.15" text-anchor="middle" style="opacity: 1; font-family: 'Open Sans', verdana, arial, sans-serif; font-size: 14px; fill: rgb(42, 63, 95); fill-opacity: 1; white-space: pre;">Velocity [cm/s]</text></g></g></svg>