<svg class="main-svg" xmlns="http://www.w3.org/2000/svg" xmlns:xlink="http://www.w3.org/1999/xlink" width="345" height="300" style="" viewBox="0 0 345 300"><rect x="0" y="0" width="345" height="300" style="fill: rgb(255, 255, 255); fill-opacity: 1;"/><defs id="defs-c06c7b"><g class="clips"><clipPath id="clipc06c7bxyplot" class="plotclip"><rect width="137" height="165.87"/></clipPath><clipPath id="clipc06c7bx2y2plot" class="plotclip"><rect width="137" height="18.43"/></clipPath><clipPath class="axesclip" id="clipc06c7bx"><rect x="74" y="0" width="137" height="300"/></clipPath><clipPath class="axesclip" id="clipc06c7by"><rect x="0" y="50" width="345" height="165.87"/></clipPath><clipPath class="axesclip" id="clipc06c7bxy"><rect x="74" y="50" width="137" height="165.87"/></clipPath><clipPath class="axesclip" id="clipc06c7by2"><rect x="0" y="221.57" width="345" height="18.43"/></clipPath><clipPath class="axesclip" id="clipc06c7bxy2"><rect x="74" y="221.57" width="137" height="18.43"/></clipPath><clipPath class="axesclip" id="clipc06c7bx2"><rect x="74" y="0" width="137" height="300"/></clipPath><clipPath class="axesclip" id="clipc06c7bx2y"><rect x="74" y="50" width="137" height="165.87"/></clipPath><clipPath class="axesclip" id="clipc06c7bx2y2"><rect x="74" y="221.57" width="137" height="18.43"/></clipPath></g><g class="gradients"/><g class="patterns"/></defs><g class="bglayer"/><g class="layer-below"><g class="imagelayer"/><g class="shapelayer"/></g><g class="cartesianlayer"><g class="subplot xy"><g class="layer-subplot"><g class="shapelayer"/><g class="imagelayer"/></g><g class="minor-gridlayer"><g class="x"/><g class="y"/></g><g class="gridlayer"><g class="x"><path class="xgrid crisp" transform="translate(112.17,0)" d="M0,50v165.87" style="stroke: rgb(255, 255, 255); stroke-opacity: 1; stroke-width: 1px;"/><path class="xgrid crisp" transform="translate(139.74,0)" d="M0,50v165.87" style="stroke: rgb(255, 255, 255); stroke-opacity: 1; stroke-width: 1px;"/><path class="xgrid crisp" transform="translate(167.31,0)" d="M0,50v165.87" style="stroke: rgb(255, 255, 255); stroke-opacity: 1; stroke-width: 1px;"/><path class="xgrid crisp" transform="translate(194.89,0)" d="M0,50v165.87" style="stroke: rgb(255, 255, 255); stroke-opacity: 1; stroke-width: 1px;"/></g><g class="y"><path class="ygrid crisp" transform="translate(0,173.94)" d="M74,0h137" style="stroke: rgb(128, 128, 128); stroke-opacity: 0.2; stroke-width: 1px;"/><path class="ygrid crisp" transform="translate(0,132.63)" d="M74,0h137" style="stroke: rgb(128, 128, 128); stroke-opacity: 0.2; stroke-width: 1px;"/><path class="ygrid crisp" transform="translate(0,91.31)" d="M74,0h137" style="stroke: rgb(128, 128, 128); stroke-opacity: 0.2; stroke-width: 1px;"/></g></g><g class="zerolinelayer"><path class="xzl zl crisp" transform="translate(84.6,0)" d="M0,50v165.87" style="stroke: rgb(255, 255, 255); stroke-opacity: 1; stroke-width: 2px;"/></g><g class="layer-between"><g class="shapelayer"/><g class="imagelayer"/></g><path class="xlines-below"/><path class="ylines-below"/><g class="overlines-below"/><g class="xaxislayer-below"/><g class="yaxislayer-below"/><g class="overaxes-below"/><g class="overplot"><g class="xy" transform="translate(74,50)" clip-path="url(#clipc06c7bxyplot)"><g class="scatterlayer mlayer"><g class="trace scatter trace92febf" style="stroke-miterlimit: 2; opacity: 1;"><g class="fills"/><g class="errorbars"/><g class="lines"><path class="js-line" d="M10.6,150.63L16.11,152.75L21.63,151.19L27.14,149.98L32.66,139.11L38.17,151.42L43.69,151.57L54.71,156.41L60.23,151.74L65.74,149.62L71.26,152.81L76.77,149.04L82.29,148.85L87.8,145.49L93.31,153.57L104.34,152.11L109.86,150.03L115.37,149.52L120.89,145.44L126.4,152.12" style="vector-effect: none; fill: none; stroke: rgb(0, 0, 0); stroke-opacity: 0.1; stroke-width: 8px; opacity: 1;"/></g><g class="points"><path class="point" transform="translate(10.6,150.63)" d="M3,0A3,3 0 1,1 0,-3A3,3 0 0,1 3,0Z" style="opacity: 1; stroke-width: 0px; fill: rgb(0, 0, 0); fill-opacity: 0.1;"/><path class="point" transform="translate(16.11,152.75)" d="M3,0A3,3 0 1,1 0,-3A3,3 0 0,1 3,0Z" style="opacity: 1; stroke-width: 0px; fill: rgb(0, 0, 0); fill-opacity: 0.1;"/><path class="point" transform="translate(21.63,151.19)" d="M3,0A3,3 0 1,1 0,-3A3,3 0 0,1 3,0Z" style="opacity: 1; stroke-width: 0px; fill: rgb(0, 0, 0); fill-opacity: 0.1;"/><path class="point" transform="translate(27.14,149.98)" d="M3,0A3,3 0 1,1 0,-3A3,3 0 0,1 3,0Z" style="opacity: 1; stroke-width: 0px; fill: rgb(0, 0, 0); fill-opacity: 0.1;"/><path class="point" transform="translate(32.66,139.11)" d="M3,0A3,3 0 1,1 0,-3A3,3 0 0,1 3,0Z" style="opacity: 1; stroke-width: 0px; fill: rgb(0, 0, 0); fill-opacity: 0.1;"/><path class="point" transform="translate(38.17,151.42)" d="M3,0A3,3 0 1,1 0,-3A3,3 0 0,1 3,0Z" style="opacity: 1; stroke-width: 0px; fill: rgb(0, 0, 0); fill-opacity: 0.1;"/><path class="point" transform="translate(43.69,151.57)" d="M3,0A3,3 0 1,1 0,-3A3,3 0 0,1 3,0Z" style="opacity: 1; stroke-width: 0px; fill: rgb(0, 0, 0); fill-opacity: 0.1;"/><path class="point" transform="translate(49.2,154.34)" d="M3,0A3,3 0 1,1 0,-3A3,3 0 0,1 3,0Z" style="opacity: 1; stroke-width: 0px; fill: rgb(0, 0, 0); fill-opacity: 0.1;"/><path class="point" transform="translate(54.71,156.41)" d="M3,0A3,3 0 1,1 0,-3A3,3 0 0,1 3,0Z" style="opacity: 1; stroke-width: 0px; fill: rgb(0, 0, 0); fill-opacity: 0.1;"/><path class="point" transform="translate(60.23,151.74)" d="M3,0A3,3 0 1,1 0,-3A3,3 0 0,1 3,0Z" style="opacity: 1; stroke-width: 0px; fill: rgb(0, 0, 0); fill-opacity: 0.1;"/><path class="point" transform="translate(65.74,149.62)" d="M3,0A3,3 0 1,1 0,-3A3,3 0 0,1 3,0Z" style="opacity: 1; stroke-width: 0px; fill: rgb(0, 0, 0); fill-opacity: 0.1;"/><path class="point" transform="translate(71.26,152.81)" d="M3,0A3,3 0 1,1 0,-3A3,3 0 0,1 3,0Z" style="opacity: 1; stroke-width: 0px; fill: rgb(0, 0, 0); fill-opacity: 0.1;"/><path class="point" transform="translate(76.77,149.04)" d="M3,0A3,3 0 1,1 0,-3A3,3 0 0,1 3,0Z" style="opacity: 1; stroke-width: 0px; fill: rgb(0, 0, 0); fill-opacity: 0.1;"/><path class="point" transform="translate(82.29,148.85)" d="M3,0A3,3 0 1,1 0,-3A3,3 0 0,1 3,0Z" style="opacity: 1; stroke-width: 0px; fill: rgb(0, 0, 0); fill-opacity: 0.1;"/><path class="point" transform="translate(87.8,145.49)" d="M3,0A3,3 0 1,1 0,-3A3,3 0 0,1 3,0Z" style="opacity: 1; stroke-width: 0px; fill: rgb(0, 0, 0); fill-opacity: 0.1;"/><path class="point" transform="translate(93.31,153.57)" d="M3,0A3,3 0 1,1 0,-3A3,3 0 0,1 3,0Z" style="opacity: 1; stroke-width: 0px; fill: rgb(0, 0, 0); fill-opacity: 0.1;"/><path class="point" transform="translate(98.83,153.22)" d="M3,0A3,3 0 1,1 0,-3A3,3 0 0,1 3,0Z" style="opacity: 1; stroke-width: 0px; fill: rgb(0, 0, 0); fill-opacity: 0.1;"/><path class="point" transform="translate(104.34,152.11)" d="M3,0A3,3 0 1,1 0,-3A3,3 0 0,1 3,0Z" style="opacity: 1; stroke-width: 0px; fill: rgb(0, 0, 0); fill-opacity: 0.1;"/><path class="point" transform="translate(109.86,150.03)" d="M3,0A3,3 0 1,1 0,-3A3,3 0 0,1 3,0Z" style="opacity: 1; stroke-width: 0px; fill: rgb(0, 0, 0); fill-opacity: 0.1;"/><path class="point" transform="translate(115.37,149.52)" d="M3,0A3,3 0 1,1 0,-3A3,3 0 0,1 3,0Z" style="opacity: 1; stroke-width: 0px; fill: rgb(0, 0, 0); fill-opacity: 0.1;"/><path class="point" transform="translate(120.89,145.44)" d="M3,0A3,3 0 1,1 0,-3A3,3 0 0,1 3,0Z" style="opacity: 1; stroke-width: 0px; fill: rgb(0, 0, 0); fill-opacity: 0.1;"/><path class="point" transform="translate(126.4,152.12)" d="M3,0A3,3 0 1,1 0,-3A3,3 0 0,1 3,0Z" style="opacity: 1; stroke-width: 0px; fill: rgb(0, 0, 0); fill-opacity: 0.1;"/></g><g class="text"/></g><g class="trace scatter trace1399ed" style="stroke-miterlimit: 2; opacity: 1;"><g class="fills"/><g class="errorbars"/><g class="lines"><path class="js-line" d="M10.6,136.99L16.11,139.72L21.63,118.02L27.14,93.73L32.66,37.2L38.17,124.79L43.69,100.77L49.2,111.93L54.71,51.36L60.23,103.31L65.74,95.24L71.26,116.35L76.77,58.91L82.29,85.74L87.8,99.78L93.31,94.93L98.83,105.28L104.34,99.09L109.86,36.56L115.37,86.4L120.89,56.38L126.4,105.68" style="vector-effect: none; fill: none; stroke: rgb(0, 0, 0); stroke-opacity: 0.6; stroke-width: 2px; opacity: 1;"/></g><g class="points"><path class="point" transform="translate(10.6,136.99)" d="M1,0A1,1 0 1,1 0,-1A1,1 0 0,1 1,0Z" style="opacity: 1; stroke-width: 0px; fill: rgb(0, 0, 0); fill-opacity: 0.6;"/><path class="point" transform="translate(16.11,139.72)" d="M1,0A1,1 0 1,1 0,-1A1,1 0 0,1 1,0Z" style="opacity: 1; stroke-width: 0px; fill: rgb(0, 0, 0); fill-opacity: 0.6;"/><path class="point" transform="translate(21.63,118.02)" d="M1,0A1,1 0 1,1 0,-1A1,1 0 0,1 1,0Z" style="opacity: 1; stroke-width: 0px; fill: rgb(0, 0, 0); fill-opacity: 0.6;"/><path class="point" transform="translate(27.14,93.73)" d="M1,0A1,1 0 1,1 0,-1A1,1 0 0,1 1,0Z" style="opacity: 1; stroke-width: 0px; fill: rgb(0, 0, 0); fill-opacity: 0.6;"/><path class="point" transform="translate(32.66,37.2)" d="M1,0A1,1 0 1,1 0,-1A1,1 0 0,1 1,0Z" style="opacity: 1; stroke-width: 0px; fill: rgb(0, 0, 0); fill-opacity: 0.6;"/><path class="point" transform="translate(38.17,124.79)" d="M1,0A1,1 0 1,1 0,-1A1,1 0 0,1 1,0Z" style="opacity: 1; stroke-width: 0px; fill: rgb(0, 0, 0); fill-opacity: 0.6;"/><path class="point" transform="translate(43.69,100.77)" d="M1,0A1,1 0 1,1 0,-1A1,1 0 0,1 1,0Z" style="opacity: 1; stroke-width: 0px; fill: rgb(0, 0, 0); fill-opacity: 0.6;"/><path class="point" transform="translate(49.2,111.93)" d="M1,0A1,1 0 1,1 0,-1A1,1 0 0,1 1,0Z" style="opacity: 1; stroke-width: 0px; fill: rgb(0, 0, 0); fill-opacity: 0.6;"/><path class="point" transform="translate(54.71,51.36)" d="M1,0A1,1 0 1,1 0,-1A1,1 0 0,1 1,0Z" style="opacity: 1; stroke-width: 0px; fill: rgb(0, 0, 0); fill-opacity: 0.6;"/><path class="point" transform="translate(60.23,103.31)" d="M1,0A1,1 0 1,1 0,-1A1,1 0 0,1 1,0Z" style="opacity: 1; stroke-width: 0px; fill: rgb(0, 0, 0); fill-opacity: 0.6;"/><path class="point" transform="translate(65.74,95.24)" d="M1,0A1,1 0 1,1 0,-1A1,1 0 0,1 1,0Z" style="opacity: 1; stroke-width: 0px; fill: rgb(0, 0, 0); fill-opacity: 0.6;"/><path class="point" transform="translate(71.26,116.35)" d="M1,0A1,1 0 1,1 0,-1A1,1 0 0,1 1,0Z" style="opacity: 1; stroke-width: 0px; fill: rgb(0, 0, 0); fill-opacity: 0.6;"/><path class="point" transform="translate(76.77,58.91)" d="M1,0A1,1 0 1,1 0,-1A1,1 0 0,1 1,0Z" style="opacity: 1; stroke-width: 0px; fill: rgb(0, 0, 0); fill-opacity: 0.6;"/><path class="point" transform="translate(82.29,85.74)" d="M1,0A1,1 0 1,1 0,-1A1,1 0 0,1 1,0Z" style="opacity: 1; stroke-width: 0px; fill: rgb(0, 0, 0); fill-opacity: 0.6;"/><path class="point" transform="translate(87.8,99.78)" d="M1,0A1,1 0 1,1 0,-1A1,1 0 0,1 1,0Z" style="opacity: 1; stroke-width: 0px; fill: rgb(0, 0, 0); fill-opacity: 0.6;"/><path class="point" transform="translate(93.31,94.93)" d="M1,0A1,1 0 1,1 0,-1A1,1 0 0,1 1,0Z" style="opacity: 1; stroke-width: 0px; fill: rgb(0, 0, 0); fill-opacity: 0.6;"/><path class="point" transform="translate(98.83,105.28)" d="M1,0A1,1 0 1,1 0,-1A1,1 0 0,1 1,0Z" style="opacity: 1; stroke-width: 0px; fill: rgb(0, 0, 0); fill-opacity: 0.6;"/><path class="point" transform="translate(104.34,99.09)" d="M1,0A1,1 0 1,1 0,-1A1,1 0 0,1 1,0Z" style="opacity: 1; stroke-width: 0px; fill: rgb(0, 0, 0); fill-opacity: 0.6;"/><path class="point" transform="translate(109.86,36.56)" d="M1,0A1,1 0 1,1 0,-1A1,1 0 0,1 1,0Z" style="opacity: 1; stroke-width: 0px; fill: rgb(0, 0, 0); fill-opacity: 0.6;"/><path class="point" transform="translate(115.37,86.4)" d="M1,0A1,1 0 1,1 0,-1A1,1 0 0,1 1,0Z" style="opacity: 1; stroke-width: 0px; fill: rgb(0, 0, 0); fill-opacity: 0.6;"/><path class="point" transform="translate(120.89,56.38)" d="M1,0A1,1 0 1,1 0,-1A1,1 0 0,1 1,0Z" style="opacity: 1; stroke-width: 0px; fill: rgb(0, 0, 0); fill-opacity: 0.6;"/><path class="point" transform="translate(126.4,105.68)" d="M1,0A1,1 0 1,1 0,-1A1,1 0 0,1 1,0Z" style="opacity: 1; stroke-width: 0px; fill: rgb(0, 0, 0); fill-opacity: 0.6;"/></g><g class="text"/></g></g></g></g><path class="xlines-above crisp" d="M0,0" style="fill: none;"/><path class="ylines-above crisp" d="M0,0" style="fill: none;"/><g class="overlines-above"/><g class="xaxislayer-above"/><g class="yaxislayer-above"><g class="ytick"><text text-anchor="end" x="73" y="4.199999999999999" transform="translate(0,215.25)" style="font-family: 'Open Sans', verdana, arial, sans-serif; font-size: 12px; fill: rgb(42, 63, 95); fill-opacity: 1; white-space: pre; opacity: 1;">0</text></g><g class="ytick"><text text-anchor="end" x="73" y="4.199999999999999" style="font-family: 'Open Sans', verdana, arial, sans-serif; font-size: 12px; fill: rgb(42, 63, 95); fill-opacity: 1; white-space: pre; opacity: 1;" transform="translate(0,173.94)">2</text></g><g class="ytick"><text text-anchor="end" x="73" y="4.199999999999999" style="font-family: 'Open Sans', verdana, arial, sans-serif; font-size: 12px; fill: rgb(42, 63, 95); fill-opacity: 1; white-space: pre; opacity: 1;" transform="translate(0,132.63)">4</text></g><g class="ytick"><text text-anchor="end" x="73" y="4.199999999999999" style="font-family: 'Open Sans', verdana, arial, sans-serif; font-size: 12px; fill: rgb(42, 63, 95); fill-opacity: 1; white-space: pre; opacity: 1;" transform="translate(0,91.31)">6</text></g><g class="ytick"><text text-anchor="end" x="73" y="4.199999999999999" style="font-family: 'Open Sans', verdana, arial, sans-serif; font-size: 12px; fill: rgb(42, 63, 95); fill-opacity: 1; white-space: pre; opacity: 1;" transform="translate(0,50)">8</text></g></g><g class="overaxes-above"/></g><g class="subplot x2y2"><g class="layer-subplot"><g class="shapelayer"/><g class="imagelayer"/></g><g class="minor-gridlayer"><g class="x2"/><g class="y2"/></g><g class="gridlayer"><g class="x2"><path class="x2grid crisp" transform="translate(84.6,0)" d="M0,221.57v18.43" style="stroke: rgb(128, 128, 128); stroke-opacity: 0.4; stroke-width: 1px;"/><path class="x2grid crisp" transform="translate(90.11,0)" d="M0,221.57v18.43" style="stroke: rgb(128, 128, 128); stroke-opacity: 0.4; stroke-width: 1px;"/><path class="x2grid crisp" transform="translate(95.63,0)" d="M0,221.57v18.43" style="stroke: rgb(128, 128, 128); stroke-opacity: 0.4; stroke-width: 1px;"/><path class="x2grid crisp" transform="translate(101.14,0)" d="M0,221.57v18.43" style="stroke: rgb(128, 128, 128); stroke-opacity: 0.4; stroke-width: 1px;"/><path class="x2grid crisp" transform="translate(106.66,0)" d="M0,221.57v18.43" style="stroke: rgb(128, 128, 128); stroke-opacity: 0.4; stroke-width: 1px;"/><path class="x2grid crisp" transform="translate(112.17,0)" d="M0,221.57v18.43" style="stroke: rgb(128, 128, 128); stroke-opacity: 0.4; stroke-width: 1px;"/><path class="x2grid crisp" transform="translate(117.69,0)" d="M0,221.57v18.43" style="stroke: rgb(128, 128, 128); stroke-opacity: 0.4; stroke-width: 1px;"/><path class="x2grid crisp" transform="translate(123.2,0)" d="M0,221.57v18.43" style="stroke: rgb(128, 128, 128); stroke-opacity: 0.4; stroke-width: 1px;"/><path class="x2grid crisp" transform="translate(128.71,0)" d="M0,221.57v18.43" style="stroke: rgb(128, 128, 128); stroke-opacity: 0.4; stroke-width: 1px;"/><path class="x2grid crisp" transform="translate(134.23,0)" d="M0,221.57v18.43" style="stroke: rgb(128, 128, 128); stroke-opacity: 0.4; stroke-width: 1px;"/><path class="x2grid crisp" transform="translate(139.74,0)" d="M0,221.57v18.43" style="stroke: rgb(128, 128, 128); stroke-opacity: 0.4; stroke-width: 1px;"/><path class="x2grid crisp" transform="translate(145.26,0)" d="M0,221.57v18.43" style="stroke: rgb(128, 128, 128); stroke-opacity: 0.4; stroke-width: 1px;"/><path class="x2grid crisp" transform="translate(150.76999999999998,0)" d="M0,221.57v18.43" style="stroke: rgb(128, 128, 128); stroke-opacity: 0.4; stroke-width: 1px;"/><path class="x2grid crisp" transform="translate(156.29000000000002,0)" d="M0,221.57v18.43" style="stroke: rgb(128, 128, 128); stroke-opacity: 0.4; stroke-width: 1px;"/><path class="x2grid crisp" transform="translate(161.8,0)" d="M0,221.57v18.43" style="stroke: rgb(128, 128, 128); stroke-opacity: 0.4; stroke-width: 1px;"/><path class="x2grid crisp" transform="translate(167.31,0)" d="M0,221.57v18.43" style="stroke: rgb(128, 128, 128); stroke-opacity: 0.4; stroke-width: 1px;"/><path class="x2grid crisp" transform="translate(172.82999999999998,0)" d="M0,221.57v18.43" style="stroke: rgb(128, 128, 128); stroke-opacity: 0.4; stroke-width: 1px;"/><path class="x2grid crisp" transform="translate(178.34,0)" d="M0,221.57v18.43" style="stroke: rgb(128, 128, 128); stroke-opacity: 0.4; stroke-width: 1px;"/><path class="x2grid crisp" transform="translate(183.86,0)" d="M0,221.57v18.43" style="stroke: rgb(128, 128, 128); stroke-opacity: 0.4; stroke-width: 1px;"/><path class="x2grid crisp" transform="translate(189.37,0)" d="M0,221.57v18.43" style="stroke: rgb(128, 128, 128); stroke-opacity: 0.4; stroke-width: 1px;"/><path class="x2grid crisp" transform="translate(194.89,0)" d="M0,221.57v18.43" style="stroke: rgb(128, 128, 128); stroke-opacity: 0.4; stroke-width: 1px;"/><path class="x2grid crisp" transform="translate(200.4,0)" d="M0,221.57v18.43" style="stroke: rgb(128, 128, 128); stroke-opacity: 0.4; stroke-width: 1px;"/></g><g class="y2"/></g><g class="zerolinelayer"><path class="y2zl zl crisp" transform="translate(0,240)" d="M74,0h137" style="stroke: rgb(255, 255, 255); stroke-opacity: 1; stroke-width: 2px;"/></g><g class="layer-between"><g class="shapelayer"/><g class="imagelayer"/></g><path class="xlines-below"/><path class="ylines-below"/><g class="overlines-below"/><g class="xaxislayer-below"/><g class="yaxislayer-below"/><g class="overaxes-below"/><g class="overplot"><g class="x2y2" transform="translate(74,221.57)" clip-path="url(#clipc06c7bx2y2plot)"><g class="scatterlayer mlayer"><g class="trace scatter trace93d444" style="stroke-miterlimit: 2;"><g class="fills"><g><path class="js-fill" d="M126.4,18.43L10.6,18.43L10.6,16.18L16.11,16.26L21.63,6.91L27.14,8.92L32.66,5.46L38.17,9.22L43.69,1.68L49.2,5.9L54.71,2.91L60.23,2.54L65.74,11.06L71.26,8.6L76.77,6.99L82.29,9.48L87.8,5.79L93.31,9.68L98.83,8.64L104.34,7.24L109.86,3.18L115.37,5.96L120.89,2.95L126.4,8.51" style="fill: rgb(64, 202, 114); fill-opacity: 1; stroke-width: 0;"/></g><g><path class="js-fill" d="M10.6,0L126.4,0L126.4,8.51L120.89,2.95L115.37,5.96L109.86,3.18L104.34,7.24L98.83,8.64L93.31,9.68L87.8,5.79L82.29,9.48L76.77,6.99L71.26,8.6L65.74,11.06L60.23,2.54L54.71,2.91L49.2,5.9L43.69,1.68L38.17,9.22L32.66,5.46L27.14,8.92L21.63,6.91L16.11,16.26L10.6,16.18Z" style="fill: rgb(205, 20, 20); fill-opacity: 1; stroke-width: 0;"/></g></g><g class="errorbars"/><g class="lines"><path class="js-line" d="M10.6,16.18L16.11,16.26L21.63,6.91L27.14,8.92L32.66,5.46L38.17,9.22L43.69,1.68L49.2,5.9L54.71,2.91L60.23,2.54L65.74,11.06L71.26,8.6L76.77,6.99L82.29,9.48L87.8,5.79L93.31,9.68L98.83,8.64L104.34,7.24L109.86,3.18L115.37,5.96L120.89,2.95L126.4,8.51" style="vector-effect: none; fill: none; stroke: rgb(64, 202, 114); stroke-opacity: 1; stroke-width: 2px; opacity: 1;"/></g><g class="points"/><g class="text"/></g><g class="trace scatter trace557e22" style="stroke-miterlimit: 2;"><g class="fills"/><g class="errorbars"/><g class="lines"><path class="js-line" d="M10.6,0L126.4,0" style="vector-effect: none; fill: none; stroke: rgb(205, 20, 20); stroke-opacity: 1; stroke-width: 2px; opacity: 1;"/></g><g class="points"/><g class="text"/></g></g></g></g><path class="xlines-above crisp" d="" style="fill: none; stroke-width: 1px; stroke: rgb(0, 0, 0); stroke-opacity: 0;"/><path class="ylines-above crisp" d="M0,0" style="fill: none;"/><g class="overlines-above"/><g class="xaxislayer-above"><path class="x2tick ticks crisp" d="M0,241v5" transform="translate(84.6,0)" style="stroke: rgb(68, 68, 68); stroke-opacity: 1; stroke-width: 1px;"/><path class="x2tick ticks crisp" d="M0,241v5" transform="translate(90.11,0)" style="stroke: rgb(68, 68, 68); stroke-opacity: 1; stroke-width: 1px;"/><path class="x2tick ticks crisp" d="M0,241v5" transform="translate(95.63,0)" style="stroke: rgb(68, 68, 68); stroke-opacity: 1; stroke-width: 1px;"/><path class="x2tick ticks crisp" d="M0,241v5" transform="translate(101.14,0)" style="stroke: rgb(68, 68, 68); stroke-opacity: 1; stroke-width: 1px;"/><path class="x2tick ticks crisp" d="M0,241v5" transform="translate(106.66,0)" style="stroke: rgb(68, 68, 68); stroke-opacity: 1; stroke-width: 1px;"/><path class="x2tick ticks crisp" d="M0,241v5" transform="translate(112.17,0)" style="stroke: rgb(68, 68, 68); stroke-opacity: 1; stroke-width: 1px;"/><path class="x2tick ticks crisp" d="M0,241v5" transform="translate(117.69,0)" style="stroke: rgb(68, 68, 68); stroke-opacity: 1; stroke-width: 1px;"/><path class="x2tick ticks crisp" d="M0,241v5" transform="translate(123.2,0)" style="stroke: rgb(68, 68, 68); stroke-opacity: 1; stroke-width: 1px;"/><path class="x2tick ticks crisp" d="M0,241v5" transform="translate(128.71,0)" style="stroke: rgb(68, 68, 68); stroke-opacity: 1; stroke-width: 1px;"/><path class="x2tick ticks crisp" d="M0,241v5" transform="translate(134.23,0)" style="stroke: rgb(68, 68, 68); stroke-opacity: 1; stroke-width: 1px;"/><path class="x2tick ticks crisp" d="M0,241v5" transform="translate(139.74,0)" style="stroke: rgb(68, 68, 68); stroke-opacity: 1; stroke-width: 1px;"/><path class="x2tick ticks crisp" d="M0,241v5" transform="translate(145.26,0)" style="stroke: rgb(68, 68, 68); stroke-opacity: 1; stroke-width: 1px;"/><path class="x2tick ticks crisp" d="M0,241v5" transform="translate(150.76999999999998,0)" style="stroke: rgb(68, 68, 68); stroke-opacity: 1; stroke-width: 1px;"/><path class="x2tick ticks crisp" d="M0,241v5" transform="translate(156.29000000000002,0)" style="stroke: rgb(68, 68, 68); stroke-opacity: 1; stroke-width: 1px;"/><path class="x2tick ticks crisp" d="M0,241v5" transform="translate(161.8,0)" style="stroke: rgb(68, 68, 68); stroke-opacity: 1; stroke-width: 1px;"/><path class="x2tick ticks crisp" d="M0,241v5" transform="translate(167.31,0)" style="stroke: rgb(68, 68, 68); stroke-opacity: 1; stroke-width: 1px;"/><path class="x2tick ticks crisp" d="M0,241v5" transform="translate(172.82999999999998,0)" style="stroke: rgb(68, 68, 68); stroke-opacity: 1; stroke-width: 1px;"/><path class="x2tick ticks crisp" d="M0,241v5" transform="translate(178.34,0)" style="stroke: rgb(68, 68, 68); stroke-opacity: 1; stroke-width: 1px;"/><path class="x2tick ticks crisp" d="M0,241v5" transform="translate(183.86,0)" style="stroke: rgb(68, 68, 68); stroke-opacity: 1; stroke-width: 1px;"/><path class="x2tick ticks crisp" d="M0,241v5" transform="translate(189.37,0)" style="stroke: rgb(68, 68, 68); stroke-opacity: 1; stroke-width: 1px;"/><path class="x2tick ticks crisp" d="M0,241v5" transform="translate(194.89,0)" style="stroke: rgb(68, 68, 68); stroke-opacity: 1; stroke-width: 1px;"/><path class="x2tick ticks crisp" d="M0,241v5" transform="translate(200.4,0)" style="stroke: rgb(68, 68, 68); stroke-opacity: 1; stroke-width: 1px;"/><g class="x2tick"><text text-anchor="middle" x="0" y="260.4" transform="translate(84.6,0)" style="font-family: 'Open Sans', verdana, arial, sans-serif; font-size: 12px; fill: rgb(42, 63, 95); fill-opacity: 1; white-space: pre; opacity: 1;">0</text></g><g class="x2tick"><text text-anchor="middle" x="0" y="260.4" style="font-family: 'Open Sans', verdana, arial, sans-serif; font-size: 12px; fill: rgb(42, 63, 95); fill-opacity: 1; white-space: pre; opacity: 1;" transform="translate(90.11,0)">1</text></g><g class="x2tick"><text text-anchor="middle" x="0" y="260.4" style="font-family: 'Open Sans', verdana, arial, sans-serif; font-size: 12px; fill: rgb(42, 63, 95); fill-opacity: 1; white-space: pre; opacity: 1;" transform="translate(95.63,0)">2</text></g><g class="x2tick"><text text-anchor="middle" x="0" y="260.4" style="font-family: 'Open Sans', verdana, arial, sans-serif; font-size: 12px; fill: rgb(42, 63, 95); fill-opacity: 1; white-space: pre; opacity: 1;" transform="translate(101.14,0)">3</text></g><g class="x2tick"><text text-anchor="middle" x="0" y="260.4" style="font-family: 'Open Sans', verdana, arial, sans-serif; font-size: 12px; fill: rgb(42, 63, 95); fill-opacity: 1; white-space: pre; opacity: 1;" transform="translate(106.66,0)">4</text></g><g class="x2tick"><text text-anchor="middle" x="0" y="260.4" style="font-family: 'Open Sans', verdana, arial, sans-serif; font-size: 12px; fill: rgb(42, 63, 95); fill-opacity: 1; white-space: pre; opacity: 1;" transform="translate(112.17,0)">5</text></g><g class="x2tick"><text text-anchor="middle" x="0" y="260.4" style="font-family: 'Open Sans', verdana, arial, sans-serif; font-size: 12px; fill: rgb(42, 63, 95); fill-opacity: 1; white-space: pre; opacity: 1;" transform="translate(117.69,0)">6</text></g><g class="x2tick"><text text-anchor="middle" x="0" y="260.4" style="font-family: 'Open Sans', verdana, arial, sans-serif; font-size: 12px; fill: rgb(42, 63, 95); fill-opacity: 1; white-space: pre; opacity: 1;" transform="translate(123.2,0)">7</text></g><g class="x2tick"><text text-anchor="middle" x="0" y="260.4" style="font-family: 'Open Sans', verdana, arial, sans-serif; font-size: 12px; fill: rgb(42, 63, 95); fill-opacity: 1; white-space: pre; opacity: 1;" transform="translate(128.71,0)">8</text></g><g class="x2tick"><text text-anchor="middle" x="0" y="260.4" style="font-family: 'Open Sans', verdana, arial, sans-serif; font-size: 12px; fill: rgb(42, 63, 95); fill-opacity: 1; white-space: pre; opacity: 1;" transform="translate(134.23,0)">9</text></g><g class="x2tick"><text text-anchor="middle" x="0" y="260.4" style="font-family: 'Open Sans', verdana, arial, sans-serif; font-size: 12px; fill: rgb(42, 63, 95); fill-opacity: 1; white-space: pre; opacity: 1;" transform="translate(139.74,0)">10</text></g><g class="x2tick"><text text-anchor="middle" x="0" y="260.4" style="font-family: 'Open Sans', verdana, arial, sans-serif; font-size: 12px; fill: rgb(42, 63, 95); fill-opacity: 1; white-space: pre; opacity: 1;" transform="translate(145.26,0)">11</text></g><g class="x2tick"><text text-anchor="middle" x="0" y="260.4" style="font-family: 'Open Sans', verdana, arial, sans-serif; font-size: 12px; fill: rgb(42, 63, 95); fill-opacity: 1; white-space: pre; opacity: 1;" transform="translate(150.76999999999998,0)">12</text></g><g class="x2tick"><text text-anchor="middle" x="0" y="260.4" style="font-family: 'Open Sans', verdana, arial, sans-serif; font-size: 12px; fill: rgb(42, 63, 95); fill-opacity: 1; white-space: pre; opacity: 1;" transform="translate(156.29000000000002,0)">13</text></g><g class="x2tick"><text text-anchor="middle" x="0" y="260.4" style="font-family: 'Open Sans', verdana, arial, sans-serif; font-size: 12px; fill: rgb(42, 63, 95); fill-opacity: 1; white-space: pre; opacity: 1;" transform="translate(161.8,0)">14</text></g><g class="x2tick"><text text-anchor="middle" x="0" y="260.4" style="font-family: 'Open Sans', verdana, arial, sans-serif; font-size: 12px; fill: rgb(42, 63, 95); fill-opacity: 1; white-space: pre; opacity: 1;" transform="translate(167.31,0)">15</text></g><g class="x2tick"><text text-anchor="middle" x="0" y="260.4" style="font-family: 'Open Sans', verdana, arial, sans-serif; font-size: 12px; fill: rgb(42, 63, 95); fill-opacity: 1; white-space: pre; opacity: 1;" transform="translate(172.82999999999998,0)">16</text></g><g class="x2tick"><text text-anchor="middle" x="0" y="260.4" style="font-family: 'Open Sans', verdana, arial, sans-serif; font-size: 12px; fill: rgb(42, 63, 95); fill-opacity: 1; white-space: pre; opacity: 1;" transform="translate(178.34,0)">17</text></g><g class="x2tick"><text text-anchor="middle" x="0" y="260.4" style="font-family: 'Open Sans', verdana, arial, sans-serif; font-size: 12px; fill: rgb(42, 63, 95); fill-opacity: 1; white-space: pre; opacity: 1;" transform="translate(183.86,0)">18</text></g><g class="x2tick"><text text-anchor="middle" x="0" y="260.4" style="font-family: 'Open Sans', verdana, arial, sans-serif; font-size: 12px; fill: rgb(42, 63, 95); fill-opacity: 1; white-space: pre; opacity: 1;" transform="translate(189.37,0)">19</text></g><g class="x2tick"><text text-anchor="middle" x="0" y="260.4" style="font-family: 'Open Sans', verdana, arial, sans-serif; font-size: 12px; fill: rgb(42, 63, 95); fill-opacity: 1; white-space: pre; opacity: 1;" transform="translate(194.89,0)">20</text></g><g class="x2tick"><text text-anchor="middle" x="0" y="260.4" style="font-family: 'Open Sans', verdana, arial, sans-serif; font-size: 12px; fill: rgb(42, 63, 95); fill-opacity: 1; white-space: pre; opacity: 1;" transform="translate(200.4,0)">21</text></g></g><g class="yaxislayer-above"><g class="y2tick"><text text-anchor="end" x="73" y="4.199999999999999" transform="translate(0,240)" style="font-family: 'Open Sans', verdana, arial, sans-serif; font-size: 12px; fill: rgb(42, 63, 95); fill-opacity: 1; white-space: pre; opacity: 1;">0%</text></g><g class="y2tick"><text text-anchor="end" x="73" y="4.199999999999999" style="font-family: 'Open Sans', verdana, arial, sans-serif; font-size: 12px; fill: rgb(42, 63, 95); fill-opacity: 1; white-space: pre; opacity: 1;" transform="translate(0,221.57)">100%</text></g></g><g class="overaxes-above"/></g></g><g class="polarlayer"/><g class="smithlayer"/><g class="ternarylayer"/><g class="geolayer"/><g class="funnelarealayer"/><g class="pielayer"/><g class="iciclelayer"/><g class="treemaplayer"/><g class="sunburstlayer"/><g class="glimages"/><defs id="topdefs-c06c7b"><g class="clips"/><clipPath id="legendc06c7b"><rect width="119" height="86" x="0" y="0"/></clipPath></defs><g class="layer-above"><g class="imagelayer"/><g class="shapelayer"/></g><g class="infolayer"><g class="legend" pointer-events="all" transform="translate(213.74,50)"><rect class="bg" shape-rendering="crispEdges" style="stroke: rgb(68, 68, 68); stroke-opacity: 1; fill: rgb(255, 255, 255); fill-opacity: 1; stroke-width: 0px;" width="119" height="86" x="0" y="0"/><g class="scrollbox" transform="" clip-path="url(#legendc06c7b)"><g class="groups"><g class="traces" transform="translate(0,14.5)" style="opacity: 1;"><text class="legendtext" text-anchor="start" x="40" y="4.680000000000001" style="font-family: 'Open Sans', verdana, arial, sans-serif; font-size: 12px; fill: rgb(42, 63, 95); fill-opacity: 1; white-space: pre;">Failure</text><g class="layers"><g class="legendfill"><path class="js-fill" d="M5,-2h30v6h-30z" style="stroke-width: 0; fill: rgb(205, 20, 20); fill-opacity: 1;"/></g><g class="legendlines"><path class="js-line" d="M5,-2h30" style="fill: none; stroke: rgb(205, 20, 20); stroke-opacity: 1; stroke-width: 2px;"/></g><g class="legendsymbols"><g class="legendpoints"/></g></g><rect class="legendtoggle" x="0" y="-9.5" width="113.453125" height="19" style="fill: rgb(0, 0, 0); fill-opacity: 0;"/></g><g class="traces" transform="translate(0,33.5)" style="opacity: 1;"><text class="legendtext" text-anchor="start" x="40" y="4.680000000000001" style="font-family: 'Open Sans', verdana, arial, sans-serif; font-size: 12px; fill: rgb(42, 63, 95); fill-opacity: 1; white-space: pre;">Success</text><g class="layers"><g class="legendfill"><path class="js-fill" d="M5,-2h30v6h-30z" style="stroke-width: 0; fill: rgb(64, 202, 114); fill-opacity: 1;"/></g><g class="legendlines"><path class="js-line" d="M5,-2h30" style="fill: none; stroke: rgb(64, 202, 114); stroke-opacity: 1; stroke-width: 2px;"/></g><g class="legendsymbols"><g class="legendpoints"/></g></g><rect class="legendtoggle" x="0" y="-9.5" width="113.453125" height="19" style="fill: rgb(0, 0, 0); fill-opacity: 0;"/></g><g class="traces" transform="translate(0,52.5)" style="opacity: 1;"><text class="legendtext" text-anchor="start" x="40" y="4.680000000000001" style="font-family: 'Open Sans', verdana, arial, sans-serif; font-size: 12px; fill: rgb(42, 63, 95); fill-opacity: 1; white-space: pre;">Rewardzone</text><g class="layers" style="opacity: 1;"><g class="legendfill"/><g class="legendlines"><path class="js-line" d="M5,0h30" style="fill: none; stroke: rgb(0, 0, 0); stroke-opacity: 0.6; stroke-width: 2px;"/></g><g class="legendsymbols"><g class="legendpoints"><path class="scatterpts" transform="translate(20,0)" d="M1,0A1,1 0 1,1 0,-1A1,1 0 0,1 1,0Z" style="opacity: 1; stroke-width: 0px; fill: rgb(0, 0, 0); fill-opacity: 0.6;"/></g></g></g><rect class="legendtoggle" x="0" y="-9.5" width="113.453125" height="19" style="fill: rgb(0, 0, 0); fill-opacity: 0;"/></g><g class="traces" transform="translate(0,71.5)" style="opacity: 1;"><text class="legendtext" text-anchor="start" x="40" y="4.680000000000001" style="font-family: 'Open Sans', verdana, arial, sans-serif; font-size: 12px; fill: rgb(42, 63, 95); fill-opacity: 1; white-space: pre;">Baseline</text><g class="layers" style="opacity: 1;"><g class="legendfill"/><g class="legendlines"><path class="js-line" d="M5,0h30" style="fill: none; stroke: rgb(0, 0, 0); stroke-opacity: 0.1; stroke-width: 8px;"/></g><g class="legendsymbols"><g class="legendpoints"><path class="scatterpts" transform="translate(20,0)" d="M3,0A3,3 0 1,1 0,-3A3,3 0 0,1 3,0Z" style="opacity: 1; stroke-width: 0px; fill: rgb(0, 0, 0); fill-opacity: 0.1;"/></g></g></g><rect class="legendtoggle" x="0" y="-9.5" width="113.453125" height="19" style="fill: rgb(0, 0, 0); fill-opacity: 0;"/></g></g></g><rect class="scrollbar" rx="20" ry="3" width="0" height="0" style="fill: rgb(128, 139, 164); fill-opacity: 1;" x="0" y="0"/></g><g class="g-gtitle"/><g class="g-xtitle"/><g class="g-x2title"><text class="x2title" x="142.5" y="287.70625" text-anchor="middle" style="opacity: 1; font-family: 'Open Sans', verdana, arial, sans-serif; font-size: 14px; fill: rgb(42, 63, 95); fill-opacity: 1; white-space: pre;">Session ID</text></g><g class="g-ytitle"><text class="ytitle" transform="rotate(-90,45.959375,132.935)" x="45.959375" y="132.935" text-anchor="middle" style="opacity: 1; font-family: 'Open Sans', verdana, arial, sans-serif; font-size: 14px; fill: rgb(42, 63, 95); fill-opacity: 1; white-space: pre;">Staytime [s]</text></g><g class="g-y2title"><text class="y2title" transform="rotate(-90,17.7875,230.785)" x="17.7875" y="230.785" text-anchor="middle" style="opacity: 1; font-family: 'Open Sans', verdana, arial, sans-serif; font-size: 14px; fill: rgb(42, 63, 95); fill-opacity: 1; white-space: pre;">Succsess</text></g></g></svg>