<svg class="main-svg" xmlns="http://www.w3.org/2000/svg" xmlns:xlink="http://www.w3.org/1999/xlink" width="440" height="200" style="" viewBox="0 0 440 200"><rect x="0" y="0" width="440" height="200" style="fill: rgb(255, 255, 255); fill-opacity: 1;"/><defs id="defs-8ab768"><g class="clips"><clipPath id="clip8ab768xyplot" class="plotclip"><rect width="277" height="57.900000000000006"/></clipPath><clipPath id="clip8ab768x2y2plot" class="plotclip"><rect width="277" height="96.49999999999999"/></clipPath><clipPath id="clip8ab768xyz2plot" class="plotclip"><rect width="277" height="57.900000000000006"/></clipPath><clipPath id="clip8ab768x2y2z2plot" class="plotclip"><rect width="277" height="96.49999999999999"/></clipPath><clipPath id="clip8ab768xyz3plot" class="plotclip"><rect width="277" height="57.900000000000006"/></clipPath><clipPath id="clip8ab768x2y2z3plot" class="plotclip"><rect width="277" height="96.49999999999999"/></clipPath><clipPath class="axesclip" id="clip8ab768x"><rect x="49" y="0" width="277" height="200"/></clipPath><clipPath class="axesclip" id="clip8ab768y"><rect x="0" y="0" width="440" height="57.900000000000006"/></clipPath><clipPath class="axesclip" id="clip8ab768xy"><rect x="49" y="0" width="277" height="57.900000000000006"/></clipPath><clipPath class="axesclip" id="clip8ab768y2"><rect x="0" y="57.900000000000006" width="440" height="96.49999999999999"/></clipPath><clipPath class="axesclip" id="clip8ab768xy2"><rect x="49" y="57.900000000000006" width="277" height="96.49999999999999"/></clipPath><clipPath class="axesclip" id="clip8ab768x2"><rect x="49" y="0" width="277" height="200"/></clipPath><clipPath class="axesclip" id="clip8ab768x2y"><rect x="49" y="0" width="277" height="57.900000000000006"/></clipPath><clipPath class="axesclip" id="clip8ab768x2y2"><rect x="49" y="57.900000000000006" width="277" height="96.49999999999999"/></clipPath></g><g class="gradients"/><g class="patterns"/></defs><g class="bglayer"/><g class="layer-below"><g class="imagelayer"/><g class="shapelayer"/></g><g class="cartesianlayer"><g class="subplot xy"><g class="layer-subplot"><g class="shapelayer"/><g class="imagelayer"/></g><g class="minor-gridlayer"><g class="x"/><g class="y"/></g><g class="gridlayer"><g class="x"><path class="xgrid crisp" transform="translate(104.97999999999999,0)" d="M0,0v57.900000000000006" style="stroke: rgb(255, 255, 255); stroke-opacity: 1; stroke-width: 1px;"/><path class="xgrid crisp" transform="translate(227.09,0)" d="M0,0v57.900000000000006" style="stroke: rgb(255, 255, 255); stroke-opacity: 1; stroke-width: 1px;"/><path class="xgrid crisp" transform="translate(288.15,0)" d="M0,0v57.900000000000006" style="stroke: rgb(255, 255, 255); stroke-opacity: 1; stroke-width: 1px;"/></g><g class="y"><path class="ygrid crisp" transform="translate(0,43.43)" d="M49,0h277" style="stroke: rgb(255, 255, 255); stroke-opacity: 1; stroke-width: 1px;"/><path class="ygrid crisp" transform="translate(0,28.95)" d="M49,0h277" style="stroke: rgb(255, 255, 255); stroke-opacity: 1; stroke-width: 1px;"/><path class="ygrid crisp" transform="translate(0,14.48)" d="M49,0h277" style="stroke: rgb(255, 255, 255); stroke-opacity: 1; stroke-width: 1px;"/></g></g><g class="zerolinelayer"><path class="xzl zl crisp" transform="translate(166.03,0)" d="M0,0v57.900000000000006" style="stroke: rgb(255, 255, 255); stroke-opacity: 1; stroke-width: 2px;"/><path class="yzl zl crisp" transform="" d="M49,0h277" style="stroke: rgb(255, 255, 255); stroke-opacity: 1; stroke-width: 2px;"/></g><g class="layer-between"><g class="shapelayer"/><g class="imagelayer"/></g><path class="xlines-below"/><path class="ylines-below"/><g class="overlines-below"/><g class="xaxislayer-below"/><g class="yaxislayer-below"/><g class="overaxes-below"/><g class="overplot"><g class="xy" transform="translate(49,0)" clip-path="url(#clip8ab768xyplot)"><g class="scatterlayer mlayer"><g class="trace scatter tracea45b6c" style="stroke-miterlimit: 2; opacity: 1;"><g class="fills"/><g class="errorbars"/><g class="lines"><path class="js-line" d="M123.14,4.92L147.56,4.92" style="vector-effect: none; fill: none; stroke: rgb(233, 136, 0); stroke-opacity: 1; stroke-width: 10px; opacity: 1;"/><path class="js-line" d="M123.14,24.03L147.56,24.03" style="vector-effect: none; fill: none; stroke: rgb(233, 136, 0); stroke-opacity: 1; stroke-width: 10px; opacity: 1;"/></g><g class="points"><path class="point" transform="translate(123.14,4.92)" d="M5,0A5,5 0 1,1 0,-5A5,5 0 0,1 5,0Z" style="opacity: 1; stroke-width: 0px; fill: rgb(233, 136, 0); fill-opacity: 1;"/><path class="point" transform="translate(147.56,4.92)" d="M5,0A5,5 0 1,1 0,-5A5,5 0 0,1 5,0Z" style="opacity: 1; stroke-width: 0px; fill: rgb(233, 136, 0); fill-opacity: 1;"/><path class="point" transform="translate(123.14,24.03)" d="M5,0A5,5 0 1,1 0,-5A5,5 0 0,1 5,0Z" style="opacity: 1; stroke-width: 0px; fill: rgb(233, 136, 0); fill-opacity: 1;"/><path class="point" transform="translate(147.56,24.03)" d="M5,0A5,5 0 1,1 0,-5A5,5 0 0,1 5,0Z" style="opacity: 1; stroke-width: 0px; fill: rgb(233, 136, 0); fill-opacity: 1;"/></g><g class="text"/></g><g class="trace scatter trace4a94fe" style="stroke-miterlimit: 2; opacity: 1;"><g class="fills"/><g class="errorbars"/><g class="lines"><path class="js-line" d="M184.2,3.47L208.62,3.47" style="vector-effect: none; fill: none; stroke: rgb(120, 120, 120); stroke-opacity: 1; stroke-width: 7px; opacity: 1;"/><path class="js-line" d="M184.2,25.48L208.62,25.48" style="vector-effect: none; fill: none; stroke: rgb(120, 120, 120); stroke-opacity: 1; stroke-width: 7px; opacity: 1;"/></g><g class="points"/><g class="text"/></g><g class="trace scatter tracebc7401" style="stroke-miterlimit: 2; opacity: 1;"><g class="fills"/><g class="errorbars"/><g class="lines"><path class="js-line" d="M234.26,3.47L257.46,3.47" style="vector-effect: none; fill: none; stroke: rgb(190, 190, 190); stroke-opacity: 1; stroke-width: 7px; opacity: 1;"/><path class="js-line" d="M234.26,25.48L257.46,25.48" style="vector-effect: none; fill: none; stroke: rgb(190, 190, 190); stroke-opacity: 1; stroke-width: 7px; opacity: 1;"/></g><g class="points"/><g class="text"/></g><g class="trace scatter trace76a1ea" style="stroke-miterlimit: 2; opacity: 1;"><g class="fills"/><g class="errorbars"/><g class="lines"/><g class="points"/><g class="text"><g class="textpoint" transform="translate(0,3)"><text x="191.52" y="12.16" text-anchor="middle" style="font-family: 'Open Sans', verdana, arial, sans-serif; font-size: 12px; fill: rgb(42, 63, 95); fill-opacity: 1; white-space: pre;">Stay</text></g></g></g><g class="trace scatter traceae55c8" style="stroke-miterlimit: 2; opacity: 1;"><g class="fills"/><g class="errorbars"/><g class="lines"/><g class="points"/><g class="text"><g class="textpoint" transform="translate(0,5)"><text x="191.52" y="18.82" text-anchor="middle" style="font-family: 'Open Sans', verdana, arial, sans-serif; font-size: 20px; fill: rgb(42, 63, 95); fill-opacity: 1; white-space: pre;">→</text></g></g></g><g class="trace scatter trace5dbbd0" style="stroke-miterlimit: 2; opacity: 1;"><g class="fills"/><g class="errorbars"/><g class="lines"/><g class="points"/><g class="text"><g class="textpoint" transform="translate(0,4)"><text x="191.52" y="15.63" text-anchor="middle" style="font-family: 'Open Sans', verdana, arial, sans-serif; font-size: 16px; fill: rgb(64, 202, 114); fill-opacity: 1; font-weight: bold; white-space: pre;">        R</text></g></g></g><g class="trace scatter trace705a3a" style="stroke-miterlimit: 2; opacity: 1;"><g class="fills"/><g class="errorbars"/><g class="lines"><path class="js-line" d="M123.14,33.87L147.56,33.87" style="vector-effect: none; fill: none; stroke: rgb(188, 0, 233); stroke-opacity: 1; stroke-width: 10px; opacity: 1;"/><path class="js-line" d="M123.14,52.98L147.56,52.98" style="vector-effect: none; fill: none; stroke: rgb(188, 0, 233); stroke-opacity: 1; stroke-width: 10px; opacity: 1;"/></g><g class="points"><path class="point" transform="translate(123.14,33.87)" d="M5,0A5,5 0 1,1 0,-5A5,5 0 0,1 5,0Z" style="opacity: 1; stroke-width: 0px; fill: rgb(188, 0, 233); fill-opacity: 1;"/><path class="point" transform="translate(147.56,33.87)" d="M5,0A5,5 0 1,1 0,-5A5,5 0 0,1 5,0Z" style="opacity: 1; stroke-width: 0px; fill: rgb(188, 0, 233); fill-opacity: 1;"/><path class="point" transform="translate(123.14,52.98)" d="M5,0A5,5 0 1,1 0,-5A5,5 0 0,1 5,0Z" style="opacity: 1; stroke-width: 0px; fill: rgb(188, 0, 233); fill-opacity: 1;"/><path class="point" transform="translate(147.56,52.98)" d="M5,0A5,5 0 1,1 0,-5A5,5 0 0,1 5,0Z" style="opacity: 1; stroke-width: 0px; fill: rgb(188, 0, 233); fill-opacity: 1;"/></g><g class="text"/></g><g class="trace scatter traceb46b72" style="stroke-miterlimit: 2; opacity: 1;"><g class="fills"/><g class="errorbars"/><g class="lines"><path class="js-line" d="M184.2,32.42L208.62,32.42" style="vector-effect: none; fill: none; stroke: rgb(120, 120, 120); stroke-opacity: 1; stroke-width: 7px; opacity: 1;"/><path class="js-line" d="M184.2,54.43L208.62,54.43" style="vector-effect: none; fill: none; stroke: rgb(120, 120, 120); stroke-opacity: 1; stroke-width: 7px; opacity: 1;"/></g><g class="points"/><g class="text"/></g><g class="trace scatter tracef1e354" style="stroke-miterlimit: 2; opacity: 1;"><g class="fills"/><g class="errorbars"/><g class="lines"><path class="js-line" d="M234.26,32.42L257.46,32.42" style="vector-effect: none; fill: none; stroke: rgb(190, 190, 190); stroke-opacity: 1; stroke-width: 7px; opacity: 1;"/><path class="js-line" d="M234.26,54.43L257.46,54.43" style="vector-effect: none; fill: none; stroke: rgb(190, 190, 190); stroke-opacity: 1; stroke-width: 7px; opacity: 1;"/></g><g class="points"/><g class="text"/></g><g class="trace scatter traceab2a2c" style="stroke-miterlimit: 2; opacity: 1;"><g class="fills"/><g class="errorbars"/><g class="lines"/><g class="points"/><g class="text"><g class="textpoint" transform="translate(0,3)"><text x="240.98" y="41.11" text-anchor="middle" style="font-family: 'Open Sans', verdana, arial, sans-serif; font-size: 12px; fill: rgb(42, 63, 95); fill-opacity: 1; white-space: pre;">Stay</text></g></g></g><g class="trace scatter trace2d7045" style="stroke-miterlimit: 2; opacity: 1;"><g class="fills"/><g class="errorbars"/><g class="lines"/><g class="points"/><g class="text"><g class="textpoint" transform="translate(0,5)"><text x="240.98" y="47.77" text-anchor="middle" style="font-family: 'Open Sans', verdana, arial, sans-serif; font-size: 20px; fill: rgb(42, 63, 95); fill-opacity: 1; white-space: pre;">→</text></g></g></g><g class="trace scatter traced9bf6e" style="stroke-miterlimit: 2; opacity: 1;"><g class="fills"/><g class="errorbars"/><g class="lines"/><g class="points"/><g class="text"><g class="textpoint" transform="translate(0,4)"><text x="240.98" y="44.58" text-anchor="middle" style="font-family: 'Open Sans', verdana, arial, sans-serif; font-size: 16px; fill: rgb(64, 202, 114); fill-opacity: 1; font-weight: bold; white-space: pre;">        R</text></g></g></g><g class="trace scatter trace5e98a0" style="stroke-miterlimit: 2; opacity: 1;"><g class="fills"/><g class="errorbars"/><g class="lines"/><g class="points"/><g class="text"><g class="textpoint" transform="translate(0,-4.799999999999999)"><text x="13.85" y="28.37" text-anchor="start" style="font-family: 'Open Sans', verdana, arial, sans-serif; font-size: 12px; fill: rgb(42, 63, 95); fill-opacity: 1; white-space: pre;"><tspan class="line" dy="0em" x="13.85" y="28.37">50% of</tspan><tspan class="line" dy="1.3em" x="13.85" y="28.37">trials</tspan></text></g></g></g></g></g></g><path class="xlines-above crisp" d="M0,0" style="fill: none; stroke-width: 1px; stroke: rgb(0, 0, 0); stroke-opacity: 0;"/><path class="ylines-above crisp" d="M0,0" style="fill: none;"/><g class="overlines-above"/><g class="xaxislayer-above"><path class="xtick ticks crisp" d="M0,58.900000000000006v5" transform="translate(104.97999999999999,0)" style="stroke: rgb(68, 68, 68); stroke-opacity: 1; stroke-width: 1px;"/><path class="xtick ticks crisp" d="M0,58.900000000000006v5" transform="translate(166.03,0)" style="stroke: rgb(68, 68, 68); stroke-opacity: 1; stroke-width: 1px;"/><path class="xtick ticks crisp" d="M0,58.900000000000006v5" transform="translate(227.09,0)" style="stroke: rgb(68, 68, 68); stroke-opacity: 1; stroke-width: 1px;"/><path class="xtick ticks crisp" d="M0,58.900000000000006v5" transform="translate(288.15,0)" style="stroke: rgb(68, 68, 68); stroke-opacity: 1; stroke-width: 1px;"/></g><g class="yaxislayer-above"/><g class="overaxes-above"/></g><g class="subplot x2y2"><g class="layer-subplot"><g class="shapelayer"/><g class="imagelayer"/></g><g class="minor-gridlayer"><g class="x2"/><g class="y2"/></g><g class="gridlayer"><g class="x2"/><g class="y2"><path class="y2grid crisp" transform="translate(0,114.19)" d="M49,0h277" style="stroke: rgb(211, 211, 211); stroke-opacity: 1; stroke-width: 1px;"/><path class="y2grid crisp" transform="translate(0,73.98)" d="M49,0h277" style="stroke: rgb(211, 211, 211); stroke-opacity: 1; stroke-width: 1px;"/></g></g><g class="zerolinelayer"><path class="y2zl zl crisp" transform="translate(0,154.4)" d="M49,0h277" style="stroke: rgb(211, 211, 211); stroke-opacity: 1; stroke-width: 2px;"/></g><g class="layer-between"><g class="shapelayer"/><g class="imagelayer"/></g><path class="xlines-below"/><path class="ylines-below"/><g class="overlines-below"/><g class="xaxislayer-below"/><g class="yaxislayer-below"/><g class="overaxes-below"/><g class="overplot"><g class="x2y2" transform="translate(49,57.900000000000006)" clip-path="url(#clip8ab768x2y2plot)"><g class="scatterlayer mlayer"><g class="trace scatter trace955282" style="stroke-miterlimit: 2; opacity: 1;"><g class="fills"/><g class="errorbars"/><g class="lines"><path class="js-line" d="M13.85,67.66L14.46,67.6L15.07,69.13L16.9,75.37L17.51,72.57L18.73,71.55L19.35,71.73L22.4,78.19L23.01,78.35L24.84,79.69L25.45,79.58L28.5,79.27L29.11,79.66L32.78,81.26L33.39,80.58L35.22,81.28L35.83,81.93L37.66,82L38.27,82.31L41.33,80.99L41.94,80.2L43.16,80.56L43.77,80.82L44.99,81.22L45.6,80.77L48.04,78.63L48.65,79.09L49.87,78.43L50.48,78.72L52.32,81.45L52.93,81.69L53.54,81.83L54.15,81.12L55.37,81.58L55.98,81.89L57.81,81.37L58.42,80.91L61.47,80.77L62.08,81.34L65.14,82.89L65.75,82.68L66.97,83.42L67.58,83.98L68.8,84.53L69.41,84.5L71.85,85.13L72.46,84.57L74.3,86.12L74.91,85.77L76.74,83.62L77.35,84.16L77.96,84.41L78.57,83.84L79.18,83.66L79.79,84.32L80.4,84.52L81.01,83.72L82.84,83.47L83.45,82.95L85.29,83.56L85.9,82.22L88.34,76.31L88.95,75.4L93.83,65.73L94.44,63.95L96.89,58.6L97.5,58.18L101.16,55.76L101.77,55L103.6,53.22L104.21,51.9L106.04,47.97L106.65,48.51L108.49,49.66L109.1,48.55L110.32,48.06L110.93,47.68L113.37,47.45L113.98,46.79L115.2,46.81L115.81,47.48L117.03,48.61L117.64,47.75L118.87,47.4L119.48,48.2L121.31,49.65L121.92,49.45L123.14,49.21L123.75,49.75L125.58,51.24L126.19,51.94L128.02,54.68L128.63,54.25L129.86,54.34L130.47,56.06L131.69,56.48L132.3,57.46L134.13,61.64L134.74,61.1L135.96,60.25L136.57,61.66L137.79,62.98L138.4,62.75L140.85,66.76L141.46,68.15L142.68,68.8L143.29,68.29L145.12,66.39L145.73,67.17L146.95,65.59L147.56,65.84L148.78,64.02L149.39,64.8L150.61,64.52L151.23,63.95L154.28,60.78L154.89,60.2L155.5,59.81L156.11,60.47L157.33,61.54L157.94,61.31L159.77,59.07L160.38,60.56L162.83,61.22L163.44,60.63L167.1,55.77L167.71,56.78L168.93,56.39L169.54,56.3L170.76,55.33L171.37,56.28L172.59,56.97L173.21,57.06L175.04,58.96L175.65,58.65L176.26,58.05L176.87,58.6L179.31,62.94L179.92,63.3L181.75,64.43L182.36,64.63L183.58,66.93L184.2,65.8L187.25,64.5L187.86,64.46L189.08,66.21L189.69,66.09L190.91,66.38L191.52,67.24L193.35,68L193.96,68.13L195.19,68.06L195.8,67.58L196.41,67.55L197.02,66.62L199.46,64.48L200.07,64.66L200.68,64.9L201.29,66.11L201.9,66.56L202.51,67.96L203.73,68.73L204.34,68.46L206.79,66.86L207.4,65.76L209.23,64.6L209.84,65.16L211.67,67.01L212.28,66.86L213.5,66.96L214.11,67.78L215.33,68.19L215.94,67.8L217.17,67.61L217.78,68.23L219,66.82L219.61,64.96L220.22,64.32L220.83,65.02L221.44,64.93L222.05,63.64L223.88,62.7L224.49,63.23L225.71,64.04L226.32,64.55L227.54,62.96L228.16,61.86L229.38,60.39L229.99,61.09L231.21,59.64L231.82,58.16L234.26,53.34L234.87,52.82L235.48,52.48L236.09,53.63L237.31,54.74L237.92,54.44L239.76,54.27L240.37,53.02L242.81,49.84L243.42,49.82L244.64,51.33L245.25,50.75L247.69,47.23L248.3,47.05L250.75,50.81L251.36,49.65L253.19,49.42L253.8,49.11L258.07,43.28L258.68,43.69L261.74,47.99L262.35,48.58L263.57,49.67L264.18,48.54L265.4,46.84L266.01,46.77L268.45,44.44L269.06,44.91L272.12,49.46L272.73,51.63L275.78,61.95L276.39,50.49L277,53.38" style="vector-effect: none; fill: none; stroke: rgb(233, 136, 0); stroke-opacity: 1; stroke-width: 2px; opacity: 1;"/></g><g class="points"/><g class="text"/></g><g class="trace scatter trace21b722" style="stroke-miterlimit: 2; opacity: 1;"><g class="fills"><g><path class="js-fill" d="M13.85,42.56L16.9,51.55L17.51,45.98L18.73,43.26L19.35,43.37L21.18,41.8L21.79,41.27L23.01,41.19L23.62,41.94L29.11,47.55L29.72,48.54L32.17,51.45L32.78,50.97L34,49.87L34.61,49.71L41.33,41.61L41.94,41.41L43.77,41.08L44.38,41.31L48.04,42.84L48.65,43.09L49.87,44.13L50.48,45.57L52.32,46.85L52.93,47.2L54.76,48.24L55.37,48.13L57.2,45.23L57.81,44.27L60.25,42.67L60.86,42.43L62.69,42.56L63.31,42.92L65.75,43.72L66.36,43.53L70.02,40.73L70.63,41.14L73.68,43.69L74.3,43.21L77.35,40.82L77.96,39.77L79.79,37.25L80.4,37.18L81.62,37.6L82.23,38.23L84.06,39.66L84.67,39.14L85.9,38.24L86.51,36.77L88.95,32.54L89.56,32.32L92,29.22L92.61,28.89L94.44,28.67L95.05,29.22L96.28,30.67L96.89,29.93L99.94,28.07L100.55,28.33L104.82,30.73L105.43,30.76L107.27,29.85L107.88,30.76L108.49,31.98L109.1,31.63L109.71,30.83L110.93,30.57L111.54,30.78L114.59,31.49L115.2,31.03L120.09,29.75L120.7,30.42L121.31,30.4L121.92,31.26L123.75,33.98L124.36,34.12L126.19,34.91L126.8,35.27L128.02,35.41L128.63,34.53L130.47,31.92L131.08,31.72L134.74,32.66L135.35,33.41L137.79,37.14L138.4,36.96L140.85,34.46L141.46,34.75L145.73,34.38L146.34,35.68L150,43.29L150.61,44.03L151.23,43.85L151.84,42.36L153.67,39.55L154.28,39.58L155.5,41.56L156.11,43.46L157.33,45.39L157.94,45.68L160.38,46.72L160.99,46.23L162.83,43.52L163.44,43.82L166.49,43.79L167.1,44.58L168.93,46.99L169.54,46.4L171.37,43.99L171.98,44.31L173.21,43.81L173.82,44.39L176.87,47.11L177.48,47.17L178.7,47.39L179.31,48.5L180.53,49.27L181.14,47.76L183.58,42.45L184.2,42.04L185.42,42.52L186.03,43.57L189.69,50.98L190.3,50.6L190.91,50.38L191.52,49.24L192.74,48.22L193.35,48.7L195.19,50.14L195.8,49.47L197.02,48.29L197.63,48.23L201.29,48.39L201.9,47.89L204.95,43.74L205.56,43.29L208.01,41.99L208.62,43.52L211.67,49.29L212.28,48.82L214.11,42.21L214.72,39.76L218.39,29.45L219,29.1L222.66,34.38L223.27,33.96L225.1,31.26L225.71,30.76L227.54,29.49L228.16,29.67L231.82,30.57L232.43,31.24L234.87,34.05L235.48,33.24L236.7,32.79L237.31,33.17L237.92,33.26L238.53,32.51L242.2,26.82L242.81,26.18L244.64,24.92L245.25,25.01L247.69,26.93L248.3,27.82L249.52,29.39L250.14,30.89L250.75,31.85L251.36,31.06L253.8,28.56L254.41,28.49L255.63,29.17L256.24,29.83L257.46,31.52L258.07,30.79L261.13,30.16L261.74,30.45L263.57,29.41L264.18,28.61L266.62,26.22L267.23,27.2L268.45,28.98L269.06,28.31L272.12,25.98L272.73,25.8L273.95,25.44L274.56,29.67L276.39,40.14L277,38.73L276.39,74.2L275.78,81.64L274.56,82.32L273.95,80.72L272.12,75.51L271.5,74.29L270.28,73.89L269.67,73.93L267.84,74.45L267.23,75.59L266.01,76.09L265.4,75.96L263.57,74.37L262.96,74.89L261.74,74.74L261.13,74.23L260.51,72.96L259.9,73.37L259.29,73.67L258.07,72.39L257.46,71.18L256.24,69.45L255.63,69.68L253.8,69.79L253.19,69.56L250.75,69.95L250.14,71.26L248.3,69.52L247.69,70.3L245.86,70.45L245.25,70.09L240.37,69.06L239.76,68.95L238.53,67.19L237.92,67.9L236.7,70.24L236.09,69.97L234.87,69.66L234.26,68.83L233.04,68.32L232.43,68.03L231.82,67.86L231.21,68.65L229.38,72.98L228.77,72.62L226.93,71.46L226.32,72.34L225.1,71.7L224.49,72.45L223.27,72.39L222.66,71.39L220.22,72.37L219.61,74.54L217.17,74.47L216.55,74.92L213.5,79.02L212.89,79.46L211.06,80.22L210.45,78.75L209.23,76.66L208.62,77.08L207.4,77.31L206.79,76.77L205.56,75.54L204.95,76.93L203.73,77.94L203.12,78.48L201.9,79.22L201.29,78.37L200.07,75.93L199.46,75.67L197.63,76.72L197.02,76.53L194.57,75.85L193.96,77.15L192.74,78.94L192.13,78.43L189.08,77.01L188.47,77.56L184.81,77.7L184.2,77.91L182.97,77.19L182.36,75.7L180.53,78.53L179.92,78.03L176.26,74.05L175.65,73.9L173.21,72.66L172.59,73.09L170.76,73.44L170.15,73.43L167.71,75.98L167.1,77L166.49,77.76L165.88,76.97L165.27,76.89L164.66,77.64L160.38,74.97L159.77,75.7L159.16,76.28L158.55,78.33L156.72,85.47L156.11,86.27L154.89,86.96L154.28,87.52L153.06,85.76L152.45,84.33L150,82.3L149.39,81.98L147.56,80.34L146.95,81.41L145.73,82.85L145.12,83.04L143.9,83.35L143.29,82.63L140.85,78.58L140.24,78.16L139.01,78.47L138.4,78.06L132.91,74.71L132.3,74.55L129.86,74.04L129.25,73.45L128.02,73.09L127.41,71.95L125.58,68.36L124.97,68.85L123.14,69.52L122.53,70.25L120.7,72.16L120.09,73.61L118.87,74.62L118.26,74.48L115.81,74.08L115.2,75.23L110.93,77.6L110.32,77.01L108.49,73.79L107.88,75.01L105.43,78.15L104.82,78.92L97.5,89.27L96.89,88.98L91.39,88.07L90.78,88.57L90.17,88.3L89.56,89.43L87.73,91.52L87.12,90.76L85.29,90.01L84.67,89.74L84.06,89.85L83.45,89.15L81.62,90.36L81.01,90.45L79.79,90L79.18,90.41L78.57,90.12L77.96,90.69L76.13,90.29L75.52,89.38L71.85,89.28L71.24,90.08L70.63,90.36L70.02,89.69L68.19,88.56L67.58,88.97L65.14,88.97L64.53,89.39L63.31,90.3L62.69,90.09L59.03,89.97L58.42,89.57L55.98,89.8L55.37,88.83L53.54,88.49L52.93,89.05L51.7,89.43L51.09,89.63L47.43,89.6L46.82,89.64L44.38,91.12L43.77,90.71L43.16,90.55L42.55,89.44L41.33,87.91L40.71,88.11L39.49,88.47L38.88,88.3L37.05,88L36.44,87.44L34.61,86.15L34,86.05L32.17,85.92L31.56,85.89L27.28,85.18L26.67,84.84L25.45,85.1L24.84,84.8L23.62,83.81L23.01,84.05L22.4,84.62L21.79,83.72L20.57,81.93L19.96,82.51L17.51,82.86L16.9,84.33L14.46,79.89L13.85,78.01Z" style="fill: rgb(233, 136, 0); fill-opacity: 0.3; stroke-width: 0;"/></g></g><g class="errorbars"/><g class="lines"><path class="js-line" d="M13.85,42.56L16.9,51.55L17.51,45.98L18.73,43.26L19.35,43.37L21.18,41.8L21.79,41.27L23.01,41.19L23.62,41.94L29.11,47.55L29.72,48.54L32.17,51.45L32.78,50.97L34,49.87L34.61,49.71L41.33,41.61L41.94,41.41L43.77,41.08L44.38,41.31L48.04,42.84L48.65,43.09L49.87,44.13L50.48,45.57L52.32,46.85L52.93,47.2L54.76,48.24L55.37,48.13L57.2,45.23L57.81,44.27L60.25,42.67L60.86,42.43L62.69,42.56L63.31,42.92L65.75,43.72L66.36,43.53L70.02,40.73L70.63,41.14L73.68,43.69L74.3,43.21L77.35,40.82L77.96,39.77L79.79,37.25L80.4,37.18L81.62,37.6L82.23,38.23L84.06,39.66L84.67,39.14L85.9,38.24L86.51,36.77L88.95,32.54L89.56,32.32L92,29.22L92.61,28.89L94.44,28.67L95.05,29.22L96.28,30.67L96.89,29.93L99.94,28.07L100.55,28.33L104.82,30.73L105.43,30.76L107.27,29.85L107.88,30.76L108.49,31.98L109.1,31.63L109.71,30.83L110.93,30.57L111.54,30.78L114.59,31.49L115.2,31.03L120.09,29.75L120.7,30.42L121.31,30.4L121.92,31.26L123.75,33.98L124.36,34.12L126.19,34.91L126.8,35.27L128.02,35.41L128.63,34.53L130.47,31.92L131.08,31.72L134.74,32.66L135.35,33.41L137.79,37.14L138.4,36.96L140.85,34.46L141.46,34.75L145.73,34.38L146.34,35.68L150,43.29L150.61,44.03L151.23,43.85L151.84,42.36L153.67,39.55L154.28,39.58L155.5,41.56L156.11,43.46L157.33,45.39L157.94,45.68L160.38,46.72L160.99,46.23L162.83,43.52L163.44,43.82L166.49,43.79L167.1,44.58L168.93,46.99L169.54,46.4L171.37,43.99L171.98,44.31L173.21,43.81L173.82,44.39L176.87,47.11L177.48,47.17L178.7,47.39L179.31,48.5L180.53,49.27L181.14,47.76L183.58,42.45L184.2,42.04L185.42,42.52L186.03,43.57L189.69,50.98L190.3,50.6L190.91,50.38L191.52,49.24L192.74,48.22L193.35,48.7L195.19,50.14L195.8,49.47L197.02,48.29L197.63,48.23L201.29,48.39L201.9,47.89L204.95,43.74L205.56,43.29L208.01,41.99L208.62,43.52L211.67,49.29L212.28,48.82L214.11,42.21L214.72,39.76L218.39,29.45L219,29.1L222.66,34.38L223.27,33.96L225.1,31.26L225.71,30.76L227.54,29.49L228.16,29.67L231.82,30.57L232.43,31.24L234.87,34.05L235.48,33.24L236.7,32.79L237.31,33.17L237.92,33.26L238.53,32.51L242.2,26.82L242.81,26.18L244.64,24.92L245.25,25.01L247.69,26.93L248.3,27.82L249.52,29.39L250.14,30.89L250.75,31.85L251.36,31.06L253.8,28.56L254.41,28.49L255.63,29.17L256.24,29.83L257.46,31.52L258.07,30.79L261.13,30.16L261.74,30.45L263.57,29.41L264.18,28.61L266.62,26.22L267.23,27.2L268.45,28.98L269.06,28.31L272.12,25.98L272.73,25.8L273.95,25.44L274.56,29.67L276.39,40.14L277,38.73L276.39,74.2L275.78,81.64L274.56,82.32L273.95,80.72L272.12,75.51L271.5,74.29L270.28,73.89L269.67,73.93L267.84,74.45L267.23,75.59L266.01,76.09L265.4,75.96L263.57,74.37L262.96,74.89L261.74,74.74L261.13,74.23L260.51,72.96L259.9,73.37L259.29,73.67L258.07,72.39L257.46,71.18L256.24,69.45L255.63,69.68L253.8,69.79L253.19,69.56L250.75,69.95L250.14,71.26L248.3,69.52L247.69,70.3L245.86,70.45L245.25,70.09L240.37,69.06L239.76,68.95L238.53,67.19L237.92,67.9L236.7,70.24L236.09,69.97L234.87,69.66L234.26,68.83L233.04,68.32L232.43,68.03L231.82,67.86L231.21,68.65L229.38,72.98L228.77,72.62L226.93,71.46L226.32,72.34L225.1,71.7L224.49,72.45L223.27,72.39L222.66,71.39L220.22,72.37L219.61,74.54L217.17,74.47L216.55,74.92L213.5,79.02L212.89,79.46L211.06,80.22L210.45,78.75L209.23,76.66L208.62,77.08L207.4,77.31L206.79,76.77L205.56,75.54L204.95,76.93L203.73,77.94L203.12,78.48L201.9,79.22L201.29,78.37L200.07,75.93L199.46,75.67L197.63,76.72L197.02,76.53L194.57,75.85L193.96,77.15L192.74,78.94L192.13,78.43L189.08,77.01L188.47,77.56L184.81,77.7L184.2,77.91L182.97,77.19L182.36,75.7L180.53,78.53L179.92,78.03L176.26,74.05L175.65,73.9L173.21,72.66L172.59,73.09L170.76,73.44L170.15,73.43L167.71,75.98L167.1,77L166.49,77.76L165.88,76.97L165.27,76.89L164.66,77.64L160.38,74.97L159.77,75.7L159.16,76.28L158.55,78.33L156.72,85.47L156.11,86.27L154.89,86.96L154.28,87.52L153.06,85.76L152.45,84.33L150,82.3L149.39,81.98L147.56,80.34L146.95,81.41L145.73,82.85L145.12,83.04L143.9,83.35L143.29,82.63L140.85,78.58L140.24,78.16L139.01,78.47L138.4,78.06L132.91,74.71L132.3,74.55L129.86,74.04L129.25,73.45L128.02,73.09L127.41,71.95L125.58,68.36L124.97,68.85L123.14,69.52L122.53,70.25L120.7,72.16L120.09,73.61L118.87,74.62L118.26,74.48L115.81,74.08L115.2,75.23L110.93,77.6L110.32,77.01L108.49,73.79L107.88,75.01L105.43,78.15L104.82,78.92L97.5,89.27L96.89,88.98L91.39,88.07L90.78,88.57L90.17,88.3L89.56,89.43L87.73,91.52L87.12,90.76L85.29,90.01L84.67,89.74L84.06,89.85L83.45,89.15L81.62,90.36L81.01,90.45L79.79,90L79.18,90.41L78.57,90.12L77.96,90.69L76.13,90.29L75.52,89.38L71.85,89.28L71.24,90.08L70.63,90.36L70.02,89.69L68.19,88.56L67.58,88.97L65.14,88.97L64.53,89.39L63.31,90.3L62.69,90.09L59.03,89.97L58.42,89.57L55.98,89.8L55.37,88.83L53.54,88.49L52.93,89.05L51.7,89.43L51.09,89.63L47.43,89.6L46.82,89.64L44.38,91.12L43.77,90.71L43.16,90.55L42.55,89.44L41.33,87.91L40.71,88.11L39.49,88.47L38.88,88.3L37.05,88L36.44,87.44L34.61,86.15L34,86.05L32.17,85.92L31.56,85.89L27.28,85.18L26.67,84.84L25.45,85.1L24.84,84.8L23.62,83.81L23.01,84.05L22.4,84.62L21.79,83.72L20.57,81.93L19.96,82.51L17.51,82.86L16.9,84.33L14.46,79.89L13.85,78.01" style="vector-effect: none; fill: none; stroke: rgb(0, 0, 0); stroke-opacity: 0; stroke-width: 2px; opacity: 1;"/></g><g class="points"/><g class="text"/></g><g class="trace scatter trace81c9d6" style="stroke-miterlimit: 2; opacity: 1;"><g class="fills"/><g class="errorbars"/><g class="lines"><path class="js-line" d="M13.85,67.37L16.9,79.91L17.51,77.17L18.73,78.36L19.35,78.01L19.96,78.06L20.57,79.2L22.4,82.41L23.01,81.78L24.23,81.32L24.84,81.23L26.67,80.58L27.28,79.59L29.72,81.82L30.34,81.77L32.17,82.93L32.78,82.73L34,82.29L34.61,81.5L35.83,81.72L36.44,81.93L38.88,83.84L39.49,83.27L40.71,82.58L41.33,83.04L43.16,83.49L43.77,84.21L44.99,83.22L45.6,83.78L47.43,83.34L48.04,83L49.26,83.98L49.87,84.42L50.48,84.54L51.09,83.79L52.32,84.05L52.93,83.53L53.54,83.62L54.15,82.89L55.37,82.47L55.98,82.38L57.81,82.64L58.42,81.1L59.64,79.13L60.25,79.32L62.08,81.34L62.69,81.3L65.75,79.67L66.36,79.81L68.19,80L68.8,80.22L71.24,80.3L71.85,80.59L72.46,81.22L73.07,79.98L77.96,69.95L78.57,69.71L81.01,70.93L81.62,71.37L86.51,77.14L87.12,78.1L88.95,78.94L89.56,78.41L92,76.77L92.61,75.56L96.89,78.42L97.5,78.32L98.11,78.72L98.72,78.05L100.55,74.47L101.16,72.74L102.38,69.13L102.99,69.26L104.82,73.55L105.43,72.7L106.04,74.33L106.65,72.98L109.1,66.59L109.71,66.14L110.93,65.13L111.54,64.18L112.15,62.81L112.76,63.16L113.37,63.81L117.64,70.26L118.26,70.43L120.09,70.78L120.7,71.22L121.31,71.96L121.92,71.04L123.75,67.19L124.36,65.36L124.97,64.34L125.58,65.08L128.02,64.52L128.63,63.99L130.47,57.64L131.08,57.43L132.91,56.04L133.52,54.98L135.35,50.89L135.96,52.03L137.79,50.04L138.4,50.07L140.24,48.95L140.85,47.6L143.29,44.78L143.9,46.09L144.51,46.4L145.12,45.39L146.34,44.24L146.95,45.45L147.56,49.12L148.17,48.46L148.78,46.79L149.39,46.43L150,47.5L153.06,51.28L153.67,50L154.28,48.88L154.89,49.72L156.72,47.25L157.33,47.23L158.55,48.25L159.16,49.35L160.99,53.16L161.6,52.67L162.83,52.34L163.44,51.72L164.05,52.11L164.66,54.85L165.88,57.13L166.49,57.73L167.71,58.02L168.32,57.81L170.15,55.47L170.76,57.31L174.43,55.57L175.04,55.32L175.65,55.82L176.26,57.66L179.31,60.45L179.92,61.02L183.58,64.86L184.2,64.93L185.42,65.86L186.03,64.41L187.25,64.06L187.86,65.07L189.08,65.54L189.69,65.12L192.13,66.78L192.74,66.62L195.19,64.97L195.8,65.7L197.02,64.05L197.63,63.13L198.24,62.42L198.85,62.91L199.46,63.09L200.07,61.52L200.68,61.01L201.29,62.01L202.51,64.08L203.12,64.16L204.95,65.63L205.56,64.13L206.79,64.98L207.4,63.8L208.62,63.93L209.23,64.37L210.45,64.04L211.06,64.72L212.89,67.07L213.5,68.98L214.72,70.16L215.33,70.18L217.17,73.96L217.78,73.17L219,70.74L219.61,71.61L220.83,72.7L221.44,70.83L223.88,67.16L224.49,67.55L225.71,69.4L226.32,68.1L227.54,68.18L228.16,66.13L229.99,71.02L230.6,70.03L233.04,66.71L233.65,66.75L235.48,68.77L236.09,69.71L236.7,70.5L237.31,69.79L239.15,70.15L239.76,70.26L243.42,66.78L244.03,65.83L247.08,62.42L247.69,62.16L248.91,62.66L249.52,62.13L253.19,64.4L253.8,64.97L256.24,63.38L256.85,64.11L258.68,65.64L259.29,65.58L260.51,65.22L261.13,64.01L262.96,62.13L263.57,62.26L265.4,62.89L266.01,62.68L266.62,63.3L267.23,62.67L269.06,62.9L269.67,62.54L270.89,62.42L271.5,60.51L272.73,59.86L273.34,60.7L273.95,60.87L274.56,63.75L275.78,66.58L276.39,66.04L277,55.22" style="vector-effect: none; fill: none; stroke: rgb(188, 0, 233); stroke-opacity: 1; stroke-width: 2px; opacity: 1;"/></g><g class="points"/><g class="text"/></g><g class="trace scatter trace81fc3a" style="stroke-miterlimit: 2; opacity: 1;"><g class="fills"><g><path class="js-fill" d="M13.85,47.19L16.9,51.8L17.51,46.6L18.12,44.63L18.73,47.23L20.57,51.97L21.18,52.62L22.4,52.76L23.01,52.12L23.62,51.89L24.23,53.69L25.45,55.03L26.06,54.93L27.28,54.02L27.89,55.49L30.95,48.88L31.56,49.52L32.17,49.81L32.78,48.41L35.22,44.05L35.83,45.46L38.27,51.11L38.88,51.37L40.1,51.32L40.71,50.53L43.77,43.29L44.38,43.36L44.99,43.18L45.6,42.07L46.82,39.77L47.43,40.41L48.04,41.27L48.65,40.6L51.09,36.63L51.7,36.28L54.76,34.35L55.37,33.45L57.81,28.94L58.42,27.52L59.64,26.71L60.25,27.13L62.08,29.55L62.69,30.52L66.36,35.09L66.97,35.54L68.19,36.15L68.8,37.39L69.41,37.62L70.02,36.98L74.3,29.56L74.91,31.21L79.79,45.67L80.4,45.91L82.23,45.88L82.84,45.14L85.29,43.3L85.9,43.55L87.12,44.16L87.73,43.78L89.56,43.32L90.17,43.43L92,43.61L92.61,43.33L93.83,42.28L94.44,41.57L95.66,40.76L96.28,40.69L98.11,41.08L98.72,42.03L100.55,43.56L101.16,42.96L105.43,40.1L106.04,40.3L108.49,43.17L109.1,42.63L111.54,41.01L112.15,41L113.37,40.31L113.98,41.55L114.59,43.02L115.2,42.56L115.81,42.33L116.42,43.27L117.03,42.77L119.48,44.08L120.09,44L120.7,43.16L121.31,43.69L123.14,43.02L123.75,43.59L124.97,43.69L125.58,43.18L127.41,40.24L128.02,40.1L130.47,37.9L131.08,37.63L132.91,37.18L133.52,35.63L135.35,30.8L135.96,30.4L137.79,33.39L138.4,32.47L139.01,33.44L139.62,32.64L142.68,29.54L143.29,29.64L144.51,29.68L145.12,29.32L147.56,27.28L148.17,28.92L149.39,31.72L150,32.34L151.84,31.12L152.45,32.37L154.89,29.4L155.5,29.27L156.72,30.05L157.33,30.73L159.77,32.28L160.38,32.05L161.6,31.62L162.22,32.85L165.27,38.46L165.88,38.49L167.71,38.24L168.32,37.77L170.15,37.55L170.76,39.02L173.21,44.77L173.82,45.35L175.04,46.7L175.65,47.22L176.26,47.01L176.87,48.13L177.48,49.49L178.09,48.47L178.7,48.41L179.31,49.22L181.75,51.99L182.36,51.89L187.25,48.88L187.86,49.25L191.52,52.19L192.13,52.38L192.74,52.54L193.35,51.88L196.41,46.06L197.02,46.18L198.24,48.65L198.85,47.69L200.68,43.79L201.29,45.27L203.73,54.51L204.34,52.88L206.18,49.97L206.79,50.44L209.84,54.04L210.45,54.27L212.28,54.25L212.89,52.8L216.55,44.75L217.17,44.21L218.39,44.7L219,45.45L222.05,51.06L222.66,49.78L226.93,37.87L227.54,37.85L228.77,38.89L229.38,39.88L231.82,45.25L232.43,44.38L233.65,43.68L234.26,43.71L235.48,44.48L236.09,42.69L239.76,33.49L240.37,33.1L241.59,33.56L242.2,34.63L244.03,37.03L244.64,37.61L246.47,38.64L247.08,38.16L248.91,34.87L249.52,32.93L251.36,28.39L251.97,27.77L253.19,28.17L253.8,28.82L256.85,33.12L257.46,33.08L260.51,30.34L261.13,28.87L263.57,23.21L264.18,23.4L265.4,24.06L266.01,24.8L267.84,26.81L268.45,27.94L270.28,30.2L270.89,30.22L273.34,29.22L273.95,26.28L277,41.94L277,66.24L276.39,76.47L275.78,75.43L275.17,73L273.34,67.48L272.73,67.8L270.28,67.83L269.67,69.6L267.84,73.52L267.23,74.65L264.18,77.62L263.57,77.18L261.13,77.53L260.51,77.12L259.29,76.06L258.68,75.7L256.85,73.37L256.24,73.39L255.63,73.51L255.02,74.47L253.19,76.58L252.58,76.35L251.36,74.64L250.75,75.16L249.52,75.81L248.91,75.79L246.47,79.17L245.86,79.66L244.03,79.4L243.42,78.56L240.98,80.71L240.37,80.53L236.09,78.5L235.48,78.95L233.65,79.4L233.04,79.89L231.82,81.44L231.21,80.23L230.6,79.91L229.99,81.04L228.16,81.35L227.54,80.66L226.93,79.86L226.32,80.82L225.1,82.44L224.49,82.47L223.27,80.63L222.66,81.01L221.44,80.99L220.83,80.83L218.39,83.8L217.78,82.13L216.55,83.23L215.94,82.68L213.5,81.87L212.89,80.96L211.67,80.76L211.06,79.19L208.62,75.49L208.01,75.27L206.18,74.32L205.56,74.44L204.95,74.97L204.34,74.3L202.51,74.65L201.9,75.93L200.68,76.53L200.07,75.54L199.46,74.48L198.85,75.24L195.8,78.07L195.19,77.98L192.74,76.63L192.13,76.73L191.52,76.3L190.91,78.57L189.69,79.42L189.08,78.92L187.86,77.9L187.25,79.44L186.64,79.85L186.03,79.14L185.42,77.59L184.81,77.88L184.2,79.83L182.97,78.44L182.36,78.64L181.14,76.68L180.53,75.32L178.09,75.65L177.48,73.76L176.26,73.84L175.65,74.05L173.82,72.98L173.21,72.32L171.98,70.34L171.37,68.41L170.15,66.45L169.54,66.32L167.71,67.39L167.1,68.35L165.27,69.78L164.66,70.43L162.22,72.39L161.6,74.17L160.99,75.43L160.38,75.02L159.77,74.58L158.55,74.32L157.94,74.7L154.28,79.11L153.67,80.7L151.84,84.53L151.23,82.76L150,80.85L149.39,83.61L146.95,88.86L146.34,88.85L142.68,88L142.07,87.44L139.62,81L139.01,82.85L137.79,85.12L137.18,84.73L136.57,85.81L135.96,84.72L133.52,87.72L132.91,86.9L132.3,86.34L131.69,84.61L130.47,83.73L129.86,83.63L129.25,82.33L128.63,83.15L128.02,83.3L127.41,84.48L126.19,86.09L125.58,85.87L124.97,84.87L124.36,85.62L120.7,84.38L120.09,84.98L118.87,84.52L118.26,85.27L117.03,84.96L116.42,85.04L112.76,84L112.15,84.5L110.93,83.32L110.32,83.87L109.1,83.82L108.49,84.57L105.43,84L104.82,83.01L102.99,84.02L102.38,83.7L101.77,83.44L101.16,84.61L100.55,86.16L99.94,85.88L99.33,87.09L96.89,86.99L96.28,86.3L94.44,86.67L93.83,86.06L90.17,88.76L89.56,88.96L87.73,88.3L87.12,88.03L86.51,88.07L85.9,88.9L84.67,88.98L84.06,87.97L82.23,89.4L81.62,88.65L79.18,90.48L78.57,90.13L76.74,89.53L76.13,88.88L72.46,91.09L71.85,90.02L70.63,89.34L70.02,89.16L68.19,89.97L67.58,89.6L65.75,88.73L65.14,89.63L63.31,86.84L62.69,87.51L61.47,88.18L60.86,88.54L59.64,88.81L59.03,88.42L57.81,88.9L57.2,89.47L55.37,87.38L54.76,87.98L52.93,89.67L52.32,89.94L49.26,89.92L48.65,89.79L42.55,90.73L41.94,90.31L39.49,89.77L38.88,90.27L36.44,90.44L35.83,90.48L32.78,89.39L32.17,90.08L29.11,89.96L28.5,90.76L25.45,88.72L24.84,88.86L22.4,87.61L21.79,88.16L19.96,88.95L19.35,88.36L18.73,88.75L18.12,88.13L17.51,88.12L16.9,89.25L15.07,84.18L14.46,83.08L13.85,82.8Z" style="fill: rgb(188, 0, 233); fill-opacity: 0.3; stroke-width: 0;"/></g></g><g class="errorbars"/><g class="lines"><path class="js-line" d="M13.85,47.19L16.9,51.8L17.51,46.6L18.12,44.63L18.73,47.23L20.57,51.97L21.18,52.62L22.4,52.76L23.01,52.12L23.62,51.89L24.23,53.69L25.45,55.03L26.06,54.93L27.28,54.02L27.89,55.49L30.95,48.88L31.56,49.52L32.17,49.81L32.78,48.41L35.22,44.05L35.83,45.46L38.27,51.11L38.88,51.37L40.1,51.32L40.71,50.53L43.77,43.29L44.38,43.36L44.99,43.18L45.6,42.07L46.82,39.77L47.43,40.41L48.04,41.27L48.65,40.6L51.09,36.63L51.7,36.28L54.76,34.35L55.37,33.45L57.81,28.94L58.42,27.52L59.64,26.71L60.25,27.13L62.08,29.55L62.69,30.52L66.36,35.09L66.97,35.54L68.19,36.15L68.8,37.39L69.41,37.62L70.02,36.98L74.3,29.56L74.91,31.21L79.79,45.67L80.4,45.91L82.23,45.88L82.84,45.14L85.29,43.3L85.9,43.55L87.12,44.16L87.73,43.78L89.56,43.32L90.17,43.43L92,43.61L92.61,43.33L93.83,42.28L94.44,41.57L95.66,40.76L96.28,40.69L98.11,41.08L98.72,42.03L100.55,43.56L101.16,42.96L105.43,40.1L106.04,40.3L108.49,43.17L109.1,42.63L111.54,41.01L112.15,41L113.37,40.31L113.98,41.55L114.59,43.02L115.2,42.56L115.81,42.33L116.42,43.27L117.03,42.77L119.48,44.08L120.09,44L120.7,43.16L121.31,43.69L123.14,43.02L123.75,43.59L124.97,43.69L125.58,43.18L127.41,40.24L128.02,40.1L130.47,37.9L131.08,37.63L132.91,37.18L133.52,35.63L135.35,30.8L135.96,30.4L137.79,33.39L138.4,32.47L139.01,33.44L139.62,32.64L142.68,29.54L143.29,29.64L144.51,29.68L145.12,29.32L147.56,27.28L148.17,28.92L149.39,31.72L150,32.34L151.84,31.12L152.45,32.37L154.89,29.4L155.5,29.27L156.72,30.05L157.33,30.73L159.77,32.28L160.38,32.05L161.6,31.62L162.22,32.85L165.27,38.46L165.88,38.49L167.71,38.24L168.32,37.77L170.15,37.55L170.76,39.02L173.21,44.77L173.82,45.35L175.04,46.7L175.65,47.22L176.26,47.01L176.87,48.13L177.48,49.49L178.09,48.47L178.7,48.41L179.31,49.22L181.75,51.99L182.36,51.89L187.25,48.88L187.86,49.25L191.52,52.19L192.13,52.38L192.74,52.54L193.35,51.88L196.41,46.06L197.02,46.18L198.24,48.65L198.85,47.69L200.68,43.79L201.29,45.27L203.73,54.51L204.34,52.88L206.18,49.97L206.79,50.44L209.84,54.04L210.45,54.27L212.28,54.25L212.89,52.8L216.55,44.75L217.17,44.21L218.39,44.7L219,45.45L222.05,51.06L222.66,49.78L226.93,37.87L227.54,37.85L228.77,38.89L229.38,39.88L231.82,45.25L232.43,44.38L233.65,43.68L234.26,43.71L235.48,44.48L236.09,42.69L239.76,33.49L240.37,33.1L241.59,33.56L242.2,34.63L244.03,37.03L244.64,37.61L246.47,38.64L247.08,38.16L248.91,34.87L249.52,32.93L251.36,28.39L251.97,27.77L253.19,28.17L253.8,28.82L256.85,33.12L257.46,33.08L260.51,30.34L261.13,28.87L263.57,23.21L264.18,23.4L265.4,24.06L266.01,24.8L267.84,26.81L268.45,27.94L270.28,30.2L270.89,30.22L273.34,29.22L273.95,26.28L277,41.94L277,66.24L276.39,76.47L275.78,75.43L275.17,73L273.34,67.48L272.73,67.8L270.28,67.83L269.67,69.6L267.84,73.52L267.23,74.65L264.18,77.62L263.57,77.18L261.13,77.53L260.51,77.12L259.29,76.06L258.68,75.7L256.85,73.37L256.24,73.39L255.63,73.51L255.02,74.47L253.19,76.58L252.58,76.35L251.36,74.64L250.75,75.16L249.52,75.81L248.91,75.79L246.47,79.17L245.86,79.66L244.03,79.4L243.42,78.56L240.98,80.71L240.37,80.53L236.09,78.5L235.48,78.95L233.65,79.4L233.04,79.89L231.82,81.44L231.21,80.23L230.6,79.91L229.99,81.04L228.16,81.35L227.54,80.66L226.93,79.86L226.32,80.82L225.1,82.44L224.49,82.47L223.27,80.63L222.66,81.01L221.44,80.99L220.83,80.83L218.39,83.8L217.78,82.13L216.55,83.23L215.94,82.68L213.5,81.87L212.89,80.96L211.67,80.76L211.06,79.19L208.62,75.49L208.01,75.27L206.18,74.32L205.56,74.44L204.95,74.97L204.34,74.3L202.51,74.65L201.9,75.93L200.68,76.53L200.07,75.54L199.46,74.48L198.85,75.24L195.8,78.07L195.19,77.98L192.74,76.63L192.13,76.73L191.52,76.3L190.91,78.57L189.69,79.42L189.08,78.92L187.86,77.9L187.25,79.44L186.64,79.85L186.03,79.14L185.42,77.59L184.81,77.88L184.2,79.83L182.97,78.44L182.36,78.64L181.14,76.68L180.53,75.32L178.09,75.65L177.48,73.76L176.26,73.84L175.65,74.05L173.82,72.98L173.21,72.32L171.98,70.34L171.37,68.41L170.15,66.45L169.54,66.32L167.71,67.39L167.1,68.35L165.27,69.78L164.66,70.43L162.22,72.39L161.6,74.17L160.99,75.43L160.38,75.02L159.77,74.58L158.55,74.32L157.94,74.7L154.28,79.11L153.67,80.7L151.84,84.53L151.23,82.76L150,80.85L149.39,83.61L146.95,88.86L146.34,88.85L142.68,88L142.07,87.44L139.62,81L139.01,82.85L137.79,85.12L137.18,84.73L136.57,85.81L135.96,84.72L133.52,87.72L132.91,86.9L132.3,86.34L131.69,84.61L130.47,83.73L129.86,83.63L129.25,82.33L128.63,83.15L128.02,83.3L127.41,84.48L126.19,86.09L125.58,85.87L124.97,84.87L124.36,85.62L120.7,84.38L120.09,84.98L118.87,84.52L118.26,85.27L117.03,84.96L116.42,85.04L112.76,84L112.15,84.5L110.93,83.32L110.32,83.87L109.1,83.82L108.49,84.57L105.43,84L104.82,83.01L102.99,84.02L102.38,83.7L101.77,83.44L101.16,84.61L100.55,86.16L99.94,85.88L99.33,87.09L96.89,86.99L96.28,86.3L94.44,86.67L93.83,86.06L90.17,88.76L89.56,88.96L87.73,88.3L87.12,88.03L86.51,88.07L85.9,88.9L84.67,88.98L84.06,87.97L82.23,89.4L81.62,88.65L79.18,90.48L78.57,90.13L76.74,89.53L76.13,88.88L72.46,91.09L71.85,90.02L70.63,89.34L70.02,89.16L68.19,89.97L67.58,89.6L65.75,88.73L65.14,89.63L63.31,86.84L62.69,87.51L61.47,88.18L60.86,88.54L59.64,88.81L59.03,88.42L57.81,88.9L57.2,89.47L55.37,87.38L54.76,87.98L52.93,89.67L52.32,89.94L49.26,89.92L48.65,89.79L42.55,90.73L41.94,90.31L39.49,89.77L38.88,90.27L36.44,90.44L35.83,90.48L32.78,89.39L32.17,90.08L29.11,89.96L28.5,90.76L25.45,88.72L24.84,88.86L22.4,87.61L21.79,88.16L19.96,88.95L19.35,88.36L18.73,88.75L18.12,88.13L17.51,88.12L16.9,89.25L15.07,84.18L14.46,83.08L13.85,82.8" style="vector-effect: none; fill: none; stroke: rgb(0, 0, 0); stroke-opacity: 0; stroke-width: 2px; opacity: 1;"/></g><g class="points"/><g class="text"/></g></g></g></g><path class="xlines-above crisp" d="M0,0" style="fill: none;"/><path class="ylines-above crisp" d="M0,0" style="fill: none;"/><g class="overlines-above"/><g class="xaxislayer-above"><g class="x2tick"><text text-anchor="middle" x="0" y="167.39999999999998" transform="translate(104.97999999999999,0)" style="font-family: 'Open Sans', verdana, arial, sans-serif; font-size: 12px; fill: rgb(42, 63, 95); fill-opacity: 1; white-space: pre; opacity: 1;">−100</text></g><g class="x2tick"><text text-anchor="middle" x="0" y="167.39999999999998" style="font-family: 'Open Sans', verdana, arial, sans-serif; font-size: 12px; fill: rgb(42, 63, 95); fill-opacity: 1; white-space: pre; opacity: 1;" transform="translate(166.03,0)">0</text></g><g class="x2tick"><text text-anchor="middle" x="0" y="167.39999999999998" style="font-family: 'Open Sans', verdana, arial, sans-serif; font-size: 12px; fill: rgb(42, 63, 95); fill-opacity: 1; white-space: pre; opacity: 1;" transform="translate(227.09,0)">100</text></g><g class="x2tick"><text text-anchor="middle" x="0" y="167.39999999999998" style="font-family: 'Open Sans', verdana, arial, sans-serif; font-size: 12px; fill: rgb(42, 63, 95); fill-opacity: 1; white-space: pre; opacity: 1;" transform="translate(288.15,0)">200</text></g></g><g class="yaxislayer-above"><g class="y2tick"><text text-anchor="end" x="48" y="4.199999999999999" transform="translate(0,154.4)" style="font-family: 'Open Sans', verdana, arial, sans-serif; font-size: 12px; fill: rgb(42, 63, 95); fill-opacity: 1; white-space: pre; opacity: 1;">0</text></g><g class="y2tick"><text text-anchor="end" x="48" y="4.199999999999999" style="font-family: 'Open Sans', verdana, arial, sans-serif; font-size: 12px; fill: rgb(42, 63, 95); fill-opacity: 1; white-space: pre; opacity: 1;" transform="translate(0,114.19)">50</text></g><g class="y2tick"><text text-anchor="end" x="48" y="4.199999999999999" style="font-family: 'Open Sans', verdana, arial, sans-serif; font-size: 12px; fill: rgb(42, 63, 95); fill-opacity: 1; white-space: pre; opacity: 1;" transform="translate(0,73.98)">100</text></g></g><g class="overaxes-above"/></g><g class="subplot xyz2"><g class="overplot"><g class="xyz2" transform="translate(49,0)" clip-path="url(#clip8ab768xyz2plot)"><g class="scatterlayer2 mlayer"><g class="trace scatter trace96a38e" style="stroke-miterlimit: 2; opacity: 1;"><g class="fills"/><g class="errorbars"/><g class="lines"><path class="js-line" d="M13.85,0L277,0" style="vector-effect: none; fill: none; stroke: rgb(0, 0, 0); stroke-opacity: 1; stroke-width: 1px; opacity: 1;"/><path class="js-line" d="M13.85,28.95L277,28.95" style="vector-effect: none; fill: none; stroke: rgb(0, 0, 0); stroke-opacity: 1; stroke-width: 1px; opacity: 1;"/><path class="js-line" d="M13.85,57.9L277,57.9" style="vector-effect: none; fill: none; stroke: rgb(0, 0, 0); stroke-opacity: 1; stroke-width: 1px; opacity: 1;"/></g><g class="points"/><g class="text"/></g></g></g></g></g><g class="subplot x2y2z2"><g class="overplot"><g class="x2y2z2" transform="translate(49,57.900000000000006)" clip-path="url(#clip8ab768x2y2z2plot)"/></g></g><g class="subplot xyz3"><g class="overplot"><g class="xyz3" transform="translate(49,0)" clip-path="url(#clip8ab768xyz3plot)"><g class="scatterlayer3 mlayer"><g class="trace scatter trace6814e4" style="stroke-miterlimit: 2; opacity: 1;"><g class="fills"/><g class="errorbars"/><g class="lines"/><g class="points"/><g class="text"><g class="textpoint" transform="translate(0,3)"><text x="135.35" y="28.95" text-anchor="middle" style="font-family: 'Open Sans', verdana, arial, sans-serif; font-size: 12px; fill: rgb(255, 255, 255); fill-opacity: 1; font-weight: bold; white-space: pre;">Cue</text></g></g></g></g></g></g></g><g class="subplot x2y2z3"><g class="overplot"><g class="x2y2z3" transform="translate(49,57.900000000000006)" clip-path="url(#clip8ab768x2y2z3plot)"/></g></g></g><g class="polarlayer"/><g class="smithlayer"/><g class="ternarylayer"/><g class="geolayer"/><g class="funnelarealayer"/><g class="pielayer"/><g class="iciclelayer"/><g class="treemaplayer"/><g class="sunburstlayer"/><g class="glimages"/><defs id="topdefs-8ab768"><g class="clips"/><clipPath id="legend8ab768"><rect width="108" height="86" x="0" y="0"/></clipPath></defs><g class="layer-above"><g class="imagelayer"/><g class="shapelayer"/></g><g class="infolayer"><g class="legend" pointer-events="all" transform="translate(331.54,0)"><rect class="bg" shape-rendering="crispEdges" style="stroke: rgb(68, 68, 68); stroke-opacity: 1; fill: rgb(255, 255, 255); fill-opacity: 1; stroke-width: 0px;" width="108" height="86" x="0" y="0"/><g class="scrollbox" transform="" clip-path="url(#legend8ab768)"><g class="groups"><g class="traces" transform="translate(0,14.5)" style="opacity: 1;"><text class="legendtext" text-anchor="start" x="40" y="4.680000000000001" style="font-family: 'Open Sans', verdana, arial, sans-serif; font-size: 12px; fill: rgb(42, 63, 95); fill-opacity: 1; white-space: pre;">Early R</text><g class="layers" style="opacity: 1;"><g class="legendfill"/><g class="legendlines"><path class="js-line" d="M5,0h30" style="fill: none; stroke: rgb(233, 136, 0); stroke-opacity: 1; stroke-width: 2px;"/></g><g class="legendsymbols"><g class="legendpoints"/></g></g><rect class="legendtoggle" x="0" y="-9.5" width="102.171875" height="19" style="fill: rgb(0, 0, 0); fill-opacity: 0;"/></g><g class="traces" transform="translate(0,33.5)" style="opacity: 1;"><text class="legendtext" text-anchor="start" x="40" y="4.680000000000001" style="font-family: 'Open Sans', verdana, arial, sans-serif; font-size: 12px; fill: rgb(42, 63, 95); fill-opacity: 1; white-space: pre;">80th perc.</text><g class="layers" style="opacity: 1;"><g class="legendfill"><path class="js-fill" d="M5,-2h30v6h-30z" style="stroke-width: 0; fill: rgb(233, 136, 0); fill-opacity: 0.3;"/></g><g class="legendlines"><path class="js-line" d="M5,-2h30" style="fill: none; stroke: rgb(0, 0, 0); stroke-opacity: 0; stroke-width: 2px;"/></g><g class="legendsymbols"><g class="legendpoints"/></g></g><rect class="legendtoggle" x="0" y="-9.5" width="102.171875" height="19" style="fill: rgb(0, 0, 0); fill-opacity: 0;"/></g><g class="traces" transform="translate(0,52.5)" style="opacity: 1;"><text class="legendtext" text-anchor="start" x="40" y="4.680000000000001" style="font-family: 'Open Sans', verdana, arial, sans-serif; font-size: 12px; fill: rgb(42, 63, 95); fill-opacity: 1; white-space: pre;">Late R</text><g class="layers" style="opacity: 1;"><g class="legendfill"/><g class="legendlines"><path class="js-line" d="M5,0h30" style="fill: none; stroke: rgb(188, 0, 233); stroke-opacity: 1; stroke-width: 2px;"/></g><g class="legendsymbols"><g class="legendpoints"/></g></g><rect class="legendtoggle" x="0" y="-9.5" width="102.171875" height="19" style="fill: rgb(0, 0, 0); fill-opacity: 0;"/></g><g class="traces" transform="translate(0,71.5)" style="opacity: 1;"><text class="legendtext" text-anchor="start" x="40" y="4.680000000000001" style="font-family: 'Open Sans', verdana, arial, sans-serif; font-size: 12px; fill: rgb(42, 63, 95); fill-opacity: 1; white-space: pre;">80th perc.</text><g class="layers" style="opacity: 1;"><g class="legendfill"><path class="js-fill" d="M5,-2h30v6h-30z" style="stroke-width: 0; fill: rgb(188, 0, 233); fill-opacity: 0.3;"/></g><g class="legendlines"><path class="js-line" d="M5,-2h30" style="fill: none; stroke: rgb(0, 0, 0); stroke-opacity: 0; stroke-width: 2px;"/></g><g class="legendsymbols"><g class="legendpoints"/></g></g><rect class="legendtoggle" x="0" y="-9.5" width="102.171875" height="19" style="fill: rgb(0, 0, 0); fill-opacity: 0;"/></g></g></g><rect class="scrollbar" rx="20" ry="3" width="0" height="0" style="fill: rgb(128, 139, 164); fill-opacity: 1;" x="0" y="0"/></g><g class="g-gtitle"/><g class="g-xtitle"/><g class="g-x2title"><text class="x2title" x="187.5" y="194.70625" text-anchor="middle" style="opacity: 1; font-family: 'Open Sans', verdana, arial, sans-serif; font-size: 14px; fill: rgb(42, 63, 95); fill-opacity: 1; white-space: pre;">Position [cm]</text></g><g class="g-ytitle"/><g class="g-y2title" transform="translate(8.2998046875,0)"><text class="y2title" transform="rotate(-90,5.709375000000001,106.15)" x="5.709375000000001" y="106.15" text-anchor="middle" style="opacity: 1; font-family: 'Open Sans', verdana, arial, sans-serif; font-size: 14px; fill: rgb(42, 63, 95); fill-opacity: 1; white-space: pre;">Velocity [cm/s]</text></g></g></svg>