<svg class="main-svg" xmlns="http://www.w3.org/2000/svg" xmlns:xlink="http://www.w3.org/1999/xlink" width="440" height="200" style="" viewBox="0 0 440 200"><rect x="0" y="0" width="440" height="200" style="fill: rgb(255, 255, 255); fill-opacity: 1;"/><defs id="defs-b69fca"><g class="clips"><clipPath id="clipb69fcaxyplot" class="plotclip"><rect width="277" height="57.900000000000006"/></clipPath><clipPath id="clipb69fcax2y2plot" class="plotclip"><rect width="277" height="96.49999999999999"/></clipPath><clipPath id="clipb69fcaxyz2plot" class="plotclip"><rect width="277" height="57.900000000000006"/></clipPath><clipPath id="clipb69fcax2y2z2plot" class="plotclip"><rect width="277" height="96.49999999999999"/></clipPath><clipPath class="axesclip" id="clipb69fcax"><rect x="49" y="0" width="277" height="200"/></clipPath><clipPath class="axesclip" id="clipb69fcay"><rect x="0" y="0" width="440" height="57.900000000000006"/></clipPath><clipPath class="axesclip" id="clipb69fcaxy"><rect x="49" y="0" width="277" height="57.900000000000006"/></clipPath><clipPath class="axesclip" id="clipb69fcay2"><rect x="0" y="57.900000000000006" width="440" height="96.49999999999999"/></clipPath><clipPath class="axesclip" id="clipb69fcaxy2"><rect x="49" y="57.900000000000006" width="277" height="96.49999999999999"/></clipPath><clipPath class="axesclip" id="clipb69fcax2"><rect x="49" y="0" width="277" height="200"/></clipPath><clipPath class="axesclip" id="clipb69fcax2y"><rect x="49" y="0" width="277" height="57.900000000000006"/></clipPath><clipPath class="axesclip" id="clipb69fcax2y2"><rect x="49" y="57.900000000000006" width="277" height="96.49999999999999"/></clipPath></g><g class="gradients"/><g class="patterns"/></defs><g class="bglayer"/><g class="layer-below"><g class="imagelayer"/><g class="shapelayer"/></g><g class="cartesianlayer"><g class="subplot xy"><g class="layer-subplot"><g class="shapelayer"/><g class="imagelayer"/></g><g class="minor-gridlayer"><g class="x"/><g class="y"/></g><g class="gridlayer"><g class="x"><path class="xgrid crisp" transform="translate(104.97999999999999,0)" d="M0,0v57.900000000000006" style="stroke: rgb(255, 255, 255); stroke-opacity: 1; stroke-width: 1px;"/><path class="xgrid crisp" transform="translate(227.09,0)" d="M0,0v57.900000000000006" style="stroke: rgb(255, 255, 255); stroke-opacity: 1; stroke-width: 1px;"/><path class="xgrid crisp" transform="translate(288.15,0)" d="M0,0v57.900000000000006" style="stroke: rgb(255, 255, 255); stroke-opacity: 1; stroke-width: 1px;"/></g><g class="y"><path class="ygrid crisp" transform="translate(0,43.43)" d="M49,0h277" style="stroke: rgb(255, 255, 255); stroke-opacity: 1; stroke-width: 1px;"/><path class="ygrid crisp" transform="translate(0,28.95)" d="M49,0h277" style="stroke: rgb(255, 255, 255); stroke-opacity: 1; stroke-width: 1px;"/><path class="ygrid crisp" transform="translate(0,14.48)" d="M49,0h277" style="stroke: rgb(255, 255, 255); stroke-opacity: 1; stroke-width: 1px;"/></g></g><g class="zerolinelayer"><path class="xzl zl crisp" transform="translate(166.03,0)" d="M0,0v57.900000000000006" style="stroke: rgb(255, 255, 255); stroke-opacity: 1; stroke-width: 2px;"/><path class="yzl zl crisp" transform="" d="M49,0h277" style="stroke: rgb(255, 255, 255); stroke-opacity: 1; stroke-width: 2px;"/></g><g class="layer-between"><g class="shapelayer"/><g class="imagelayer"/></g><path class="xlines-below"/><path class="ylines-below"/><g class="overlines-below"/><g class="xaxislayer-below"/><g class="yaxislayer-below"/><g class="overaxes-below"/><g class="overplot"><g class="xy" transform="translate(49,0)" clip-path="url(#clipb69fcaxyplot)"><g class="scatterlayer mlayer"><g class="trace scatter tracedeb569" style="stroke-miterlimit: 2; opacity: 1;"><g class="fills"/><g class="errorbars"/><g class="lines"><path class="js-line" d="M147.56,3.47L184.2,3.47" style="vector-effect: none; fill: none; stroke: rgb(120, 120, 120); stroke-opacity: 1; stroke-width: 7px; opacity: 1;"/><path class="js-line" d="M147.56,25.48L184.2,25.48" style="vector-effect: none; fill: none; stroke: rgb(120, 120, 120); stroke-opacity: 1; stroke-width: 7px; opacity: 1;"/></g><g class="points"/><g class="text"/></g><g class="trace scatter trace9bc1bd" style="stroke-miterlimit: 2; opacity: 1;"><g class="fills"/><g class="errorbars"/><g class="lines"/><g class="points"/><g class="text"><g class="textpoint" transform="translate(0,3)"><text x="160.99" y="12.16" text-anchor="middle" style="font-family: 'Open Sans', verdana, arial, sans-serif; font-size: 12px; fill: rgb(42, 63, 95); fill-opacity: 1; white-space: pre;">Stop</text></g></g></g><g class="trace scatter trace165395" style="stroke-miterlimit: 2; opacity: 1;"><g class="fills"/><g class="errorbars"/><g class="lines"/><g class="points"/><g class="text"><g class="textpoint" transform="translate(0,5)"><text x="160.99" y="18.82" text-anchor="middle" style="font-family: 'Open Sans', verdana, arial, sans-serif; font-size: 20px; fill: rgb(42, 63, 95); fill-opacity: 1; white-space: pre;">→</text></g></g></g><g class="trace scatter trace7eb7e4" style="stroke-miterlimit: 2; opacity: 1;"><g class="fills"/><g class="errorbars"/><g class="lines"/><g class="points"/><g class="text"><g class="textpoint" transform="translate(0,4)"><text x="160.99" y="15.63" text-anchor="middle" style="font-family: 'Open Sans', verdana, arial, sans-serif; font-size: 16px; fill: rgb(64, 202, 114); fill-opacity: 1; font-weight: bold; white-space: pre;">        R</text></g></g></g><g class="trace scatter tracec87815" style="stroke-miterlimit: 2; opacity: 1;"><g class="fills"/><g class="errorbars"/><g class="lines"><path class="js-line" d="M220.83,3.47L257.46,3.47" style="vector-effect: none; fill: none; stroke: rgb(190, 190, 190); stroke-opacity: 1; stroke-width: 7px; opacity: 1;"/><path class="js-line" d="M220.83,25.48L257.46,25.48" style="vector-effect: none; fill: none; stroke: rgb(190, 190, 190); stroke-opacity: 1; stroke-width: 7px; opacity: 1;"/></g><g class="points"/><g class="text"/></g><g class="trace scatter traceea337d" style="stroke-miterlimit: 2; opacity: 1;"><g class="fills"/><g class="errorbars"/><g class="lines"/><g class="points"/><g class="text"><g class="textpoint" transform="translate(0,3)"><text x="234.26" y="12.16" text-anchor="middle" style="font-family: 'Open Sans', verdana, arial, sans-serif; font-size: 12px; fill: rgb(42, 63, 95); fill-opacity: 1; white-space: pre;">Stop</text></g></g></g><g class="trace scatter tracea1634f" style="stroke-miterlimit: 2; opacity: 1;"><g class="fills"/><g class="errorbars"/><g class="lines"/><g class="points"/><g class="text"><g class="textpoint" transform="translate(0,5)"><text x="234.26" y="18.82" text-anchor="middle" style="font-family: 'Open Sans', verdana, arial, sans-serif; font-size: 20px; fill: rgb(42, 63, 95); fill-opacity: 1; white-space: pre;">→</text></g></g></g><g class="trace scatter tracefc1f73" style="stroke-miterlimit: 2; opacity: 1;"><g class="fills"/><g class="errorbars"/><g class="lines"/><g class="points"/><g class="text"><g class="textpoint" transform="translate(0,4)"><text x="234.26" y="15.63" text-anchor="middle" style="font-family: 'Open Sans', verdana, arial, sans-serif; font-size: 16px; fill: rgb(64, 202, 114); fill-opacity: 1; font-weight: bold; white-space: pre;">        R</text></g></g></g><g class="trace scatter trace5a0cbd" style="stroke-miterlimit: 2; opacity: 1;"><g class="fills"/><g class="errorbars"/><g class="lines"><path class="js-line" d="M147.56,32.42L184.2,32.42" style="vector-effect: none; fill: none; stroke: rgb(120, 120, 120); stroke-opacity: 1; stroke-width: 7px; opacity: 1;"/><path class="js-line" d="M147.56,54.43L184.2,54.43" style="vector-effect: none; fill: none; stroke: rgb(120, 120, 120); stroke-opacity: 1; stroke-width: 7px; opacity: 1;"/></g><g class="points"/><g class="text"/></g><g class="trace scatter tracea75706" style="stroke-miterlimit: 2; opacity: 1;"><g class="fills"/><g class="errorbars"/><g class="lines"/><g class="points"/><g class="text"><g class="textpoint" transform="translate(0,3)"><text x="160.99" y="41.11" text-anchor="middle" style="font-family: 'Open Sans', verdana, arial, sans-serif; font-size: 12px; fill: rgb(42, 63, 95); fill-opacity: 1; white-space: pre;">Stop</text></g></g></g><g class="trace scatter trace28f123" style="stroke-miterlimit: 2; opacity: 1;"><g class="fills"/><g class="errorbars"/><g class="lines"/><g class="points"/><g class="text"><g class="textpoint" transform="translate(0,5)"><text x="160.99" y="47.77" text-anchor="middle" style="font-family: 'Open Sans', verdana, arial, sans-serif; font-size: 20px; fill: rgb(42, 63, 95); fill-opacity: 1; white-space: pre;">→</text></g></g></g><g class="trace scatter trace90a464" style="stroke-miterlimit: 2; opacity: 1;"><g class="fills"/><g class="errorbars"/><g class="lines"/><g class="points"/><g class="text"><g class="textpoint" transform="translate(0,4)"><text x="160.99" y="44.58" text-anchor="middle" style="font-family: 'Open Sans', verdana, arial, sans-serif; font-size: 16px; fill: rgb(64, 202, 114); fill-opacity: 1; font-weight: bold; white-space: pre;">        R</text></g></g></g><g class="trace scatter traceed6a9e" style="stroke-miterlimit: 2; opacity: 1;"><g class="fills"/><g class="errorbars"/><g class="lines"><path class="js-line" d="M220.83,32.42L257.46,32.42" style="vector-effect: none; fill: none; stroke: rgb(190, 190, 190); stroke-opacity: 1; stroke-width: 7px; opacity: 1;"/><path class="js-line" d="M220.83,54.43L257.46,54.43" style="vector-effect: none; fill: none; stroke: rgb(190, 190, 190); stroke-opacity: 1; stroke-width: 7px; opacity: 1;"/></g><g class="points"/><g class="text"/></g><g class="trace scatter trace4c7c29" style="stroke-miterlimit: 2; opacity: 1;"><g class="fills"/><g class="errorbars"/><g class="lines"/><g class="points"/><g class="text"><g class="textpoint" transform="translate(0,3)"><text x="234.26" y="41.11" text-anchor="middle" style="font-family: 'Open Sans', verdana, arial, sans-serif; font-size: 12px; fill: rgb(42, 63, 95); fill-opacity: 1; white-space: pre;">Stop</text></g></g></g><g class="trace scatter trace4f15a2" style="stroke-miterlimit: 2; opacity: 1;"><g class="fills"/><g class="errorbars"/><g class="lines"/><g class="points"/><g class="text"><g class="textpoint" transform="translate(0,5)"><text x="234.26" y="47.77" text-anchor="middle" style="font-family: 'Open Sans', verdana, arial, sans-serif; font-size: 20px; fill: rgb(42, 63, 95); fill-opacity: 1; white-space: pre;">→</text></g></g></g><g class="trace scatter tracecb6016" style="stroke-miterlimit: 2; opacity: 1;"><g class="fills"/><g class="errorbars"/><g class="lines"/><g class="points"/><g class="text"><g class="textpoint" transform="translate(0,4)"><text x="234.26" y="44.58" text-anchor="middle" style="font-family: 'Open Sans', verdana, arial, sans-serif; font-size: 16px; fill: rgb(64, 202, 114); fill-opacity: 1; font-weight: bold; white-space: pre;">        R</text></g></g></g><g class="trace scatter traceed3495" style="stroke-miterlimit: 2; opacity: 1;"><g class="fills"/><g class="errorbars"/><g class="lines"/><g class="points"/><g class="text"><g class="textpoint" transform="translate(0,-4.799999999999999)"><text x="13.85" y="28.37" text-anchor="start" style="font-family: 'Open Sans', verdana, arial, sans-serif; font-size: 12px; fill: rgb(42, 63, 95); fill-opacity: 1; white-space: pre;"><tspan class="line" dy="0em" x="13.85" y="28.37">50% of</tspan><tspan class="line" dy="1.3em" x="13.85" y="28.37">trials</tspan></text></g></g></g></g></g></g><path class="xlines-above crisp" d="M0,0" style="fill: none; stroke-width: 1px; stroke: rgb(0, 0, 0); stroke-opacity: 0;"/><path class="ylines-above crisp" d="M0,0" style="fill: none;"/><g class="overlines-above"/><g class="xaxislayer-above"><path class="xtick ticks crisp" d="M0,58.900000000000006v5" transform="translate(104.97999999999999,0)" style="stroke: rgb(68, 68, 68); stroke-opacity: 1; stroke-width: 1px;"/><path class="xtick ticks crisp" d="M0,58.900000000000006v5" transform="translate(166.03,0)" style="stroke: rgb(68, 68, 68); stroke-opacity: 1; stroke-width: 1px;"/><path class="xtick ticks crisp" d="M0,58.900000000000006v5" transform="translate(227.09,0)" style="stroke: rgb(68, 68, 68); stroke-opacity: 1; stroke-width: 1px;"/><path class="xtick ticks crisp" d="M0,58.900000000000006v5" transform="translate(288.15,0)" style="stroke: rgb(68, 68, 68); stroke-opacity: 1; stroke-width: 1px;"/></g><g class="yaxislayer-above"/><g class="overaxes-above"/></g><g class="subplot x2y2"><g class="layer-subplot"><g class="shapelayer"/><g class="imagelayer"/></g><g class="minor-gridlayer"><g class="x2"/><g class="y2"/></g><g class="gridlayer"><g class="x2"/><g class="y2"><path class="y2grid crisp" transform="translate(0,114.19)" d="M49,0h277" style="stroke: rgb(211, 211, 211); stroke-opacity: 1; stroke-width: 1px;"/><path class="y2grid crisp" transform="translate(0,73.98)" d="M49,0h277" style="stroke: rgb(211, 211, 211); stroke-opacity: 1; stroke-width: 1px;"/></g></g><g class="zerolinelayer"><path class="y2zl zl crisp" transform="translate(0,154.4)" d="M49,0h277" style="stroke: rgb(211, 211, 211); stroke-opacity: 1; stroke-width: 2px;"/></g><g class="layer-between"><g class="shapelayer"/><g class="imagelayer"/></g><path class="xlines-below"/><path class="ylines-below"/><g class="overlines-below"/><g class="xaxislayer-below"/><g class="yaxislayer-below"/><g class="overaxes-below"/><g class="overplot"><g class="x2y2" transform="translate(49,57.900000000000006)" clip-path="url(#clipb69fcax2y2plot)"><g class="scatterlayer mlayer"><g class="trace scatter tracec1b541" style="stroke-miterlimit: 2; opacity: 1;"><g class="fills"/><g class="errorbars"/><g class="lines"><path class="js-line" d="M13.85,82.71L16.9,86.63L17.51,85.56L19.35,84.57L19.96,84.61L21.18,85.42L21.79,85.75L24.84,83.8L25.45,83.92L27.89,83.49L28.5,83.3L30.34,84.18L30.95,84.49L32.78,85.26L33.39,84.79L38.27,79.66L38.88,78.66L41.33,76.56L41.94,76.63L43.77,77.15L44.38,76.57L45.6,75.45L46.21,75.42L49.87,71.96L50.48,71.95L51.7,69.79L52.32,67.35L54.76,60.7L55.37,60.59L60.25,62.63L60.86,61.96L65.75,55.78L66.36,55.5L68.8,53.66L69.41,52.88L73.68,55.87L74.3,55.79L77.35,55.12L77.96,55.84L81.62,60.97L82.23,60.73L90.78,56.31L91.39,55.61L93.22,54.12L93.83,54.66L96.89,55.77L97.5,56.06L98.11,55.93L98.72,54.95L101.16,53.66L101.77,53.32L106.65,49.3L107.27,48.23L109.71,45.38L110.32,45.27L111.54,45.5L112.15,46.23L114.59,50.14L115.2,50.3L117.03,50.22L117.64,49.79L123.14,43.07L123.75,42.62L124.97,42.53L125.58,42.85L129.86,42.7L130.47,42.07L131.69,42.21L132.3,42.65L135.35,43.63L135.96,43.81L137.79,44.36L138.4,43.61L140.24,42.25L140.85,42.3L144.51,42.91L145.12,42.9L148.17,41.74L148.78,42.42L150.61,43.08L151.23,43.08L154.28,43.5L154.89,44.12L156.72,48.72L157.33,50.58L160.99,59.65L161.6,60.15L164.05,60.5L164.66,62.61L167.1,72.2L167.71,71.21L169.54,68.05L170.15,67.67L171.37,69.43L171.98,70.88L174.43,73.99L175.04,74.22L176.87,75.28L177.48,74.52L179.31,74.86L179.92,75.66L181.75,77.97L182.36,77.79L184.2,78.32L184.81,78.11L186.64,77.9L187.25,77.92L187.86,77.78L188.47,78.69L190.3,80.58L190.91,80.36L192.74,79.76L193.35,79.89L195.19,77.86L195.8,77.25L197.02,77.59L197.63,77.95L199.46,78.9L200.07,78.57L201.29,78.68L201.9,79.64L203.12,80.92L203.73,80.32L204.95,78.48L205.56,76.87L208.62,68.82L209.23,68.24L211.06,69.02L211.67,69.32L214.72,67.71L215.33,67.18L217.17,65.89L217.78,65.99L222.05,66.36L222.66,66.47L231.21,67.81L231.82,69.54L234.26,73.22L234.87,73.75L236.7,76.45L237.31,76.7L238.53,77.13L239.15,77.6L241.59,77.58L242.2,77.6L245.86,78.13L246.47,77.64L248.3,76.94L248.91,77.2L249.52,77.41L250.14,76.68L251.36,76.32L251.97,76.31L256.24,72.72L256.85,71.98L259.29,69.95L259.9,70.22L262.35,70.81L262.96,71.34L264.18,71.9L264.79,71.8L268.45,71.87L269.06,71.5L270.28,71.72L270.89,72.3L273.95,74.92L274.56,77.25L276.39,80.84L277,80.24" style="vector-effect: none; fill: none; stroke: rgb(64, 202, 114); stroke-opacity: 1; stroke-width: 2px; opacity: 1;"/></g><g class="points"/><g class="text"/></g><g class="trace scatter trace7fef8b" style="stroke-miterlimit: 2; opacity: 1;"><g class="fills"><g><path class="js-fill" d="M13.85,81.26L15.68,84.44L16.29,83.25L16.9,81.98L17.51,78.72L19.96,68.83L20.57,68.92L22.4,68.74L23.01,68.75L25.45,63.54L26.06,61.86L29.11,54.92L29.72,54.04L32.17,50.53L32.78,49.47L38.88,38.08L39.49,38.15L41.94,39.64L42.55,40.33L44.38,41.23L44.99,40.9L47.43,37.29L48.04,36.34L50.48,33.73L51.09,33.62L52.93,34.8L53.54,35.56L54.15,35.84L54.76,35.27L58.42,33.41L59.03,33.82L60.25,34.95L60.86,34.81L65.14,33.91L65.75,34.05L66.97,36.75L67.58,36.16L68.8,36.39L69.41,37.19L71.24,39.56L71.85,40.43L73.68,41.69L74.3,41.47L78.57,37.44L79.18,36.19L81.01,34.37L81.62,34.98L84.06,38.57L84.67,39.63L86.51,40.4L87.12,39.9L88.95,38.55L89.56,38.05L91.39,37.66L92,37.91L94.44,39.15L95.05,40.83L96.28,42.17L96.89,42.01L98.72,40.72L99.33,39.83L101.16,38.15L101.77,38.12L102.99,37.89L103.6,36.73L105.43,35.48L106.04,35.67L107.27,36.65L107.88,37.63L110.32,36.19L110.93,36.56L114.59,41.03L115.2,40.75L117.64,40.56L118.26,39.54L120.7,35.26L121.31,35.02L123.75,35.08L124.36,35.26L126.19,35.23L126.8,34.63L130.47,29L131.08,28.65L132.91,28.24L133.52,28.33L139.62,32.43L140.24,32.34L142.07,32.22L142.68,32.38L147.56,35.75L148.17,35.26L150.61,33.64L151.23,36.13L153.06,38.08L153.67,37.85L154.89,37.65L155.5,38.12L156.72,40.85L157.33,40.39L158.55,40.87L159.16,41.65L160.99,44.4L161.6,43.86L162.22,44.21L162.83,45.74L167.1,60.97L167.71,61.98L169.54,62.74L170.15,63.92L172.59,66.41L173.21,67.05L176.26,70.7L176.87,70.08L178.09,69.87L178.7,70.79L181.75,74.36L182.36,75.97L184.2,73.89L184.81,74.09L186.03,74.62L186.64,75.59L189.08,76.5L189.69,76.15L192.74,69.69L193.35,69.52L195.19,69.98L195.8,69.7L197.63,66.57L198.24,66.09L200.68,64.47L201.29,64.4L202.51,65.21L203.12,66.29L204.34,68.08L204.95,67.44L207.4,66.01L208.01,65.37L211.06,60.09L211.67,59.81L214.11,60.47L214.72,59.93L217.78,56.79L218.39,56.91L219.61,57.04L220.22,57.55L223.27,59.96L223.88,60.1L226.32,60.02L226.93,60.19L228.77,61.43L229.38,62.45L230.6,62.58L231.21,63.85L233.04,65.03L233.65,64.19L234.87,62.84L235.48,64.12L237.31,67.45L237.92,67.7L240.37,69.19L240.98,69.82L242.2,68.81L242.81,68.1L244.03,69.31L244.64,67.71L245.86,65.68L246.47,65.59L248.91,65.57L249.52,65.8L250.14,65.84L250.75,67.1L251.97,69.66L252.58,69.1L253.8,69.58L254.41,69.87L255.63,70.72L256.24,72.04L258.68,67.44L259.29,68.12L261.13,67.64L261.74,68.45L262.96,69.69L263.57,69.64L266.62,70.74L267.23,70.97L269.67,67.76L270.28,67.61L273.95,71.42L274.56,73.87L276.39,78.87L277,77.28L277,83.19L276.39,82.31L275.78,84.58L273.34,82.23L272.73,82.73L272.12,83.4L271.5,82.17L269.06,76.96L268.45,78.94L267.23,81.53L266.62,81.32L264.18,80.19L263.57,80.34L262.35,80.45L261.74,79.91L259.29,76.79L258.68,78.18L258.07,79L257.46,77.24L254.41,83.89L253.8,83.86L252.58,83.45L251.97,84.61L250.14,86.54L249.52,86.24L247.69,86.95L247.08,86.71L245.25,85.64L244.64,86.01L243.42,83.85L242.81,83.93L241.59,83.35L240.98,82.51L239.15,80.65L238.53,80.91L237.31,81.38L236.7,82.27L230.6,76.49L229.99,77.75L228.16,76L227.54,75.97L225.71,76.95L225.1,77.71L224.49,78.39L223.88,77.26L223.27,78.22L222.66,80.7L221.44,84.11L220.83,84.66L219.61,84.99L219,84.51L217.17,80.93L216.55,81.27L214.72,81.34L214.11,80.75L211.67,77.4L211.06,77.29L209.84,77.21L209.23,78.34L208.01,81.32L207.4,83.72L205.56,86.39L204.95,87.01L203.73,87.86L203.12,87.72L201.29,87.85L200.68,87.44L198.85,88.16L198.24,87.74L196.41,86.3L195.8,84.93L193.96,83.99L193.35,83.99L190.91,85.7L190.3,84.95L189.08,83.31L188.47,84.26L187.25,85.89L186.64,84.82L186.03,84.18L185.42,84.78L184.2,84.5L183.58,83.55L182.36,81.09L181.75,80.05L181.14,80.08L180.53,81.6L178.09,83.13L177.48,82.59L176.26,79.45L175.65,80.88L174.43,84.43L173.82,84.15L169.54,83.75L168.93,82.36L166.49,78.07L165.88,75.73L164.05,70.63L163.44,69.95L160.38,66.53L159.77,66.3L154.28,63.68L153.67,63.7L150.61,63.5L150,63.07L146.95,61.8L146.34,61.74L142.68,61.43L142.07,61.74L139.62,62.75L139.01,62.73L135.96,63.04L135.35,62.91L132.91,63.17L132.3,63.46L126.19,66.9L125.58,68.57L123.14,72.79L122.53,73.36L118.26,81.05L117.64,81.64L116.42,80.16L115.81,79.13L112.76,76.19L112.15,75.67L110.93,72.66L110.32,70.91L108.49,67.81L107.88,68.09L106.65,69.52L106.04,70.9L105.43,71.28L104.82,73.12L103.6,75.85L102.99,75.92L101.77,75.07L101.16,73.99L98.11,68.91L97.5,68.74L96.28,68.83L95.66,71.49L92,88.87L91.39,89.2L90.78,88.87L90.17,87.01L89.56,87.98L88.95,87.33L87.12,85.35L86.51,85.15L84.06,85.95L83.45,85.69L79.18,82.9L78.57,82.31L76.13,81.81L75.52,80.9L74.91,81.69L74.3,83.82L72.46,87.57L71.85,88.26L71.24,88.2L70.63,87.02L68.19,83.18L67.58,83.32L65.75,83.68L65.14,83.6L62.69,83.25L62.08,83.51L61.47,83.59L60.86,84.53L55.98,91.08L55.37,90.08L54.15,89.89L53.54,89.85L49.87,91.75L49.26,91.47L48.04,91.82L47.43,92.46L44.38,90.49L43.77,90.36L41.33,89.54L40.71,90.66L39.49,91.2L38.88,90.75L37.66,90.78L37.05,91.44L35.83,92.3L35.22,91.1L32.78,91.03L32.17,90.8L30.95,91.83L30.34,91.61L29.11,91.3L28.5,91.84L27.89,92.86L27.28,92.24L25.45,89.92L24.84,89.94L21.79,91.9L21.18,91.71L20.57,91.18L19.96,91.77L18.73,91.9L18.12,91.27L16.9,91.45L16.29,89.8L15.07,87.41L14.46,87.58L13.85,86.71Z" style="fill: rgb(64, 202, 114); fill-opacity: 0.3; stroke-width: 0;"/></g></g><g class="errorbars"/><g class="lines"><path class="js-line" d="M13.85,81.26L15.68,84.44L16.29,83.25L16.9,81.98L17.51,78.72L19.96,68.83L20.57,68.92L22.4,68.74L23.01,68.75L25.45,63.54L26.06,61.86L29.11,54.92L29.72,54.04L32.17,50.53L32.78,49.47L38.88,38.08L39.49,38.15L41.94,39.64L42.55,40.33L44.38,41.23L44.99,40.9L47.43,37.29L48.04,36.34L50.48,33.73L51.09,33.62L52.93,34.8L53.54,35.56L54.15,35.84L54.76,35.27L58.42,33.41L59.03,33.82L60.25,34.95L60.86,34.81L65.14,33.91L65.75,34.05L66.97,36.75L67.58,36.16L68.8,36.39L69.41,37.19L71.24,39.56L71.85,40.43L73.68,41.69L74.3,41.47L78.57,37.44L79.18,36.19L81.01,34.37L81.62,34.98L84.06,38.57L84.67,39.63L86.51,40.4L87.12,39.9L88.95,38.55L89.56,38.05L91.39,37.66L92,37.91L94.44,39.15L95.05,40.83L96.28,42.17L96.89,42.01L98.72,40.72L99.33,39.83L101.16,38.15L101.77,38.12L102.99,37.89L103.6,36.73L105.43,35.48L106.04,35.67L107.27,36.65L107.88,37.63L110.32,36.19L110.93,36.56L114.59,41.03L115.2,40.75L117.64,40.56L118.26,39.54L120.7,35.26L121.31,35.02L123.75,35.08L124.36,35.26L126.19,35.23L126.8,34.63L130.47,29L131.08,28.65L132.91,28.24L133.52,28.33L139.62,32.43L140.24,32.34L142.07,32.22L142.68,32.38L147.56,35.75L148.17,35.26L150.61,33.64L151.23,36.13L153.06,38.08L153.67,37.85L154.89,37.65L155.5,38.12L156.72,40.85L157.33,40.39L158.55,40.87L159.16,41.65L160.99,44.4L161.6,43.86L162.22,44.21L162.83,45.74L167.1,60.97L167.71,61.98L169.54,62.74L170.15,63.92L172.59,66.41L173.21,67.05L176.26,70.7L176.87,70.08L178.09,69.87L178.7,70.79L181.75,74.36L182.36,75.97L184.2,73.89L184.81,74.09L186.03,74.62L186.64,75.59L189.08,76.5L189.69,76.15L192.74,69.69L193.35,69.52L195.19,69.98L195.8,69.7L197.63,66.57L198.24,66.09L200.68,64.47L201.29,64.4L202.51,65.21L203.12,66.29L204.34,68.08L204.95,67.44L207.4,66.01L208.01,65.37L211.06,60.09L211.67,59.81L214.11,60.47L214.72,59.93L217.78,56.79L218.39,56.91L219.61,57.04L220.22,57.55L223.27,59.96L223.88,60.1L226.32,60.02L226.93,60.19L228.77,61.43L229.38,62.45L230.6,62.58L231.21,63.85L233.04,65.03L233.65,64.19L234.87,62.84L235.48,64.12L237.31,67.45L237.92,67.7L240.37,69.19L240.98,69.82L242.2,68.81L242.81,68.1L244.03,69.31L244.64,67.71L245.86,65.68L246.47,65.59L248.91,65.57L249.52,65.8L250.14,65.84L250.75,67.1L251.97,69.66L252.58,69.1L253.8,69.58L254.41,69.87L255.63,70.72L256.24,72.04L258.68,67.44L259.29,68.12L261.13,67.64L261.74,68.45L262.96,69.69L263.57,69.64L266.62,70.74L267.23,70.97L269.67,67.76L270.28,67.61L273.95,71.42L274.56,73.87L276.39,78.87L277,77.28L277,83.19L276.39,82.31L275.78,84.58L273.34,82.23L272.73,82.73L272.12,83.4L271.5,82.17L269.06,76.96L268.45,78.94L267.23,81.53L266.62,81.32L264.18,80.19L263.57,80.34L262.35,80.45L261.74,79.91L259.29,76.79L258.68,78.18L258.07,79L257.46,77.24L254.41,83.89L253.8,83.86L252.58,83.45L251.97,84.61L250.14,86.54L249.52,86.24L247.69,86.95L247.08,86.71L245.25,85.64L244.64,86.01L243.42,83.85L242.81,83.93L241.59,83.35L240.98,82.51L239.15,80.65L238.53,80.91L237.31,81.38L236.7,82.27L230.6,76.49L229.99,77.75L228.16,76L227.54,75.97L225.71,76.95L225.1,77.71L224.49,78.39L223.88,77.26L223.27,78.22L222.66,80.7L221.44,84.11L220.83,84.66L219.61,84.99L219,84.51L217.17,80.93L216.55,81.27L214.72,81.34L214.11,80.75L211.67,77.4L211.06,77.29L209.84,77.21L209.23,78.34L208.01,81.32L207.4,83.72L205.56,86.39L204.95,87.01L203.73,87.86L203.12,87.72L201.29,87.85L200.68,87.44L198.85,88.16L198.24,87.74L196.41,86.3L195.8,84.93L193.96,83.99L193.35,83.99L190.91,85.7L190.3,84.95L189.08,83.31L188.47,84.26L187.25,85.89L186.64,84.82L186.03,84.18L185.42,84.78L184.2,84.5L183.58,83.55L182.36,81.09L181.75,80.05L181.14,80.08L180.53,81.6L178.09,83.13L177.48,82.59L176.26,79.45L175.65,80.88L174.43,84.43L173.82,84.15L169.54,83.75L168.93,82.36L166.49,78.07L165.88,75.73L164.05,70.63L163.44,69.95L160.38,66.53L159.77,66.3L154.28,63.68L153.67,63.7L150.61,63.5L150,63.07L146.95,61.8L146.34,61.74L142.68,61.43L142.07,61.74L139.62,62.75L139.01,62.73L135.96,63.04L135.35,62.91L132.91,63.17L132.3,63.46L126.19,66.9L125.58,68.57L123.14,72.79L122.53,73.36L118.26,81.05L117.64,81.64L116.42,80.16L115.81,79.13L112.76,76.19L112.15,75.67L110.93,72.66L110.32,70.91L108.49,67.81L107.88,68.09L106.65,69.52L106.04,70.9L105.43,71.28L104.82,73.12L103.6,75.85L102.99,75.92L101.77,75.07L101.16,73.99L98.11,68.91L97.5,68.74L96.28,68.83L95.66,71.49L92,88.87L91.39,89.2L90.78,88.87L90.17,87.01L89.56,87.98L88.95,87.33L87.12,85.35L86.51,85.15L84.06,85.95L83.45,85.69L79.18,82.9L78.57,82.31L76.13,81.81L75.52,80.9L74.91,81.69L74.3,83.82L72.46,87.57L71.85,88.26L71.24,88.2L70.63,87.02L68.19,83.18L67.58,83.32L65.75,83.68L65.14,83.6L62.69,83.25L62.08,83.51L61.47,83.59L60.86,84.53L55.98,91.08L55.37,90.08L54.15,89.89L53.54,89.85L49.87,91.75L49.26,91.47L48.04,91.82L47.43,92.46L44.38,90.49L43.77,90.36L41.33,89.54L40.71,90.66L39.49,91.2L38.88,90.75L37.66,90.78L37.05,91.44L35.83,92.3L35.22,91.1L32.78,91.03L32.17,90.8L30.95,91.83L30.34,91.61L29.11,91.3L28.5,91.84L27.89,92.86L27.28,92.24L25.45,89.92L24.84,89.94L21.79,91.9L21.18,91.71L20.57,91.18L19.96,91.77L18.73,91.9L18.12,91.27L16.9,91.45L16.29,89.8L15.07,87.41L14.46,87.58L13.85,86.71" style="vector-effect: none; fill: none; stroke: rgb(0, 0, 0); stroke-opacity: 0; stroke-width: 2px; opacity: 1;"/></g><g class="points"/><g class="text"/></g><g class="trace scatter trace7fb2ab" style="stroke-miterlimit: 2; opacity: 1;"><g class="fills"/><g class="errorbars"/><g class="lines"><path class="js-line" d="M13.85,70.75L16.9,78.31L17.51,76.6L19.96,78.35L20.57,77.71L27.28,67.79L27.89,67.52L30.95,66.99L31.56,67.34L33.39,66.65L34,66.25L36.44,64.71L37.05,64.14L38.88,63.69L39.49,63.64L43.16,63.33L43.77,63.02L45.6,62.6L46.21,63.56L48.65,68.52L49.26,68.81L51.7,68.93L52.32,67.54L54.76,60.55L55.37,59.64L58.42,57.99L59.03,58.36L62.08,58.21L62.69,57.9L65.14,55.39L65.75,54.61L70.02,50.95L70.63,50.91L72.46,51.66L73.07,52.17L77.35,54.97L77.96,55.15L86.51,56.15L87.12,56.72L90.78,59.06L91.39,59.19L93.22,58.41L93.83,58.09L96.89,56.15L97.5,56.07L99.33,55.5L99.94,54.91L105.43,49.48L106.04,48.83L107.88,47.68L108.49,47.54L115.2,44.7L115.81,44.2L117.64,43.81L118.26,44.07L119.48,47.34L120.09,49.87L122.53,54.68L123.14,55.13L124.36,54.87L124.97,53.57L127.41,45.63L128.02,45.04L129.25,48.3L129.86,50.06L131.69,51.47L132.3,51.58L133.52,51.24L134.13,50.58L137.18,39.56L137.79,38.83L139.62,38.6L140.24,38.92L143.9,40.68L144.51,40.72L148.17,39.88L148.78,40.18L151.23,41.28L151.84,42.12L154.28,47.02L154.89,48.7L159.16,60.09L159.77,61.28L167.71,73.02L168.32,73.61L171.37,78.41L171.98,79.71L173.82,82.01L174.43,82.4L176.26,82.15L176.87,81.33L179.31,79.01L179.92,79.05L181.14,78.97L181.75,78.46L187.86,70.36L188.47,70.02L189.69,69.91L190.3,70.39L191.52,71.03L192.13,70.77L193.96,69.79L194.57,69.77L195.8,69.57L196.41,69.05L198.24,68.35L198.85,68.59L203.12,71.96L203.73,72L205.56,71.96L206.18,72.9L209.84,75.94L210.45,76.37L211.67,76.68L212.28,75.94L217.17,77.46L217.78,77.52L220.83,77.95L221.44,78.27L223.27,78.73L223.88,78.56L225.1,77.15L225.71,76.57L229.38,76.52L229.99,76.82L231.82,77.41L232.43,77.25L234.87,76.15L235.48,76.49L237.31,79.09L237.92,80.05L241.59,86.65L242.2,86.85L243.42,85.33L244.03,83.93L247.08,75.49L247.69,75.55L250.14,77.22L250.75,77.9L253.19,80.13L253.8,79.12L256.24,75.94L256.85,75.91L258.68,75.74L259.29,75.37L261.13,75.05L261.74,75.18L266.01,74.7L266.62,74.48L267.84,74.13L268.45,74.71L275.17,81.65L275.78,81.95" style="vector-effect: none; fill: none; stroke: rgb(44, 222, 110); stroke-opacity: 1; stroke-width: 2px; opacity: 1;"/></g><g class="points"/><g class="text"/></g><g class="trace scatter trace1432a7" style="stroke-miterlimit: 2; opacity: 1;"><g class="fills"><g><path class="js-fill" d="M13.85,61.01L15.68,72.83L16.29,73.23L16.9,72.32L17.51,69.78L19.35,71.29L19.96,71.01L21.79,67.18L22.4,65.56L27.89,53.14L28.5,52.8L30.95,52.37L31.56,52.73L33.39,51.83L34,51.31L38.88,47.13L39.49,47.13L41.94,47.28L42.55,47.19L43.77,46.64L44.38,46.18L45.6,45.7L46.21,47.43L48.65,55.45L49.26,55.69L51.7,56.37L52.32,54.27L54.76,42.44L55.37,41.2L58.42,38.2L59.03,38.14L60.86,38.27L61.47,38.72L62.69,38.68L63.31,38.43L65.14,36.85L65.75,36.15L68.8,32.55L69.41,32.2L71.24,32.13L71.85,32.56L77.96,39.56L78.57,39.5L80.4,38.72L81.01,38.16L82.84,37.44L83.45,37.58L85.9,39.51L86.51,40.28L89.56,43.82L90.17,43.68L92.61,42.42L93.22,41.93L95.66,40.29L96.28,40.43L98.11,41.68L98.72,42.02L100.55,42.35L101.16,42.08L104.21,39.06L104.82,38.39L107.88,35.77L108.49,35.73L114.59,35.01L115.2,34.32L117.64,32.71L118.26,32.47L118.87,33.16L119.48,35.5L121.31,41.32L121.92,42.02L123.75,43.26L124.36,43.23L124.97,42.17L125.58,39.46L127.41,33.64L128.02,33.68L131.08,45.54L131.69,46.17L133.52,46.95L134.13,46.24L137.18,30.44L137.79,29.38L139.62,28.5L140.24,28.86L144.51,31.65L145.12,31.6L150.61,28.52L151.23,29.02L153.06,33.46L153.67,35.76L159.16,58.02L159.77,57.82L161.6,56.51L162.22,56.83L163.44,58.72L164.05,60.93L165.88,67.86L166.49,68.06L168.32,69.37L168.93,70.37L173.21,80.35L173.82,80.47L175.65,80L176.26,79.31L177.48,77.52L178.09,77.62L178.7,78.01L179.31,77.1L182.36,71.97L182.97,71.47L184.81,68.91L185.42,66.9L186.64,66.4L187.25,66.47L190.3,68.93L190.91,69.77L192.74,69.91L193.35,69.29L197.63,64.54L198.24,64.73L200.07,67.23L200.68,68.25L202.51,69.82L203.12,69.81L206.79,68.84L207.4,69.05L212.89,72.08L213.5,72.27L215.94,73.67L216.55,74.23L220.22,75.68L220.83,75.66L223.27,77.12L223.88,76.73L225.1,75.59L225.71,74.4L227.54,74.06L228.16,74.1L229.38,74.63L229.99,75.49L231.21,76.15L231.82,74.98L234.26,71.5L234.87,71.59L237.92,77.25L238.53,78.45L240.98,84.36L241.59,84.21L242.81,82.61L243.42,80.66L246.47,70.4L247.08,69.38L248.3,68.68L248.91,69.25L252.58,75.3L253.19,75.26L254.41,73.24L255.02,71.51L256.24,69.68L256.85,69.94L259.29,72.29L259.9,72.14L261.74,70.37L262.35,69.07L264.79,64.33L265.4,64.5L267.23,68.05L267.84,69.63L270.28,73.92L270.89,74.44L273.34,76.53L273.95,78.1L275.78,82.7L275.17,82.89L273.95,83.39L273.34,81.84L267.84,78.76L267.23,79.75L266.01,81.33L265.4,81.31L260.51,79.1L259.9,79.77L258.07,81.3L257.46,81.4L254.41,81.36L253.8,81.19L252.58,82.26L251.97,81.52L250.14,80.15L249.52,80.06L247.69,79.46L247.08,79.12L245.86,82.34L245.25,84.75L242.81,88.32L242.2,88.34L239.76,87.11L239.15,86.27L237.31,85.01L236.7,84.1L235.48,83.57L234.87,83.69L233.04,82.63L232.43,81.82L230.6,79.27L229.99,79.09L227.54,81.89L226.93,81.78L222.66,79.59L222.05,79.61L217.78,78.83L217.17,78.86L212.89,78.48L212.28,78.12L211.06,79.16L210.45,78.8L206.18,74.87L205.56,73.39L202.51,73.32L201.9,73.73L200.68,74.38L200.07,73.93L197.02,70.43L196.41,70.88L195.19,71.26L194.57,70.9L193.35,70.24L192.74,70.6L191.52,72.72L190.91,72.45L189.69,70.81L189.08,71.17L184.81,76.28L184.2,77.4L181.14,81.61L180.53,81.35L178.7,79.86L178.09,80.78L175.65,85.42L175.04,85.31L171.98,83.18L171.37,83.15L169.54,81.61L168.93,81.77L167.1,80.96L166.49,80.16L157.94,61.36L157.33,61.27L154.89,61.89L154.28,62.64L152.45,63.99L151.84,63.93L150,61.68L149.39,60.64L146.34,55.37L145.73,55.44L142.68,56.63L142.07,56.36L140.85,56.13L140.24,56.12L136.57,56.06L135.96,56.57L130.47,60.92L129.86,60.88L128.63,62.96L128.02,64.68L123.75,77.6L123.14,77.64L121.92,75.39L121.31,73.58L117.03,62.22L116.42,62.22L114.59,63.25L113.98,63.96L112.15,64.62L111.54,64.78L109.71,66.57L109.1,67.32L107.27,68.16L106.65,68.33L102.99,71.53L102.38,72.32L99.94,76.77L99.33,78.76L93.83,89.15L93.22,88.89L92,89.2L91.39,88.58L88.34,85L87.73,84.92L84.67,86.38L84.06,87.29L82.84,88.64L82.23,88.59L79.79,85.05L79.18,85.02L76.13,85.09L75.52,85.75L73.07,86.63L72.46,86.37L70.02,86.08L69.41,85.74L66.36,87.49L65.75,87.29L59.64,92.72L59.03,92.11L57.81,90.83L57.2,91.07L54.15,91.3L53.54,90.73L52.32,90.07L51.7,90.17L49.87,90.72L49.26,90.83L47.43,89.6L46.82,90.03L44.99,90.82L44.38,90.55L42.55,90.74L41.94,91.05L40.1,91.69L39.49,92.16L38.27,92.71L37.66,92.37L32.78,92.1L32.17,91.74L27.89,91.83L27.28,91.69L26.06,90.07L25.45,90.64L24.23,91.36L23.62,90.65L21.79,91.09L21.18,90.43L19.35,90.69L18.73,89.92L16.9,88.9L16.29,83.33L13.85,75.34Z" style="fill: rgb(44, 222, 110); fill-opacity: 0.3; stroke-width: 0;"/></g></g><g class="errorbars"/><g class="lines"><path class="js-line" d="M13.85,61.01L15.68,72.83L16.29,73.23L16.9,72.32L17.51,69.78L19.35,71.29L19.96,71.01L21.79,67.18L22.4,65.56L27.89,53.14L28.5,52.8L30.95,52.37L31.56,52.73L33.39,51.83L34,51.31L38.88,47.13L39.49,47.13L41.94,47.28L42.55,47.19L43.77,46.64L44.38,46.18L45.6,45.7L46.21,47.43L48.65,55.45L49.26,55.69L51.7,56.37L52.32,54.27L54.76,42.44L55.37,41.2L58.42,38.2L59.03,38.14L60.86,38.27L61.47,38.72L62.69,38.68L63.31,38.43L65.14,36.85L65.75,36.15L68.8,32.55L69.41,32.2L71.24,32.13L71.85,32.56L77.96,39.56L78.57,39.5L80.4,38.72L81.01,38.16L82.84,37.44L83.45,37.58L85.9,39.51L86.51,40.28L89.56,43.82L90.17,43.68L92.61,42.42L93.22,41.93L95.66,40.29L96.28,40.43L98.11,41.68L98.72,42.02L100.55,42.35L101.16,42.08L104.21,39.06L104.82,38.39L107.88,35.77L108.49,35.73L114.59,35.01L115.2,34.32L117.64,32.71L118.26,32.47L118.87,33.16L119.48,35.5L121.31,41.32L121.92,42.02L123.75,43.26L124.36,43.23L124.97,42.17L125.58,39.46L127.41,33.64L128.02,33.68L131.08,45.54L131.69,46.17L133.52,46.95L134.13,46.24L137.18,30.44L137.79,29.38L139.62,28.5L140.24,28.86L144.51,31.65L145.12,31.6L150.61,28.52L151.23,29.02L153.06,33.46L153.67,35.76L159.16,58.02L159.77,57.82L161.6,56.51L162.22,56.83L163.44,58.72L164.05,60.93L165.88,67.86L166.49,68.06L168.32,69.37L168.93,70.37L173.21,80.35L173.82,80.47L175.65,80L176.26,79.31L177.48,77.52L178.09,77.62L178.7,78.01L179.31,77.1L182.36,71.97L182.97,71.47L184.81,68.91L185.42,66.9L186.64,66.4L187.25,66.47L190.3,68.93L190.91,69.77L192.74,69.91L193.35,69.29L197.63,64.54L198.24,64.73L200.07,67.23L200.68,68.25L202.51,69.82L203.12,69.81L206.79,68.84L207.4,69.05L212.89,72.08L213.5,72.27L215.94,73.67L216.55,74.23L220.22,75.68L220.83,75.66L223.27,77.12L223.88,76.73L225.1,75.59L225.71,74.4L227.54,74.06L228.16,74.1L229.38,74.63L229.99,75.49L231.21,76.15L231.82,74.98L234.26,71.5L234.87,71.59L237.92,77.25L238.53,78.45L240.98,84.36L241.59,84.21L242.81,82.61L243.42,80.66L246.47,70.4L247.08,69.38L248.3,68.68L248.91,69.25L252.58,75.3L253.19,75.26L254.41,73.24L255.02,71.51L256.24,69.68L256.85,69.94L259.29,72.29L259.9,72.14L261.74,70.37L262.35,69.07L264.79,64.33L265.4,64.5L267.23,68.05L267.84,69.63L270.28,73.92L270.89,74.44L273.34,76.53L273.95,78.1L275.78,82.7L275.17,82.89L273.95,83.39L273.34,81.84L267.84,78.76L267.23,79.75L266.01,81.33L265.4,81.31L260.51,79.1L259.9,79.77L258.07,81.3L257.46,81.4L254.41,81.36L253.8,81.19L252.58,82.26L251.97,81.52L250.14,80.15L249.52,80.06L247.69,79.46L247.08,79.12L245.86,82.34L245.25,84.75L242.81,88.32L242.2,88.34L239.76,87.11L239.15,86.27L237.31,85.01L236.7,84.1L235.48,83.57L234.87,83.69L233.04,82.63L232.43,81.82L230.6,79.27L229.99,79.09L227.54,81.89L226.93,81.78L222.66,79.59L222.05,79.61L217.78,78.83L217.17,78.86L212.89,78.48L212.28,78.12L211.06,79.16L210.45,78.8L206.18,74.87L205.56,73.39L202.51,73.32L201.9,73.73L200.68,74.38L200.07,73.93L197.02,70.43L196.41,70.88L195.19,71.26L194.57,70.9L193.35,70.24L192.74,70.6L191.52,72.72L190.91,72.45L189.69,70.81L189.08,71.17L184.81,76.28L184.2,77.4L181.14,81.61L180.53,81.35L178.7,79.86L178.09,80.78L175.65,85.42L175.04,85.31L171.98,83.18L171.37,83.15L169.54,81.61L168.93,81.77L167.1,80.96L166.49,80.16L157.94,61.36L157.33,61.27L154.89,61.89L154.28,62.64L152.45,63.99L151.84,63.93L150,61.68L149.39,60.64L146.34,55.37L145.73,55.44L142.68,56.63L142.07,56.36L140.85,56.13L140.24,56.12L136.57,56.06L135.96,56.57L130.47,60.92L129.86,60.88L128.63,62.96L128.02,64.68L123.75,77.6L123.14,77.64L121.92,75.39L121.31,73.58L117.03,62.22L116.42,62.22L114.59,63.25L113.98,63.96L112.15,64.62L111.54,64.78L109.71,66.57L109.1,67.32L107.27,68.16L106.65,68.33L102.99,71.53L102.38,72.32L99.94,76.77L99.33,78.76L93.83,89.15L93.22,88.89L92,89.2L91.39,88.58L88.34,85L87.73,84.92L84.67,86.38L84.06,87.29L82.84,88.64L82.23,88.59L79.79,85.05L79.18,85.02L76.13,85.09L75.52,85.75L73.07,86.63L72.46,86.37L70.02,86.08L69.41,85.74L66.36,87.49L65.75,87.29L59.64,92.72L59.03,92.11L57.81,90.83L57.2,91.07L54.15,91.3L53.54,90.73L52.32,90.07L51.7,90.17L49.87,90.72L49.26,90.83L47.43,89.6L46.82,90.03L44.99,90.82L44.38,90.55L42.55,90.74L41.94,91.05L40.1,91.69L39.49,92.16L38.27,92.71L37.66,92.37L32.78,92.1L32.17,91.74L27.89,91.83L27.28,91.69L26.06,90.07L25.45,90.64L24.23,91.36L23.62,90.65L21.79,91.09L21.18,90.43L19.35,90.69L18.73,89.92L16.9,88.9L16.29,83.33L13.85,75.34" style="vector-effect: none; fill: none; stroke: rgb(0, 0, 0); stroke-opacity: 0; stroke-width: 2px; opacity: 1;"/></g><g class="points"/><g class="text"/></g><g class="trace scatter tracebbc9bc" style="stroke-miterlimit: 2; opacity: 1;"><g class="fills"/><g class="errorbars"/><g class="lines"><path class="js-line" d="M13.85,76.6L16.9,90.83L17.51,90.22L18.12,89.52L20.57,87.46L21.18,87.28L22.4,88.16L23.01,87.39L25.45,87.21L26.06,86.21L27.89,84.93L28.5,85.13L29.72,86.45L30.34,87.82L32.17,89.47L32.78,89.64L33.39,89.84L34,88.76L35.83,85.69L36.44,85.72L38.27,85.19L38.88,84.25L46.82,62.84L47.43,62.24L48.65,61.41L49.26,60.22L51.7,57.2L52.32,57.11L54.15,55.37L54.76,54.39L56.59,52.06L57.2,52.51L59.03,53.97L59.64,54.85L64.53,63.17L65.14,63.09L66.36,65.02L66.97,63.9L68.19,61.95L68.8,61.91L69.41,61.58L70.02,59.87L72.46,54.43L73.07,53.16L75.52,49.74L76.13,49.65L77.96,50.61L78.57,51.23L81.01,53.04L81.62,52.66L85.9,47.2L86.51,46.36L88.34,45.25L88.95,44.94L90.78,44.32L91.39,44.21L92.61,45.03L93.22,46.42L93.83,46.89L94.44,46.27L96.28,44.77L96.89,45.15L98.11,45.52L98.72,45.03L99.94,45.31L100.55,46.58L101.77,47.67L102.38,47.43L104.21,45.63L104.82,44.22L107.27,41.96L107.88,42.61L109.1,42.5L109.71,41.93L111.54,40.44L112.15,40.57L114.59,40.98L115.2,41.12L115.81,40.81L116.42,41.49L118.26,42.81L118.87,42.57L120.09,43.03L120.7,43.45L121.92,45.17L122.53,44.95L124.36,42.82L124.97,41.31L126.19,40.55L126.8,41.07L131.08,44.61L131.69,44.89L134.74,47.45L135.35,46.49L140.85,35.47L141.46,35.09L142.07,34.93L142.68,35.58L143.9,36.82L144.51,36.54L145.73,36.42L146.34,36.64L148.78,36.68L149.39,36.57L153.06,34.17L153.67,34.12L155.5,34.34L156.11,33.81L157.33,33.45L157.94,34.43L162.22,46.3L162.83,46.39L164.66,44.23L165.27,43.39L166.49,43.28L167.1,44.63L170.15,51.91L170.76,52.37L171.98,52L172.59,52.88L178.09,58.91L178.7,60.56L181.14,65.18L181.75,66.24L183.58,68.57L184.2,68.2L189.08,65.01L189.69,64.27L191.52,59.34L192.13,57.09L195.19,48.02L195.8,47.56L197.02,47.45L197.63,47.01L202.51,42.74L203.12,42.29L205.56,40.47L206.18,40.17L208.01,38.17L208.62,37.23L212.89,31.64L213.5,31.63L215.33,31.97L215.94,31.53L217.78,30.5L218.39,30.55L221.44,29.79L222.05,30.19L224.49,32.03L225.1,31.81L228.77,30.65L229.38,30.85L229.99,31.3L230.6,32.81L231.82,34.62L232.43,34.61L233.65,34.75L234.26,36.02L235.48,37.58L236.09,37.46L237.92,37.38L238.53,37.69L239.15,37.87L239.76,38.83L243.42,46.5L244.03,46.44L245.86,43.59L246.47,42.56L250.75,39.15L251.36,39.72L254.41,42.92L255.02,42.99L256.24,41.76L256.85,40.83L259.29,38L259.9,37.44L262.96,35.95L263.57,36.2L268.45,39.48L269.06,39.76L272.73,42.68L273.34,43.71L273.95,44.76L274.56,47.49L275.78,57.78L276.39,50.82L277,51.4" style="vector-effect: none; fill: none; stroke: rgb(205, 20, 20); stroke-opacity: 1; stroke-width: 2px; opacity: 1;"/></g><g class="points"/><g class="text"/></g><g class="trace scatter trace9d7cd6" style="stroke-miterlimit: 2; opacity: 1;"><g class="fills"><g><path class="js-fill" d="M13.85,57.42L15.68,75.41L16.29,76.64L16.9,77.65L17.51,74.31L20.57,65.1L21.18,64.08L25.45,57.46L26.06,56.3L28.5,53.02L29.11,52.32L36.44,41.41L37.05,39.95L40.71,30.82L41.33,31.38L44.99,35.64L45.6,35.54L47.43,33.8L48.04,32.92L50.48,30.22L51.09,30.16L52.32,31.58L52.93,33.17L55.37,40.94L55.98,39.44L57.81,37.15L58.42,36.74L60.25,34.25L60.86,34.06L62.69,35.25L63.31,35.81L65.75,36.65L66.36,36.16L68.19,33.05L68.8,31.66L71.24,28.33L71.85,28.15L72.46,28.18L73.07,29.2L75.52,32.96L76.13,33.13L77.96,32.42L78.57,31.89L81.62,29.92L82.23,30.17L84.67,32.79L85.29,33.58L85.9,33.64L86.51,32.59L88.34,30.46L88.95,30.59L91.39,31.66L92,30.51L95.05,26.18L95.66,25.82L96.89,25.63L97.5,26.02L99.33,26.62L99.94,26.52L100.55,26.86L101.16,28.2L102.99,28.91L103.6,28.54L105.43,25.98L106.04,24.56L106.65,23.97L107.27,26.19L109.1,30.91L109.71,31.72L112.15,33.76L112.76,33.09L114.59,29.86L115.2,30.11L117.64,32.93L118.26,32.59L120.09,36.6L120.7,35.75L123.14,31.42L123.75,32.73L125.58,36.8L126.19,32.87L128.02,27.44L128.63,26.52L130.47,27.25L131.08,28.28L132.91,30.88L133.52,29.67L135.35,28.41L135.96,28.28L137.18,28.82L137.79,29.36L140.24,30.97L140.85,30.76L142.68,27.15L143.29,26.63L145.12,27.23L145.73,25.34L148.17,26.67L148.78,27.05L152.45,24.15L153.06,24.78L156.11,26.92L156.72,27.16L160.99,26.99L161.6,26.77L162.22,26.55L162.83,27.18L165.88,33.02L166.49,34.12L168.32,35.79L168.93,35.51L171.37,33.49L171.98,34.28L174.43,37.88L175.04,38.13L176.26,38.04L176.87,36.99L178.09,36.06L178.7,37.3L180.53,43.12L181.14,42.82L182.97,39.09L183.58,37.39L187.25,33L187.86,32.39L189.69,31.78L190.3,32.02L191.52,33.5L192.13,34.49L193.35,35.7L193.96,35.64L197.02,31.86L197.63,30.7L199.46,28.68L200.07,28.6L203.73,31.79L204.34,31.09L207.4,28.2L208.01,27.63L209.23,26.35L209.84,26L212.28,23.47L212.89,23.13L214.72,23.22L215.33,23.37L215.94,23.68L216.55,24.97L219,25.01L219.61,24.23L221.44,22.46L222.05,22.48L224.49,18.28L225.1,18.52L228.77,22.96L229.38,25.29L230.6,28.41L231.21,28.66L233.65,30.99L234.26,30.16L236.09,25.62L236.7,23.47L237.92,21.09L238.53,20.88L240.37,22.17L240.98,22.78L245.25,26.61L245.86,26.37L248.3,23.77L248.91,22.7L250.14,22.65L250.75,22.08L252.58,21.95L253.19,22.44L256.24,27.35L256.85,23.87L257.46,22.55L258.07,23.19L259.9,25.18L260.51,25.14L263.57,21.83L264.18,22.89L266.01,25.13L266.62,25.31L269.67,27.6L270.28,27.7L272.12,27.1L272.73,26.49L274.56,25.17L275.17,32.02L277,41.58L277,65.62L275.78,80.05L275.17,79.4L274.56,78.37L272.73,74.97L272.12,74.92L269.67,75.49L269.06,75.71L263.57,76.35L262.96,76.67L258.68,87.47L258.07,87.67L256.85,84.59L256.24,82.77L252.58,70.78L251.97,70.22L247.08,70.59L246.47,71.67L244.64,72.95L244.03,72.8L242.2,70.76L241.59,69.75L239.15,64.07L238.53,61.79L235.48,49.17L234.87,48.29L233.04,45.18L232.43,45.82L231.21,46.11L230.6,45.66L229.99,45.82L229.38,47.4L226.32,52.9L225.71,53.42L223.88,52.29L223.27,51.87L218.39,50.44L217.78,49.49L214.11,41.09L213.5,42.77L209.23,53.79L208.62,54.87L204.34,59.83L203.73,61.14L201.9,63.96L201.29,64.2L199.46,63.42L198.85,62.87L197.63,61.65L197.02,62.83L194.57,66.45L193.96,66.71L192.74,69.36L192.13,71.03L189.69,75.52L189.08,75.5L185.42,83L184.81,83.13L183.58,82.27L182.97,80.75L181.75,77.01L181.14,77.43L180.53,78.13L178.7,78.76L178.09,78.74L176.87,77.56L176.26,76.39L175.04,75.19L174.43,74.85L173.21,73.84L172.59,72.71L168.32,62.75L167.71,62.66L164.66,62.47L164.05,62.83L160.38,64.73L159.77,64.87L158.55,64.52L157.94,63.85L156.11,62.98L155.5,63.18L153.06,63.49L152.45,63.23L150.61,62.12L150,61.3L146.95,58.42L146.34,58.63L142.07,61.05L141.46,60.87L139.01,58.82L138.4,61.41L135.96,71.33L135.35,71.79L134.13,71.29L133.52,70.83L131.69,68.81L131.08,66.12L128.02,61.37L127.41,60.62L125.58,58.75L124.97,59.17L121.92,61.01L121.31,61.61L119.48,61.48L118.87,61.36L116.42,61.87L115.81,62.19L113.98,63.5L113.37,64.58L111.54,70.37L110.93,72.7L106.04,88.27L105.43,88.25L103.6,88.82L102.99,87.92L101.16,87.28L100.55,86.48L98.72,87.31L98.11,86.93L95.66,86.16L95.05,86.27L92.61,86.68L92,87.35L90.78,89.07L90.17,89.18L86.51,89.89L85.9,90.79L85.29,91.47L84.67,90.86L83.45,90.77L82.84,90.7L81.01,88.82L80.4,88.95L77.96,88.48L77.35,86.95L74.3,78.39L73.68,81.34L70.63,91.65L70.02,92.2L68.8,93.42L68.19,92.75L65.75,89.88L65.14,89.91L63.31,88.79L62.69,87.98L62.08,87.3L61.47,87.88L59.03,91.38L58.42,90.48L57.2,89.38L56.59,89.4L54.76,88.53L54.15,88.19L51.7,88.3L51.09,88.91L49.87,89.61L49.26,89.12L46.82,86.93L46.21,87.99L44.38,85.26L43.77,85.28L42.55,87.09L41.94,88.82L39.49,93.46L38.88,93.89L35.83,92.55L35.22,92.13L32.17,91.93L31.56,91.49L29.72,91.53L29.11,91.58L27.89,90.39L27.28,90.33L26.06,91.06L25.45,90.51L24.23,90.13L23.62,91.13L21.79,91.8L21.18,91.39L18.73,90.39L18.12,90.95L16.9,92.7L16.29,90.96L14.46,86.8L13.85,84.83Z" style="fill: rgb(205, 20, 20); fill-opacity: 0.3; stroke-width: 0;"/></g></g><g class="errorbars"/><g class="lines"><path class="js-line" d="M13.85,57.42L15.68,75.41L16.29,76.64L16.9,77.65L17.51,74.31L20.57,65.1L21.18,64.08L25.45,57.46L26.06,56.3L28.5,53.02L29.11,52.32L36.44,41.41L37.05,39.95L40.71,30.82L41.33,31.38L44.99,35.64L45.6,35.54L47.43,33.8L48.04,32.92L50.48,30.22L51.09,30.16L52.32,31.58L52.93,33.17L55.37,40.94L55.98,39.44L57.81,37.15L58.42,36.74L60.25,34.25L60.86,34.06L62.69,35.25L63.31,35.81L65.75,36.65L66.36,36.16L68.19,33.05L68.8,31.66L71.24,28.33L71.85,28.15L72.46,28.18L73.07,29.2L75.52,32.96L76.13,33.13L77.96,32.42L78.57,31.89L81.62,29.92L82.23,30.17L84.67,32.79L85.29,33.58L85.9,33.64L86.51,32.59L88.34,30.46L88.95,30.59L91.39,31.66L92,30.51L95.05,26.18L95.66,25.82L96.89,25.63L97.5,26.02L99.33,26.62L99.94,26.52L100.55,26.86L101.16,28.2L102.99,28.91L103.6,28.54L105.43,25.98L106.04,24.56L106.65,23.97L107.27,26.19L109.1,30.91L109.71,31.72L112.15,33.76L112.76,33.09L114.59,29.86L115.2,30.11L117.64,32.93L118.26,32.59L120.09,36.6L120.7,35.75L123.14,31.42L123.75,32.73L125.58,36.8L126.19,32.87L128.02,27.44L128.63,26.52L130.47,27.25L131.08,28.28L132.91,30.88L133.52,29.67L135.35,28.41L135.96,28.28L137.18,28.82L137.79,29.36L140.24,30.97L140.85,30.76L142.68,27.15L143.29,26.63L145.12,27.23L145.73,25.34L148.17,26.67L148.78,27.05L152.45,24.15L153.06,24.78L156.11,26.92L156.72,27.16L160.99,26.99L161.6,26.77L162.22,26.55L162.83,27.18L165.88,33.02L166.49,34.12L168.32,35.79L168.93,35.51L171.37,33.49L171.98,34.28L174.43,37.88L175.04,38.13L176.26,38.04L176.87,36.99L178.09,36.06L178.7,37.3L180.53,43.12L181.14,42.82L182.97,39.09L183.58,37.39L187.25,33L187.86,32.39L189.69,31.78L190.3,32.02L191.52,33.5L192.13,34.49L193.35,35.7L193.96,35.64L197.02,31.86L197.63,30.7L199.46,28.68L200.07,28.6L203.73,31.79L204.34,31.09L207.4,28.2L208.01,27.63L209.23,26.35L209.84,26L212.28,23.47L212.89,23.13L214.72,23.22L215.33,23.37L215.94,23.68L216.55,24.97L219,25.01L219.61,24.23L221.44,22.46L222.05,22.48L224.49,18.28L225.1,18.52L228.77,22.96L229.38,25.29L230.6,28.41L231.21,28.66L233.65,30.99L234.26,30.16L236.09,25.62L236.7,23.47L237.92,21.09L238.53,20.88L240.37,22.17L240.98,22.78L245.25,26.61L245.86,26.37L248.3,23.77L248.91,22.7L250.14,22.65L250.75,22.08L252.58,21.95L253.19,22.44L256.24,27.35L256.85,23.87L257.46,22.55L258.07,23.19L259.9,25.18L260.51,25.14L263.57,21.83L264.18,22.89L266.01,25.13L266.62,25.31L269.67,27.6L270.28,27.7L272.12,27.1L272.73,26.49L274.56,25.17L275.17,32.02L277,41.58L277,65.62L275.78,80.05L275.17,79.4L274.56,78.37L272.73,74.97L272.12,74.92L269.67,75.49L269.06,75.71L263.57,76.35L262.96,76.67L258.68,87.47L258.07,87.67L256.85,84.59L256.24,82.77L252.58,70.78L251.97,70.22L247.08,70.59L246.47,71.67L244.64,72.95L244.03,72.8L242.2,70.76L241.59,69.75L239.15,64.07L238.53,61.79L235.48,49.17L234.87,48.29L233.04,45.18L232.43,45.82L231.21,46.11L230.6,45.66L229.99,45.82L229.38,47.4L226.32,52.9L225.71,53.42L223.88,52.29L223.27,51.87L218.39,50.44L217.78,49.49L214.11,41.09L213.5,42.77L209.23,53.79L208.62,54.87L204.34,59.83L203.73,61.14L201.9,63.96L201.29,64.2L199.46,63.42L198.85,62.87L197.63,61.65L197.02,62.83L194.57,66.45L193.96,66.71L192.74,69.36L192.13,71.03L189.69,75.52L189.08,75.5L185.42,83L184.81,83.13L183.58,82.27L182.97,80.75L181.75,77.01L181.14,77.43L180.53,78.13L178.7,78.76L178.09,78.74L176.87,77.56L176.26,76.39L175.04,75.19L174.43,74.85L173.21,73.84L172.59,72.71L168.32,62.75L167.71,62.66L164.66,62.47L164.05,62.83L160.38,64.73L159.77,64.87L158.55,64.52L157.94,63.85L156.11,62.98L155.5,63.18L153.06,63.49L152.45,63.23L150.61,62.12L150,61.3L146.95,58.42L146.34,58.63L142.07,61.05L141.46,60.87L139.01,58.82L138.4,61.41L135.96,71.33L135.35,71.79L134.13,71.29L133.52,70.83L131.69,68.81L131.08,66.12L128.02,61.37L127.41,60.62L125.58,58.75L124.97,59.17L121.92,61.01L121.31,61.61L119.48,61.48L118.87,61.36L116.42,61.87L115.81,62.19L113.98,63.5L113.37,64.58L111.54,70.37L110.93,72.7L106.04,88.27L105.43,88.25L103.6,88.82L102.99,87.92L101.16,87.28L100.55,86.48L98.72,87.31L98.11,86.93L95.66,86.16L95.05,86.27L92.61,86.68L92,87.35L90.78,89.07L90.17,89.18L86.51,89.89L85.9,90.79L85.29,91.47L84.67,90.86L83.45,90.77L82.84,90.7L81.01,88.82L80.4,88.95L77.96,88.48L77.35,86.95L74.3,78.39L73.68,81.34L70.63,91.65L70.02,92.2L68.8,93.42L68.19,92.75L65.75,89.88L65.14,89.91L63.31,88.79L62.69,87.98L62.08,87.3L61.47,87.88L59.03,91.38L58.42,90.48L57.2,89.38L56.59,89.4L54.76,88.53L54.15,88.19L51.7,88.3L51.09,88.91L49.87,89.61L49.26,89.12L46.82,86.93L46.21,87.99L44.38,85.26L43.77,85.28L42.55,87.09L41.94,88.82L39.49,93.46L38.88,93.89L35.83,92.55L35.22,92.13L32.17,91.93L31.56,91.49L29.72,91.53L29.11,91.58L27.89,90.39L27.28,90.33L26.06,91.06L25.45,90.51L24.23,90.13L23.62,91.13L21.79,91.8L21.18,91.39L18.73,90.39L18.12,90.95L16.9,92.7L16.29,90.96L14.46,86.8L13.85,84.83" style="vector-effect: none; fill: none; stroke: rgb(0, 0, 0); stroke-opacity: 0; stroke-width: 2px; opacity: 1;"/></g><g class="points"/><g class="text"/></g></g></g></g><path class="xlines-above crisp" d="M0,0" style="fill: none;"/><path class="ylines-above crisp" d="M0,0" style="fill: none;"/><g class="overlines-above"/><g class="xaxislayer-above"><g class="x2tick"><text text-anchor="middle" x="0" y="167.39999999999998" transform="translate(104.97999999999999,0)" style="font-family: 'Open Sans', verdana, arial, sans-serif; font-size: 12px; fill: rgb(42, 63, 95); fill-opacity: 1; white-space: pre; opacity: 1;">−100</text></g><g class="x2tick"><text text-anchor="middle" x="0" y="167.39999999999998" style="font-family: 'Open Sans', verdana, arial, sans-serif; font-size: 12px; fill: rgb(42, 63, 95); fill-opacity: 1; white-space: pre; opacity: 1;" transform="translate(166.03,0)">0</text></g><g class="x2tick"><text text-anchor="middle" x="0" y="167.39999999999998" style="font-family: 'Open Sans', verdana, arial, sans-serif; font-size: 12px; fill: rgb(42, 63, 95); fill-opacity: 1; white-space: pre; opacity: 1;" transform="translate(227.09,0)">100</text></g><g class="x2tick"><text text-anchor="middle" x="0" y="167.39999999999998" style="font-family: 'Open Sans', verdana, arial, sans-serif; font-size: 12px; fill: rgb(42, 63, 95); fill-opacity: 1; white-space: pre; opacity: 1;" transform="translate(288.15,0)">200</text></g></g><g class="yaxislayer-above"><g class="y2tick"><text text-anchor="end" x="48" y="4.199999999999999" transform="translate(0,154.4)" style="font-family: 'Open Sans', verdana, arial, sans-serif; font-size: 12px; fill: rgb(42, 63, 95); fill-opacity: 1; white-space: pre; opacity: 1;">0</text></g><g class="y2tick"><text text-anchor="end" x="48" y="4.199999999999999" style="font-family: 'Open Sans', verdana, arial, sans-serif; font-size: 12px; fill: rgb(42, 63, 95); fill-opacity: 1; white-space: pre; opacity: 1;" transform="translate(0,114.19)">50</text></g><g class="y2tick"><text text-anchor="end" x="48" y="4.199999999999999" style="font-family: 'Open Sans', verdana, arial, sans-serif; font-size: 12px; fill: rgb(42, 63, 95); fill-opacity: 1; white-space: pre; opacity: 1;" transform="translate(0,73.98)">100</text></g></g><g class="overaxes-above"/></g><g class="subplot xyz2"><g class="overplot"><g class="xyz2" transform="translate(49,0)" clip-path="url(#clipb69fcaxyz2plot)"><g class="scatterlayer2 mlayer"><g class="trace scatter trace05afc1" style="stroke-miterlimit: 2; opacity: 1;"><g class="fills"/><g class="errorbars"/><g class="lines"><path class="js-line" d="M13.85,0L277,0" style="vector-effect: none; fill: none; stroke: rgb(0, 0, 0); stroke-opacity: 1; stroke-width: 1px; opacity: 1;"/><path class="js-line" d="M13.85,28.95L277,28.95" style="vector-effect: none; fill: none; stroke: rgb(0, 0, 0); stroke-opacity: 1; stroke-width: 1px; opacity: 1;"/><path class="js-line" d="M13.85,57.9L277,57.9" style="vector-effect: none; fill: none; stroke: rgb(0, 0, 0); stroke-opacity: 1; stroke-width: 1px; opacity: 1;"/></g><g class="points"/><g class="text"/></g></g></g></g></g><g class="subplot x2y2z2"><g class="overplot"><g class="x2y2z2" transform="translate(49,57.900000000000006)" clip-path="url(#clipb69fcax2y2z2plot)"/></g></g></g><g class="polarlayer"/><g class="smithlayer"/><g class="ternarylayer"/><g class="geolayer"/><g class="funnelarealayer"/><g class="pielayer"/><g class="iciclelayer"/><g class="treemaplayer"/><g class="sunburstlayer"/><g class="glimages"/><defs id="topdefs-b69fca"><g class="clips"/><clipPath id="legendb69fca"><rect width="108" height="124" x="0" y="0"/></clipPath></defs><g class="layer-above"><g class="imagelayer"/><g class="shapelayer"/></g><g class="infolayer"><g class="legend" pointer-events="all" transform="translate(331.54,0)"><rect class="bg" shape-rendering="crispEdges" style="stroke: rgb(68, 68, 68); stroke-opacity: 1; fill: rgb(255, 255, 255); fill-opacity: 1; stroke-width: 0px;" width="108" height="124" x="0" y="0"/><g class="scrollbox" transform="" clip-path="url(#legendb69fca)"><g class="groups"><g class="traces" transform="translate(0,14.5)" style="opacity: 1;"><text class="legendtext" text-anchor="start" x="40" y="4.680000000000001" style="font-family: 'Open Sans', verdana, arial, sans-serif; font-size: 12px; fill: rgb(42, 63, 95); fill-opacity: 1; white-space: pre;">1 R</text><g class="layers" style="opacity: 1;"><g class="legendfill"/><g class="legendlines"><path class="js-line" d="M5,0h30" style="fill: none; stroke: rgb(64, 202, 114); stroke-opacity: 1; stroke-width: 2px;"/></g><g class="legendsymbols"><g class="legendpoints"/></g></g><rect class="legendtoggle" x="0" y="-9.5" width="102.171875" height="19" style="fill: rgb(0, 0, 0); fill-opacity: 0;"/></g><g class="traces" transform="translate(0,33.5)" style="opacity: 1;"><text class="legendtext" text-anchor="start" x="40" y="4.680000000000001" style="font-family: 'Open Sans', verdana, arial, sans-serif; font-size: 12px; fill: rgb(42, 63, 95); fill-opacity: 1; white-space: pre;">80th perc.</text><g class="layers" style="opacity: 1;"><g class="legendfill"><path class="js-fill" d="M5,-2h30v6h-30z" style="stroke-width: 0; fill: rgb(64, 202, 114); fill-opacity: 0.3;"/></g><g class="legendlines"><path class="js-line" d="M5,-2h30" style="fill: none; stroke: rgb(0, 0, 0); stroke-opacity: 0; stroke-width: 2px;"/></g><g class="legendsymbols"><g class="legendpoints"/></g></g><rect class="legendtoggle" x="0" y="-9.5" width="102.171875" height="19" style="fill: rgb(0, 0, 0); fill-opacity: 0;"/></g><g class="traces" transform="translate(0,52.5)" style="opacity: 1;"><text class="legendtext" text-anchor="start" x="40" y="4.680000000000001" style="font-family: 'Open Sans', verdana, arial, sans-serif; font-size: 12px; fill: rgb(42, 63, 95); fill-opacity: 1; white-space: pre;">1+ R</text><g class="layers" style="opacity: 1;"><g class="legendfill"/><g class="legendlines"><path class="js-line" d="M5,0h30" style="fill: none; stroke: rgb(44, 222, 110); stroke-opacity: 1; stroke-width: 2px;"/></g><g class="legendsymbols"><g class="legendpoints"/></g></g><rect class="legendtoggle" x="0" y="-9.5" width="102.171875" height="19" style="fill: rgb(0, 0, 0); fill-opacity: 0;"/></g><g class="traces" transform="translate(0,71.5)" style="opacity: 1;"><text class="legendtext" text-anchor="start" x="40" y="4.680000000000001" style="font-family: 'Open Sans', verdana, arial, sans-serif; font-size: 12px; fill: rgb(42, 63, 95); fill-opacity: 1; white-space: pre;">80th perc.</text><g class="layers" style="opacity: 1;"><g class="legendfill"><path class="js-fill" d="M5,-2h30v6h-30z" style="stroke-width: 0; fill: rgb(44, 222, 110); fill-opacity: 0.3;"/></g><g class="legendlines"><path class="js-line" d="M5,-2h30" style="fill: none; stroke: rgb(0, 0, 0); stroke-opacity: 0; stroke-width: 2px;"/></g><g class="legendsymbols"><g class="legendpoints"/></g></g><rect class="legendtoggle" x="0" y="-9.5" width="102.171875" height="19" style="fill: rgb(0, 0, 0); fill-opacity: 0;"/></g><g class="traces" transform="translate(0,90.5)" style="opacity: 1;"><text class="legendtext" text-anchor="start" x="40" y="4.680000000000001" style="font-family: 'Open Sans', verdana, arial, sans-serif; font-size: 12px; fill: rgb(42, 63, 95); fill-opacity: 1; white-space: pre;">no R</text><g class="layers" style="opacity: 1;"><g class="legendfill"/><g class="legendlines"><path class="js-line" d="M5,0h30" style="fill: none; stroke: rgb(205, 20, 20); stroke-opacity: 1; stroke-width: 2px;"/></g><g class="legendsymbols"><g class="legendpoints"/></g></g><rect class="legendtoggle" x="0" y="-9.5" width="102.171875" height="19" style="fill: rgb(0, 0, 0); fill-opacity: 0;"/></g><g class="traces" transform="translate(0,109.5)" style="opacity: 1;"><text class="legendtext" text-anchor="start" x="40" y="4.680000000000001" style="font-family: 'Open Sans', verdana, arial, sans-serif; font-size: 12px; fill: rgb(42, 63, 95); fill-opacity: 1; white-space: pre;">80th perc.</text><g class="layers" style="opacity: 1;"><g class="legendfill"><path class="js-fill" d="M5,-2h30v6h-30z" style="stroke-width: 0; fill: rgb(205, 20, 20); fill-opacity: 0.3;"/></g><g class="legendlines"><path class="js-line" d="M5,-2h30" style="fill: none; stroke: rgb(0, 0, 0); stroke-opacity: 0; stroke-width: 2px;"/></g><g class="legendsymbols"><g class="legendpoints"/></g></g><rect class="legendtoggle" x="0" y="-9.5" width="102.171875" height="19" style="fill: rgb(0, 0, 0); fill-opacity: 0;"/></g></g></g><rect class="scrollbar" rx="20" ry="3" width="0" height="0" style="fill: rgb(128, 139, 164); fill-opacity: 1;" x="0" y="0"/></g><g class="g-gtitle"/><g class="g-xtitle"/><g class="g-x2title"><text class="x2title" x="187.5" y="194.70625" text-anchor="middle" style="opacity: 1; font-family: 'Open Sans', verdana, arial, sans-serif; font-size: 14px; fill: rgb(42, 63, 95); fill-opacity: 1; white-space: pre;">Position [cm]</text></g><g class="g-ytitle"/><g class="g-y2title" transform="translate(8.2998046875,0)"><text class="y2title" transform="rotate(-90,5.709375000000001,106.15)" x="5.709375000000001" y="106.15" text-anchor="middle" style="opacity: 1; font-family: 'Open Sans', verdana, arial, sans-serif; font-size: 14px; fill: rgb(42, 63, 95); fill-opacity: 1; white-space: pre;">Velocity [cm/s]</text></g></g></svg>